<svg width="253" height="250" viewBox="0 0 253 250" fill="none" xmlns="http://www.w3.org/2000/svg">
<g clip-path="url(#clip0_106_266)">
<rect width="253" height="250" rx="47" fill="#FFC7B2"/>
<path d="M61.08 67.48C58.5467 67.48 56.36 66.8667 54.52 65.64C52.68 64.4133 51.2667 62.72 50.28 60.56C49.32 58.3733 48.84 55.8533 48.84 53C48.84 50.1467 49.32 47.64 50.28 45.48C51.2667 43.2933 52.6667 41.5867 54.48 40.36C56.32 39.1333 58.52 38.52 61.08 38.52C63.64 38.52 65.8267 39.1333 67.64 40.36C69.48 41.5867 70.88 43.2933 71.84 45.48C72.8267 47.64 73.32 50.1467 73.32 53C73.32 55.8533 72.8267 58.3733 71.84 60.56C70.88 62.72 69.48 64.4133 67.64 65.64C65.8267 66.8667 63.64 67.48 61.08 67.48ZM61.08 62.64C62.4133 62.64 63.5867 62.2533 64.6 61.48C65.6133 60.68 66.4 59.56 66.96 58.12C67.5467 56.68 67.84 54.9733 67.84 53C67.84 51 67.5467 49.2933 66.96 47.88C66.4 46.44 65.6133 45.3333 64.6 44.56C63.5867 43.7867 62.4133 43.4 61.08 43.4C59.7467 43.4 58.5733 43.7867 57.56 44.56C56.5467 45.3333 55.7467 46.44 55.16 47.88C54.6 49.2933 54.32 51 54.32 53C54.32 54.9733 54.6 56.68 55.16 58.12C55.7467 59.56 56.5467 60.68 57.56 61.48C58.5733 62.2533 59.7467 62.64 61.08 62.64ZM80.2441 67L95.9641 39H101.204L85.4841 67H80.2441ZM100.244 67.48C98.9374 67.48 97.7507 67.2 96.6841 66.64C95.6441 66.0533 94.8174 65.2267 94.2041 64.16C93.5907 63.0667 93.2841 61.7867 93.2841 60.32C93.2841 58.8267 93.5907 57.5467 94.2041 56.48C94.8174 55.4133 95.6441 54.6 96.6841 54.04C97.7507 53.4533 98.9374 53.16 100.244 53.16C101.551 53.16 102.724 53.4533 103.764 54.04C104.804 54.6 105.631 55.4133 106.244 56.48C106.857 57.5467 107.164 58.8267 107.164 60.32C107.164 61.7867 106.857 63.0667 106.244 64.16C105.631 65.2267 104.804 66.0533 103.764 66.64C102.724 67.2 101.551 67.48 100.244 67.48ZM100.204 63.76C100.737 63.76 101.204 63.6267 101.604 63.36C102.004 63.0933 102.324 62.7067 102.564 62.2C102.804 61.6933 102.924 61.0667 102.924 60.32C102.924 59.5467 102.804 58.9067 102.564 58.4C102.351 57.8667 102.031 57.4667 101.604 57.2C101.204 56.9333 100.737 56.8 100.204 56.8C99.6974 56.8 99.2307 56.9333 98.8041 57.2C98.4041 57.4667 98.0841 57.8667 97.8441 58.4C97.6041 58.9067 97.4841 59.5467 97.4841 60.32C97.4841 61.0667 97.6041 61.6933 97.8441 62.2C98.0841 62.7067 98.4041 63.0933 98.8041 63.36C99.2307 63.6267 99.6974 63.76 100.204 63.76ZM81.4041 52.88C80.1241 52.88 78.9507 52.5867 77.8841 52C76.8441 51.4133 76.0041 50.5867 75.3641 49.52C74.7507 48.4533 74.4441 47.1867 74.4441 45.72C74.4441 44.2 74.7507 42.92 75.3641 41.88C76.0041 40.8133 76.8441 39.9867 77.8841 39.4C78.9507 38.8133 80.1374 38.52 81.4441 38.52C82.7507 38.52 83.9107 38.8133 84.9241 39.4C85.9641 39.9867 86.7907 40.8133 87.4041 41.88C88.0441 42.92 88.3641 44.2 88.3641 45.72C88.3641 47.1867 88.0441 48.4533 87.4041 49.52C86.7907 50.5867 85.9641 51.4133 84.9241 52C83.8841 52.5867 82.7107 52.88 81.4041 52.88ZM81.4041 49.16C81.9107 49.16 82.3641 49.0267 82.7641 48.76C83.1907 48.4933 83.5241 48.1067 83.7641 47.6C84.0041 47.0933 84.1241 46.4667 84.1241 45.72C84.1241 44.92 84.0041 44.2667 83.7641 43.76C83.5241 43.2533 83.1907 42.8667 82.7641 42.6C82.3641 42.3333 81.9107 42.2 81.4041 42.2C80.8974 42.2 80.4307 42.3333 80.0041 42.6C79.6041 42.8667 79.2841 43.2667 79.0441 43.8C78.8041 44.3067 78.6841 44.9467 78.6841 45.72C78.6841 46.4667 78.8041 47.0933 79.0441 47.6C79.2841 48.1067 79.6041 48.4933 80.0041 48.76C80.4307 49.0267 80.8974 49.16 81.4041 49.16ZM117.032 67V45.04C117.032 43.36 117.312 42.0267 117.872 41.04C118.432 40.0533 119.232 39.3333 120.272 38.88C121.339 38.4267 122.579 38.2 123.992 38.2H126.472V42.8H124.792C123.939 42.8 123.325 42.9733 122.952 43.32C122.605 43.64 122.432 44.2133 122.432 45.04V67H117.032ZM114.272 51.36V46.84H126.792V51.36H114.272ZM137.294 67.48C135.374 67.48 133.641 67.04 132.094 66.16C130.574 65.2533 129.361 64.0133 128.454 62.44C127.574 60.84 127.134 59.0133 127.134 56.96C127.134 54.8533 127.574 53.0133 128.454 51.44C129.361 49.84 130.588 48.6 132.134 47.72C133.681 46.8133 135.414 46.36 137.334 46.36C139.281 46.36 141.014 46.8133 142.534 47.72C144.081 48.6 145.294 49.84 146.174 51.44C147.081 53.0133 147.534 54.84 147.534 56.92C147.534 59 147.081 60.84 146.174 62.44C145.294 64.0133 144.081 65.2533 142.534 66.16C140.988 67.04 139.241 67.48 137.294 67.48ZM137.294 62.8C138.201 62.8 139.001 62.5867 139.694 62.16C140.414 61.7333 140.974 61.08 141.374 60.2C141.801 59.32 142.014 58.2267 142.014 56.92C142.014 55.6133 141.801 54.5333 141.374 53.68C140.974 52.8 140.414 52.1467 139.694 51.72C139.001 51.2667 138.214 51.04 137.334 51.04C136.481 51.04 135.694 51.2667 134.974 51.72C134.254 52.1467 133.681 52.8 133.254 53.68C132.854 54.5333 132.654 55.6133 132.654 56.92C132.654 58.2267 132.854 59.32 133.254 60.2C133.681 61.08 134.241 61.7333 134.934 62.16C135.654 62.5867 136.441 62.8 137.294 62.8ZM149.788 67V46.84H154.588L155.108 50.56C155.588 49.68 156.188 48.9333 156.908 48.32C157.655 47.7067 158.495 47.2267 159.428 46.88C160.388 46.5333 161.442 46.36 162.588 46.36V52.08H160.748C159.948 52.08 159.202 52.1733 158.508 52.36C157.842 52.5467 157.255 52.8533 156.748 53.28C156.242 53.68 155.855 54.24 155.588 54.96C155.322 55.68 155.188 56.5867 155.188 57.68V67H149.788ZM173.123 67.48C171.096 67.48 169.296 67.0533 167.723 66.2C166.176 65.32 164.963 64.1067 164.083 62.56C163.23 60.9867 162.803 59.1733 162.803 57.12C162.803 55.0133 163.23 53.16 164.083 51.56C164.963 49.9333 166.176 48.6667 167.723 47.76C169.27 46.8267 171.07 46.36 173.123 46.36C175.123 46.36 176.87 46.8 178.363 47.68C179.856 48.56 181.016 49.7467 181.843 51.24C182.67 52.7333 183.083 54.4267 183.083 56.32C183.083 56.5867 183.083 56.8933 183.083 57.24C183.083 57.56 183.056 57.8933 183.003 58.24H166.643V54.96H177.643C177.563 53.6533 177.096 52.6267 176.243 51.88C175.416 51.1333 174.376 50.76 173.123 50.76C172.216 50.76 171.376 50.9733 170.603 51.4C169.83 51.8 169.216 52.4267 168.763 53.28C168.336 54.1333 168.123 55.2133 168.123 56.52V57.68C168.123 58.7733 168.323 59.7333 168.723 60.56C169.15 61.36 169.736 61.9867 170.483 62.44C171.23 62.8667 172.096 63.08 173.083 63.08C174.07 63.08 174.883 62.8667 175.523 62.44C176.19 62.0133 176.683 61.4667 177.003 60.8H182.523C182.15 62.0533 181.523 63.1867 180.643 64.2C179.763 65.2133 178.683 66.0133 177.403 66.6C176.123 67.1867 174.696 67.48 173.123 67.48ZM181.78 67L189.02 56.92L181.78 46.84H187.62L192.46 53.76L197.3 46.84H203.1L195.86 56.92L203.1 67H197.3L192.46 60.04L187.62 67H181.78ZM59.4 108.48C57.3733 108.48 55.5733 108.027 54 107.12C52.4267 106.213 51.2 104.973 50.32 103.4C49.44 101.827 49 100.027 49 98C49 95.92 49.44 94.0933 50.32 92.52C51.2 90.92 52.4267 89.6667 54 88.76C55.5733 87.8267 57.3733 87.36 59.4 87.36C61.9867 87.36 64.16 88.04 65.92 89.4C67.68 90.76 68.8 92.6267 69.28 95H63.56C63.32 94.0667 62.8133 93.3333 62.04 92.8C61.2933 92.2667 60.4 92 59.36 92C58.4267 92 57.5867 92.24 56.84 92.72C56.12 93.1733 55.5467 93.8533 55.12 94.76C54.72 95.64 54.52 96.6933 54.52 97.92C54.52 98.8533 54.64 99.6933 54.88 100.44C55.12 101.16 55.4533 101.787 55.88 102.32C56.3067 102.827 56.8133 103.213 57.4 103.48C58.0133 103.747 58.6667 103.88 59.36 103.88C60.0533 103.88 60.68 103.76 61.24 103.52C61.8267 103.28 62.32 102.947 62.72 102.52C63.12 102.067 63.4 101.52 63.56 100.88H69.28C68.8 103.2 67.6667 105.053 65.88 106.44C64.12 107.8 61.96 108.48 59.4 108.48ZM71.5369 108V79.2H76.9369V90.84C77.6035 89.7733 78.4835 88.9333 79.5769 88.32C80.6969 87.68 81.9902 87.36 83.4569 87.36C85.1369 87.36 86.5502 87.72 87.6969 88.44C88.8435 89.1333 89.7102 90.1467 90.2969 91.48C90.8835 92.8133 91.1769 94.4667 91.1769 96.44V108H85.8169V96.92C85.8169 95.32 85.4835 94.0933 84.8169 93.24C84.1502 92.36 83.0969 91.92 81.6569 91.92C80.7769 91.92 79.9769 92.1333 79.2569 92.56C78.5369 92.9867 77.9635 93.6133 77.5369 94.44C77.1369 95.24 76.9369 96.2 76.9369 97.32V108H71.5369ZM100.663 108.48C98.9834 108.48 97.5968 108.213 96.5034 107.68C95.4101 107.12 94.5968 106.387 94.0634 105.48C93.5568 104.547 93.3034 103.52 93.3034 102.4C93.3034 101.173 93.6101 100.093 94.2234 99.16C94.8634 98.2267 95.8101 97.4933 97.0634 96.96C98.3434 96.4267 99.9434 96.16 101.863 96.16H106.863C106.863 95.1733 106.73 94.36 106.463 93.72C106.197 93.0533 105.783 92.56 105.223 92.24C104.663 91.92 103.917 91.76 102.983 91.76C101.97 91.76 101.103 91.9867 100.383 92.44C99.6901 92.8667 99.2634 93.5333 99.1034 94.44H93.8634C93.9968 93 94.4634 91.76 95.2634 90.72C96.0901 89.6533 97.1701 88.8267 98.5034 88.24C99.8634 87.6533 101.37 87.36 103.023 87.36C104.917 87.36 106.557 87.68 107.943 88.32C109.33 88.96 110.397 89.88 111.143 91.08C111.89 92.28 112.263 93.76 112.263 95.52V108H107.703L107.103 104.92C106.81 105.453 106.463 105.933 106.063 106.36C105.663 106.787 105.197 107.16 104.663 107.48C104.13 107.8 103.53 108.04 102.863 108.2C102.197 108.387 101.463 108.48 100.663 108.48ZM101.943 104.32C102.637 104.32 103.25 104.2 103.783 103.96C104.343 103.693 104.823 103.347 105.223 102.92C105.623 102.467 105.93 101.96 106.143 101.4C106.383 100.813 106.543 100.187 106.623 99.52V99.48H102.503C101.677 99.48 100.997 99.5867 100.463 99.8C99.9568 99.9867 99.5834 100.267 99.3434 100.64C99.1034 101.013 98.9834 101.44 98.9834 101.92C98.9834 102.453 99.1034 102.893 99.3434 103.24C99.5834 103.587 99.9301 103.853 100.383 104.04C100.837 104.227 101.357 104.32 101.943 104.32ZM114.901 108V87.84H119.701L120.221 91.56C120.701 90.68 121.301 89.9333 122.021 89.32C122.768 88.7067 123.608 88.2267 124.541 87.88C125.501 87.5333 126.554 87.36 127.701 87.36V93.08H125.861C125.061 93.08 124.314 93.1733 123.621 93.36C122.954 93.5467 122.368 93.8533 121.861 94.28C121.354 94.68 120.968 95.24 120.701 95.96C120.434 96.68 120.301 97.5867 120.301 98.68V108H114.901ZM137.079 117.28C135.159 117.28 133.479 117.04 132.039 116.56C130.599 116.107 129.479 115.4 128.679 114.44C127.906 113.507 127.519 112.347 127.519 110.96C127.519 110.027 127.759 109.147 128.239 108.32C128.719 107.493 129.413 106.747 130.319 106.08C131.253 105.387 132.413 104.8 133.799 104.32L135.839 106.96C134.613 107.36 133.719 107.853 133.159 108.44C132.626 109.053 132.359 109.707 132.359 110.4C132.359 111.013 132.559 111.533 132.959 111.96C133.386 112.387 133.946 112.693 134.639 112.88C135.359 113.093 136.159 113.2 137.039 113.2C137.893 113.2 138.626 113.093 139.239 112.88C139.879 112.667 140.373 112.347 140.719 111.92C141.093 111.52 141.279 111.04 141.279 110.48C141.279 109.76 141.026 109.173 140.519 108.72C140.013 108.267 138.999 107.987 137.479 107.88C136.119 107.773 134.906 107.627 133.839 107.44C132.799 107.227 131.879 106.987 131.079 106.72C130.279 106.427 129.599 106.107 129.039 105.76C128.506 105.413 128.066 105.067 127.719 104.72V103.8L131.999 99.2L135.879 100.44L130.839 105.4L132.359 102.76C132.653 102.92 132.933 103.08 133.199 103.24C133.493 103.373 133.853 103.507 134.279 103.64C134.706 103.747 135.266 103.853 135.959 103.96C136.653 104.067 137.533 104.16 138.599 104.24C140.359 104.4 141.799 104.733 142.919 105.24C144.066 105.747 144.906 106.427 145.439 107.28C145.973 108.107 146.239 109.133 146.239 110.36C146.239 111.56 145.906 112.68 145.239 113.72C144.599 114.787 143.599 115.64 142.239 116.28C140.879 116.947 139.159 117.28 137.079 117.28ZM137.079 102.04C135.399 102.04 133.946 101.72 132.719 101.08C131.519 100.413 130.586 99.5333 129.919 98.44C129.279 97.32 128.959 96.08 128.959 94.72C128.959 93.36 129.279 92.1333 129.919 91.04C130.586 89.92 131.519 89.0267 132.719 88.36C133.946 87.6933 135.399 87.36 137.079 87.36C138.786 87.36 140.239 87.6933 141.439 88.36C142.666 89.0267 143.599 89.92 144.239 91.04C144.879 92.1333 145.199 93.36 145.199 94.72C145.199 96.08 144.879 97.32 144.239 98.44C143.599 99.5333 142.666 100.413 141.439 101.08C140.239 101.72 138.786 102.04 137.079 102.04ZM137.079 97.92C138.119 97.92 138.959 97.6533 139.599 97.12C140.239 96.5867 140.559 95.8 140.559 94.76C140.559 93.72 140.239 92.9333 139.599 92.4C138.959 91.84 138.119 91.56 137.079 91.56C136.066 91.56 135.226 91.84 134.559 92.4C133.919 92.9333 133.599 93.72 133.599 94.76C133.599 95.8 133.919 96.5867 134.559 97.12C135.226 97.6533 136.066 97.92 137.079 97.92ZM140.439 91.68L139.559 87.84H147.839V91.04L140.439 91.68ZM158.726 108.48C156.7 108.48 154.9 108.053 153.326 107.2C151.78 106.32 150.566 105.107 149.686 103.56C148.833 101.987 148.406 100.173 148.406 98.12C148.406 96.0133 148.833 94.16 149.686 92.56C150.566 90.9333 151.78 89.6667 153.326 88.76C154.873 87.8267 156.673 87.36 158.726 87.36C160.726 87.36 162.473 87.8 163.966 88.68C165.46 89.56 166.62 90.7467 167.446 92.24C168.273 93.7333 168.686 95.4267 168.686 97.32C168.686 97.5867 168.686 97.8933 168.686 98.24C168.686 98.56 168.66 98.8933 168.606 99.24H152.246V95.96H163.246C163.166 94.6533 162.7 93.6267 161.846 92.88C161.02 92.1333 159.98 91.76 158.726 91.76C157.82 91.76 156.98 91.9733 156.206 92.4C155.433 92.8 154.82 93.4267 154.366 94.28C153.94 95.1333 153.726 96.2133 153.726 97.52V98.68C153.726 99.7733 153.926 100.733 154.326 101.56C154.753 102.36 155.34 102.987 156.086 103.44C156.833 103.867 157.7 104.08 158.686 104.08C159.673 104.08 160.486 103.867 161.126 103.44C161.793 103.013 162.286 102.467 162.606 101.8H168.126C167.753 103.053 167.126 104.187 166.246 105.2C165.366 106.213 164.286 107.013 163.006 107.6C161.726 108.187 160.3 108.48 158.726 108.48ZM178.949 108.48C177.109 108.48 175.509 108.187 174.149 107.6C172.789 107.013 171.722 106.2 170.949 105.16C170.175 104.12 169.735 102.947 169.629 101.64H174.989C175.122 102.147 175.349 102.613 175.669 103.04C175.989 103.44 176.415 103.76 176.949 104C177.482 104.24 178.122 104.36 178.869 104.36C179.589 104.36 180.175 104.267 180.629 104.08C181.082 103.867 181.415 103.587 181.629 103.24C181.869 102.893 181.989 102.533 181.989 102.16C181.989 101.6 181.829 101.173 181.509 100.88C181.189 100.56 180.722 100.307 180.109 100.12C179.495 99.9333 178.749 99.7467 177.869 99.56C176.909 99.3733 175.962 99.1467 175.029 98.88C174.122 98.5867 173.309 98.2267 172.589 97.8C171.869 97.3733 171.295 96.8267 170.869 96.16C170.442 95.4933 170.229 94.6667 170.229 93.68C170.229 92.48 170.549 91.4133 171.189 90.48C171.829 89.52 172.762 88.76 173.989 88.2C175.215 87.64 176.695 87.36 178.429 87.36C180.855 87.36 182.775 87.9067 184.189 89C185.602 90.0933 186.442 91.6 186.709 93.52H181.629C181.469 92.9067 181.109 92.4267 180.549 92.08C180.015 91.7067 179.295 91.52 178.389 91.52C177.429 91.52 176.695 91.6933 176.189 92.04C175.682 92.3867 175.429 92.84 175.429 93.4C175.429 93.7733 175.589 94.1067 175.909 94.4C176.255 94.6933 176.735 94.9467 177.349 95.16C177.962 95.3467 178.709 95.5333 179.589 95.72C181.135 96.04 182.495 96.4133 183.669 96.84C184.842 97.24 185.762 97.8267 186.429 98.6C187.095 99.3467 187.429 100.44 187.429 101.88C187.429 103.16 187.082 104.307 186.389 105.32C185.695 106.307 184.709 107.08 183.429 107.64C182.175 108.2 180.682 108.48 178.949 108.48Z" fill="black"/>
<g clip-path="url(#clip1_106_266)">
<path d="M173.56 97.531C165.617 100.605 158.625 105.72 153.292 112.36C147.958 119 144.471 126.93 143.183 135.349C136.733 129.787 128.929 126.025 120.56 124.443C112.192 122.862 103.554 123.517 95.5187 126.342C82.9877 131.597 73.0457 141.597 67.8648 154.159C62.6839 166.721 62.6852 180.823 67.8685 193.384C85.6133 241.45 183.837 268.27 188.013 269.405L193.185 270.793L196.214 266.377C198.656 262.815 255.885 178.59 238.14 130.524C233.918 117.608 224.756 106.888 212.656 100.706C200.555 94.5243 186.499 93.3828 173.56 97.531ZM186.736 253.326C157.293 244.606 93.789 219.922 82.0578 188.145C78.2589 179.348 78.0928 169.405 81.5957 160.485C85.0987 151.565 91.9866 144.392 100.757 140.531C109.933 137.767 119.829 138.744 128.288 143.247C136.746 147.751 143.081 155.417 145.91 164.573L160.099 159.334C156.3 150.537 156.134 140.594 159.637 131.674C163.14 122.754 170.028 115.582 178.798 111.72C187.974 108.956 197.87 109.933 206.329 114.437C214.787 118.941 221.122 126.606 223.951 135.762C235.687 167.553 203.451 227.566 186.736 253.326Z" fill="black" fill-opacity="0.067"/>
</g>
</g>
<rect x="1" y="1" width="251" height="248" rx="46" stroke="black" stroke-width="2"/>
<defs>
<clipPath id="clip0_106_266">
<rect width="253" height="250" rx="47" fill="white"/>
</clipPath>
<clipPath id="clip1_106_266">
<rect width="181.504" height="181.504" fill="white" transform="translate(47 136.86) rotate(-20.2628)"/>
</clipPath>
</defs>
</svg>
