<svg width="471" height="250" viewBox="0 0 471 250" fill="none" xmlns="http://www.w3.org/2000/svg">
<g clip-path="url(#clip0_106_272)">
<rect width="471" height="250" rx="47" fill="#FFE2F0"/>
<g clip-path="url(#clip1_106_272)">
<path d="M37.8007 42.082L19.5307 12.2387L72.0307 -19.833L90.3007 9.95199L37.8007 42.082ZM266.467 185.64L234.069 238.14L263.854 256.527L296.252 204.027L266.467 185.64ZM260.914 151.504L206.186 240.252C203.205 245.281 199.109 249.558 194.214 252.754C189.319 255.95 183.755 257.979 177.952 258.685C176.292 258.894 174.621 258.999 172.947 259C167.879 259.003 162.861 258.003 158.181 256.056C153.502 254.11 149.254 251.256 145.682 247.66L133.024 235.025C123.745 243.275 111.663 247.666 99.2526 247.301C86.8418 246.936 75.0397 241.841 66.2617 233.06C57.4836 224.279 52.3931 212.475 52.032 200.064C51.6709 187.653 56.0664 175.574 64.3191 166.297L28.339 130.294C24.287 126.238 21.1864 121.333 19.2613 115.932C17.3362 110.532 16.6346 104.772 17.2073 99.0674C17.78 93.3629 19.6126 87.8569 22.5727 82.9471C25.5329 78.0373 29.5466 73.8464 34.324 70.677L120.564 17.9203C137.121 7.31458 156.46 1.87829 176.118 2.30423C195.775 2.73017 214.861 8.99904 230.942 20.312L253.996 -2.75301L278.752 22.0037L255.699 45.0453C266.488 60.5062 272.699 78.6964 273.617 97.5273C274.535 116.358 270.124 135.066 260.891 151.504H260.914ZM219.847 56.4787C209.441 45.9778 195.746 39.3678 181.05 37.7539C166.355 36.14 151.551 39.62 139.114 47.612L53.1657 100.205C52.4907 100.804 52.0727 101.64 51.9991 102.539C51.9394 103.083 52.004 103.633 52.1879 104.148C52.3718 104.663 52.6702 105.13 53.0607 105.514L170.381 222.88C170.771 223.292 171.255 223.602 171.791 223.785C172.328 223.968 172.901 224.018 173.461 223.93C174.019 223.873 174.556 223.681 175.025 223.373C175.494 223.064 175.882 222.647 176.156 222.157L230.744 133.677C237.532 121.363 240.137 107.178 238.168 93.2553C236.199 79.333 229.761 66.4268 219.824 56.4787H219.847Z" fill="black" fill-opacity="0.067"/>
</g>
<path d="M92.1027 70L102.343 42H108.463L118.663 70H112.943L105.383 48.16L97.7827 70H92.1027ZM96.6227 63.64L98.0627 59.44H112.303L113.703 63.64H96.6227ZM119.822 70V41.2H125.222V70H119.822ZM137.766 70.48C135.739 70.48 133.939 70.0533 132.366 69.2C130.819 68.32 129.606 67.1067 128.726 65.56C127.873 63.9867 127.446 62.1733 127.446 60.12C127.446 58.0133 127.873 56.16 128.726 54.56C129.606 52.9333 130.819 51.6667 132.366 50.76C133.913 49.8267 135.713 49.36 137.766 49.36C139.766 49.36 141.513 49.8 143.006 50.68C144.499 51.56 145.659 52.7467 146.486 54.24C147.313 55.7333 147.726 57.4267 147.726 59.32C147.726 59.5867 147.726 59.8933 147.726 60.24C147.726 60.56 147.699 60.8933 147.646 61.24H131.286V57.96H142.286C142.206 56.6533 141.739 55.6267 140.886 54.88C140.059 54.1333 139.019 53.76 137.766 53.76C136.859 53.76 136.019 53.9733 135.246 54.4C134.473 54.8 133.859 55.4267 133.406 56.28C132.979 57.1333 132.766 58.2133 132.766 59.52V60.68C132.766 61.7733 132.966 62.7333 133.366 63.56C133.793 64.36 134.379 64.9867 135.126 65.44C135.873 65.8667 136.739 66.08 137.726 66.08C138.713 66.08 139.526 65.8667 140.166 65.44C140.833 65.0133 141.326 64.4667 141.646 63.8H147.166C146.793 65.0533 146.166 66.1867 145.286 67.2C144.406 68.2133 143.326 69.0133 142.046 69.6C140.766 70.1867 139.339 70.48 137.766 70.48ZM149.749 70V49.84H154.549L155.069 53.56C155.549 52.68 156.149 51.9333 156.869 51.32C157.615 50.7067 158.455 50.2267 159.389 49.88C160.349 49.5333 161.402 49.36 162.549 49.36V55.08H160.709C159.909 55.08 159.162 55.1733 158.469 55.36C157.802 55.5467 157.215 55.8533 156.709 56.28C156.202 56.68 155.815 57.24 155.549 57.96C155.282 58.68 155.149 59.5867 155.149 60.68V70H149.749ZM172.796 70C171.382 70 170.142 69.7867 169.076 69.36C168.036 68.9067 167.222 68.1733 166.636 67.16C166.049 66.12 165.756 64.7067 165.756 62.92V54.36H162.316V49.84H165.756L166.356 44.36H171.156V49.84H176.476V54.36H171.156V63C171.156 63.9067 171.356 64.5333 171.756 64.88C172.156 65.2267 172.836 65.4 173.796 65.4H176.436V70H172.796ZM186.86 70.48C185.02 70.48 183.42 70.1867 182.06 69.6C180.7 69.0133 179.634 68.2 178.86 67.16C178.087 66.12 177.647 64.9467 177.54 63.64H182.9C183.034 64.1467 183.26 64.6133 183.58 65.04C183.9 65.44 184.327 65.76 184.86 66C185.394 66.24 186.034 66.36 186.78 66.36C187.5 66.36 188.087 66.2667 188.54 66.08C188.994 65.8667 189.327 65.5867 189.54 65.24C189.78 64.8933 189.9 64.5333 189.9 64.16C189.9 63.6 189.74 63.1733 189.42 62.88C189.1 62.56 188.634 62.3067 188.02 62.12C187.407 61.9333 186.66 61.7467 185.78 61.56C184.82 61.3733 183.874 61.1467 182.94 60.88C182.034 60.5867 181.22 60.2267 180.5 59.8C179.78 59.3733 179.207 58.8267 178.78 58.16C178.354 57.4933 178.14 56.6667 178.14 55.68C178.14 54.48 178.46 53.4133 179.1 52.48C179.74 51.52 180.674 50.76 181.9 50.2C183.127 49.64 184.607 49.36 186.34 49.36C188.767 49.36 190.687 49.9067 192.1 51C193.514 52.0933 194.354 53.6 194.62 55.52H189.54C189.38 54.9067 189.02 54.4267 188.46 54.08C187.927 53.7067 187.207 53.52 186.3 53.52C185.34 53.52 184.607 53.6933 184.1 54.04C183.594 54.3867 183.34 54.84 183.34 55.4C183.34 55.7733 183.5 56.1067 183.82 56.4C184.167 56.6933 184.647 56.9467 185.26 57.16C185.874 57.3467 186.62 57.5333 187.5 57.72C189.047 58.04 190.407 58.4133 191.58 58.84C192.754 59.24 193.674 59.8267 194.34 60.6C195.007 61.3467 195.34 62.44 195.34 63.88C195.34 65.16 194.994 66.3067 194.3 67.32C193.607 68.3067 192.62 69.08 191.34 69.64C190.087 70.2 188.594 70.48 186.86 70.48ZM225.724 70L210.524 54.88C209.297 53.6533 208.43 52.5467 207.924 51.56C207.417 50.5467 207.164 49.48 207.164 48.36C207.164 47.08 207.484 45.92 208.124 44.88C208.764 43.84 209.697 43.0267 210.924 42.44C212.177 41.8267 213.67 41.52 215.404 41.52C217.137 41.52 218.59 41.84 219.764 42.48C220.964 43.12 221.87 43.96 222.484 45C223.124 46.04 223.43 47.2133 223.404 48.52H218.244C218.244 47.56 217.964 46.84 217.404 46.36C216.844 45.88 216.15 45.64 215.324 45.64C214.417 45.64 213.684 45.8933 213.124 46.4C212.59 46.88 212.324 47.52 212.324 48.32C212.324 48.96 212.524 49.6267 212.924 50.32C213.324 51.0133 213.937 51.7867 214.764 52.64L232.164 70H225.724ZM213.564 70.44C211.51 70.44 209.724 70.0933 208.204 69.4C206.71 68.68 205.55 67.68 204.724 66.4C203.897 65.12 203.484 63.6133 203.484 61.88C203.484 60.5467 203.764 59.3067 204.324 58.16C204.884 56.9867 205.724 55.96 206.844 55.08C207.964 54.1733 209.35 53.4533 211.004 52.92L213.044 52.28L215.404 55.64L213.564 56.24C211.937 56.7733 210.724 57.4933 209.924 58.4C209.15 59.3067 208.764 60.36 208.764 61.56C208.764 62.3867 208.964 63.1467 209.364 63.84C209.764 64.5067 210.35 65.04 211.124 65.44C211.897 65.84 212.804 66.04 213.844 66.04C215.284 66.04 216.577 65.72 217.724 65.08C218.87 64.44 219.977 63.4133 221.044 62C221.524 61.36 222.004 60.64 222.484 59.84C222.964 59.04 223.444 58.1467 223.924 57.16L224.764 55.44H230.244L228.884 58.2C228.217 59.5867 227.537 60.8533 226.844 62C226.15 63.1467 225.43 64.16 224.684 65.04C223.164 66.9333 221.497 68.3067 219.684 69.16C217.897 70.0133 215.857 70.44 213.564 70.44ZM244.348 70L238.428 49.84H243.748L247.668 66.2L246.668 66.16L251.148 49.84H257.148L261.628 66.16L260.588 66.2L264.548 49.84H269.868L263.948 70H258.348L253.588 53.2H254.708L249.948 70H244.348ZM270.92 70V49.84H276.32V70H270.92ZM273.64 47.08C272.68 47.08 271.88 46.8 271.24 46.24C270.627 45.6533 270.32 44.92 270.32 44.04C270.32 43.16 270.627 42.44 271.24 41.88C271.88 41.2933 272.68 41 273.64 41C274.627 41 275.427 41.2933 276.04 41.88C276.68 42.44 277 43.16 277 44.04C277 44.92 276.68 45.6533 276.04 46.24C275.427 46.8 274.627 47.08 273.64 47.08ZM288.337 70.48C286.497 70.48 284.843 70.0267 283.377 69.12C281.937 68.2133 280.803 66.96 279.977 65.36C279.15 63.76 278.737 61.96 278.737 59.96C278.737 57.9067 279.15 56.0933 279.977 54.52C280.83 52.92 281.99 51.6667 283.457 50.76C284.95 49.8267 286.617 49.36 288.457 49.36C289.897 49.36 291.163 49.6267 292.257 50.16C293.35 50.6933 294.23 51.4533 294.897 52.44V41.2H300.297V70H295.497L294.897 67.24C294.497 67.8 293.99 68.3333 293.377 68.84C292.79 69.3467 292.083 69.7467 291.257 70.04C290.43 70.3333 289.457 70.48 288.337 70.48ZM289.617 65.76C290.683 65.76 291.617 65.52 292.417 65.04C293.243 64.5333 293.883 63.84 294.337 62.96C294.79 62.08 295.017 61.0667 295.017 59.92C295.017 58.7733 294.79 57.76 294.337 56.88C293.883 56 293.243 55.32 292.417 54.84C291.617 54.3333 290.683 54.08 289.617 54.08C288.603 54.08 287.683 54.3333 286.857 54.84C286.03 55.32 285.377 56 284.897 56.88C284.443 57.76 284.217 58.76 284.217 59.88C284.217 61.0533 284.443 62.08 284.897 62.96C285.377 63.84 286.017 64.5333 286.817 65.04C287.643 65.52 288.577 65.76 289.617 65.76ZM311.868 79.28C309.948 79.28 308.268 79.04 306.828 78.56C305.388 78.1067 304.268 77.4 303.468 76.44C302.694 75.5067 302.308 74.3467 302.308 72.96C302.308 72.0267 302.548 71.1467 303.028 70.32C303.508 69.4933 304.201 68.7467 305.108 68.08C306.041 67.3867 307.201 66.8 308.588 66.32L310.628 68.96C309.401 69.36 308.508 69.8533 307.948 70.44C307.414 71.0533 307.148 71.7067 307.148 72.4C307.148 73.0133 307.348 73.5333 307.748 73.96C308.174 74.3867 308.734 74.6933 309.428 74.88C310.148 75.0933 310.948 75.2 311.828 75.2C312.681 75.2 313.414 75.0933 314.028 74.88C314.668 74.6667 315.161 74.3467 315.508 73.92C315.881 73.52 316.068 73.04 316.068 72.48C316.068 71.76 315.814 71.1733 315.308 70.72C314.801 70.2667 313.788 69.9867 312.268 69.88C310.908 69.7733 309.694 69.6267 308.628 69.44C307.588 69.2267 306.668 68.9867 305.868 68.72C305.068 68.4267 304.388 68.1067 303.828 67.76C303.294 67.4133 302.854 67.0667 302.508 66.72V65.8L306.788 61.2L310.668 62.44L305.628 67.4L307.148 64.76C307.441 64.92 307.721 65.08 307.988 65.24C308.281 65.3733 308.641 65.5067 309.068 65.64C309.494 65.7467 310.054 65.8533 310.748 65.96C311.441 66.0667 312.321 66.16 313.388 66.24C315.148 66.4 316.588 66.7333 317.708 67.24C318.854 67.7467 319.694 68.4267 320.228 69.28C320.761 70.1067 321.028 71.1333 321.028 72.36C321.028 73.56 320.694 74.68 320.028 75.72C319.388 76.7867 318.388 77.64 317.028 78.28C315.668 78.9467 313.948 79.28 311.868 79.28ZM311.868 64.04C310.188 64.04 308.734 63.72 307.508 63.08C306.308 62.4133 305.374 61.5333 304.708 60.44C304.068 59.32 303.748 58.08 303.748 56.72C303.748 55.36 304.068 54.1333 304.708 53.04C305.374 51.92 306.308 51.0267 307.508 50.36C308.734 49.6933 310.188 49.36 311.868 49.36C313.574 49.36 315.028 49.6933 316.228 50.36C317.454 51.0267 318.388 51.92 319.028 53.04C319.668 54.1333 319.988 55.36 319.988 56.72C319.988 58.08 319.668 59.32 319.028 60.44C318.388 61.5333 317.454 62.4133 316.228 63.08C315.028 63.72 313.574 64.04 311.868 64.04ZM311.868 59.92C312.908 59.92 313.748 59.6533 314.388 59.12C315.028 58.5867 315.348 57.8 315.348 56.76C315.348 55.72 315.028 54.9333 314.388 54.4C313.748 53.84 312.908 53.56 311.868 53.56C310.854 53.56 310.014 53.84 309.348 54.4C308.708 54.9333 308.388 55.72 308.388 56.76C308.388 57.8 308.708 58.5867 309.348 59.12C310.014 59.6533 310.854 59.92 311.868 59.92ZM315.228 53.68L314.348 49.84H322.628V53.04L315.228 53.68ZM333.515 70.48C331.488 70.48 329.688 70.0533 328.115 69.2C326.568 68.32 325.355 67.1067 324.475 65.56C323.621 63.9867 323.195 62.1733 323.195 60.12C323.195 58.0133 323.621 56.16 324.475 54.56C325.355 52.9333 326.568 51.6667 328.115 50.76C329.661 49.8267 331.461 49.36 333.515 49.36C335.515 49.36 337.261 49.8 338.755 50.68C340.248 51.56 341.408 52.7467 342.235 54.24C343.061 55.7333 343.475 57.4267 343.475 59.32C343.475 59.5867 343.475 59.8933 343.475 60.24C343.475 60.56 343.448 60.8933 343.395 61.24H327.035V57.96H338.035C337.955 56.6533 337.488 55.6267 336.635 54.88C335.808 54.1333 334.768 53.76 333.515 53.76C332.608 53.76 331.768 53.9733 330.995 54.4C330.221 54.8 329.608 55.4267 329.155 56.28C328.728 57.1333 328.515 58.2133 328.515 59.52V60.68C328.515 61.7733 328.715 62.7333 329.115 63.56C329.541 64.36 330.128 64.9867 330.875 65.44C331.621 65.8667 332.488 66.08 333.475 66.08C334.461 66.08 335.275 65.8667 335.915 65.44C336.581 65.0133 337.075 64.4667 337.395 63.8H342.915C342.541 65.0533 341.915 66.1867 341.035 67.2C340.155 68.2133 339.075 69.0133 337.795 69.6C336.515 70.1867 335.088 70.48 333.515 70.48ZM354.304 70C352.89 70 351.65 69.7867 350.584 69.36C349.544 68.9067 348.73 68.1733 348.144 67.16C347.557 66.12 347.264 64.7067 347.264 62.92V54.36H343.824V49.84H347.264L347.864 44.36H352.664V49.84H357.984V54.36H352.664V63C352.664 63.9067 352.864 64.5333 353.264 64.88C353.664 65.2267 354.344 65.4 355.304 65.4H357.944V70H354.304ZM368.368 70.48C366.528 70.48 364.928 70.1867 363.568 69.6C362.208 69.0133 361.142 68.2 360.368 67.16C359.595 66.12 359.155 64.9467 359.048 63.64H364.408C364.542 64.1467 364.768 64.6133 365.088 65.04C365.408 65.44 365.835 65.76 366.368 66C366.902 66.24 367.542 66.36 368.288 66.36C369.008 66.36 369.595 66.2667 370.048 66.08C370.502 65.8667 370.835 65.5867 371.048 65.24C371.288 64.8933 371.408 64.5333 371.408 64.16C371.408 63.6 371.248 63.1733 370.928 62.88C370.608 62.56 370.142 62.3067 369.528 62.12C368.915 61.9333 368.168 61.7467 367.288 61.56C366.328 61.3733 365.382 61.1467 364.448 60.88C363.542 60.5867 362.728 60.2267 362.008 59.8C361.288 59.3733 360.715 58.8267 360.288 58.16C359.862 57.4933 359.648 56.6667 359.648 55.68C359.648 54.48 359.968 53.4133 360.608 52.48C361.248 51.52 362.182 50.76 363.408 50.2C364.635 49.64 366.115 49.36 367.848 49.36C370.275 49.36 372.195 49.9067 373.608 51C375.022 52.0933 375.862 53.6 376.128 55.52L371.048 55.52C370.888 54.9067 370.528 54.4267 369.968 54.08C369.435 53.7067 368.715 53.52 367.808 53.52C366.848 53.52 366.115 53.6933 365.608 54.04C365.102 54.3867 364.848 54.84 364.848 55.4C364.848 55.7733 365.008 56.1067 365.328 56.4C365.675 56.6933 366.155 56.9467 366.768 57.16C367.382 57.3467 368.128 57.5333 369.008 57.72C370.555 58.04 371.915 58.4133 373.088 58.84C374.262 59.24 375.182 59.8267 375.848 60.6C376.515 61.3467 376.848 62.44 376.848 63.88C376.848 65.16 376.502 66.3067 375.808 67.32C375.115 68.3067 374.128 69.08 372.848 69.64C371.595 70.2 370.102 70.48 368.368 70.48Z" fill="black"/>
<g clip-path="url(#clip2_106_272)">
<rect x="56.2998" y="149" width="377" height="94" rx="8" transform="rotate(9.36765 56.2998 149)" fill="#FFFDFA"/>
<path d="M68.338 168.091L72.7394 168.817L76.2603 184.176L76.493 184.215L84.7608 170.8L89.1621 171.526L85.8867 191.381L82.4354 190.812L84.6857 177.171L84.5015 177.141L76.7736 189.818L74.1949 189.392L70.9531 174.876L70.7689 174.846L68.5139 188.515L65.0626 187.946L68.338 168.091ZM93.9117 193.004C92.4575 192.764 91.25 192.236 90.2891 191.42C89.3282 190.604 88.6486 189.573 88.2503 188.325C87.8584 187.079 87.7893 185.687 88.0431 184.148C88.2968 182.61 88.81 181.311 89.5825 180.25C90.3615 179.19 91.337 178.428 92.509 177.964C93.6809 177.5 94.994 177.388 96.4482 177.628C97.9024 177.868 99.1099 178.396 100.071 179.211C101.032 180.027 101.708 181.061 102.098 182.314C102.496 183.568 102.567 184.964 102.314 186.503C102.06 188.041 101.544 189.337 100.766 190.39C99.9946 191.444 99.0229 192.204 97.8509 192.668C96.679 193.132 95.3659 193.244 93.9117 193.004ZM94.3949 190.195C95.1834 190.325 95.8783 190.218 96.4798 189.872C97.0822 189.52 97.5735 188.997 97.9536 188.303C98.3401 187.61 98.608 186.811 98.7573 185.906C98.9076 184.995 98.9111 184.149 98.7676 183.368C98.6317 182.582 98.335 181.926 97.8776 181.399C97.4201 180.872 96.7971 180.544 96.0086 180.413C95.2007 180.28 94.4923 180.389 93.8834 180.74C93.2809 181.092 92.7858 181.618 92.3982 182.317C92.0182 183.012 91.753 183.814 91.6026 184.726C91.4534 185.63 91.4472 186.473 91.5842 187.252C91.7276 188.033 92.0281 188.686 92.4855 189.213C92.9506 189.735 93.587 190.062 94.3949 190.195ZM106.838 185.875L105.399 194.6L101.89 194.021L104.346 179.13L107.701 179.683L107.283 182.214L107.458 182.242C107.938 181.465 108.593 180.893 109.424 180.525C110.261 180.159 111.236 180.067 112.347 180.251C113.375 180.42 114.234 180.788 114.924 181.353C115.62 181.919 116.11 182.654 116.393 183.557C116.682 184.461 116.725 185.507 116.522 186.695L114.958 196.177L111.449 195.598L112.923 186.659C113.087 185.664 112.957 184.843 112.533 184.195C112.115 183.549 111.454 183.151 110.549 183.001C109.935 182.9 109.366 182.946 108.843 183.138C108.328 183.325 107.893 183.649 107.538 184.108C107.19 184.568 106.957 185.157 106.838 185.875ZM122.886 197.783C121.393 197.537 120.155 197.014 119.171 196.215C118.195 195.41 117.511 194.387 117.118 193.147C116.726 191.901 116.659 190.499 116.916 188.941C117.168 187.41 117.681 186.113 118.454 185.052C119.234 183.986 120.204 183.217 121.364 182.744C122.525 182.265 123.816 182.143 125.238 182.377C126.156 182.529 126.998 182.82 127.763 183.252C128.536 183.678 129.185 184.25 129.711 184.967C130.243 185.686 130.611 186.55 130.817 187.56C131.023 188.563 131.018 189.718 130.803 191.023L130.625 192.099L118.42 190.086L118.81 187.72L127.652 189.179C127.756 188.506 127.709 187.884 127.511 187.313C127.314 186.736 126.986 186.254 126.525 185.866C126.071 185.479 125.508 185.23 124.836 185.119C124.118 185.001 123.459 185.071 122.859 185.331C122.26 185.584 121.762 185.966 121.365 186.479C120.976 186.985 120.723 187.571 120.607 188.236L120.267 190.301C120.124 191.167 120.159 191.936 120.374 192.609C120.589 193.275 120.954 193.82 121.468 194.243C121.984 194.66 122.623 194.932 123.386 195.058C123.896 195.142 124.37 195.147 124.807 195.073C125.245 194.993 125.64 194.835 125.99 194.601C126.341 194.367 126.629 194.052 126.853 193.658L130.069 194.567C129.719 195.399 129.2 196.09 128.512 196.64C127.831 197.185 127.012 197.561 126.055 197.769C125.099 197.969 124.043 197.974 122.886 197.783ZM131.174 204.588C130.696 204.509 130.259 204.397 129.865 204.253C129.476 204.115 129.17 203.979 128.947 203.842L130.212 201.243C130.698 201.476 131.142 201.622 131.544 201.681C131.946 201.741 132.319 201.673 132.663 201.478C133.013 201.29 133.341 200.932 133.647 200.405L134.08 199.65L131.188 183.558L134.91 184.172L136.487 195.984L136.642 196.01L141.939 185.332L145.672 185.947L136.955 201.658C136.547 202.401 136.067 203.015 135.516 203.502C134.963 203.995 134.329 204.335 133.615 204.523C132.905 204.718 132.092 204.739 131.174 204.588ZM158.046 187.989L157.598 190.703L148.796 189.251L149.243 186.537L158.046 187.989ZM148.988 201.791L151.676 185.494C151.841 184.492 152.186 183.693 152.709 183.095C153.239 182.499 153.883 182.094 154.642 181.88C155.401 181.667 156.21 181.631 157.07 181.773C157.677 181.873 158.209 182.011 158.665 182.185C159.121 182.36 159.455 182.505 159.669 182.62L158.523 185.219C158.382 185.15 158.202 185.073 157.983 184.991C157.765 184.902 157.518 184.834 157.24 184.789C156.587 184.681 156.099 184.763 155.775 185.035C155.459 185.301 155.253 185.725 155.157 186.307L152.507 202.371L148.988 201.791ZM162.042 204.243C160.587 204.003 159.38 203.475 158.419 202.659C157.458 201.844 156.779 200.812 156.38 199.565C155.988 198.318 155.919 196.926 156.173 195.388C156.427 193.849 156.94 192.55 157.712 191.489C158.491 190.429 159.467 189.667 160.639 189.203C161.811 188.739 163.124 188.627 164.578 188.867C166.032 189.107 167.24 189.635 168.201 190.451C169.162 191.266 169.837 192.301 170.228 193.554C170.626 194.808 170.697 196.204 170.444 197.742C170.19 199.28 169.674 200.576 168.896 201.629C168.125 202.684 167.153 203.443 165.981 203.907C164.809 204.371 163.496 204.483 162.042 204.243ZM162.525 201.435C163.313 201.565 164.008 201.457 164.61 201.111C165.212 200.759 165.703 200.236 166.084 199.542C166.47 198.849 166.738 198.05 166.887 197.145C167.038 196.234 167.041 195.388 166.898 194.608C166.762 193.822 166.465 193.165 166.008 192.638C165.55 192.111 164.927 191.783 164.139 191.653C163.331 191.52 162.622 191.628 162.013 191.979C161.411 192.331 160.916 192.857 160.528 193.557C160.148 194.251 159.883 195.054 159.733 195.965C159.583 196.87 159.577 197.712 159.714 198.491C159.858 199.272 160.158 199.926 160.616 200.452C161.081 200.974 161.717 201.301 162.525 201.435ZM170.02 205.26L172.476 190.369L175.879 190.931L175.47 193.412L175.625 193.438C176.038 192.623 176.613 192.038 177.349 191.681C178.092 191.319 178.89 191.208 179.744 191.349C179.937 191.381 180.152 191.427 180.388 191.485C180.632 191.539 180.832 191.595 180.988 191.654L180.455 194.882C180.315 194.806 180.087 194.722 179.77 194.63C179.461 194.532 179.157 194.459 178.86 194.41C178.22 194.304 177.622 194.349 177.066 194.542C176.517 194.73 176.057 195.043 175.686 195.48C175.315 195.917 175.078 196.452 174.973 197.085L173.529 205.839L170.02 205.26ZM187.483 208.45C186.539 208.294 185.717 207.986 185.016 207.525C184.323 207.059 183.812 206.457 183.482 205.719C183.159 204.981 183.078 204.125 183.239 203.149C183.377 202.309 183.647 201.64 184.048 201.141C184.449 200.643 184.945 200.274 185.535 200.032C186.126 199.791 186.772 199.642 187.471 199.585C188.179 199.522 188.901 199.512 189.638 199.554C190.525 199.607 191.246 199.643 191.801 199.662C192.356 199.674 192.77 199.623 193.041 199.508C193.32 199.388 193.487 199.16 193.542 198.824L193.552 198.766C193.672 198.035 193.549 197.434 193.182 196.962C192.815 196.49 192.225 196.187 191.41 196.052C190.551 195.91 189.838 195.985 189.272 196.277C188.712 196.57 188.303 196.957 188.045 197.439L184.845 196.433C185.252 195.571 185.804 194.885 186.498 194.375C187.194 193.86 187.997 193.521 188.907 193.359C189.818 193.19 190.793 193.192 191.834 193.364C192.551 193.482 193.252 193.684 193.935 193.969C194.618 194.254 195.222 194.639 195.746 195.124C196.271 195.603 196.657 196.201 196.904 196.919C197.157 197.638 197.202 198.491 197.039 199.48L195.395 209.446L192.021 208.89L192.358 206.844L192.242 206.825C191.961 207.204 191.596 207.542 191.149 207.84C190.709 208.132 190.18 208.34 189.562 208.464C188.951 208.583 188.258 208.578 187.483 208.45ZM188.82 206.021C189.524 206.138 190.158 206.099 190.721 205.907C191.285 205.708 191.744 205.399 192.099 204.979C192.46 204.561 192.686 204.077 192.776 203.527L193.066 201.773C192.941 201.845 192.74 201.898 192.462 201.932C192.191 201.967 191.888 201.987 191.556 201.992C191.223 201.996 190.895 201.995 190.57 201.988C190.246 201.981 189.965 201.975 189.727 201.969C189.192 201.953 188.704 201.992 188.264 202.086C187.824 202.179 187.46 202.352 187.173 202.603C186.887 202.848 186.706 203.197 186.632 203.649C186.525 204.295 186.68 204.822 187.098 205.23C187.515 205.637 188.089 205.901 188.82 206.021ZM206.276 202.279L204.837 211.004L201.327 210.425L203.784 195.534L207.138 196.087L206.721 198.618L206.895 198.647C207.375 197.869 208.031 197.297 208.862 196.929C209.699 196.563 210.673 196.471 211.785 196.655C212.813 196.824 213.671 197.192 214.362 197.757C215.058 198.323 215.548 199.058 215.83 199.961C216.119 200.865 216.163 201.911 215.96 203.1L214.396 212.581L210.886 212.002L212.361 203.064C212.525 202.068 212.395 201.247 211.971 200.599C211.553 199.953 210.892 199.555 209.987 199.406C209.373 199.304 208.804 199.35 208.281 199.542C207.766 199.73 207.331 200.053 206.976 200.512C206.628 200.973 206.395 201.561 206.276 202.279ZM222.324 214.188C220.831 213.941 219.593 213.418 218.609 212.619C217.633 211.814 216.949 210.791 216.556 209.551C216.164 208.305 216.096 206.903 216.353 205.345C216.606 203.814 217.119 202.517 217.891 201.456C218.671 200.39 219.641 199.621 220.801 199.148C221.963 198.669 223.254 198.547 224.676 198.782C225.594 198.933 226.435 199.224 227.201 199.656C227.974 200.082 228.623 200.654 229.148 201.372C229.68 202.09 230.049 202.954 230.254 203.964C230.461 204.967 230.456 206.122 230.241 207.427L230.063 208.503L217.858 206.49L218.248 204.124L227.089 205.583C227.194 204.91 227.147 204.288 226.949 203.717C226.752 203.141 226.423 202.658 225.963 202.27C225.509 201.883 224.946 201.634 224.274 201.523C223.556 201.405 222.897 201.476 222.297 201.735C221.697 201.988 221.199 202.371 220.803 202.883C220.414 203.39 220.161 203.975 220.045 204.64L219.704 206.705C219.561 207.571 219.597 208.34 219.811 209.013C220.027 209.679 220.392 210.224 220.906 210.648C221.422 211.065 222.061 211.336 222.823 211.462C223.334 211.546 223.808 211.551 224.245 211.477C224.683 211.397 225.077 211.239 225.428 211.005C225.779 210.771 226.066 210.456 226.291 210.062L229.507 210.971C229.157 211.803 228.638 212.494 227.95 213.044C227.269 213.589 226.45 213.965 225.493 214.173C224.537 214.374 223.481 214.378 222.324 214.188ZM232.771 215.612L231.02 200.027L234.598 200.617L235.488 211.52L235.624 211.542L240.027 201.513L243.565 202.097L244.523 212.95L244.669 212.974L248.965 202.988L252.552 203.579L245.879 217.775L242.224 217.172L241.092 206.648L240.888 206.614L236.436 216.217L232.771 215.612ZM254.029 224.855L257.406 204.38L260.858 204.95L260.451 207.412L260.655 207.446C260.896 207.113 261.214 206.771 261.611 206.418C262.009 206.059 262.513 205.78 263.123 205.582C263.735 205.378 264.477 205.347 265.349 205.491C266.5 205.681 267.488 206.146 268.316 206.887C269.15 207.622 269.745 208.606 270.099 209.84C270.461 211.068 270.505 212.509 270.232 214.164C269.962 215.799 269.465 217.145 268.74 218.2C268.015 219.255 267.14 220.008 266.117 220.456C265.094 220.905 263.997 221.033 262.827 220.84C261.974 220.699 261.29 220.44 260.774 220.063C260.259 219.686 259.863 219.268 259.587 218.811C259.318 218.349 259.119 217.921 258.992 217.528L258.846 217.504L257.538 225.434L254.029 224.855ZM259.62 212.393C259.461 213.356 259.457 214.222 259.609 214.991C259.768 215.761 260.072 216.392 260.522 216.884C260.979 217.371 261.58 217.676 262.323 217.799C263.099 217.927 263.782 217.827 264.374 217.5C264.967 217.166 265.455 216.659 265.84 215.979C266.232 215.293 266.504 214.485 266.658 213.555C266.81 212.63 266.813 211.788 266.667 211.026C266.52 210.265 266.219 209.638 265.762 209.145C265.306 208.651 264.687 208.34 263.905 208.211C263.155 208.087 262.486 208.179 261.897 208.487C261.309 208.795 260.82 209.282 260.431 209.948C260.049 210.615 259.779 211.43 259.62 212.393ZM276.276 223.088C274.789 222.843 273.567 222.306 272.608 221.477C271.656 220.65 270.987 219.613 270.601 218.368C270.224 217.117 270.159 215.739 270.407 214.233C270.657 212.72 271.168 211.434 271.94 210.373C272.714 209.305 273.684 208.536 274.851 208.065C276.025 207.588 277.339 207.469 278.793 207.709C280.002 207.908 281.034 208.308 281.892 208.907C282.756 209.502 283.4 210.248 283.822 211.148C284.246 212.041 284.408 213.03 284.309 214.116L280.954 213.563C280.937 212.823 280.712 212.172 280.281 211.609C279.857 211.041 279.221 210.688 278.374 210.548C277.657 210.43 276.995 210.52 276.388 210.818C275.782 211.11 275.268 211.589 274.846 212.256C274.43 212.925 274.14 213.76 273.975 214.762C273.807 215.776 273.812 216.673 273.989 217.453C274.167 218.226 274.491 218.853 274.963 219.336C275.442 219.814 276.046 220.112 276.777 220.233C277.294 220.318 277.772 220.298 278.211 220.171C278.658 220.039 279.051 219.808 279.391 219.479C279.73 219.15 279.996 218.726 280.188 218.206L283.543 218.76C283.285 219.799 282.82 220.682 282.15 221.408C281.48 222.127 280.645 222.64 279.645 222.947C278.646 223.247 277.523 223.294 276.276 223.088Z" fill="black"/>
<g clip-path="url(#clip3_106_272)">
<rect x="60.3369" y="204.396" width="341" height="23" rx="7" transform="rotate(9.36765 60.3369 204.396)" fill="#6A9AE5"/>
<rect x="285.286" y="235.424" width="125" height="36" transform="rotate(9.36765 285.286 235.424)" fill="#BCBCBC"/>
<path d="M67.9031 223.011C67.4372 222.931 66.9952 222.775 66.5772 222.543C66.1597 222.308 65.8031 221.98 65.5074 221.56C65.2123 221.136 65.0097 220.606 64.8998 219.968C64.7903 219.328 64.811 218.56 64.9618 217.666C65.0994 216.832 65.311 216.102 65.5965 215.478C65.882 214.854 66.2285 214.344 66.636 213.948C67.044 213.549 67.5024 213.27 68.0112 213.109C68.5232 212.949 69.0711 212.918 69.6549 213.014C70.2673 213.115 70.7899 213.325 71.2229 213.644C71.659 213.964 71.9885 214.357 72.2113 214.824C72.4346 215.288 72.538 215.787 72.5215 216.322L70.7843 216.036C70.7573 215.647 70.624 215.318 70.3846 215.051C70.1489 214.78 69.8217 214.611 69.4029 214.542C68.7271 214.43 68.1583 214.638 67.6966 215.164C67.2381 215.692 66.9227 216.468 66.7505 217.492L66.8171 217.503C67.0186 217.249 67.2596 217.043 67.5401 216.884C67.8205 216.725 68.1251 216.617 68.4538 216.56C68.7863 216.501 69.127 216.5 69.476 216.558C70.0471 216.652 70.537 216.873 70.9457 217.221C71.3576 217.569 71.6572 218.005 71.8447 218.528C72.0327 219.048 72.0744 219.615 71.9696 220.23C71.8671 220.872 71.6261 221.423 71.2468 221.885C70.868 222.344 70.3912 222.676 69.8163 222.881C69.2415 223.086 68.6037 223.13 67.9031 223.011ZM68.1291 221.581C68.4749 221.638 68.7981 221.605 69.0987 221.482C69.3993 221.359 69.6525 221.168 69.8583 220.908C70.064 220.649 70.1946 220.341 70.2501 219.986C70.3108 219.637 70.2867 219.309 70.1779 219.001C70.0721 218.693 69.8981 218.435 69.6556 218.225C69.4131 218.016 69.119 217.883 68.7731 217.826C68.5161 217.783 68.2685 217.793 68.0301 217.855C67.7918 217.916 67.5758 218.021 67.382 218.168C67.1888 218.312 67.0257 218.491 66.8928 218.703C66.7636 218.913 66.6763 219.147 66.6307 219.403C66.5779 219.743 66.6056 220.069 66.714 220.38C66.8224 220.691 66.9988 220.955 67.2434 221.171C67.488 221.388 67.7832 221.524 68.1291 221.581ZM76.9875 214.223C77.4534 214.304 77.8935 214.461 78.3078 214.696C78.7258 214.927 79.0827 215.254 79.3784 215.674C79.6746 216.091 79.8776 216.618 79.9876 217.256C80.0976 217.893 80.0793 218.656 79.9327 219.544C79.7977 220.382 79.5853 221.117 79.2956 221.747C79.0096 222.374 78.6626 222.887 78.2546 223.286C77.8466 223.685 77.3882 223.964 76.8794 224.125C76.3705 224.285 75.8226 224.317 75.2357 224.22C74.6201 224.119 74.0943 223.908 73.6582 223.589C73.2252 223.269 72.8973 222.876 72.6745 222.409C72.4517 221.942 72.3515 221.434 72.3738 220.883L74.1109 221.17C74.1359 221.572 74.266 221.909 74.5012 222.183C74.74 222.454 75.0689 222.624 75.4877 222.693C76.1635 222.804 76.7322 222.597 77.1939 222.07C77.6557 221.543 77.9726 220.758 78.1448 219.714L78.0782 219.703C77.8767 219.956 77.6354 220.164 77.3544 220.326C77.074 220.486 76.7678 220.593 76.4359 220.649C76.1072 220.706 75.7683 220.705 75.4193 220.648C74.8482 220.553 74.3567 220.332 73.9448 219.984C73.5361 219.636 73.2378 219.202 73.0498 218.683C72.8649 218.163 72.8214 217.597 72.9193 216.984C73.024 216.35 73.2639 215.804 73.639 215.348C74.0178 214.889 74.4946 214.557 75.0695 214.352C75.6448 214.144 76.2842 214.101 76.9875 214.223ZM76.7567 215.652C76.4141 215.596 76.0908 215.629 75.7871 215.751C75.487 215.871 75.2341 216.061 75.0283 216.32C74.8263 216.577 74.6965 216.88 74.6389 217.229C74.585 217.575 74.6109 217.902 74.7166 218.21C74.8255 218.518 74.9996 218.776 75.2389 218.985C75.4814 219.195 75.7755 219.328 76.1214 219.385C76.3784 219.427 76.626 219.418 76.8643 219.356C77.1027 219.294 77.3187 219.19 77.5125 219.042C77.71 218.892 77.8733 218.712 78.0024 218.502C78.1348 218.293 78.2201 218.062 78.2582 217.811C78.3132 217.478 78.2846 217.157 78.1726 216.849C78.0637 216.541 77.887 216.278 77.6424 216.062C77.4009 215.846 77.1057 215.71 76.7567 215.652ZM85.1048 223.834L85.1895 223.32C85.2518 222.943 85.3885 222.608 85.5994 222.317C85.8136 222.027 86.0905 221.81 86.4302 221.667C86.7699 221.525 87.1587 221.489 87.5965 221.561C88.0471 221.636 88.4087 221.795 88.6813 222.039C88.9545 222.279 89.1427 222.571 89.2458 222.914C89.3521 223.257 89.3738 223.619 89.311 224L89.2262 224.514C89.1639 224.892 89.0273 225.226 88.8163 225.517C88.6053 225.808 88.33 226.025 87.9903 226.168C87.6538 226.311 87.2634 226.346 86.8192 226.273C86.3751 226.2 86.015 226.041 85.7392 225.797C85.4634 225.552 85.2723 225.258 85.166 224.915C85.0629 224.572 85.0425 224.212 85.1048 223.834ZM86.4317 223.525L86.3469 224.039C86.3056 224.29 86.3279 224.53 86.4139 224.759C86.4999 224.988 86.6952 225.128 86.9998 225.178C87.3076 225.229 87.5356 225.161 87.6838 224.974C87.8358 224.783 87.9327 224.562 87.9746 224.308L88.0593 223.794C88.1012 223.54 88.0839 223.299 88.0074 223.071C87.9314 222.841 87.7348 222.699 87.4175 222.647C87.1193 222.597 86.8907 222.669 86.7319 222.861C86.5736 223.05 86.4736 223.271 86.4317 223.525ZM81.0706 217.439L81.1554 216.925C81.2182 216.544 81.3567 216.209 81.5708 215.918C81.785 215.628 82.0616 215.413 82.4008 215.273C82.7405 215.13 83.1293 215.095 83.5671 215.167C84.0145 215.241 84.3745 215.4 84.6471 215.644C84.9235 215.885 85.1132 216.177 85.2164 216.52C85.3195 216.863 85.3397 217.224 85.2768 217.605L85.1921 218.119C85.1292 218.5 84.9923 218.836 84.7814 219.127C84.5741 219.415 84.3009 219.629 83.9617 219.769C83.6225 219.909 83.2324 219.942 82.7914 219.869C82.344 219.795 81.9822 219.638 81.7058 219.397C81.4326 219.156 81.2429 218.864 81.1366 218.521C81.0303 218.177 81.0083 217.817 81.0706 217.439ZM82.407 217.132L82.3223 217.646C82.2804 217.9 82.3009 218.141 82.3837 218.37C82.4703 218.596 82.6658 218.734 82.9704 218.784C83.275 218.834 83.5014 218.766 83.6497 218.578C83.8016 218.388 83.8985 218.166 83.9404 217.913L84.0252 217.399C84.067 217.145 84.0497 216.904 83.9732 216.676C83.8973 216.445 83.7022 216.304 83.3881 216.252C83.0867 216.203 82.8582 216.274 82.7025 216.467C82.5469 216.659 82.4484 216.881 82.407 217.132ZM80.3915 224.934L88.7004 216.293L89.8902 216.489L81.5813 225.13L80.3915 224.934Z" fill="white"/>
</g>
</g>
<rect x="56.7118" y="149.575" width="376" height="93" rx="7.5" transform="rotate(9.36765 56.7118 149.575)" stroke="black"/>
<rect x="135.855" y="93.5856" width="409.382" height="79.481" rx="8.16586" transform="rotate(4.52433 135.855 93.5856)" fill="#FFFDFA"/>
<rect x="135.855" y="93.5856" width="409.382" height="79.481" rx="8.16586" transform="rotate(4.52433 135.855 93.5856)" stroke="black" stroke-width="1.08878"/>
<path d="M154.127 145.42L155.856 123.578L164.046 124.226C165.724 124.359 167.107 124.783 168.195 125.499C169.29 126.215 170.086 127.144 170.582 128.285C171.086 129.42 171.284 130.68 171.174 132.066C171.063 133.467 170.67 134.688 169.993 135.729C169.317 136.77 168.378 137.558 167.177 138.092C165.976 138.62 164.534 138.817 162.849 138.684L157.42 138.254L157.678 135.001L162.573 135.389C163.554 135.466 164.371 135.359 165.023 135.067C165.676 134.776 166.175 134.343 166.521 133.769C166.874 133.196 167.081 132.522 167.143 131.747C167.204 130.972 167.105 130.278 166.846 129.664C166.594 129.05 166.165 128.554 165.558 128.177C164.959 127.794 164.165 127.563 163.177 127.484L159.551 127.198L158.084 145.733L154.127 145.42ZM170.881 146.745L172.178 130.364L175.921 130.661L175.705 133.391L175.875 133.404C176.249 132.482 176.818 131.794 177.584 131.34C178.358 130.878 179.213 130.685 180.152 130.759C180.365 130.776 180.603 130.806 180.864 130.848C181.133 130.883 181.355 130.926 181.53 130.976L181.249 134.527C181.09 134.457 180.834 134.387 180.482 134.316C180.138 134.239 179.802 134.187 179.475 134.161C178.771 134.106 178.126 134.208 177.54 134.47C176.962 134.724 176.492 135.106 176.13 135.614C175.768 136.122 175.559 136.724 175.504 137.421L174.742 147.051L170.881 146.745ZM184.78 148.178C183.742 148.096 182.822 147.837 182.019 147.401C181.224 146.959 180.614 146.353 180.189 145.582C179.77 144.812 179.604 143.891 179.689 142.817C179.762 141.893 179.993 141.142 180.382 140.565C180.771 139.987 181.275 139.541 181.894 139.225C182.513 138.909 183.199 138.688 183.953 138.561C184.715 138.429 185.497 138.351 186.3 138.329C187.268 138.305 188.053 138.278 188.657 138.247C189.261 138.209 189.705 138.115 189.988 137.966C190.28 137.81 190.44 137.547 190.469 137.178L190.474 137.114C190.538 136.31 190.349 135.669 189.907 135.191C189.466 134.712 188.797 134.438 187.901 134.367C186.956 134.292 186.189 134.439 185.602 134.807C185.022 135.176 184.614 135.634 184.377 136.18L180.813 135.383C181.176 134.41 181.712 133.616 182.419 132.999C183.126 132.375 183.966 131.934 184.938 131.675C185.911 131.408 186.969 131.32 188.114 131.411C188.903 131.473 189.681 131.628 190.449 131.875C191.216 132.121 191.907 132.484 192.52 132.961C193.134 133.432 193.607 134.045 193.941 134.802C194.282 135.558 194.409 136.481 194.323 137.568L193.456 148.532L189.744 148.238L189.922 145.988L189.794 145.978C189.524 146.414 189.159 146.815 188.701 147.179C188.251 147.537 187.696 147.811 187.037 148.002C186.386 148.187 185.633 148.245 184.78 148.178ZM186.007 145.42C186.782 145.482 187.466 145.382 188.059 145.121C188.653 144.854 189.123 144.476 189.469 143.988C189.822 143.501 190.023 142.955 190.071 142.351L190.223 140.42C190.095 140.51 189.881 140.587 189.583 140.649C189.292 140.712 188.966 140.761 188.605 140.797C188.245 140.833 187.888 140.862 187.536 140.884C187.184 140.906 186.878 140.925 186.619 140.94C186.037 140.973 185.512 141.06 185.043 141.202C184.573 141.343 184.195 141.564 183.906 141.863C183.619 142.155 183.455 142.55 183.416 143.048C183.359 143.759 183.576 144.316 184.067 144.72C184.557 145.123 185.204 145.357 186.007 145.42ZM195.106 148.662L196.834 126.821L200.694 127.126L200.048 135.296L200.208 135.308C200.439 134.926 200.753 134.525 201.151 134.106C201.55 133.679 202.071 133.331 202.715 133.06C203.359 132.782 204.161 132.681 205.121 132.757C206.387 132.857 207.502 133.271 208.468 133.998C209.441 134.719 210.176 135.732 210.674 137.038C211.179 138.337 211.36 139.897 211.216 141.717C211.073 143.516 210.657 145.021 209.968 146.233C209.278 147.444 208.399 148.341 207.33 148.921C206.261 149.502 205.083 149.741 203.796 149.64C202.857 149.565 202.091 149.347 201.497 148.986C200.904 148.624 200.436 148.208 200.094 147.737C199.76 147.26 199.505 146.814 199.33 146.4L199.106 146.382L198.902 148.963L195.106 148.662ZM199.54 140.771C199.456 141.831 199.532 142.77 199.767 143.59C200.01 144.411 200.398 145.067 200.931 145.56C201.472 146.047 202.152 146.322 202.969 146.387C203.823 146.455 204.555 146.284 205.167 145.874C205.779 145.458 206.263 144.863 206.617 144.089C206.98 143.31 207.201 142.408 207.282 141.384C207.363 140.367 207.288 139.453 207.059 138.641C206.83 137.828 206.446 137.175 205.905 136.682C205.365 136.188 204.664 135.908 203.804 135.84C202.979 135.774 202.262 135.936 201.652 136.324C201.041 136.712 200.556 137.285 200.195 138.044C199.842 138.803 199.623 139.712 199.54 140.771ZM216.069 140.663L215.31 150.261L211.449 149.955L213.177 128.114L216.953 128.413L216.3 136.657L216.492 136.672C216.949 135.778 217.601 135.096 218.446 134.627C219.299 134.15 220.352 133.962 221.603 134.061C222.741 134.151 223.714 134.467 224.522 135.011C225.33 135.554 225.929 136.303 226.319 137.256C226.716 138.211 226.862 139.349 226.757 140.671L225.932 151.101L222.071 150.796L222.849 140.963C222.936 139.861 222.72 138.982 222.199 138.325C221.686 137.662 220.922 137.291 219.905 137.21C219.223 137.156 218.599 137.257 218.035 137.513C217.479 137.762 217.026 138.152 216.676 138.683C216.334 139.213 216.131 139.874 216.069 140.663ZM233.807 135.241L237.668 135.547L236.297 152.866C236.204 154.046 235.903 155.003 235.394 155.735C234.886 156.467 234.193 156.989 233.317 157.298C232.442 157.608 231.399 157.715 230.191 157.62C230.048 157.609 229.917 157.595 229.797 157.578C229.676 157.568 229.545 157.554 229.403 157.536L229.652 154.39C229.758 154.406 229.854 154.417 229.939 154.423C230.024 154.437 230.113 154.448 230.205 154.455C230.944 154.514 231.488 154.374 231.837 154.037C232.185 153.707 232.386 153.197 232.441 152.507L233.807 135.241ZM235.911 133.068C235.292 133.019 234.779 132.775 234.37 132.335C233.969 131.888 233.791 131.377 233.837 130.801C233.883 130.218 234.139 129.741 234.605 129.37C235.078 128.992 235.624 128.828 236.243 128.877C236.854 128.925 237.36 129.173 237.761 129.62C238.17 130.06 238.351 130.571 238.305 131.154C238.26 131.73 238 132.207 237.527 132.584C237.061 132.955 236.522 133.117 235.911 133.068ZM248.925 145.988L249.676 136.497L253.537 136.802L252.24 153.183L248.497 152.887L248.728 149.976L248.557 149.962C248.115 150.85 247.447 151.552 246.555 152.068C245.67 152.585 244.613 152.794 243.383 152.697C242.309 152.612 241.379 152.299 240.592 151.757C239.812 151.209 239.228 150.458 238.838 149.504C238.449 148.543 238.306 147.409 238.41 146.101L239.235 135.671L243.096 135.976L242.318 145.809C242.236 146.847 242.455 147.694 242.975 148.351C243.496 149.007 244.218 149.372 245.142 149.445C245.711 149.49 246.273 149.395 246.828 149.16C247.383 148.925 247.853 148.547 248.238 148.027C248.63 147.5 248.859 146.82 248.925 145.988ZM267.708 142.281L264.159 142.386C264.087 142.023 263.939 141.675 263.715 141.342C263.498 141.01 263.191 140.732 262.794 140.507C262.397 140.283 261.9 140.147 261.303 140.1C260.499 140.036 259.81 140.157 259.235 140.462C258.667 140.768 258.365 141.198 258.328 141.753C258.283 142.229 258.427 142.63 258.758 142.957C259.097 143.284 259.675 143.577 260.492 143.834L263.239 144.653C264.762 145.11 265.872 145.73 266.568 146.515C267.272 147.301 267.581 148.28 267.495 149.454C267.406 150.484 267.032 151.37 266.372 152.112C265.72 152.848 264.851 153.394 263.764 153.752C262.677 154.109 261.45 154.234 260.085 154.126C258.08 153.967 256.5 153.42 255.343 152.484C254.187 151.542 253.552 150.307 253.436 148.781L257.23 148.717C257.342 149.47 257.66 150.056 258.185 150.477C258.71 150.898 259.416 151.143 260.305 151.214C261.222 151.286 261.973 151.156 262.557 150.823C263.149 150.491 263.467 150.047 263.51 149.493C263.548 149.023 263.397 148.622 263.059 148.287C262.727 147.953 262.191 147.675 261.451 147.452L258.703 146.644C257.157 146.193 256.039 145.55 255.346 144.715C254.654 143.873 254.359 142.856 254.461 141.662C254.534 140.652 254.877 139.799 255.49 139.103C256.111 138.401 256.935 137.887 257.962 137.56C258.997 137.227 260.169 137.112 261.477 137.216C263.397 137.368 264.875 137.896 265.913 138.801C266.957 139.706 267.556 140.866 267.708 142.281ZM277.364 138.688L277.127 141.674L267.71 140.929L267.947 137.943L277.364 138.688ZM270.582 134.202L274.443 134.507L273.226 149.886C273.185 150.405 273.232 150.809 273.366 151.099C273.508 151.382 273.707 151.584 273.962 151.704C274.217 151.824 274.505 151.897 274.825 151.923C275.066 151.942 275.288 151.941 275.49 151.922C275.699 151.902 275.858 151.883 275.967 151.863L276.379 154.932C276.167 154.987 275.866 155.042 275.475 155.097C275.091 155.152 274.625 155.166 274.077 155.137C273.108 155.088 272.248 154.874 271.498 154.493C270.749 154.104 270.174 153.551 269.773 152.832C269.379 152.114 269.227 151.244 269.315 150.22L270.582 134.202ZM287.996 156.302C286.71 156.201 285.584 155.779 284.62 155.037C283.655 154.295 282.928 153.272 282.437 151.967C281.947 150.662 281.773 149.11 281.915 147.311C282.059 145.491 282.479 143.979 283.175 142.775C283.879 141.564 284.768 140.679 285.843 140.121C286.918 139.555 288.085 139.321 289.343 139.421C290.303 139.497 291.079 139.723 291.672 140.099C292.265 140.468 292.725 140.894 293.051 141.378C293.379 141.854 293.626 142.3 293.794 142.714L293.954 142.726L294.6 134.557L298.471 134.863L296.743 156.705L292.946 156.404L293.151 153.823L292.916 153.805C292.685 154.187 292.364 154.588 291.952 155.006C291.54 155.417 291.012 155.754 290.369 156.018C289.726 156.282 288.935 156.377 287.996 156.302ZM289.324 153.22C290.142 153.285 290.856 153.12 291.467 152.724C292.078 152.322 292.565 151.735 292.926 150.962C293.288 150.189 293.511 149.273 293.594 148.214C293.678 147.154 293.602 146.222 293.365 145.416C293.135 144.611 292.75 143.969 292.208 143.49C291.674 143.011 290.991 142.739 290.159 142.673C289.299 142.605 288.563 142.772 287.951 143.174C287.34 143.577 286.857 144.161 286.503 144.927C286.15 145.693 285.932 146.584 285.852 147.601C285.771 148.625 285.844 149.55 286.072 150.377C286.308 151.197 286.695 151.86 287.235 152.368C287.782 152.869 288.478 153.153 289.324 153.22ZM305.574 157.725C303.975 157.599 302.616 157.137 301.499 156.341C300.381 155.544 299.549 154.487 299.002 153.17C298.463 151.854 298.26 150.35 298.394 148.658C298.527 146.966 298.965 145.509 299.705 144.287C300.453 143.065 301.441 142.149 302.67 141.538C303.899 140.927 305.313 140.685 306.913 140.811C308.512 140.938 309.871 141.399 310.988 142.196C312.106 142.993 312.934 144.053 313.473 145.376C314.02 146.7 314.226 148.208 314.092 149.9C313.958 151.592 313.518 153.046 312.77 154.26C312.03 155.475 311.046 156.388 309.817 156.999C308.588 157.61 307.174 157.852 305.574 157.725ZM305.84 154.634C306.708 154.703 307.452 154.522 308.073 154.092C308.694 153.655 309.179 153.042 309.527 152.254C309.883 151.467 310.1 150.575 310.179 149.58C310.258 148.577 310.184 147.659 309.957 146.826C309.737 145.986 309.355 145.301 308.81 144.771C308.265 144.241 307.559 143.942 306.692 143.874C305.803 143.803 305.045 143.987 304.416 144.423C303.795 144.861 303.306 145.477 302.95 146.271C302.602 147.059 302.388 147.955 302.308 148.957C302.23 149.952 302.3 150.867 302.521 151.7C302.748 152.533 303.134 153.215 303.679 153.744C304.231 154.267 304.952 154.564 305.84 154.634ZM318.943 148.803L318.184 158.401L314.323 158.096L315.619 141.715L319.309 142.007L319.089 144.79L319.281 144.806C319.73 143.918 320.389 143.237 321.256 142.762C322.131 142.287 323.18 142.098 324.403 142.195C325.533 142.285 326.499 142.604 327.299 143.154C328.107 143.705 328.706 144.457 329.095 145.41C329.492 146.365 329.635 147.496 329.524 148.803L328.699 159.233L324.838 158.928L325.617 149.095C325.703 148 325.487 147.121 324.967 146.457C324.454 145.794 323.7 145.423 322.705 145.345C322.029 145.291 321.417 145.393 320.867 145.65C320.325 145.9 319.882 146.291 319.54 146.822C319.205 147.354 319.006 148.014 318.943 148.803ZM334.909 160.057C333.871 159.975 332.95 159.716 332.148 159.281C331.353 158.839 330.743 158.233 330.317 157.462C329.899 156.692 329.732 155.77 329.817 154.697C329.89 153.772 330.121 153.022 330.51 152.444C330.899 151.867 331.403 151.42 332.022 151.104C332.641 150.788 333.327 150.567 334.081 150.441C334.843 150.308 335.626 150.23 336.429 150.208C337.396 150.185 338.182 150.157 338.785 150.126C339.389 150.088 339.833 149.995 340.117 149.845C340.408 149.69 340.568 149.427 340.598 149.057L340.603 148.993C340.666 148.19 340.477 147.549 340.036 147.07C339.594 146.592 338.926 146.317 338.03 146.246C337.084 146.171 336.318 146.318 335.731 146.687C335.151 147.056 334.742 147.513 334.506 148.06L330.942 147.263C331.305 146.29 331.84 145.495 332.547 144.879C333.255 144.255 334.094 143.813 335.066 143.554C336.039 143.288 337.098 143.2 338.242 143.29C339.032 143.353 339.81 143.507 340.577 143.754C341.345 144.001 342.035 144.363 342.648 144.841C343.262 145.312 343.736 145.925 344.07 146.681C344.41 147.438 344.538 148.36 344.452 149.448L343.584 160.411L339.873 160.118L340.051 157.867L339.923 157.857C339.652 158.294 339.288 158.694 338.83 159.058C338.379 159.416 337.825 159.691 337.166 159.882C336.514 160.066 335.762 160.125 334.909 160.057ZM336.136 157.3C336.911 157.361 337.595 157.262 338.188 157.001C338.781 156.733 339.251 156.355 339.597 155.868C339.951 155.38 340.151 154.835 340.199 154.23L340.352 152.3C340.223 152.39 340.01 152.466 339.711 152.528C339.42 152.591 339.094 152.64 338.734 152.676C338.373 152.712 338.017 152.741 337.664 152.763C337.312 152.786 337.007 152.804 336.748 152.82C336.166 152.852 335.64 152.94 335.171 153.081C334.702 153.223 334.323 153.443 334.035 153.743C333.747 154.035 333.583 154.429 333.544 154.927C333.488 155.638 333.705 156.195 334.195 156.599C334.685 157.003 335.332 157.236 336.136 157.3ZM354.539 144.795L354.303 147.781L344.886 147.036L345.123 144.049L354.539 144.795ZM347.758 140.309L351.619 140.614L350.402 155.993C350.361 156.512 350.407 156.916 350.542 157.206C350.684 157.489 350.883 157.691 351.138 157.811C351.393 157.931 351.681 158.004 352.001 158.029C352.242 158.049 352.464 158.048 352.666 158.028C352.875 158.009 353.034 157.99 353.143 157.97L353.555 161.039C353.343 161.094 353.041 161.149 352.651 161.204C352.267 161.259 351.801 161.272 351.253 161.243C350.283 161.195 349.424 160.981 348.674 160.599C347.925 160.211 347.35 159.658 346.949 158.939C346.555 158.221 346.402 157.35 346.49 156.327L347.758 140.309ZM361.12 162.121C359.478 161.991 358.086 161.537 356.946 160.76C355.813 159.977 354.977 158.93 354.436 157.621C353.897 156.305 353.695 154.79 353.83 153.077C353.963 151.392 354.4 149.938 355.141 148.716C355.889 147.488 356.871 146.564 358.086 145.944C359.302 145.318 360.692 145.067 362.256 145.191C363.266 145.27 364.205 145.509 365.075 145.907C365.953 146.299 366.71 146.859 367.346 147.589C367.989 148.32 368.469 149.224 368.784 150.3C369.1 151.37 369.201 152.623 369.088 154.059L368.994 155.243L355.567 154.18L355.773 151.578L365.499 152.348C365.551 151.608 365.443 150.937 365.176 150.337C364.909 149.729 364.508 149.236 363.973 148.857C363.444 148.479 362.811 148.261 362.071 148.202C361.282 148.14 360.574 148.277 359.946 148.614C359.319 148.943 358.814 149.404 358.431 149.996C358.055 150.582 357.835 151.24 357.77 151.972L357.59 154.244C357.515 155.196 357.625 156.028 357.919 156.738C358.214 157.441 358.66 157.998 359.257 158.41C359.854 158.815 360.573 159.051 361.411 159.118C361.973 159.162 362.488 159.124 362.955 159.004C363.423 158.876 363.837 158.669 364.195 158.383C364.554 158.096 364.837 157.729 365.045 157.28L368.617 157.971C368.314 158.905 367.815 159.703 367.119 160.363C366.43 161.017 365.576 161.5 364.557 161.813C363.538 162.119 362.393 162.221 361.12 162.121ZM375.349 163.215C374.062 163.113 372.937 162.691 371.972 161.949C371.008 161.208 370.28 160.184 369.79 158.879C369.299 157.574 369.125 156.022 369.268 154.223C369.412 152.403 369.832 150.891 370.528 149.687C371.232 148.476 372.121 147.592 373.195 147.033C374.27 146.467 375.437 146.234 376.696 146.333C377.655 146.409 378.432 146.635 379.024 147.011C379.618 147.38 380.078 147.806 380.404 148.29C380.731 148.767 380.979 149.212 381.146 149.626L381.306 149.638L381.953 141.469L385.824 141.776L384.096 163.617L380.299 163.316L380.503 160.736L380.269 160.717C380.038 161.099 379.717 161.5 379.304 161.918C378.893 162.329 378.365 162.666 377.722 162.93C377.078 163.194 376.288 163.289 375.349 163.215ZM376.677 160.132C377.495 160.197 378.209 160.032 378.819 159.637C379.431 159.234 379.917 158.647 380.279 157.874C380.641 157.101 380.863 156.185 380.947 155.126C381.031 154.067 380.954 153.134 380.718 152.328C380.488 151.523 380.103 150.881 379.561 150.402C379.026 149.923 378.343 149.651 377.511 149.585C376.651 149.517 375.915 149.684 375.304 150.086C374.693 150.489 374.21 151.073 373.856 151.839C373.502 152.605 373.285 153.497 373.205 154.513C373.123 155.537 373.197 156.462 373.425 157.289C373.66 158.109 374.048 158.772 374.587 159.28C375.134 159.781 375.831 160.065 376.677 160.132Z" fill="black"/>
<path d="M406.088 148.745L405.11 151.479L390.958 150.359L391.947 147.626L406.088 148.745ZM397.668 164.691L390.914 155.12L391.09 152.752L394.78 153.044C395.662 153.114 396.409 153.026 397.023 152.781C397.643 152.53 398.128 152.15 398.476 151.641C398.831 151.125 399.038 150.505 399.095 149.78C399.181 148.692 398.931 147.792 398.343 147.08C397.755 146.368 396.758 145.957 395.35 145.845L391.34 145.528L392.433 142.298L395.611 142.55C397.402 142.692 398.863 143.086 399.992 143.734C401.129 144.375 401.949 145.219 402.453 146.268C402.964 147.317 403.166 148.514 403.06 149.857C402.966 151.045 402.665 152.087 402.158 152.984C401.65 153.881 400.907 154.591 399.929 155.115C398.95 155.638 397.699 155.94 396.176 156.02L396.045 156.052L402.131 164.851L402.116 165.043L397.668 164.691ZM406.531 143.414L405.528 146.189L394.057 145.239L395.056 142.506L406.531 143.414ZM412.871 166.194C411.449 166.082 410.198 165.714 409.116 165.092C408.036 164.463 407.202 163.653 406.615 162.662C406.035 161.672 405.772 160.571 405.825 159.359L409.664 159.663C409.664 160.564 409.994 161.327 410.653 161.952C411.312 162.569 412.136 162.917 413.124 162.995C413.899 163.056 414.603 162.933 415.235 162.625C415.868 162.318 416.383 161.861 416.782 161.256C417.18 160.651 417.408 159.943 417.465 159.132C417.537 158.307 417.421 157.561 417.116 156.893C416.811 156.225 416.364 155.686 415.774 155.274C415.185 154.855 414.488 154.614 413.685 154.551C413.032 154.492 412.379 154.562 411.726 154.761C411.074 154.959 410.547 155.247 410.145 155.623L406.618 154.753L408.651 143.582L421.32 144.584L421.059 147.89L411.663 147.147L410.576 152.888L410.704 152.898C411.147 152.454 411.75 152.105 412.514 151.85C413.279 151.589 414.102 151.493 414.984 151.563C416.306 151.667 417.462 152.074 418.45 152.781C419.439 153.482 420.19 154.4 420.701 155.535C421.212 156.67 421.412 157.938 421.301 159.339C421.187 160.782 420.751 162.042 419.993 163.12C419.243 164.191 418.252 165.003 417.021 165.557C415.797 166.104 414.414 166.316 412.871 166.194ZM429.944 167.663C428.188 167.524 426.715 166.961 425.527 165.972C424.347 164.978 423.486 163.611 422.943 161.872C422.409 160.127 422.236 158.064 422.425 155.682C422.62 153.301 423.118 151.301 423.919 149.684C424.727 148.059 425.792 146.856 427.113 146.073C428.441 145.291 429.979 144.969 431.728 145.107C433.477 145.246 434.946 145.806 436.135 146.787C437.324 147.768 438.186 149.124 438.721 150.855C439.264 152.586 439.441 154.639 439.253 157.014C439.064 159.403 438.565 161.417 437.756 163.055C436.954 164.687 435.889 165.898 434.56 166.687C433.239 167.477 431.7 167.802 429.944 167.663ZM430.208 164.325C431.573 164.433 432.703 163.847 433.599 162.565C434.502 161.277 435.057 159.322 435.265 156.698C435.402 154.963 435.336 153.492 435.067 152.283C434.798 151.074 434.356 150.145 433.742 149.495C433.129 148.838 432.371 148.474 431.468 148.403C430.11 148.295 428.983 148.886 428.087 150.174C427.191 151.456 426.637 153.397 426.424 155.999C426.279 157.74 426.337 159.218 426.599 160.434C426.867 161.65 427.308 162.586 427.922 163.243C428.536 163.892 429.298 164.253 430.208 164.325ZM447.572 169.058C445.816 168.919 444.344 168.356 443.156 167.367C441.975 166.372 441.114 165.006 440.572 163.267C440.037 161.522 439.865 159.459 440.053 157.077C440.249 154.696 440.747 152.696 441.547 151.078C442.355 149.454 443.42 148.25 444.741 147.468C446.069 146.686 447.608 146.364 449.357 146.502C451.106 146.641 452.575 147.201 453.763 148.182C454.952 149.163 455.814 150.519 456.35 152.25C456.892 153.981 457.07 156.034 456.882 158.409C456.693 160.798 456.194 162.811 455.384 164.45C454.583 166.082 453.517 167.293 452.189 168.082C450.867 168.872 449.328 169.197 447.572 169.058ZM447.836 165.72C449.201 165.828 450.332 165.242 451.227 163.96C452.13 162.672 452.686 160.717 452.893 158.093C453.031 156.358 452.965 154.887 452.695 153.678C452.426 152.469 451.985 151.539 451.371 150.89C450.757 150.233 449.999 149.869 449.096 149.798C447.738 149.69 446.611 150.281 445.715 151.569C444.82 152.851 444.265 154.792 444.052 157.394C443.907 159.135 443.966 160.613 444.227 161.829C444.496 163.045 444.937 163.981 445.55 164.638C446.164 165.287 446.926 165.648 447.836 165.72Z" fill="#69C476"/>
</g>
<rect x="1" y="1" width="469" height="248" rx="46" stroke="black" stroke-width="2"/>
<defs>
<clipPath id="clip0_106_272">
<rect width="471" height="250" rx="47" fill="white"/>
</clipPath>
<clipPath id="clip1_106_272">
<rect width="280" height="280" fill="white" transform="translate(17 -21)"/>
</clipPath>
<clipPath id="clip2_106_272">
<rect x="56.2998" y="149" width="377" height="94" rx="8" transform="rotate(9.36765 56.2998 149)" fill="white"/>
</clipPath>
<clipPath id="clip3_106_272">
<rect x="60.3369" y="204.396" width="341" height="23" rx="7" transform="rotate(9.36765 60.3369 204.396)" fill="white"/>
</clipPath>
</defs>
</svg>
