<svg width="227" height="250" viewBox="0 0 227 250" fill="none" xmlns="http://www.w3.org/2000/svg">
<g clip-path="url(#clip0_110_134)">
<rect width="227" height="250" rx="47" fill="#FFC7B2"/>
<path d="M48.08 67.48C45.5467 67.48 43.36 66.8667 41.52 65.64C39.68 64.4133 38.2667 62.72 37.28 60.56C36.32 58.3733 35.84 55.8533 35.84 53C35.84 50.1467 36.32 47.64 37.28 45.48C38.2667 43.2933 39.6667 41.5867 41.48 40.36C43.32 39.1333 45.52 38.52 48.08 38.52C50.64 38.52 52.8267 39.1333 54.64 40.36C56.48 41.5867 57.88 43.2933 58.84 45.48C59.8267 47.64 60.32 50.1467 60.32 53C60.32 55.8533 59.8267 58.3733 58.84 60.56C57.88 62.72 56.48 64.4133 54.64 65.64C52.8267 66.8667 50.64 67.48 48.08 67.48ZM48.08 62.64C49.4133 62.64 50.5867 62.2533 51.6 61.48C52.6133 60.68 53.4 59.56 53.96 58.12C54.5467 56.68 54.84 54.9733 54.84 53C54.84 51 54.5467 49.2933 53.96 47.88C53.4 46.44 52.6133 45.3333 51.6 44.56C50.5867 43.7867 49.4133 43.4 48.08 43.4C46.7467 43.4 45.5733 43.7867 44.56 44.56C43.5467 45.3333 42.7467 46.44 42.16 47.88C41.6 49.2933 41.32 51 41.32 53C41.32 54.9733 41.6 56.68 42.16 58.12C42.7467 59.56 43.5467 60.68 44.56 61.48C45.5733 62.2533 46.7467 62.64 48.08 62.64ZM67.2441 67L82.9641 39H88.2041L72.4841 67H67.2441ZM87.2441 67.48C85.9374 67.48 84.7507 67.2 83.6841 66.64C82.6441 66.0533 81.8174 65.2267 81.2041 64.16C80.5907 63.0667 80.2841 61.7867 80.2841 60.32C80.2841 58.8267 80.5907 57.5467 81.2041 56.48C81.8174 55.4133 82.6441 54.6 83.6841 54.04C84.7507 53.4533 85.9374 53.16 87.2441 53.16C88.5507 53.16 89.7241 53.4533 90.7641 54.04C91.8041 54.6 92.6307 55.4133 93.2441 56.48C93.8574 57.5467 94.1641 58.8267 94.1641 60.32C94.1641 61.7867 93.8574 63.0667 93.2441 64.16C92.6307 65.2267 91.8041 66.0533 90.7641 66.64C89.7241 67.2 88.5507 67.48 87.2441 67.48ZM87.2041 63.76C87.7374 63.76 88.2041 63.6267 88.6041 63.36C89.0041 63.0933 89.3241 62.7067 89.5641 62.2C89.8041 61.6933 89.9241 61.0667 89.9241 60.32C89.9241 59.5467 89.8041 58.9067 89.5641 58.4C89.3507 57.8667 89.0307 57.4667 88.6041 57.2C88.2041 56.9333 87.7374 56.8 87.2041 56.8C86.6974 56.8 86.2307 56.9333 85.8041 57.2C85.4041 57.4667 85.0841 57.8667 84.8441 58.4C84.6041 58.9067 84.4841 59.5467 84.4841 60.32C84.4841 61.0667 84.6041 61.6933 84.8441 62.2C85.0841 62.7067 85.4041 63.0933 85.8041 63.36C86.2307 63.6267 86.6974 63.76 87.2041 63.76ZM68.4041 52.88C67.1241 52.88 65.9507 52.5867 64.8841 52C63.8441 51.4133 63.0041 50.5867 62.3641 49.52C61.7507 48.4533 61.4441 47.1867 61.4441 45.72C61.4441 44.2 61.7507 42.92 62.3641 41.88C63.0041 40.8133 63.8441 39.9867 64.8841 39.4C65.9507 38.8133 67.1374 38.52 68.4441 38.52C69.7507 38.52 70.9107 38.8133 71.9241 39.4C72.9641 39.9867 73.7907 40.8133 74.4041 41.88C75.0441 42.92 75.3641 44.2 75.3641 45.72C75.3641 47.1867 75.0441 48.4533 74.4041 49.52C73.7907 50.5867 72.9641 51.4133 71.9241 52C70.8841 52.5867 69.7107 52.88 68.4041 52.88ZM68.4041 49.16C68.9107 49.16 69.3641 49.0267 69.7641 48.76C70.1907 48.4933 70.5241 48.1067 70.7641 47.6C71.0041 47.0933 71.1241 46.4667 71.1241 45.72C71.1241 44.92 71.0041 44.2667 70.7641 43.76C70.5241 43.2533 70.1907 42.8667 69.7641 42.6C69.3641 42.3333 68.9107 42.2 68.4041 42.2C67.8974 42.2 67.4307 42.3333 67.0041 42.6C66.6041 42.8667 66.2841 43.2667 66.0441 43.8C65.8041 44.3067 65.6841 44.9467 65.6841 45.72C65.6841 46.4667 65.8041 47.0933 66.0441 47.6C66.2841 48.1067 66.6041 48.4933 67.0041 48.76C67.4307 49.0267 67.8974 49.16 68.4041 49.16ZM104.032 67V45.04C104.032 43.36 104.312 42.0267 104.872 41.04C105.432 40.0533 106.232 39.3333 107.272 38.88C108.339 38.4267 109.579 38.2 110.992 38.2H113.472V42.8H111.792C110.939 42.8 110.325 42.9733 109.952 43.32C109.605 43.64 109.432 44.2133 109.432 45.04V67H104.032ZM101.272 51.36V46.84H113.792V51.36H101.272ZM124.294 67.48C122.374 67.48 120.641 67.04 119.094 66.16C117.574 65.2533 116.361 64.0133 115.454 62.44C114.574 60.84 114.134 59.0133 114.134 56.96C114.134 54.8533 114.574 53.0133 115.454 51.44C116.361 49.84 117.588 48.6 119.134 47.72C120.681 46.8133 122.414 46.36 124.334 46.36C126.281 46.36 128.014 46.8133 129.534 47.72C131.081 48.6 132.294 49.84 133.174 51.44C134.081 53.0133 134.534 54.84 134.534 56.92C134.534 59 134.081 60.84 133.174 62.44C132.294 64.0133 131.081 65.2533 129.534 66.16C127.988 67.04 126.241 67.48 124.294 67.48ZM124.294 62.8C125.201 62.8 126.001 62.5867 126.694 62.16C127.414 61.7333 127.974 61.08 128.374 60.2C128.801 59.32 129.014 58.2267 129.014 56.92C129.014 55.6133 128.801 54.5333 128.374 53.68C127.974 52.8 127.414 52.1467 126.694 51.72C126.001 51.2667 125.214 51.04 124.334 51.04C123.481 51.04 122.694 51.2667 121.974 51.72C121.254 52.1467 120.681 52.8 120.254 53.68C119.854 54.5333 119.654 55.6133 119.654 56.92C119.654 58.2267 119.854 59.32 120.254 60.2C120.681 61.08 121.241 61.7333 121.934 62.16C122.654 62.5867 123.441 62.8 124.294 62.8ZM136.788 67V46.84H141.588L142.108 50.56C142.588 49.68 143.188 48.9333 143.908 48.32C144.655 47.7067 145.495 47.2267 146.428 46.88C147.388 46.5333 148.442 46.36 149.588 46.36V52.08H147.748C146.948 52.08 146.202 52.1733 145.508 52.36C144.842 52.5467 144.255 52.8533 143.748 53.28C143.242 53.68 142.855 54.24 142.588 54.96C142.322 55.68 142.188 56.5867 142.188 57.68V67H136.788ZM160.123 67.48C158.096 67.48 156.296 67.0533 154.723 66.2C153.176 65.32 151.963 64.1067 151.083 62.56C150.23 60.9867 149.803 59.1733 149.803 57.12C149.803 55.0133 150.23 53.16 151.083 51.56C151.963 49.9333 153.176 48.6667 154.723 47.76C156.27 46.8267 158.07 46.36 160.123 46.36C162.123 46.36 163.87 46.8 165.363 47.68C166.856 48.56 168.016 49.7467 168.843 51.24C169.67 52.7333 170.083 54.4267 170.083 56.32C170.083 56.5867 170.083 56.8933 170.083 57.24C170.083 57.56 170.056 57.8933 170.003 58.24H153.643V54.96H164.643C164.563 53.6533 164.096 52.6267 163.243 51.88C162.416 51.1333 161.376 50.76 160.123 50.76C159.216 50.76 158.376 50.9733 157.603 51.4C156.83 51.8 156.216 52.4267 155.763 53.28C155.336 54.1333 155.123 55.2133 155.123 56.52V57.68C155.123 58.7733 155.323 59.7333 155.723 60.56C156.15 61.36 156.736 61.9867 157.483 62.44C158.23 62.8667 159.096 63.08 160.083 63.08C161.07 63.08 161.883 62.8667 162.523 62.44C163.19 62.0133 163.683 61.4667 164.003 60.8H169.523C169.15 62.0533 168.523 63.1867 167.643 64.2C166.763 65.2133 165.683 66.0133 164.403 66.6C163.123 67.1867 161.696 67.48 160.123 67.48ZM168.78 67L176.02 56.92L168.78 46.84H174.62L179.46 53.76L184.3 46.84H190.1L182.86 56.92L190.1 67H184.3L179.46 60.04L174.62 67H168.78ZM46.4 108.48C44.3733 108.48 42.5733 108.027 41 107.12C39.4267 106.213 38.2 104.973 37.32 103.4C36.44 101.827 36 100.027 36 98C36 95.92 36.44 94.0933 37.32 92.52C38.2 90.92 39.4267 89.6667 41 88.76C42.5733 87.8267 44.3733 87.36 46.4 87.36C48.9867 87.36 51.16 88.04 52.92 89.4C54.68 90.76 55.8 92.6267 56.28 95H50.56C50.32 94.0667 49.8133 93.3333 49.04 92.8C48.2933 92.2667 47.4 92 46.36 92C45.4267 92 44.5867 92.24 43.84 92.72C43.12 93.1733 42.5467 93.8533 42.12 94.76C41.72 95.64 41.52 96.6933 41.52 97.92C41.52 98.8533 41.64 99.6933 41.88 100.44C42.12 101.16 42.4533 101.787 42.88 102.32C43.3067 102.827 43.8133 103.213 44.4 103.48C45.0133 103.747 45.6667 103.88 46.36 103.88C47.0533 103.88 47.68 103.76 48.24 103.52C48.8267 103.28 49.32 102.947 49.72 102.52C50.12 102.067 50.4 101.52 50.56 100.88H56.28C55.8 103.2 54.6667 105.053 52.88 106.44C51.12 107.8 48.96 108.48 46.4 108.48ZM58.5369 108V79.2H63.9369V90.84C64.6035 89.7733 65.4835 88.9333 66.5769 88.32C67.6969 87.68 68.9902 87.36 70.4569 87.36C72.1369 87.36 73.5502 87.72 74.6969 88.44C75.8435 89.1333 76.7102 90.1467 77.2969 91.48C77.8835 92.8133 78.1769 94.4667 78.1769 96.44V108H72.8169V96.92C72.8169 95.32 72.4835 94.0933 71.8169 93.24C71.1502 92.36 70.0969 91.92 68.6569 91.92C67.7769 91.92 66.9769 92.1333 66.2569 92.56C65.5369 92.9867 64.9635 93.6133 64.5369 94.44C64.1369 95.24 63.9369 96.2 63.9369 97.32V108H58.5369ZM87.6634 108.48C85.9834 108.48 84.5968 108.213 83.5034 107.68C82.4101 107.12 81.5968 106.387 81.0634 105.48C80.5568 104.547 80.3034 103.52 80.3034 102.4C80.3034 101.173 80.6101 100.093 81.2234 99.16C81.8634 98.2267 82.8101 97.4933 84.0634 96.96C85.3434 96.4267 86.9434 96.16 88.8634 96.16H93.8634C93.8634 95.1733 93.7301 94.36 93.4634 93.72C93.1968 93.0533 92.7834 92.56 92.2234 92.24C91.6634 91.92 90.9168 91.76 89.9834 91.76C88.9701 91.76 88.1034 91.9867 87.3834 92.44C86.6901 92.8667 86.2634 93.5333 86.1034 94.44H80.8634C80.9968 93 81.4634 91.76 82.2634 90.72C83.0901 89.6533 84.1701 88.8267 85.5034 88.24C86.8634 87.6533 88.3701 87.36 90.0234 87.36C91.9168 87.36 93.5568 87.68 94.9434 88.32C96.3301 88.96 97.3968 89.88 98.1434 91.08C98.8901 92.28 99.2634 93.76 99.2634 95.52V108H94.7034L94.1034 104.92C93.8101 105.453 93.4634 105.933 93.0634 106.36C92.6634 106.787 92.1968 107.16 91.6634 107.48C91.1301 107.8 90.5301 108.04 89.8634 108.2C89.1968 108.387 88.4634 108.48 87.6634 108.48ZM88.9434 104.32C89.6368 104.32 90.2501 104.2 90.7834 103.96C91.3434 103.693 91.8234 103.347 92.2234 102.92C92.6234 102.467 92.9301 101.96 93.1434 101.4C93.3834 100.813 93.5434 100.187 93.6234 99.52V99.48H89.5034C88.6768 99.48 87.9968 99.5867 87.4634 99.8C86.9568 99.9867 86.5834 100.267 86.3434 100.64C86.1034 101.013 85.9834 101.44 85.9834 101.92C85.9834 102.453 86.1034 102.893 86.3434 103.24C86.5834 103.587 86.9301 103.853 87.3834 104.04C87.8368 104.227 88.3568 104.32 88.9434 104.32ZM101.901 108V87.84H106.701L107.221 91.56C107.701 90.68 108.301 89.9333 109.021 89.32C109.768 88.7067 110.608 88.2267 111.541 87.88C112.501 87.5333 113.554 87.36 114.701 87.36V93.08H112.861C112.061 93.08 111.314 93.1733 110.621 93.36C109.954 93.5467 109.368 93.8533 108.861 94.28C108.354 94.68 107.968 95.24 107.701 95.96C107.434 96.68 107.301 97.5867 107.301 98.68V108H101.901ZM124.079 117.28C122.159 117.28 120.479 117.04 119.039 116.56C117.599 116.107 116.479 115.4 115.679 114.44C114.906 113.507 114.519 112.347 114.519 110.96C114.519 110.027 114.759 109.147 115.239 108.32C115.719 107.493 116.413 106.747 117.319 106.08C118.253 105.387 119.413 104.8 120.799 104.32L122.839 106.96C121.613 107.36 120.719 107.853 120.159 108.44C119.626 109.053 119.359 109.707 119.359 110.4C119.359 111.013 119.559 111.533 119.959 111.96C120.386 112.387 120.946 112.693 121.639 112.88C122.359 113.093 123.159 113.2 124.039 113.2C124.893 113.2 125.626 113.093 126.239 112.88C126.879 112.667 127.373 112.347 127.719 111.92C128.093 111.52 128.279 111.04 128.279 110.48C128.279 109.76 128.026 109.173 127.519 108.72C127.013 108.267 125.999 107.987 124.479 107.88C123.119 107.773 121.906 107.627 120.839 107.44C119.799 107.227 118.879 106.987 118.079 106.72C117.279 106.427 116.599 106.107 116.039 105.76C115.506 105.413 115.066 105.067 114.719 104.72V103.8L118.999 99.2L122.879 100.44L117.839 105.4L119.359 102.76C119.653 102.92 119.933 103.08 120.199 103.24C120.493 103.373 120.853 103.507 121.279 103.64C121.706 103.747 122.266 103.853 122.959 103.96C123.653 104.067 124.533 104.16 125.599 104.24C127.359 104.4 128.799 104.733 129.919 105.24C131.066 105.747 131.906 106.427 132.439 107.28C132.973 108.107 133.239 109.133 133.239 110.36C133.239 111.56 132.906 112.68 132.239 113.72C131.599 114.787 130.599 115.64 129.239 116.28C127.879 116.947 126.159 117.28 124.079 117.28ZM124.079 102.04C122.399 102.04 120.946 101.72 119.719 101.08C118.519 100.413 117.586 99.5333 116.919 98.44C116.279 97.32 115.959 96.08 115.959 94.72C115.959 93.36 116.279 92.1333 116.919 91.04C117.586 89.92 118.519 89.0267 119.719 88.36C120.946 87.6933 122.399 87.36 124.079 87.36C125.786 87.36 127.239 87.6933 128.439 88.36C129.666 89.0267 130.599 89.92 131.239 91.04C131.879 92.1333 132.199 93.36 132.199 94.72C132.199 96.08 131.879 97.32 131.239 98.44C130.599 99.5333 129.666 100.413 128.439 101.08C127.239 101.72 125.786 102.04 124.079 102.04ZM124.079 97.92C125.119 97.92 125.959 97.6533 126.599 97.12C127.239 96.5867 127.559 95.8 127.559 94.76C127.559 93.72 127.239 92.9333 126.599 92.4C125.959 91.84 125.119 91.56 124.079 91.56C123.066 91.56 122.226 91.84 121.559 92.4C120.919 92.9333 120.599 93.72 120.599 94.76C120.599 95.8 120.919 96.5867 121.559 97.12C122.226 97.6533 123.066 97.92 124.079 97.92ZM127.439 91.68L126.559 87.84H134.839V91.04L127.439 91.68ZM145.726 108.48C143.7 108.48 141.9 108.053 140.326 107.2C138.78 106.32 137.566 105.107 136.686 103.56C135.833 101.987 135.406 100.173 135.406 98.12C135.406 96.0133 135.833 94.16 136.686 92.56C137.566 90.9333 138.78 89.6667 140.326 88.76C141.873 87.8267 143.673 87.36 145.726 87.36C147.726 87.36 149.473 87.8 150.966 88.68C152.46 89.56 153.62 90.7467 154.446 92.24C155.273 93.7333 155.686 95.4267 155.686 97.32C155.686 97.5867 155.686 97.8933 155.686 98.24C155.686 98.56 155.66 98.8933 155.606 99.24H139.246V95.96H150.246C150.166 94.6533 149.7 93.6267 148.846 92.88C148.02 92.1333 146.98 91.76 145.726 91.76C144.82 91.76 143.98 91.9733 143.206 92.4C142.433 92.8 141.82 93.4267 141.366 94.28C140.94 95.1333 140.726 96.2133 140.726 97.52V98.68C140.726 99.7733 140.926 100.733 141.326 101.56C141.753 102.36 142.34 102.987 143.086 103.44C143.833 103.867 144.7 104.08 145.686 104.08C146.673 104.08 147.486 103.867 148.126 103.44C148.793 103.013 149.286 102.467 149.606 101.8H155.126C154.753 103.053 154.126 104.187 153.246 105.2C152.366 106.213 151.286 107.013 150.006 107.6C148.726 108.187 147.3 108.48 145.726 108.48ZM165.949 108.48C164.109 108.48 162.509 108.187 161.149 107.6C159.789 107.013 158.722 106.2 157.949 105.16C157.175 104.12 156.735 102.947 156.629 101.64H161.989C162.122 102.147 162.349 102.613 162.669 103.04C162.989 103.44 163.415 103.76 163.949 104C164.482 104.24 165.122 104.36 165.869 104.36C166.589 104.36 167.175 104.267 167.629 104.08C168.082 103.867 168.415 103.587 168.629 103.24C168.869 102.893 168.989 102.533 168.989 102.16C168.989 101.6 168.829 101.173 168.509 100.88C168.189 100.56 167.722 100.307 167.109 100.12C166.495 99.9333 165.749 99.7467 164.869 99.56C163.909 99.3733 162.962 99.1467 162.029 98.88C161.122 98.5867 160.309 98.2267 159.589 97.8C158.869 97.3733 158.295 96.8267 157.869 96.16C157.442 95.4933 157.229 94.6667 157.229 93.68C157.229 92.48 157.549 91.4133 158.189 90.48C158.829 89.52 159.762 88.76 160.989 88.2C162.215 87.64 163.695 87.36 165.429 87.36C167.855 87.36 169.775 87.9067 171.189 89C172.602 90.0933 173.442 91.6 173.709 93.52H168.629C168.469 92.9067 168.109 92.4267 167.549 92.08C167.015 91.7067 166.295 91.52 165.389 91.52C164.429 91.52 163.695 91.6933 163.189 92.04C162.682 92.3867 162.429 92.84 162.429 93.4C162.429 93.7733 162.589 94.1067 162.909 94.4C163.255 94.6933 163.735 94.9467 164.349 95.16C164.962 95.3467 165.709 95.5333 166.589 95.72C168.135 96.04 169.495 96.4133 170.669 96.84C171.842 97.24 172.762 97.8267 173.429 98.6C174.095 99.3467 174.429 100.44 174.429 101.88C174.429 103.16 174.082 104.307 173.389 105.32C172.695 106.307 171.709 107.08 170.429 107.64C169.175 108.2 167.682 108.48 165.949 108.48Z" fill="black"/>
<g clip-path="url(#clip1_110_134)">
<path d="M173.56 97.531C165.617 100.605 158.625 105.72 153.292 112.36C147.958 119 144.471 126.93 143.183 135.349C136.733 129.787 128.929 126.025 120.56 124.443C112.192 122.862 103.554 123.517 95.5187 126.342C82.9877 131.597 73.0457 141.597 67.8648 154.159C62.6839 166.721 62.6852 180.823 67.8685 193.384C85.6133 241.45 183.837 268.27 188.013 269.405L193.185 270.793L196.214 266.377C198.656 262.815 255.885 178.59 238.14 130.524C233.918 117.608 224.756 106.888 212.656 100.706C200.555 94.5243 186.499 93.3828 173.56 97.531ZM186.736 253.326C157.293 244.606 93.789 219.922 82.0578 188.145C78.2589 179.348 78.0928 169.405 81.5957 160.485C85.0987 151.565 91.9866 144.392 100.757 140.531C109.933 137.767 119.829 138.744 128.288 143.247C136.746 147.751 143.081 155.417 145.91 164.573L160.099 159.334C156.3 150.537 156.134 140.594 159.637 131.674C163.14 122.754 170.028 115.582 178.798 111.72C187.974 108.956 197.87 109.933 206.329 114.437C214.787 118.941 221.122 126.606 223.951 135.762C235.687 167.553 203.451 227.566 186.736 253.326Z" fill="black" fill-opacity="0.067"/>
</g>
</g>
<rect x="1" y="1" width="225" height="248" rx="46" stroke="black" stroke-width="2"/>
<defs>
<clipPath id="clip0_110_134">
<rect width="227" height="250" rx="47" fill="white"/>
</clipPath>
<clipPath id="clip1_110_134">
<rect width="181.504" height="181.504" fill="white" transform="translate(47 136.86) rotate(-20.2628)"/>
</clipPath>
</defs>
</svg>
