<svg width="471" height="250" viewBox="0 0 471 250" fill="none" xmlns="http://www.w3.org/2000/svg">
<g clip-path="url(#clip0_110_179)">
<rect width="471" height="250" rx="47" fill="#FFE2F0"/>
<g clip-path="url(#clip1_110_179)">
<path d="M37.8007 42.082L19.5307 12.2387L72.0307 -19.833L90.3007 9.95199L37.8007 42.082ZM266.467 185.64L234.069 238.14L263.854 256.527L296.252 204.027L266.467 185.64ZM260.914 151.504L206.186 240.252C203.205 245.281 199.109 249.558 194.214 252.754C189.319 255.95 183.755 257.979 177.952 258.685C176.292 258.894 174.621 258.999 172.947 259C167.879 259.003 162.861 258.003 158.181 256.056C153.502 254.11 149.254 251.256 145.682 247.66L133.024 235.025C123.745 243.275 111.663 247.666 99.2526 247.301C86.8418 246.936 75.0397 241.841 66.2617 233.06C57.4836 224.279 52.3931 212.475 52.032 200.064C51.6709 187.653 56.0664 175.574 64.3191 166.297L28.339 130.294C24.287 126.238 21.1864 121.333 19.2613 115.932C17.3362 110.532 16.6346 104.772 17.2073 99.0674C17.78 93.3629 19.6126 87.8569 22.5727 82.9471C25.5329 78.0373 29.5466 73.8464 34.324 70.677L120.564 17.9203C137.121 7.31458 156.46 1.87829 176.118 2.30423C195.775 2.73017 214.861 8.99904 230.942 20.312L253.996 -2.75301L278.752 22.0037L255.699 45.0453C266.488 60.5062 272.699 78.6964 273.617 97.5273C274.535 116.358 270.124 135.066 260.891 151.504H260.914ZM219.847 56.4787C209.441 45.9778 195.746 39.3678 181.05 37.7539C166.355 36.14 151.551 39.62 139.114 47.612L53.1657 100.205C52.4907 100.804 52.0727 101.64 51.9991 102.539C51.9394 103.083 52.004 103.633 52.1879 104.148C52.3718 104.663 52.6702 105.13 53.0607 105.514L170.381 222.88C170.771 223.292 171.255 223.602 171.791 223.785C172.328 223.968 172.901 224.018 173.461 223.93C174.019 223.873 174.556 223.681 175.025 223.373C175.494 223.064 175.882 222.647 176.156 222.157L230.744 133.677C237.532 121.363 240.137 107.178 238.168 93.2553C236.199 79.333 229.761 66.4268 219.824 56.4787H219.847Z" fill="black" fill-opacity="0.067"/>
</g>
<path d="M28.1303 71V43H39.6103C41.557 43 43.197 43.3067 44.5303 43.92C45.8637 44.5333 46.8637 45.3867 47.5303 46.48C48.2237 47.5467 48.5703 48.7867 48.5703 50.2C48.5703 51.6133 48.2637 52.8 47.6503 53.76C47.037 54.72 46.2237 55.4667 45.2103 56C44.2237 56.5067 43.1303 56.8 41.9303 56.88L42.5703 56.44C43.8503 56.4933 44.9837 56.84 45.9703 57.48C46.9837 58.0933 47.7703 58.92 48.3303 59.96C48.917 61 49.2103 62.1333 49.2103 63.36C49.2103 64.8533 48.8503 66.1733 48.1303 67.32C47.4103 68.4667 46.3703 69.3733 45.0103 70.04C43.6503 70.68 41.9837 71 40.0103 71H28.1303ZM33.5303 66.6H39.1303C40.597 66.6 41.7303 66.2667 42.5303 65.6C43.3303 64.9333 43.7303 63.9733 43.7303 62.72C43.7303 61.4667 43.317 60.4933 42.4903 59.8C41.6637 59.08 40.517 58.72 39.0503 58.72H33.5303V66.6ZM33.5303 54.68H38.7303C40.1437 54.68 41.2103 54.36 41.9303 53.72C42.677 53.08 43.0503 52.1733 43.0503 51C43.0503 49.8533 42.677 48.96 41.9303 48.32C41.2103 47.6533 40.1303 47.32 38.6903 47.32H33.5303V54.68ZM58.6381 71.48C57.0115 71.48 55.6115 71.1467 54.4381 70.48C53.2915 69.7867 52.4115 68.7867 51.7981 67.48C51.1848 66.1467 50.8781 64.5067 50.8781 62.56V50.84H56.2781V62C56.2781 63.6267 56.6115 64.8533 57.2781 65.68C57.9715 66.5067 59.0248 66.92 60.4381 66.92C61.3448 66.92 62.1448 66.72 62.8381 66.32C63.5315 65.8933 64.0781 65.2933 64.4781 64.52C64.9048 63.72 65.1181 62.7467 65.1181 61.6V50.84H70.4781V71H65.7581L65.3181 67.72C64.7315 68.8667 63.8648 69.7867 62.7181 70.48C61.5715 71.1467 60.2115 71.48 58.6381 71.48ZM73.4866 71V50.84H78.8866V71H73.4866ZM76.2066 48.08C75.2466 48.08 74.4466 47.8 73.8066 47.24C73.1932 46.6533 72.8866 45.92 72.8866 45.04C72.8866 44.16 73.1932 43.44 73.8066 42.88C74.4466 42.2933 75.2466 42 76.2066 42C77.1932 42 77.9932 42.2933 78.6066 42.88C79.2466 43.44 79.5666 44.16 79.5666 45.04C79.5666 45.92 79.2466 46.6533 78.6066 47.24C77.9932 47.8 77.1932 48.08 76.2066 48.08ZM81.9431 71V42.2H87.3431V71H81.9431ZM99.2872 71C97.8739 71 96.6339 70.7867 95.5672 70.36C94.5272 69.9067 93.7139 69.1733 93.1272 68.16C92.5405 67.12 92.2472 65.7067 92.2472 63.92V55.36H88.8072V50.84H92.2472L92.8472 45.36H97.6472V50.84H102.967V55.36H97.6472V64C97.6472 64.9067 97.8472 65.5333 98.2472 65.88C98.6472 66.2267 99.3272 66.4 100.287 66.4H102.927V71H99.2872ZM105.552 61.48V56.96H122.432V61.48H105.552ZM125.879 71V50.84H131.279V71H125.879ZM128.599 48.08C127.639 48.08 126.839 47.8 126.199 47.24C125.585 46.6533 125.279 45.92 125.279 45.04C125.279 44.16 125.585 43.44 126.199 42.88C126.839 42.2933 127.639 42 128.599 42C129.585 42 130.385 42.2933 130.999 42.88C131.639 43.44 131.959 44.16 131.959 45.04C131.959 45.92 131.639 46.6533 130.999 47.24C130.385 47.8 129.585 48.08 128.599 48.08ZM134.335 71V50.84H139.095L139.495 54.12C140.109 53 140.975 52.0933 142.095 51.4C143.242 50.7067 144.602 50.36 146.175 50.36C147.855 50.36 149.269 50.7067 150.415 51.4C151.562 52.0933 152.429 53.1067 153.015 54.44C153.629 55.7733 153.935 57.4133 153.935 59.36V71H148.575V59.88C148.575 58.28 148.229 57.0533 147.535 56.2C146.869 55.3467 145.829 54.92 144.415 54.92C143.509 54.92 142.695 55.1333 141.975 55.56C141.282 55.9867 140.735 56.6 140.335 57.4C139.935 58.1733 139.735 59.12 139.735 60.24V71H134.335ZM170.437 71.48C168.757 71.48 167.37 71.2133 166.277 70.68C165.184 70.12 164.37 69.3867 163.837 68.48C163.33 67.5467 163.077 66.52 163.077 65.4C163.077 64.1733 163.384 63.0933 163.997 62.16C164.637 61.2267 165.584 60.4933 166.837 59.96C168.117 59.4267 169.717 59.16 171.637 59.16H176.637C176.637 58.1733 176.504 57.36 176.237 56.72C175.97 56.0533 175.557 55.56 174.997 55.24C174.437 54.92 173.69 54.76 172.757 54.76C171.744 54.76 170.877 54.9867 170.157 55.44C169.464 55.8667 169.037 56.5333 168.877 57.44H163.637C163.77 56 164.237 54.76 165.037 53.72C165.864 52.6533 166.944 51.8267 168.277 51.24C169.637 50.6533 171.144 50.36 172.797 50.36C174.69 50.36 176.33 50.68 177.717 51.32C179.104 51.96 180.17 52.88 180.917 54.08C181.664 55.28 182.037 56.76 182.037 58.52V71H177.477L176.877 67.92C176.584 68.4533 176.237 68.9333 175.837 69.36C175.437 69.7867 174.97 70.16 174.437 70.48C173.904 70.8 173.304 71.04 172.637 71.2C171.97 71.3867 171.237 71.48 170.437 71.48ZM171.717 67.32C172.41 67.32 173.024 67.2 173.557 66.96C174.117 66.6933 174.597 66.3467 174.997 65.92C175.397 65.4667 175.704 64.96 175.917 64.4C176.157 63.8133 176.317 63.1867 176.397 62.52V62.48H172.277C171.45 62.48 170.77 62.5867 170.237 62.8C169.73 62.9867 169.357 63.2667 169.117 63.64C168.877 64.0133 168.757 64.44 168.757 64.92C168.757 65.4533 168.877 65.8933 169.117 66.24C169.357 66.5867 169.704 66.8533 170.157 67.04C170.61 67.2267 171.13 67.32 171.717 67.32ZM184.674 71V42.2H190.074V71H184.674ZM202.618 71.48C200.592 71.48 198.792 71.0533 197.218 70.2C195.672 69.32 194.458 68.1067 193.578 66.56C192.725 64.9867 192.298 63.1733 192.298 61.12C192.298 59.0133 192.725 57.16 193.578 55.56C194.458 53.9333 195.672 52.6667 197.218 51.76C198.765 50.8267 200.565 50.36 202.618 50.36C204.618 50.36 206.365 50.8 207.858 51.68C209.352 52.56 210.512 53.7467 211.338 55.24C212.165 56.7333 212.578 58.4267 212.578 60.32C212.578 60.5867 212.578 60.8933 212.578 61.24C212.578 61.56 212.552 61.8933 212.498 62.24H196.138V58.96H207.138C207.058 57.6533 206.592 56.6267 205.738 55.88C204.912 55.1333 203.872 54.76 202.618 54.76C201.712 54.76 200.872 54.9733 200.098 55.4C199.325 55.8 198.712 56.4267 198.258 57.28C197.832 58.1333 197.618 59.2133 197.618 60.52V61.68C197.618 62.7733 197.818 63.7333 198.218 64.56C198.645 65.36 199.232 65.9867 199.978 66.44C200.725 66.8667 201.592 67.08 202.578 67.08C203.565 67.08 204.378 66.8667 205.018 66.44C205.685 66.0133 206.178 65.4667 206.498 64.8H212.018C211.645 66.0533 211.018 67.1867 210.138 68.2C209.258 69.2133 208.178 70.0133 206.898 70.6C205.618 71.1867 204.192 71.48 202.618 71.48ZM214.601 71V50.84H219.401L219.921 54.56C220.401 53.68 221.001 52.9333 221.721 52.32C222.468 51.7067 223.308 51.2267 224.241 50.88C225.201 50.5333 226.254 50.36 227.401 50.36V56.08H225.561C224.761 56.08 224.014 56.1733 223.321 56.36C222.654 56.5467 222.068 56.8533 221.561 57.28C221.054 57.68 220.668 58.24 220.401 58.96C220.134 59.68 220.001 60.5867 220.001 61.68V71H214.601ZM237.648 71C236.235 71 234.995 70.7867 233.928 70.36C232.888 69.9067 232.075 69.1733 231.488 68.16C230.901 67.12 230.608 65.7067 230.608 63.92V55.36H227.168V50.84H230.608L231.208 45.36H236.008V50.84H241.328V55.36H236.008V64C236.008 64.9067 236.208 65.5333 236.608 65.88C237.008 66.2267 237.688 66.4 238.648 66.4H241.288V71H237.648ZM251.713 71.48C249.873 71.48 248.273 71.1867 246.913 70.6C245.553 70.0133 244.486 69.2 243.713 68.16C242.94 67.12 242.5 65.9467 242.393 64.64H247.753C247.886 65.1467 248.113 65.6133 248.433 66.04C248.753 66.44 249.18 66.76 249.713 67C250.246 67.24 250.886 67.36 251.633 67.36C252.353 67.36 252.94 67.2667 253.393 67.08C253.846 66.8667 254.18 66.5867 254.393 66.24C254.633 65.8933 254.753 65.5333 254.753 65.16C254.753 64.6 254.593 64.1733 254.273 63.88C253.953 63.56 253.486 63.3067 252.873 63.12C252.26 62.9333 251.513 62.7467 250.633 62.56C249.673 62.3733 248.726 62.1467 247.793 61.88C246.886 61.5867 246.073 61.2267 245.353 60.8C244.633 60.3733 244.06 59.8267 243.633 59.16C243.206 58.4933 242.993 57.6667 242.993 56.68C242.993 55.48 243.313 54.4133 243.953 53.48C244.593 52.52 245.526 51.76 246.753 51.2C247.98 50.64 249.46 50.36 251.193 50.36C253.62 50.36 255.54 50.9067 256.953 52C258.366 53.0933 259.206 54.6 259.473 56.52H254.393C254.233 55.9067 253.873 55.4267 253.313 55.08C252.78 54.7067 252.06 54.52 251.153 54.52C250.193 54.52 249.46 54.6933 248.953 55.04C248.446 55.3867 248.193 55.84 248.193 56.4C248.193 56.7733 248.353 57.1067 248.673 57.4C249.02 57.6933 249.5 57.9467 250.113 58.16C250.726 58.3467 251.473 58.5333 252.353 58.72C253.9 59.04 255.26 59.4133 256.433 59.84C257.606 60.24 258.526 60.8267 259.193 61.6C259.86 62.3467 260.193 63.44 260.193 64.88C260.193 66.16 259.846 67.3067 259.153 68.32C258.46 69.3067 257.473 70.08 256.193 70.64C254.94 71.2 253.446 71.48 251.713 71.48ZM290.576 71L275.376 55.88C274.149 54.6533 273.283 53.5467 272.776 52.56C272.269 51.5467 272.016 50.48 272.016 49.36C272.016 48.08 272.336 46.92 272.976 45.88C273.616 44.84 274.549 44.0267 275.776 43.44C277.029 42.8267 278.523 42.52 280.256 42.52C281.989 42.52 283.443 42.84 284.616 43.48C285.816 44.12 286.723 44.96 287.336 46C287.976 47.04 288.283 48.2133 288.256 49.52H283.096C283.096 48.56 282.816 47.84 282.256 47.36C281.696 46.88 281.003 46.64 280.176 46.64C279.269 46.64 278.536 46.8933 277.976 47.4C277.443 47.88 277.176 48.52 277.176 49.32C277.176 49.96 277.376 50.6267 277.776 51.32C278.176 52.0133 278.789 52.7867 279.616 53.64L297.016 71H290.576ZM278.416 71.44C276.363 71.44 274.576 71.0933 273.056 70.4C271.563 69.68 270.403 68.68 269.576 67.4C268.749 66.12 268.336 64.6133 268.336 62.88C268.336 61.5467 268.616 60.3067 269.176 59.16C269.736 57.9867 270.576 56.96 271.696 56.08C272.816 55.1733 274.203 54.4533 275.856 53.92L277.896 53.28L280.256 56.64L278.416 57.24C276.789 57.7733 275.576 58.4933 274.776 59.4C274.003 60.3067 273.616 61.36 273.616 62.56C273.616 63.3867 273.816 64.1467 274.216 64.84C274.616 65.5067 275.203 66.04 275.976 66.44C276.749 66.84 277.656 67.04 278.696 67.04C280.136 67.04 281.429 66.72 282.576 66.08C283.723 65.44 284.829 64.4133 285.896 63C286.376 62.36 286.856 61.64 287.336 60.84C287.816 60.04 288.296 59.1467 288.776 58.16L289.616 56.44H295.096L293.736 59.2C293.069 60.5867 292.389 61.8533 291.696 63C291.003 64.1467 290.283 65.16 289.536 66.04C288.016 67.9333 286.349 69.3067 284.536 70.16C282.749 71.0133 280.709 71.44 278.416 71.44ZM309.2 71L303.28 50.84H308.6L312.52 67.2L311.52 67.16L316 50.84H322L326.48 67.16L325.44 67.2L329.4 50.84H334.72L328.8 71H323.2L318.44 54.2H319.56L314.8 71H309.2ZM335.773 71V50.84L341.173 50.84V71H335.773ZM338.493 48.08C337.533 48.08 336.733 47.8 336.093 47.24C335.479 46.6533 335.173 45.92 335.173 45.04C335.173 44.16 335.479 43.44 336.093 42.88C336.733 42.2933 337.533 42 338.493 42C339.479 42 340.279 42.2933 340.893 42.88C341.533 43.44 341.853 44.16 341.853 45.04C341.853 45.92 341.533 46.6533 340.893 47.24C340.279 47.8 339.479 48.08 338.493 48.08ZM353.189 71.48C351.349 71.48 349.696 71.0267 348.229 70.12C346.789 69.2133 345.656 67.96 344.829 66.36C344.002 64.76 343.589 62.96 343.589 60.96C343.589 58.9067 344.002 57.0933 344.829 55.52C345.682 53.92 346.842 52.6667 348.309 51.76C349.802 50.8267 351.469 50.36 353.309 50.36C354.749 50.36 356.016 50.6267 357.109 51.16C358.202 51.6933 359.082 52.4533 359.749 53.44V42.2H365.149V71H360.349L359.749 68.24C359.349 68.8 358.842 69.3333 358.229 69.84C357.642 70.3467 356.936 70.7467 356.109 71.04C355.282 71.3333 354.309 71.48 353.189 71.48ZM354.469 66.76C355.536 66.76 356.469 66.52 357.269 66.04C358.096 65.5333 358.736 64.84 359.189 63.96C359.642 63.08 359.869 62.0667 359.869 60.92C359.869 59.7733 359.642 58.76 359.189 57.88C358.736 57 358.096 56.32 357.269 55.84C356.469 55.3333 355.536 55.08 354.469 55.08C353.456 55.08 352.536 55.3333 351.709 55.84C350.882 56.32 350.229 57 349.749 57.88C349.296 58.76 349.069 59.76 349.069 60.88C349.069 62.0533 349.296 63.08 349.749 63.96C350.229 64.84 350.869 65.5333 351.669 66.04C352.496 66.52 353.429 66.76 354.469 66.76ZM376.72 80.28C374.8 80.28 373.12 80.04 371.68 79.56C370.24 79.1067 369.12 78.4 368.32 77.44C367.547 76.5067 367.16 75.3467 367.16 73.96C367.16 73.0267 367.4 72.1467 367.88 71.32C368.36 70.4933 369.053 69.7467 369.96 69.08C370.893 68.3867 372.053 67.8 373.44 67.32L375.48 69.96C374.253 70.36 373.36 70.8533 372.8 71.44C372.267 72.0533 372 72.7067 372 73.4C372 74.0133 372.2 74.5333 372.6 74.96C373.027 75.3867 373.587 75.6933 374.28 75.88C375 76.0933 375.8 76.2 376.68 76.2C377.533 76.2 378.267 76.0933 378.88 75.88C379.52 75.6667 380.013 75.3467 380.36 74.92C380.733 74.52 380.92 74.04 380.92 73.48C380.92 72.76 380.667 72.1733 380.16 71.72C379.653 71.2667 378.64 70.9867 377.12 70.88C375.76 70.7733 374.547 70.6267 373.48 70.44C372.44 70.2267 371.52 69.9867 370.72 69.72C369.92 69.4267 369.24 69.1067 368.68 68.76C368.147 68.4133 367.707 68.0667 367.36 67.72V66.8L371.64 62.2L375.52 63.44L370.48 68.4L372 65.76C372.293 65.92 372.573 66.08 372.84 66.24C373.133 66.3733 373.493 66.5067 373.92 66.64C374.347 66.7467 374.907 66.8533 375.6 66.96C376.293 67.0667 377.173 67.16 378.24 67.24C380 67.4 381.44 67.7333 382.56 68.24C383.707 68.7467 384.547 69.4267 385.08 70.28C385.613 71.1067 385.88 72.1333 385.88 73.36C385.88 74.56 385.547 75.68 384.88 76.72C384.24 77.7867 383.24 78.64 381.88 79.28C380.52 79.9467 378.8 80.28 376.72 80.28ZM376.72 65.04C375.04 65.04 373.587 64.72 372.36 64.08C371.16 63.4133 370.227 62.5333 369.56 61.44C368.92 60.32 368.6 59.08 368.6 57.72C368.6 56.36 368.92 55.1333 369.56 54.04C370.227 52.92 371.16 52.0267 372.36 51.36C373.587 50.6933 375.04 50.36 376.72 50.36C378.427 50.36 379.88 50.6933 381.08 51.36C382.307 52.0267 383.24 52.92 383.88 54.04C384.52 55.1333 384.84 56.36 384.84 57.72C384.84 59.08 384.52 60.32 383.88 61.44C383.24 62.5333 382.307 63.4133 381.08 64.08C379.88 64.72 378.427 65.04 376.72 65.04ZM376.72 60.92C377.76 60.92 378.6 60.6533 379.24 60.12C379.88 59.5867 380.2 58.8 380.2 57.76C380.2 56.72 379.88 55.9333 379.24 55.4C378.6 54.84 377.76 54.56 376.72 54.56C375.707 54.56 374.867 54.84 374.2 55.4C373.56 55.9333 373.24 56.72 373.24 57.76C373.24 58.8 373.56 59.5867 374.2 60.12C374.867 60.6533 375.707 60.92 376.72 60.92ZM380.08 54.68L379.2 50.84H387.48V54.04L380.08 54.68ZM398.367 71.48C396.34 71.48 394.54 71.0533 392.967 70.2C391.42 69.32 390.207 68.1067 389.327 66.56C388.474 64.9867 388.047 63.1733 388.047 61.12C388.047 59.0133 388.474 57.16 389.327 55.56C390.207 53.9333 391.42 52.6667 392.967 51.76C394.514 50.8267 396.314 50.36 398.367 50.36C400.367 50.36 402.114 50.8 403.607 51.68C405.1 52.56 406.26 53.7467 407.087 55.24C407.914 56.7333 408.327 58.4267 408.327 60.32C408.327 60.5867 408.327 60.8933 408.327 61.24C408.327 61.56 408.3 61.8933 408.247 62.24H391.887V58.96H402.887C402.807 57.6533 402.34 56.6267 401.487 55.88C400.66 55.1333 399.62 54.76 398.367 54.76C397.46 54.76 396.62 54.9733 395.847 55.4C395.074 55.8 394.46 56.4267 394.007 57.28C393.58 58.1333 393.367 59.2133 393.367 60.52V61.68C393.367 62.7733 393.567 63.7333 393.967 64.56C394.394 65.36 394.98 65.9867 395.727 66.44C396.474 66.8667 397.34 67.08 398.327 67.08C399.314 67.08 400.127 66.8667 400.767 66.44C401.434 66.0133 401.927 65.4667 402.247 64.8H407.767C407.394 66.0533 406.767 67.1867 405.887 68.2C405.007 69.2133 403.927 70.0133 402.647 70.6C401.367 71.1867 399.94 71.48 398.367 71.48ZM419.156 71C417.743 71 416.503 70.7867 415.436 70.36C414.396 69.9067 413.583 69.1733 412.996 68.16C412.409 67.12 412.116 65.7067 412.116 63.92V55.36H408.676V50.84H412.116L412.716 45.36H417.516V50.84H422.836V55.36H417.516V64C417.516 64.9067 417.716 65.5333 418.116 65.88C418.516 66.2267 419.196 66.4 420.156 66.4H422.796V71H419.156ZM433.221 71.48C431.381 71.48 429.781 71.1867 428.421 70.6C427.061 70.0133 425.994 69.2 425.221 68.16C424.447 67.12 424.007 65.9467 423.901 64.64H429.261C429.394 65.1467 429.621 65.6133 429.941 66.04C430.261 66.44 430.687 66.76 431.221 67C431.754 67.24 432.394 67.36 433.141 67.36C433.861 67.36 434.447 67.2667 434.901 67.08C435.354 66.8667 435.687 66.5867 435.901 66.24C436.141 65.8933 436.261 65.5333 436.261 65.16C436.261 64.6 436.101 64.1733 435.781 63.88C435.461 63.56 434.994 63.3067 434.381 63.12C433.767 62.9333 433.021 62.7467 432.141 62.56C431.181 62.3733 430.234 62.1467 429.301 61.88C428.394 61.5867 427.581 61.2267 426.861 60.8C426.141 60.3733 425.567 59.8267 425.141 59.16C424.714 58.4933 424.501 57.6667 424.501 56.68C424.501 55.48 424.821 54.4133 425.461 53.48C426.101 52.52 427.034 51.76 428.261 51.2C429.487 50.64 430.967 50.36 432.701 50.36C435.127 50.36 437.047 50.9067 438.461 52C439.874 53.0933 440.714 54.6 440.981 56.52H435.901C435.741 55.9067 435.381 55.4267 434.821 55.08C434.287 54.7067 433.567 54.52 432.661 54.52C431.701 54.52 430.967 54.6933 430.461 55.04C429.954 55.3867 429.701 55.84 429.701 56.4C429.701 56.7733 429.861 57.1067 430.181 57.4C430.527 57.6933 431.007 57.9467 431.621 58.16C432.234 58.3467 432.981 58.5333 433.861 58.72C435.407 59.04 436.767 59.4133 437.941 59.84C439.114 60.24 440.034 60.8267 440.701 61.6C441.367 62.3467 441.701 63.44 441.701 64.88C441.701 66.16 441.354 67.3067 440.661 68.32C439.967 69.3067 438.981 70.08 437.701 70.64C436.447 71.2 434.954 71.48 433.221 71.48Z" fill="black"/>
<g clip-path="url(#clip2_110_179)">
<rect x="56.2998" y="149" width="377" height="94" rx="8" transform="rotate(9.36765 56.2998 149)" fill="#FFFDFA"/>
<path d="M68.338 168.091L72.7394 168.817L76.2603 184.176L76.493 184.214L84.7608 170.8L89.1621 171.526L85.8867 191.381L82.4354 190.811L84.6857 177.171L84.5015 177.141L76.7736 189.818L74.1949 189.392L70.9531 174.876L70.7689 174.845L68.5139 188.515L65.0626 187.945L68.338 168.091ZM93.9117 193.003C92.4575 192.763 91.25 192.236 90.2891 191.42C89.3282 190.604 88.6486 189.572 88.2503 188.325C87.8584 187.079 87.7893 185.686 88.0431 184.148C88.2968 182.61 88.81 181.31 89.5825 180.249C90.3615 179.189 91.337 178.428 92.509 177.964C93.6809 177.5 94.994 177.388 96.4482 177.628C97.9024 177.868 99.1099 178.395 100.071 179.211C101.032 180.027 101.708 181.061 102.098 182.314C102.496 183.568 102.567 184.964 102.314 186.502C102.06 188.041 101.544 189.336 100.766 190.39C99.9946 191.444 99.0229 192.203 97.8509 192.667C96.679 193.131 95.3659 193.243 93.9117 193.003ZM94.3949 190.195C95.1834 190.325 95.8783 190.217 96.4798 189.872C97.0822 189.52 97.5735 188.997 97.9536 188.303C98.3401 187.609 98.608 186.81 98.7573 185.906C98.9076 184.994 98.9111 184.148 98.7676 183.368C98.6317 182.582 98.335 181.926 97.8776 181.399C97.4201 180.872 96.7971 180.543 96.0086 180.413C95.2007 180.28 94.4923 180.389 93.8834 180.74C93.2809 181.092 92.7858 181.618 92.3982 182.317C92.0182 183.011 91.753 183.814 91.6026 184.725C91.4534 185.63 91.4472 186.472 91.5842 187.252C91.7276 188.032 92.0281 188.686 92.4855 189.213C92.9506 189.734 93.587 190.062 94.3949 190.195ZM106.838 185.874L105.399 194.6L101.89 194.021L104.346 179.13L107.701 179.683L107.283 182.213L107.458 182.242C107.938 181.465 108.593 180.893 109.424 180.525C110.261 180.159 111.236 180.067 112.347 180.25C113.375 180.42 114.234 180.787 114.924 181.353C115.62 181.919 116.11 182.654 116.393 183.557C116.682 184.461 116.725 185.507 116.522 186.695L114.958 196.177L111.449 195.598L112.923 186.659C113.087 185.664 112.957 184.842 112.533 184.195C112.115 183.548 111.454 183.15 110.549 183.001C109.935 182.9 109.366 182.945 108.843 183.138C108.328 183.325 107.893 183.648 107.538 184.108C107.19 184.568 106.957 185.157 106.838 185.874ZM122.886 197.783C121.393 197.537 120.155 197.014 119.171 196.214C118.195 195.409 117.511 194.387 117.118 193.147C116.726 191.901 116.659 190.499 116.916 188.941C117.168 187.409 117.681 186.113 118.454 185.052C119.234 183.986 120.204 183.216 121.364 182.744C122.525 182.265 123.816 182.143 125.238 182.377C126.156 182.529 126.998 182.82 127.763 183.252C128.536 183.678 129.185 184.25 129.711 184.967C130.243 185.686 130.611 186.55 130.817 187.56C131.023 188.563 131.018 189.717 130.803 191.023L130.625 192.099L118.42 190.085L118.81 187.72L127.652 189.179C127.756 188.505 127.709 187.883 127.511 187.313C127.314 186.736 126.986 186.254 126.525 185.866C126.071 185.479 125.508 185.23 124.836 185.119C124.118 185.001 123.459 185.071 122.859 185.331C122.26 185.584 121.762 185.966 121.365 186.478C120.976 186.985 120.723 187.571 120.607 188.236L120.267 190.3C120.124 191.167 120.159 191.936 120.374 192.609C120.589 193.275 120.954 193.82 121.468 194.243C121.984 194.66 122.623 194.932 123.386 195.057C123.896 195.142 124.37 195.147 124.807 195.073C125.245 194.992 125.64 194.835 125.99 194.601C126.341 194.366 126.629 194.052 126.853 193.658L130.069 194.567C129.719 195.398 129.2 196.09 128.512 196.64C127.831 197.185 127.012 197.561 126.055 197.768C125.099 197.969 124.043 197.974 122.886 197.783ZM131.174 204.588C130.696 204.509 130.259 204.397 129.865 204.252C129.476 204.115 129.17 203.978 128.947 203.842L130.212 201.242C130.698 201.475 131.142 201.622 131.544 201.681C131.946 201.741 132.319 201.673 132.663 201.477C133.013 201.29 133.341 200.932 133.647 200.405L134.08 199.65L131.188 183.558L134.91 184.172L136.487 195.984L136.642 196.009L141.939 185.331L145.672 185.947L136.955 201.658C136.547 202.4 136.067 203.015 135.516 203.502C134.963 203.995 134.329 204.335 133.615 204.522C132.905 204.717 132.092 204.739 131.174 204.588ZM158.046 187.989L157.598 190.703L148.796 189.251L149.243 186.536L158.046 187.989ZM148.988 201.79L151.676 185.494C151.841 184.492 152.186 183.692 152.709 183.095C153.239 182.498 153.883 182.094 154.642 181.88C155.401 181.667 156.21 181.631 157.07 181.773C157.677 181.873 158.209 182.01 158.665 182.185C159.121 182.36 159.455 182.505 159.669 182.62L158.523 185.219C158.382 185.149 158.202 185.073 157.983 184.991C157.765 184.902 157.518 184.834 157.24 184.788C156.587 184.681 156.099 184.763 155.775 185.035C155.459 185.301 155.253 185.725 155.157 186.307L152.507 202.371L148.988 201.79ZM162.042 204.243C160.587 204.003 159.38 203.475 158.419 202.659C157.458 201.843 156.779 200.812 156.38 199.564C155.988 198.318 155.919 196.926 156.173 195.387C156.427 193.849 156.94 192.55 157.712 191.489C158.491 190.429 159.467 189.667 160.639 189.203C161.811 188.739 163.124 188.627 164.578 188.867C166.032 189.107 167.24 189.635 168.201 190.45C169.162 191.266 169.837 192.301 170.228 193.553C170.626 194.807 170.697 196.203 170.444 197.742C170.19 199.28 169.674 200.576 168.896 201.629C168.125 202.684 167.153 203.443 165.981 203.907C164.809 204.371 163.496 204.483 162.042 204.243ZM162.525 201.434C163.313 201.565 164.008 201.457 164.61 201.111C165.212 200.759 165.703 200.236 166.084 199.542C166.47 198.849 166.738 198.05 166.887 197.145C167.038 196.234 167.041 195.388 166.898 194.607C166.762 193.821 166.465 193.165 166.008 192.638C165.55 192.111 164.927 191.783 164.139 191.653C163.331 191.519 162.622 191.628 162.013 191.979C161.411 192.331 160.916 192.857 160.528 193.557C160.148 194.251 159.883 195.053 159.733 195.965C159.583 196.87 159.577 197.712 159.714 198.491C159.858 199.272 160.158 199.925 160.616 200.452C161.081 200.974 161.717 201.301 162.525 201.434ZM170.02 205.26L172.476 190.369L175.879 190.93L175.47 193.412L175.625 193.438C176.038 192.623 176.613 192.037 177.349 191.681C178.092 191.319 178.89 191.208 179.744 191.349C179.937 191.381 180.152 191.426 180.388 191.485C180.632 191.539 180.832 191.595 180.988 191.654L180.455 194.882C180.315 194.806 180.087 194.722 179.77 194.63C179.461 194.532 179.157 194.459 178.86 194.41C178.22 194.304 177.622 194.348 177.066 194.542C176.517 194.73 176.057 195.043 175.686 195.48C175.315 195.916 175.078 196.451 174.973 197.085L173.529 205.839L170.02 205.26ZM187.483 208.45C186.539 208.294 185.717 207.986 185.016 207.525C184.323 207.059 183.812 206.456 183.482 205.718C183.159 204.981 183.078 204.125 183.239 203.149C183.377 202.308 183.647 201.639 184.048 201.141C184.449 200.643 184.945 200.273 185.535 200.032C186.126 199.791 186.772 199.642 187.471 199.585C188.179 199.522 188.901 199.512 189.638 199.554C190.525 199.607 191.246 199.643 191.801 199.662C192.356 199.674 192.77 199.622 193.041 199.508C193.32 199.388 193.487 199.16 193.542 198.824L193.552 198.765C193.672 198.035 193.549 197.434 193.182 196.962C192.815 196.49 192.225 196.186 191.41 196.052C190.551 195.91 189.838 195.985 189.272 196.277C188.712 196.57 188.303 196.957 188.045 197.439L184.845 196.433C185.252 195.571 185.804 194.885 186.498 194.375C187.194 193.859 187.997 193.52 188.907 193.358C189.818 193.19 190.793 193.192 191.834 193.363C192.551 193.482 193.252 193.683 193.935 193.969C194.618 194.254 195.222 194.639 195.746 195.124C196.271 195.602 196.657 196.2 196.904 196.918C197.157 197.637 197.202 198.491 197.039 199.48L195.395 209.446L192.021 208.89L192.358 206.844L192.242 206.825C191.961 207.203 191.596 207.542 191.149 207.839C190.709 208.132 190.18 208.34 189.562 208.464C188.951 208.582 188.258 208.578 187.483 208.45ZM188.82 206.021C189.524 206.137 190.158 206.099 190.721 205.907C191.285 205.708 191.744 205.398 192.099 204.979C192.46 204.56 192.686 204.076 192.776 203.527L193.066 201.772C192.941 201.845 192.74 201.898 192.462 201.932C192.191 201.967 191.888 201.986 191.556 201.991C191.223 201.996 190.895 201.995 190.57 201.988C190.246 201.981 189.965 201.975 189.727 201.968C189.192 201.953 188.704 201.992 188.264 202.086C187.824 202.179 187.46 202.351 187.173 202.603C186.887 202.848 186.706 203.196 186.632 203.649C186.525 204.295 186.68 204.822 187.098 205.229C187.515 205.637 188.089 205.901 188.82 206.021ZM206.276 202.279L204.837 211.004L201.327 210.425L203.784 195.534L207.138 196.087L206.721 198.618L206.895 198.646C207.375 197.869 208.031 197.297 208.862 196.929C209.699 196.563 210.673 196.471 211.785 196.655C212.813 196.824 213.671 197.192 214.362 197.757C215.058 198.323 215.548 199.058 215.83 199.961C216.119 200.865 216.163 201.911 215.96 203.099L214.396 212.581L210.886 212.002L212.361 203.063C212.525 202.068 212.395 201.247 211.971 200.599C211.553 199.952 210.892 199.555 209.987 199.405C209.373 199.304 208.804 199.35 208.281 199.542C207.766 199.729 207.331 200.053 206.976 200.512C206.628 200.972 206.395 201.561 206.276 202.279ZM222.324 214.187C220.831 213.941 219.593 213.418 218.609 212.619C217.633 211.814 216.949 210.791 216.556 209.551C216.164 208.305 216.096 206.903 216.353 205.345C216.606 203.813 217.119 202.517 217.891 201.456C218.671 200.39 219.641 199.62 220.801 199.148C221.963 198.669 223.254 198.547 224.676 198.781C225.594 198.933 226.435 199.224 227.201 199.656C227.974 200.082 228.623 200.654 229.148 201.371C229.68 202.09 230.049 202.954 230.254 203.964C230.461 204.967 230.456 206.121 230.241 207.427L230.063 208.503L217.858 206.49L218.248 204.124L227.089 205.583C227.194 204.909 227.147 204.288 226.949 203.717C226.752 203.14 226.423 202.658 225.963 202.27C225.509 201.883 224.946 201.634 224.274 201.523C223.556 201.405 222.897 201.475 222.297 201.735C221.697 201.988 221.199 202.37 220.803 202.883C220.414 203.389 220.161 203.975 220.045 204.64L219.704 206.705C219.561 207.571 219.597 208.34 219.811 209.013C220.027 209.679 220.392 210.224 220.906 210.647C221.422 211.064 222.061 211.336 222.823 211.461C223.334 211.546 223.808 211.551 224.245 211.477C224.683 211.396 225.077 211.239 225.428 211.005C225.779 210.771 226.066 210.456 226.291 210.062L229.507 210.971C229.157 211.803 228.638 212.494 227.95 213.044C227.269 213.589 226.45 213.965 225.493 214.172C224.537 214.373 223.481 214.378 222.324 214.187ZM232.771 215.612L231.02 200.027L234.598 200.617L235.488 211.519L235.624 211.542L240.027 201.513L243.565 202.097L244.523 212.95L244.669 212.974L248.965 202.987L252.552 203.579L245.879 217.774L242.224 217.172L241.092 206.648L240.888 206.614L236.436 216.217L232.771 215.612ZM254.029 224.855L257.406 204.38L260.858 204.949L260.451 207.412L260.655 207.445C260.896 207.113 261.214 206.771 261.611 206.418C262.009 206.059 262.513 205.78 263.123 205.582C263.735 205.377 264.477 205.347 265.349 205.491C266.5 205.681 267.488 206.146 268.316 206.887C269.15 207.622 269.745 208.606 270.099 209.84C270.461 211.068 270.505 212.509 270.232 214.164C269.962 215.799 269.465 217.144 268.74 218.2C268.015 219.255 267.14 220.007 266.117 220.456C265.094 220.904 263.997 221.032 262.827 220.839C261.974 220.699 261.29 220.44 260.774 220.062C260.259 219.685 259.863 219.268 259.587 218.811C259.318 218.348 259.119 217.921 258.992 217.528L258.846 217.504L257.538 225.434L254.029 224.855ZM259.62 212.393C259.461 213.356 259.457 214.222 259.609 214.991C259.768 215.76 260.072 216.391 260.522 216.884C260.979 217.371 261.58 217.676 262.323 217.798C263.099 217.926 263.782 217.827 264.374 217.499C264.967 217.166 265.455 216.659 265.84 215.979C266.232 215.293 266.504 214.485 266.658 213.554C266.81 212.63 266.813 211.787 266.667 211.026C266.52 210.265 266.219 209.638 265.762 209.144C265.306 208.651 264.687 208.339 263.905 208.21C263.155 208.087 262.486 208.179 261.897 208.487C261.309 208.795 260.82 209.282 260.431 209.948C260.049 210.615 259.779 211.43 259.62 212.393ZM276.276 223.088C274.789 222.843 273.567 222.306 272.608 221.477C271.656 220.649 270.987 219.613 270.601 218.367C270.224 217.117 270.159 215.738 270.407 214.233C270.657 212.72 271.168 211.434 271.94 210.373C272.714 209.305 273.684 208.536 274.851 208.064C276.025 207.587 277.339 207.469 278.793 207.709C280.002 207.908 281.034 208.308 281.892 208.907C282.756 209.501 283.4 210.248 283.822 211.148C284.246 212.041 284.408 213.03 284.309 214.116L280.954 213.563C280.937 212.823 280.712 212.172 280.281 211.609C279.857 211.041 279.221 210.687 278.374 210.548C277.657 210.429 276.995 210.519 276.388 210.818C275.782 211.109 275.268 211.589 274.846 212.256C274.43 212.924 274.14 213.76 273.975 214.761C273.807 215.776 273.812 216.673 273.989 217.452C274.167 218.225 274.491 218.853 274.963 219.336C275.442 219.813 276.046 220.112 276.777 220.233C277.294 220.318 277.772 220.297 278.211 220.171C278.658 220.038 279.051 219.808 279.391 219.479C279.73 219.15 279.996 218.726 280.188 218.206L283.543 218.76C283.285 219.799 282.82 220.682 282.15 221.408C281.48 222.127 280.645 222.64 279.645 222.947C278.646 223.246 277.523 223.294 276.276 223.088Z" fill="black"/>
<g clip-path="url(#clip3_110_179)">
<rect x="60.3369" y="204.396" width="341" height="23" rx="7" transform="rotate(9.36765 60.3369 204.396)" fill="#6A9AE5"/>
<rect x="285.286" y="235.425" width="125" height="36" transform="rotate(9.36765 285.286 235.425)" fill="#BCBCBC"/>
<path d="M67.9031 223.011C67.4372 222.931 66.9952 222.775 66.5772 222.543C66.1597 222.308 65.8031 221.98 65.5074 221.56C65.2123 221.136 65.0097 220.606 64.8998 219.968C64.7903 219.328 64.811 218.561 64.9618 217.666C65.0994 216.832 65.311 216.103 65.5965 215.478C65.882 214.854 66.2285 214.344 66.636 213.948C67.044 213.55 67.5024 213.27 68.0112 213.11C68.5232 212.95 69.0711 212.918 69.6549 213.014C70.2673 213.115 70.7899 213.325 71.2229 213.644C71.659 213.964 71.9885 214.357 72.2113 214.824C72.4346 215.288 72.538 215.787 72.5215 216.322L70.7843 216.036C70.7573 215.647 70.624 215.318 70.3846 215.051C70.1489 214.781 69.8217 214.611 69.4029 214.542C68.7271 214.43 68.1583 214.638 67.6966 215.165C67.2381 215.692 66.9227 216.468 66.7505 217.492L66.8171 217.503C67.0186 217.25 67.2596 217.043 67.5401 216.884C67.8205 216.725 68.1251 216.617 68.4538 216.561C68.7863 216.501 69.127 216.501 69.476 216.558C70.0471 216.652 70.537 216.873 70.9457 217.221C71.3576 217.569 71.6572 218.005 71.8447 218.528C72.0327 219.048 72.0744 219.615 71.9696 220.23C71.8671 220.872 71.6261 221.424 71.2468 221.886C70.868 222.345 70.3912 222.677 69.8163 222.882C69.2415 223.087 68.6037 223.13 67.9031 223.011ZM68.1291 221.582C68.4749 221.639 68.7981 221.606 69.0987 221.482C69.3993 221.359 69.6525 221.168 69.8583 220.909C70.064 220.649 70.1946 220.342 70.2501 219.986C70.3108 219.637 70.2867 219.309 70.1779 219.001C70.0721 218.694 69.8981 218.435 69.6556 218.226C69.4131 218.016 69.119 217.883 68.7731 217.826C68.5161 217.783 68.2685 217.793 68.0301 217.855C67.7918 217.916 67.5758 218.021 67.382 218.168C67.1888 218.312 67.0257 218.491 66.8928 218.704C66.7636 218.914 66.6763 219.147 66.6307 219.403C66.5779 219.743 66.6056 220.069 66.714 220.38C66.8224 220.691 66.9988 220.955 67.2434 221.172C67.488 221.388 67.7832 221.525 68.1291 221.582ZM76.9875 214.224C77.4534 214.304 77.8935 214.461 78.3078 214.696C78.7258 214.928 79.0827 215.254 79.3784 215.674C79.6746 216.091 79.8776 216.619 79.9876 217.256C80.0976 217.893 80.0793 218.656 79.9327 219.545C79.7977 220.383 79.5853 221.117 79.2956 221.747C79.0096 222.374 78.6626 222.887 78.2546 223.286C77.8466 223.685 77.3882 223.965 76.8794 224.125C76.3705 224.286 75.8226 224.317 75.2357 224.221C74.6201 224.119 74.0943 223.908 73.6582 223.589C73.2252 223.27 72.8973 222.877 72.6745 222.41C72.4517 221.943 72.3515 221.434 72.3738 220.884L74.1109 221.17C74.1359 221.572 74.266 221.91 74.5012 222.183C74.74 222.454 75.0689 222.624 75.4877 222.693C76.1635 222.804 76.7322 222.597 77.1939 222.07C77.6557 221.543 77.9726 220.758 78.1448 219.714L78.0782 219.703C77.8767 219.957 77.6354 220.164 77.3544 220.327C77.074 220.486 76.7678 220.593 76.4359 220.649C76.1072 220.706 75.7683 220.705 75.4193 220.648C74.8482 220.554 74.3567 220.332 73.9448 219.984C73.5361 219.637 73.2378 219.203 73.0498 218.683C72.8649 218.163 72.8214 217.597 72.9193 216.984C73.024 216.35 73.2639 215.804 73.639 215.348C74.0178 214.889 74.4946 214.557 75.0695 214.352C75.6448 214.144 76.2842 214.101 76.9875 214.224ZM76.7567 215.652C76.4141 215.596 76.0908 215.629 75.7871 215.751C75.487 215.871 75.2341 216.061 75.0283 216.32C74.8263 216.577 74.6965 216.88 74.6389 217.229C74.585 217.575 74.6109 217.902 74.7166 218.21C74.8255 218.518 74.9996 218.776 75.2389 218.985C75.4814 219.195 75.7755 219.328 76.1214 219.385C76.3784 219.428 76.626 219.418 76.8643 219.356C77.1027 219.294 77.3187 219.19 77.5125 219.043C77.71 218.893 77.8733 218.713 78.0024 218.503C78.1348 218.293 78.2201 218.063 78.2582 217.811C78.3132 217.478 78.2846 217.157 78.1726 216.849C78.0637 216.541 77.887 216.279 77.6424 216.062C77.4009 215.847 77.1057 215.71 76.7567 215.652ZM85.1048 223.835L85.1895 223.321C85.2518 222.943 85.3885 222.609 85.5994 222.318C85.8136 222.027 86.0905 221.81 86.4302 221.668C86.7699 221.525 87.1587 221.489 87.5965 221.562C88.0471 221.636 88.4087 221.795 88.6813 222.039C88.9545 222.279 89.1427 222.571 89.2458 222.914C89.3521 223.258 89.3738 223.62 89.311 224L89.2262 224.514C89.1639 224.892 89.0273 225.226 88.8163 225.517C88.6053 225.809 88.33 226.026 87.9903 226.168C87.6538 226.312 87.2634 226.347 86.8192 226.273C86.3751 226.2 86.015 226.041 85.7392 225.797C85.4634 225.553 85.2723 225.259 85.166 224.915C85.0629 224.572 85.0425 224.212 85.1048 223.835ZM86.4317 223.525L86.3469 224.039C86.3056 224.29 86.3279 224.53 86.4139 224.759C86.4999 224.989 86.6952 225.128 86.9998 225.179C87.3076 225.229 87.5356 225.161 87.6838 224.974C87.8358 224.784 87.9327 224.562 87.9746 224.308L88.0593 223.794C88.1012 223.54 88.0839 223.299 88.0074 223.072C87.9314 222.841 87.7348 222.699 87.4175 222.647C87.1193 222.598 86.8907 222.669 86.7319 222.861C86.5736 223.05 86.4736 223.272 86.4317 223.525ZM81.0706 217.439L81.1554 216.925C81.2182 216.545 81.3567 216.209 81.5708 215.918C81.785 215.628 82.0616 215.413 82.4008 215.273C82.7405 215.13 83.1293 215.095 83.5671 215.167C84.0145 215.241 84.3745 215.4 84.6471 215.644C84.9235 215.885 85.1132 216.177 85.2164 216.52C85.3195 216.863 85.3397 217.225 85.2768 217.605L85.1921 218.119C85.1292 218.5 84.9923 218.836 84.7814 219.127C84.5741 219.416 84.3009 219.63 83.9617 219.769C83.6225 219.909 83.2324 219.942 82.7914 219.869C82.344 219.796 81.9822 219.638 81.7058 219.397C81.4326 219.156 81.2429 218.864 81.1366 218.521C81.0303 218.178 81.0083 217.817 81.0706 217.439ZM82.407 217.132L82.3223 217.646C82.2804 217.9 82.3009 218.141 82.3837 218.37C82.4703 218.596 82.6658 218.734 82.9704 218.784C83.275 218.835 83.5014 218.766 83.6497 218.579C83.8016 218.389 83.8985 218.167 83.9404 217.913L84.0252 217.399C84.067 217.145 84.0497 216.904 83.9732 216.677C83.8973 216.446 83.7022 216.304 83.3881 216.252C83.0867 216.203 82.8582 216.274 82.7025 216.467C82.5469 216.66 82.4484 216.881 82.407 217.132ZM80.3915 224.934L88.7004 216.293L89.8902 216.489L81.5813 225.131L80.3915 224.934Z" fill="white"/>
</g>
</g>
<rect x="56.7118" y="149.575" width="376" height="93" rx="7.5" transform="rotate(9.36765 56.7118 149.575)" stroke="black"/>
<rect x="135.855" y="93.5856" width="409.382" height="79.481" rx="8.16586" transform="rotate(4.52433 135.855 93.5856)" fill="#FFFDFA"/>
<rect x="135.855" y="93.5856" width="409.382" height="79.481" rx="8.16586" transform="rotate(4.52433 135.855 93.5856)" stroke="black" stroke-width="1.08878"/>
<path d="M154.127 145.419L155.856 123.578L164.046 124.226C165.724 124.359 167.107 124.783 168.195 125.499C169.29 126.215 170.086 127.144 170.582 128.285C171.086 129.419 171.284 130.68 171.174 132.066C171.063 133.467 170.67 134.688 169.993 135.729C169.317 136.77 168.378 137.558 167.177 138.092C165.976 138.62 164.534 138.817 162.849 138.683L157.42 138.254L157.678 135.001L162.573 135.388C163.554 135.466 164.371 135.359 165.023 135.067C165.676 134.775 166.175 134.343 166.521 133.769C166.874 133.196 167.081 132.522 167.143 131.747C167.204 130.972 167.105 130.278 166.846 129.663C166.594 129.05 166.165 128.554 165.558 128.177C164.959 127.793 164.165 127.562 163.177 127.484L159.551 127.197L158.084 145.733L154.127 145.419ZM170.881 146.745L172.178 130.364L175.921 130.66L175.705 133.391L175.875 133.404C176.249 132.482 176.818 131.794 177.584 131.339C178.358 130.878 179.213 130.685 180.152 130.759C180.365 130.776 180.603 130.805 180.864 130.848C181.133 130.883 181.355 130.926 181.53 130.975L181.249 134.527C181.09 134.457 180.834 134.387 180.482 134.316C180.138 134.239 179.802 134.187 179.475 134.161C178.771 134.105 178.126 134.208 177.54 134.469C176.962 134.724 176.492 135.106 176.13 135.613C175.768 136.121 175.559 136.724 175.504 137.42L174.742 147.051L170.881 146.745ZM184.78 148.178C183.742 148.096 182.822 147.837 182.019 147.401C181.224 146.959 180.614 146.353 180.189 145.582C179.77 144.812 179.604 143.89 179.689 142.817C179.762 141.893 179.993 141.142 180.382 140.564C180.771 139.987 181.275 139.54 181.894 139.225C182.513 138.909 183.199 138.688 183.953 138.561C184.715 138.428 185.497 138.351 186.3 138.328C187.268 138.305 188.053 138.278 188.657 138.247C189.261 138.209 189.705 138.115 189.988 137.966C190.28 137.81 190.44 137.547 190.469 137.177L190.474 137.113C190.538 136.31 190.349 135.669 189.907 135.19C189.466 134.712 188.797 134.437 187.901 134.366C186.956 134.292 186.189 134.438 185.602 134.807C185.022 135.176 184.614 135.634 184.377 136.18L180.813 135.383C181.176 134.41 181.712 133.615 182.419 132.999C183.126 132.375 183.966 131.934 184.938 131.674C185.911 131.408 186.969 131.32 188.114 131.411C188.903 131.473 189.681 131.628 190.449 131.874C191.216 132.121 191.907 132.483 192.52 132.961C193.134 133.432 193.607 134.045 193.941 134.801C194.282 135.558 194.409 136.48 194.323 137.568L193.456 148.531L189.744 148.238L189.922 145.988L189.794 145.977C189.524 146.414 189.159 146.814 188.701 147.179C188.251 147.537 187.696 147.811 187.037 148.002C186.386 148.187 185.633 148.245 184.78 148.178ZM186.007 145.42C186.782 145.482 187.466 145.382 188.059 145.121C188.653 144.853 189.123 144.475 189.469 143.988C189.822 143.501 190.023 142.955 190.071 142.351L190.223 140.42C190.095 140.51 189.881 140.586 189.583 140.649C189.292 140.711 188.966 140.761 188.605 140.797C188.245 140.832 187.888 140.861 187.536 140.884C187.184 140.906 186.878 140.925 186.619 140.94C186.037 140.973 185.512 141.06 185.043 141.201C184.573 141.343 184.195 141.564 183.906 141.863C183.619 142.155 183.455 142.55 183.416 143.047C183.359 143.758 183.576 144.316 184.067 144.719C184.557 145.123 185.204 145.357 186.007 145.42ZM195.106 148.662L196.834 126.821L200.694 127.126L200.048 135.295L200.208 135.308C200.439 134.926 200.753 134.525 201.151 134.106C201.55 133.679 202.071 133.331 202.715 133.06C203.359 132.781 204.161 132.68 205.121 132.756C206.387 132.856 207.502 133.27 208.468 133.998C209.441 134.719 210.176 135.732 210.674 137.038C211.179 138.337 211.36 139.896 211.216 141.716C211.073 143.515 210.657 145.021 209.968 146.232C209.278 147.444 208.399 148.34 207.33 148.921C206.261 149.502 205.083 149.741 203.796 149.639C202.857 149.565 202.091 149.347 201.497 148.985C200.904 148.624 200.436 148.207 200.094 147.737C199.76 147.26 199.505 146.814 199.33 146.399L199.106 146.382L198.902 148.962L195.106 148.662ZM199.54 140.771C199.456 141.83 199.532 142.77 199.767 143.59C200.01 144.411 200.398 145.067 200.931 145.56C201.472 146.047 202.152 146.322 202.969 146.387C203.823 146.454 204.555 146.283 205.167 145.874C205.779 145.457 206.263 144.862 206.617 144.089C206.98 143.309 207.201 142.408 207.282 141.384C207.363 140.367 207.288 139.453 207.059 138.64C206.83 137.828 206.446 137.175 205.905 136.682C205.365 136.188 204.664 135.907 203.804 135.839C202.979 135.774 202.262 135.936 201.652 136.324C201.041 136.712 200.556 137.285 200.195 138.044C199.842 138.803 199.623 139.712 199.54 140.771ZM216.069 140.663L215.31 150.261L211.449 149.955L213.177 128.114L216.953 128.413L216.3 136.656L216.492 136.672C216.949 135.778 217.601 135.096 218.446 134.626C219.299 134.15 220.352 133.962 221.603 134.061C222.741 134.151 223.714 134.467 224.522 135.011C225.33 135.554 225.929 136.302 226.319 137.256C226.716 138.21 226.862 139.349 226.757 140.671L225.932 151.101L222.071 150.796L222.849 140.963C222.936 139.861 222.72 138.982 222.199 138.325C221.686 137.662 220.922 137.29 219.905 137.21C219.223 137.156 218.599 137.257 218.035 137.513C217.479 137.762 217.026 138.152 216.676 138.682C216.334 139.213 216.131 139.873 216.069 140.663ZM233.807 135.241L237.668 135.546L236.297 152.866C236.204 154.046 235.903 155.002 235.394 155.735C234.886 156.467 234.193 156.988 233.317 157.298C232.442 157.608 231.399 157.715 230.191 157.62C230.048 157.608 229.917 157.594 229.797 157.578C229.676 157.568 229.545 157.554 229.403 157.536L229.652 154.39C229.758 154.405 229.854 154.416 229.939 154.423C230.024 154.437 230.113 154.448 230.205 154.455C230.944 154.513 231.488 154.374 231.837 154.037C232.185 153.707 232.386 153.197 232.441 152.507L233.807 135.241ZM235.911 133.068C235.292 133.019 234.779 132.774 234.37 132.334C233.969 131.888 233.791 131.376 233.837 130.8C233.883 130.217 234.139 129.74 234.605 129.369C235.078 128.992 235.624 128.828 236.243 128.877C236.854 128.925 237.36 129.173 237.761 129.619C238.17 130.059 238.351 130.571 238.305 131.154C238.26 131.73 238 132.207 237.527 132.584C237.061 132.955 236.522 133.116 235.911 133.068ZM248.925 145.988L249.676 136.497L253.537 136.802L252.24 153.183L248.497 152.887L248.728 149.975L248.557 149.962C248.115 150.85 247.447 151.552 246.555 152.068C245.67 152.584 244.613 152.794 243.383 152.697C242.309 152.612 241.379 152.299 240.592 151.757C239.812 151.209 239.228 150.458 238.838 149.504C238.449 148.543 238.306 147.409 238.41 146.1L239.235 135.67L243.096 135.976L242.318 145.809C242.236 146.847 242.455 147.694 242.975 148.35C243.496 149.007 244.218 149.372 245.142 149.445C245.711 149.49 246.273 149.395 246.828 149.16C247.383 148.925 247.853 148.547 248.238 148.026C248.63 147.499 248.859 146.82 248.925 145.988ZM267.708 142.28L264.159 142.386C264.087 142.023 263.939 141.675 263.715 141.342C263.498 141.01 263.191 140.732 262.794 140.507C262.397 140.283 261.9 140.147 261.303 140.099C260.499 140.036 259.81 140.157 259.235 140.462C258.667 140.767 258.365 141.198 258.328 141.753C258.283 142.229 258.427 142.63 258.758 142.957C259.097 143.284 259.675 143.576 260.492 143.834L263.239 144.653C264.762 145.109 265.872 145.73 266.568 146.515C267.272 147.3 267.581 148.28 267.495 149.454C267.406 150.484 267.032 151.37 266.372 152.112C265.72 152.847 264.851 153.394 263.764 153.751C262.677 154.109 261.45 154.234 260.085 154.126C258.08 153.967 256.5 153.42 255.343 152.484C254.187 151.541 253.552 150.307 253.436 148.781L257.23 148.716C257.342 149.469 257.66 150.056 258.185 150.477C258.71 150.898 259.416 151.143 260.305 151.213C261.222 151.286 261.973 151.156 262.557 150.823C263.149 150.491 263.467 150.047 263.51 149.492C263.548 149.023 263.397 148.621 263.059 148.287C262.727 147.953 262.191 147.675 261.451 147.451L258.703 146.644C257.157 146.192 256.039 145.549 255.346 144.715C254.654 143.873 254.359 142.855 254.461 141.661C254.534 140.651 254.877 139.798 255.49 139.103C256.111 138.401 256.935 137.887 257.962 137.56C258.997 137.227 260.169 137.112 261.477 137.216C263.397 137.368 264.875 137.896 265.913 138.801C266.957 139.706 267.556 140.866 267.708 142.28ZM277.364 138.687L277.127 141.674L267.71 140.928L267.947 137.942L277.364 138.687ZM270.582 134.202L274.443 134.507L273.226 149.886C273.185 150.405 273.232 150.809 273.366 151.099C273.508 151.382 273.707 151.584 273.962 151.704C274.217 151.824 274.505 151.897 274.825 151.922C275.066 151.942 275.288 151.941 275.49 151.921C275.699 151.902 275.858 151.883 275.967 151.863L276.379 154.932C276.167 154.987 275.866 155.042 275.475 155.097C275.091 155.152 274.625 155.165 274.077 155.136C273.108 155.088 272.248 154.874 271.498 154.492C270.749 154.104 270.174 153.55 269.773 152.832C269.379 152.114 269.227 151.243 269.315 150.22L270.582 134.202ZM287.996 156.302C286.71 156.2 285.584 155.779 284.62 155.037C283.655 154.295 282.928 153.272 282.437 151.967C281.947 150.662 281.773 149.11 281.915 147.311C282.059 145.491 282.479 143.979 283.175 142.775C283.879 141.564 284.768 140.679 285.843 140.12C286.918 139.554 288.085 139.321 289.343 139.421C290.303 139.497 291.079 139.723 291.672 140.099C292.265 140.468 292.725 140.894 293.051 141.378C293.379 141.854 293.626 142.299 293.794 142.713L293.954 142.726L294.6 134.557L298.471 134.863L296.743 156.704L292.946 156.404L293.151 153.823L292.916 153.805C292.685 154.187 292.364 154.587 291.952 155.005C291.54 155.416 291.012 155.754 290.369 156.018C289.726 156.282 288.935 156.376 287.996 156.302ZM289.324 153.22C290.142 153.285 290.856 153.119 291.467 152.724C292.078 152.322 292.565 151.734 292.926 150.962C293.288 150.189 293.511 149.273 293.594 148.214C293.678 147.154 293.602 146.222 293.365 145.416C293.135 144.611 292.75 143.969 292.208 143.489C291.674 143.011 290.991 142.738 290.159 142.673C289.299 142.604 288.563 142.772 287.951 143.174C287.34 143.576 286.857 144.161 286.503 144.927C286.15 145.693 285.932 146.584 285.852 147.601C285.771 148.625 285.844 149.55 286.072 150.376C286.308 151.196 286.695 151.86 287.235 152.368C287.782 152.869 288.478 153.153 289.324 153.22ZM305.574 157.725C303.975 157.599 302.616 157.137 301.499 156.34C300.381 155.544 299.549 154.487 299.002 153.17C298.463 151.854 298.26 150.35 298.394 148.658C298.527 146.966 298.965 145.508 299.705 144.286C300.453 143.065 301.441 142.149 302.67 141.538C303.899 140.927 305.313 140.684 306.913 140.811C308.512 140.938 309.871 141.399 310.988 142.196C312.106 142.993 312.934 144.053 313.473 145.376C314.02 146.7 314.226 148.208 314.092 149.9C313.958 151.592 313.518 153.045 312.77 154.26C312.03 155.475 311.046 156.388 309.817 156.999C308.588 157.61 307.174 157.852 305.574 157.725ZM305.84 154.634C306.708 154.703 307.452 154.522 308.073 154.092C308.694 153.654 309.179 153.042 309.527 152.254C309.883 151.466 310.1 150.575 310.179 149.58C310.258 148.577 310.184 147.659 309.957 146.825C309.737 145.985 309.355 145.3 308.81 144.771C308.265 144.241 307.559 143.942 306.692 143.873C305.803 143.803 305.045 143.986 304.416 144.423C303.795 144.86 303.306 145.476 302.95 146.271C302.602 147.059 302.388 147.954 302.308 148.957C302.23 149.952 302.3 150.866 302.521 151.699C302.748 152.533 303.134 153.215 303.679 153.744C304.231 154.267 304.952 154.564 305.84 154.634ZM318.943 148.803L318.184 158.401L314.323 158.096L315.619 141.715L319.309 142.007L319.089 144.79L319.281 144.805C319.73 143.918 320.389 143.237 321.256 142.762C322.131 142.287 323.18 142.098 324.403 142.195C325.533 142.284 326.499 142.604 327.299 143.154C328.107 143.704 328.706 144.456 329.095 145.41C329.492 146.364 329.635 147.495 329.524 148.803L328.699 159.233L324.838 158.928L325.617 149.095C325.703 148 325.487 147.121 324.967 146.457C324.454 145.794 323.7 145.423 322.705 145.344C322.029 145.291 321.417 145.393 320.867 145.65C320.325 145.9 319.882 146.291 319.54 146.822C319.205 147.353 319.006 148.014 318.943 148.803ZM334.909 160.057C333.871 159.975 332.95 159.716 332.148 159.281C331.353 158.839 330.743 158.232 330.317 157.462C329.899 156.692 329.732 155.77 329.817 154.696C329.89 153.772 330.121 153.021 330.51 152.444C330.899 151.867 331.403 151.42 332.022 151.104C332.641 150.788 333.327 150.567 334.081 150.441C334.843 150.308 335.626 150.23 336.429 150.208C337.396 150.184 338.182 150.157 338.785 150.126C339.389 150.088 339.833 149.994 340.117 149.845C340.408 149.689 340.568 149.427 340.598 149.057L340.603 148.993C340.666 148.189 340.477 147.549 340.036 147.07C339.594 146.592 338.926 146.317 338.03 146.246C337.084 146.171 336.318 146.318 335.731 146.686C335.151 147.055 334.742 147.513 334.506 148.06L330.942 147.263C331.305 146.29 331.84 145.495 332.547 144.878C333.255 144.255 334.094 143.813 335.066 143.554C336.039 143.287 337.098 143.2 338.242 143.29C339.032 143.353 339.81 143.507 340.577 143.754C341.345 144.001 342.035 144.363 342.648 144.841C343.262 145.311 343.736 145.925 344.07 146.681C344.41 147.438 344.538 148.36 344.452 149.448L343.584 160.411L339.873 160.117L340.051 157.867L339.923 157.857C339.652 158.293 339.288 158.694 338.83 159.058C338.379 159.416 337.825 159.691 337.166 159.882C336.514 160.066 335.762 160.125 334.909 160.057ZM336.136 157.3C336.911 157.361 337.595 157.261 338.188 157.001C338.781 156.733 339.251 156.355 339.597 155.867C339.951 155.38 340.151 154.834 340.199 154.23L340.352 152.3C340.223 152.39 340.01 152.466 339.711 152.528C339.42 152.591 339.094 152.64 338.734 152.676C338.373 152.712 338.017 152.741 337.664 152.763C337.312 152.785 337.007 152.804 336.748 152.819C336.166 152.852 335.64 152.939 335.171 153.081C334.702 153.223 334.323 153.443 334.035 153.742C333.747 154.034 333.583 154.429 333.544 154.927C333.488 155.638 333.705 156.195 334.195 156.599C334.685 157.003 335.332 157.236 336.136 157.3ZM354.539 144.794L354.303 147.78L344.886 147.035L345.123 144.049L354.539 144.794ZM347.758 140.309L351.619 140.614L350.402 155.993C350.361 156.512 350.407 156.916 350.542 157.206C350.684 157.489 350.883 157.69 351.138 157.811C351.393 157.931 351.681 158.004 352.001 158.029C352.242 158.048 352.464 158.048 352.666 158.028C352.875 158.009 353.034 157.989 353.143 157.969L353.555 161.039C353.343 161.094 353.041 161.149 352.651 161.204C352.267 161.259 351.801 161.272 351.253 161.243C350.283 161.195 349.424 160.98 348.674 160.599C347.925 160.211 347.35 159.657 346.949 158.939C346.555 158.221 346.402 157.35 346.49 156.327L347.758 140.309ZM361.12 162.121C359.478 161.991 358.086 161.537 356.946 160.76C355.813 159.976 354.977 158.93 354.436 157.621C353.897 156.305 353.695 154.79 353.83 153.077C353.963 151.392 354.4 149.938 355.141 148.716C355.889 147.487 356.871 146.563 358.086 145.944C359.302 145.318 360.692 145.067 362.256 145.19C363.266 145.27 364.205 145.509 365.075 145.907C365.953 146.298 366.71 146.859 367.346 147.589C367.989 148.32 368.469 149.223 368.784 150.3C369.1 151.369 369.201 152.622 369.088 154.059L368.994 155.242L355.567 154.18L355.773 151.578L365.499 152.347C365.551 151.607 365.443 150.937 365.176 150.336C364.909 149.729 364.508 149.235 363.973 148.857C363.444 148.479 362.811 148.26 362.071 148.202C361.282 148.14 360.574 148.277 359.946 148.613C359.319 148.943 358.814 149.404 358.431 149.996C358.055 150.581 357.835 151.24 357.77 151.972L357.59 154.243C357.515 155.196 357.625 156.027 357.919 156.738C358.214 157.441 358.66 157.998 359.257 158.41C359.854 158.815 360.573 159.051 361.411 159.117C361.973 159.162 362.488 159.124 362.955 159.003C363.423 158.876 363.837 158.669 364.195 158.382C364.554 158.096 364.837 157.729 365.045 157.28L368.617 157.97C368.314 158.905 367.815 159.703 367.119 160.363C366.43 161.017 365.576 161.5 364.557 161.813C363.538 162.119 362.393 162.221 361.12 162.121ZM375.349 163.214C374.062 163.112 372.937 162.691 371.972 161.949C371.008 161.207 370.28 160.184 369.79 158.879C369.299 157.574 369.125 156.022 369.268 154.223C369.412 152.403 369.832 150.891 370.528 149.687C371.232 148.476 372.121 147.591 373.195 147.032C374.27 146.467 375.437 146.233 376.696 146.333C377.655 146.409 378.432 146.635 379.024 147.011C379.618 147.38 380.078 147.806 380.404 148.29C380.731 148.766 380.979 149.212 381.146 149.625L381.306 149.638L381.953 141.469L385.824 141.775L384.096 163.617L380.299 163.316L380.503 160.735L380.269 160.717C380.038 161.099 379.717 161.499 379.304 161.918C378.893 162.329 378.365 162.666 377.722 162.93C377.078 163.194 376.288 163.289 375.349 163.214ZM376.677 160.132C377.495 160.197 378.209 160.032 378.819 159.636C379.431 159.234 379.917 158.646 380.279 157.874C380.641 157.101 380.863 156.185 380.947 155.126C381.031 154.066 380.954 153.134 380.718 152.328C380.488 151.523 380.103 150.881 379.561 150.401C379.026 149.923 378.343 149.651 377.511 149.585C376.651 149.517 375.915 149.684 375.304 150.086C374.693 150.488 374.21 151.073 373.856 151.839C373.502 152.605 373.285 153.496 373.205 154.513C373.123 155.537 373.197 156.462 373.425 157.288C373.66 158.108 374.048 158.772 374.587 159.28C375.134 159.781 375.831 160.065 376.677 160.132Z" fill="black"/>
<path d="M406.088 148.745L405.11 151.479L390.958 150.359L391.947 147.626L406.088 148.745ZM397.668 164.691L390.914 155.12L391.09 152.752L394.78 153.044C395.662 153.114 396.409 153.026 397.023 152.781C397.643 152.53 398.128 152.15 398.476 151.641C398.831 151.125 399.038 150.505 399.095 149.779C399.181 148.692 398.931 147.792 398.343 147.08C397.755 146.368 396.758 145.957 395.35 145.845L391.34 145.528L392.433 142.298L395.611 142.55C397.402 142.692 398.863 143.086 399.992 143.733C401.129 144.374 401.949 145.219 402.453 146.268C402.964 147.317 403.166 148.513 403.06 149.857C402.966 151.044 402.665 152.087 402.158 152.984C401.65 153.881 400.907 154.591 399.929 155.115C398.95 155.638 397.699 155.94 396.176 156.02L396.045 156.052L402.131 164.851L402.116 165.043L397.668 164.691ZM406.531 143.414L405.528 146.189L394.057 145.238L395.056 142.506L406.531 143.414ZM412.871 166.194C411.449 166.082 410.198 165.714 409.116 165.092C408.036 164.463 407.202 163.653 406.615 162.662C406.035 161.672 405.772 160.571 405.825 159.359L409.664 159.662C409.664 160.564 409.994 161.327 410.653 161.951C411.312 162.569 412.136 162.916 413.124 162.995C413.899 163.056 414.603 162.933 415.235 162.625C415.868 162.317 416.383 161.861 416.782 161.256C417.18 160.651 417.408 159.942 417.465 159.131C417.537 158.307 417.421 157.561 417.116 156.893C416.811 156.225 416.364 155.685 415.774 155.274C415.185 154.855 414.488 154.614 413.685 154.55C413.032 154.492 412.379 154.562 411.726 154.76C411.074 154.959 410.547 155.246 410.145 155.622L406.618 154.753L408.651 143.582L421.32 144.584L421.059 147.89L411.663 147.147L410.576 152.888L410.704 152.898C411.147 152.454 411.75 152.104 412.514 151.85C413.279 151.589 414.102 151.493 414.984 151.563C416.306 151.667 417.462 152.073 418.45 152.781C419.439 153.482 420.19 154.4 420.701 155.535C421.212 156.67 421.412 157.938 421.301 159.338C421.187 160.782 420.751 162.042 419.993 163.12C419.243 164.191 418.252 165.003 417.021 165.557C415.797 166.104 414.414 166.316 412.871 166.194ZM429.944 167.663C428.188 167.524 426.715 166.96 425.527 165.972C424.347 164.977 423.486 163.611 422.943 161.872C422.409 160.127 422.236 158.064 422.425 155.682C422.62 153.301 423.118 151.301 423.919 149.683C424.727 148.059 425.792 146.855 427.113 146.073C428.441 145.291 429.979 144.969 431.728 145.107C433.477 145.246 434.946 145.805 436.135 146.787C437.324 147.768 438.186 149.124 438.721 150.855C439.264 152.586 439.441 154.639 439.253 157.014C439.064 159.403 438.565 161.416 437.756 163.055C436.954 164.687 435.889 165.898 434.56 166.687C433.239 167.477 431.7 167.802 429.944 167.663ZM430.208 164.325C431.573 164.433 432.703 163.846 433.599 162.565C434.502 161.277 435.057 159.322 435.265 156.698C435.402 154.963 435.336 153.491 435.067 152.282C434.798 151.074 434.356 150.144 433.742 149.495C433.129 148.838 432.371 148.474 431.468 148.403C430.11 148.295 428.983 148.886 428.087 150.174C427.191 151.455 426.637 153.397 426.424 155.998C426.279 157.74 426.337 159.218 426.599 160.434C426.867 161.65 427.308 162.586 427.922 163.243C428.536 163.892 429.298 164.253 430.208 164.325ZM447.572 169.058C445.816 168.919 444.344 168.355 443.156 167.367C441.975 166.372 441.114 165.006 440.572 163.267C440.037 161.522 439.865 159.459 440.053 157.077C440.249 154.696 440.747 152.696 441.547 151.078C442.355 149.454 443.42 148.25 444.741 147.468C446.069 146.686 447.608 146.364 449.357 146.502C451.106 146.641 452.575 147.2 453.763 148.182C454.952 149.163 455.814 150.519 456.35 152.25C456.892 153.981 457.07 156.034 456.882 158.409C456.693 160.797 456.194 162.811 455.384 164.45C454.583 166.082 453.517 167.293 452.189 168.082C450.867 168.872 449.328 169.197 447.572 169.058ZM447.836 165.72C449.201 165.828 450.332 165.241 451.227 163.96C452.13 162.672 452.686 160.716 452.893 158.093C453.031 156.358 452.965 154.886 452.695 153.677C452.426 152.468 451.985 151.539 451.371 150.89C450.757 150.233 449.999 149.869 449.096 149.798C447.738 149.69 446.611 150.281 445.715 151.569C444.82 152.85 444.265 154.792 444.052 157.393C443.907 159.135 443.966 160.613 444.227 161.829C444.496 163.045 444.937 163.981 445.55 164.638C446.164 165.287 446.926 165.648 447.836 165.72Z" fill="#69C476"/>
</g>
<rect x="1" y="1" width="469" height="248" rx="46" stroke="black" stroke-width="2"/>
<defs>
<clipPath id="clip0_110_179">
<rect width="471" height="250" rx="47" fill="white"/>
</clipPath>
<clipPath id="clip1_110_179">
<rect width="280" height="280" fill="white" transform="translate(17 -21)"/>
</clipPath>
<clipPath id="clip2_110_179">
<rect x="56.2998" y="149" width="377" height="94" rx="8" transform="rotate(9.36765 56.2998 149)" fill="white"/>
</clipPath>
<clipPath id="clip3_110_179">
<rect x="60.3369" y="204.396" width="341" height="23" rx="7" transform="rotate(9.36765 60.3369 204.396)" fill="white"/>
</clipPath>
</defs>
</svg>
