<svg width="224" height="250" viewBox="0 0 224 250" fill="none" xmlns="http://www.w3.org/2000/svg">
<g clip-path="url(#clip0_110_189)">
<rect width="224" height="250" rx="47" fill="#FFDADA"/>
<path d="M7.62428 93.4704C19.2771 99.8738 27.1748 112.264 27.1748 126.5C27.1748 140.735 19.2771 153.126 7.62428 159.529C8.90125 163.198 10.385 166.769 12.0615 170.23C24.8281 166.52 39.1721 169.697 49.2369 179.762C59.3016 189.827 62.479 204.171 58.7691 216.938C62.2299 218.614 65.8015 220.098 69.4699 221.375C75.8733 209.722 88.264 201.824 102.499 201.824C116.735 201.824 129.125 209.722 135.529 221.375C139.197 220.098 142.769 218.614 146.229 216.938C142.52 204.171 145.697 189.827 155.762 179.762C165.826 169.697 180.17 166.52 192.937 170.23C194.614 166.769 196.097 163.198 197.374 159.529C185.721 153.126 177.824 140.735 177.824 126.5C177.824 112.264 185.721 99.8738 197.374 93.4704C196.097 89.802 194.614 86.2304 192.937 82.7696C180.17 86.4795 165.826 83.3021 155.762 73.2373C145.697 63.1726 142.52 48.8286 146.229 36.062C142.769 34.3855 139.197 32.9017 135.529 31.6248C129.125 43.2776 116.735 51.1753 102.499 51.1753C88.264 51.1753 75.8733 43.2776 69.4699 31.6248C65.8015 32.9017 62.2299 34.3855 58.7691 36.062C62.479 48.8286 59.3016 63.1726 49.2369 73.2373C39.1721 83.3021 24.8281 86.4795 12.0615 82.7696C10.385 86.2304 8.90125 89.802 7.62428 93.4704ZM-12.2872 86.5393C-10.7467 82.1138 -8.95164 77.7868 -6.91268 73.5779C-2.4304 64.3252 8.07208 59.6548 17.9448 62.5237C23.7343 64.2061 29.9966 62.6612 34.3287 58.3292C38.6607 53.9971 40.2056 47.7347 38.5233 41.9453C35.6543 32.0726 40.3247 21.5701 49.5774 17.0878C53.7863 15.0488 58.1133 13.2538 62.5388 11.7133C72.2546 8.33124 82.9927 12.4551 87.9472 21.4712C90.851 26.7554 96.3722 30.092 102.499 30.092C108.626 30.092 114.148 26.7554 117.051 21.4712C122.006 12.4551 132.744 8.33124 142.46 11.7133C146.885 13.2538 151.212 15.0488 155.421 17.0878C164.674 21.5701 169.344 32.0726 166.475 41.9453C164.793 47.7347 166.338 53.9971 170.67 58.3292C175.002 62.6612 181.264 64.2061 187.054 62.5237C196.926 59.6548 207.429 64.3252 211.911 73.5779C213.95 77.7868 215.745 82.1138 217.286 86.5393C220.668 96.2551 216.544 106.993 207.528 111.948C202.244 114.852 198.907 120.373 198.907 126.5C198.907 132.627 202.244 138.148 207.528 141.052C216.544 146.006 220.668 156.744 217.286 166.46C215.745 170.886 213.95 175.213 211.911 179.422C207.429 188.674 196.926 193.345 187.054 190.476C181.264 188.793 175.002 190.338 170.67 194.67C166.338 199.002 164.793 205.265 166.475 211.054C169.344 220.927 164.674 231.429 155.421 235.912C151.212 237.951 146.885 239.746 142.46 241.286C132.744 244.668 122.006 240.544 117.051 231.528C114.148 226.244 108.626 222.908 102.499 222.908C96.3722 222.908 90.851 226.244 87.9472 231.528C82.9927 240.544 72.2546 244.668 62.5388 241.286C58.1133 239.746 53.7863 237.951 49.5774 235.912C40.3247 231.429 35.6543 220.927 38.5233 211.054C40.2056 205.265 38.6607 199.002 34.3287 194.67C29.9966 190.338 23.7343 188.793 17.9448 190.476C8.07208 193.345 -2.4304 188.674 -6.91268 179.422C-8.95164 175.213 -10.7467 170.886 -12.2872 166.46C-15.6692 156.744 -11.5454 146.006 -2.52933 141.052C2.75496 138.148 6.09149 132.627 6.09149 126.5C6.09149 120.373 2.75496 114.852 -2.52933 111.948C-11.5454 106.993 -15.6692 96.2551 -12.2872 86.5393ZM102.499 168.666C125.787 168.666 144.666 149.788 144.666 126.5C144.666 103.212 125.787 84.3331 102.499 84.3331C79.2113 84.3331 60.3326 103.212 60.3326 126.5C60.3326 149.788 79.2113 168.666 102.499 168.666ZM102.499 147.583C90.8553 147.583 81.416 138.144 81.416 126.5C81.416 114.856 90.8553 105.416 102.499 105.416C114.143 105.416 123.583 114.856 123.583 126.5C123.583 138.144 114.143 147.583 102.499 147.583Z" fill="black" fill-opacity="0.067"/>
<mask id="mask0_110_189" style="mask-type:luminance" maskUnits="userSpaceOnUse" x="-14" y="10" width="233" height="233">
<path d="M7.62428 93.4704C19.2771 99.8738 27.1748 112.264 27.1748 126.5C27.1748 140.735 19.2771 153.126 7.62428 159.529C8.90125 163.198 10.385 166.769 12.0615 170.23C24.8281 166.52 39.1721 169.697 49.2369 179.762C59.3016 189.827 62.479 204.171 58.7691 216.938C62.2299 218.614 65.8015 220.098 69.4699 221.375C75.8733 209.722 88.264 201.824 102.499 201.824C116.735 201.824 129.125 209.722 135.529 221.375C139.197 220.098 142.769 218.614 146.229 216.938C142.52 204.171 145.697 189.827 155.762 179.762C165.826 169.697 180.17 166.52 192.937 170.23C194.614 166.769 196.097 163.198 197.374 159.529C185.721 153.126 177.824 140.735 177.824 126.5C177.824 112.264 185.721 99.8738 197.374 93.4704C196.097 89.802 194.614 86.2304 192.937 82.7696C180.17 86.4795 165.826 83.3021 155.762 73.2373C145.697 63.1726 142.52 48.8286 146.229 36.062C142.769 34.3855 139.197 32.9017 135.529 31.6248C129.125 43.2776 116.735 51.1753 102.499 51.1753C88.264 51.1753 75.8733 43.2776 69.4699 31.6248C65.8015 32.9017 62.2299 34.3855 58.7691 36.062C62.479 48.8286 59.3016 63.1726 49.2369 73.2373C39.1721 83.3021 24.8281 86.4795 12.0615 82.7696C10.385 86.2304 8.90125 89.802 7.62428 93.4704ZM-12.2872 86.5393C-10.7467 82.1138 -8.95164 77.7868 -6.91268 73.5779C-2.4304 64.3252 8.07208 59.6548 17.9448 62.5237C23.7343 64.2061 29.9966 62.6612 34.3287 58.3292C38.6607 53.9971 40.2056 47.7347 38.5233 41.9453C35.6543 32.0726 40.3247 21.5701 49.5774 17.0878C53.7863 15.0488 58.1133 13.2538 62.5388 11.7133C72.2546 8.33124 82.9927 12.4551 87.9472 21.4712C90.851 26.7554 96.3722 30.092 102.499 30.092C108.626 30.092 114.148 26.7554 117.051 21.4712C122.006 12.4551 132.744 8.33124 142.46 11.7133C146.885 13.2538 151.212 15.0488 155.421 17.0878C164.674 21.5701 169.344 32.0726 166.475 41.9453C164.793 47.7347 166.338 53.9971 170.67 58.3292C175.002 62.6612 181.264 64.2061 187.054 62.5237C196.926 59.6548 207.429 64.3252 211.911 73.5779C213.95 77.7868 215.745 82.1138 217.286 86.5393C220.668 96.2551 216.544 106.993 207.528 111.948C202.244 114.852 198.907 120.373 198.907 126.5C198.907 132.627 202.244 138.148 207.528 141.052C216.544 146.006 220.668 156.744 217.286 166.46C215.745 170.886 213.95 175.213 211.911 179.422C207.429 188.674 196.926 193.345 187.054 190.476C181.264 188.793 175.002 190.338 170.67 194.67C166.338 199.002 164.793 205.265 166.475 211.054C169.344 220.927 164.674 231.429 155.421 235.912C151.212 237.951 146.885 239.746 142.46 241.286C132.744 244.668 122.006 240.544 117.051 231.528C114.148 226.244 108.626 222.908 102.499 222.908C96.3722 222.908 90.851 226.244 87.9472 231.528C82.9927 240.544 72.2546 244.668 62.5388 241.286C58.1133 239.746 53.7863 237.951 49.5774 235.912C40.3247 231.429 35.6543 220.927 38.5233 211.054C40.2056 205.265 38.6607 199.002 34.3287 194.67C29.9966 190.338 23.7343 188.793 17.9448 190.476C8.07208 193.345 -2.4304 188.674 -6.91268 179.422C-8.95164 175.213 -10.7467 170.886 -12.2872 166.46C-15.6692 156.744 -11.5454 146.006 -2.52933 141.052C2.75496 138.148 6.09149 132.627 6.09149 126.5C6.09149 120.373 2.75496 114.852 -2.52933 111.948C-11.5454 106.993 -15.6692 96.2551 -12.2872 86.5393ZM102.499 168.666C125.787 168.666 144.666 149.788 144.666 126.5C144.666 103.212 125.787 84.3331 102.499 84.3331C79.2113 84.3331 60.3326 103.212 60.3326 126.5C60.3326 149.788 79.2113 168.666 102.499 168.666ZM102.499 147.583C90.8553 147.583 81.416 138.144 81.416 126.5C81.416 114.856 90.8553 105.416 102.499 105.416C114.143 105.416 123.583 114.856 123.583 126.5C123.583 138.144 114.143 147.583 102.499 147.583Z" fill="white"/>
</mask>
<g mask="url(#mask0_110_189)">
<path d="M229 0L-24 0V253H229V0Z" fill="black" fill-opacity="0.067"/>
</g>
<path d="M42.8358 71V43H61.0758V47.36H48.2358V54.84H58.5158V59.08H48.2358V71H42.8358ZM62.5423 71V50.84H67.3423L67.8623 54.56C68.3423 53.68 68.9423 52.9333 69.6623 52.32C70.409 51.7067 71.249 51.2267 72.1823 50.88C73.1424 50.5333 74.1957 50.36 75.3424 50.36V56.08H73.5023C72.7023 56.08 71.9557 56.1733 71.2623 56.36C70.5957 56.5467 70.009 56.8533 69.5023 57.28C68.9957 57.68 68.609 58.24 68.3423 58.96C68.0757 59.68 67.9423 60.5867 67.9423 61.68V71H62.5423ZM85.877 71.48C83.8504 71.48 82.0504 71.0533 80.477 70.2C78.9304 69.32 77.717 68.1067 76.837 66.56C75.9837 64.9867 75.557 63.1733 75.557 61.12C75.557 59.0133 75.9837 57.16 76.837 55.56C77.717 53.9333 78.9304 52.6667 80.477 51.76C82.0237 50.8267 83.8237 50.36 85.877 50.36C87.877 50.36 89.6237 50.8 91.117 51.68C92.6104 52.56 93.7704 53.7467 94.597 55.24C95.4237 56.7333 95.837 58.4267 95.837 60.32C95.837 60.5867 95.837 60.8933 95.837 61.24C95.837 61.56 95.8104 61.8933 95.757 62.24H79.397V58.96H90.397C90.317 57.6533 89.8504 56.6267 88.997 55.88C88.1704 55.1333 87.1304 54.76 85.877 54.76C84.9704 54.76 84.1304 54.9733 83.357 55.4C82.5837 55.8 81.9704 56.4267 81.517 57.28C81.0904 58.1333 80.877 59.2133 80.877 60.52V61.68C80.877 62.7733 81.077 63.7333 81.477 64.56C81.9037 65.36 82.4904 65.9867 83.237 66.44C83.9837 66.8667 84.8504 67.08 85.837 67.08C86.8237 67.08 87.637 66.8667 88.277 66.44C88.9437 66.0133 89.437 65.4667 89.757 64.8H95.277C94.9037 66.0533 94.277 67.1867 93.397 68.2C92.517 69.2133 91.437 70.0133 90.157 70.6C88.877 71.1867 87.4504 71.48 85.877 71.48ZM107.54 71.48C105.513 71.48 103.713 71.0533 102.14 70.2C100.593 69.32 99.3795 68.1067 98.4995 66.56C97.6462 64.9867 97.2195 63.1733 97.2195 61.12C97.2195 59.0133 97.6462 57.16 98.4995 55.56C99.3795 53.9333 100.593 52.6667 102.14 51.76C103.686 50.8267 105.486 50.36 107.54 50.36C109.54 50.36 111.286 50.8 112.78 51.68C114.273 52.56 115.433 53.7467 116.26 55.24C117.086 56.7333 117.5 58.4267 117.5 60.32C117.5 60.5867 117.5 60.8933 117.5 61.24C117.5 61.56 117.473 61.8933 117.42 62.24H101.06V58.96H112.06C111.98 57.6533 111.513 56.6267 110.66 55.88C109.833 55.1333 108.793 54.76 107.54 54.76C106.633 54.76 105.793 54.9733 105.02 55.4C104.246 55.8 103.633 56.4267 103.18 57.28C102.753 58.1333 102.54 59.2133 102.54 60.52V61.68C102.54 62.7733 102.74 63.7333 103.14 64.56C103.566 65.36 104.153 65.9867 104.9 66.44C105.646 66.8667 106.513 67.08 107.5 67.08C108.486 67.08 109.3 66.8667 109.94 66.44C110.606 66.0133 111.1 65.4667 111.42 64.8H116.94C116.566 66.0533 115.94 67.1867 115.06 68.2C114.18 69.2133 113.1 70.0133 111.82 70.6C110.54 71.1867 109.113 71.48 107.54 71.48ZM124.776 71L135.016 43H141.136L151.336 71H145.616L138.056 49.16L130.456 71H124.776ZM129.296 64.64L130.736 60.44H144.976L146.376 64.64H129.296ZM152.615 71V43H163.095C165.362 43 167.242 43.3867 168.735 44.16C170.229 44.9333 171.335 45.9733 172.055 47.28C172.775 48.5867 173.135 50.08 173.135 51.76C173.135 53.3067 172.789 54.7333 172.095 56.04C171.402 57.3467 170.309 58.4133 168.815 59.24C167.322 60.04 165.415 60.44 163.095 60.44H158.015V71H152.615ZM158.015 56.08H162.775C164.509 56.08 165.749 55.6933 166.495 54.92C167.269 54.12 167.655 53.0667 167.655 51.76C167.655 50.3733 167.269 49.3067 166.495 48.56C165.749 47.7867 164.509 47.4 162.775 47.4H158.015V56.08ZM174.786 71V43H180.186V71H174.786Z" fill="black"/>
<g clip-path="url(#clip1_110_189)">
<rect x="21.6641" y="106" width="300" height="300" rx="8" transform="rotate(5.86657 21.6641 106)" fill="#FFFDFA"/>
<path d="M33.8675 134.301L34.758 125.635C34.8075 125.154 34.9403 124.743 35.1565 124.403C35.3727 124.063 35.6662 123.806 36.0368 123.635C36.4169 123.464 36.8665 123.405 37.3857 123.458L39.708 123.697L39.5887 124.858L37.6912 124.663C37.4363 124.637 37.1969 124.646 36.973 124.69C36.7585 124.734 36.5807 124.84 36.4396 125.007C36.3088 125.165 36.2265 125.409 36.1925 125.74L35.2977 134.448L33.8675 134.301ZM32.7076 127.485L32.827 126.324L38.5477 126.912L38.4284 128.073L32.7076 127.485ZM31.3895 134.047L31.5088 132.886L38.5323 133.607L38.413 134.769L31.3895 134.047ZM43.3005 135.442C42.4981 135.36 41.8207 135.128 41.2684 134.747C40.7171 134.357 40.3167 133.843 40.0672 133.207C39.8187 132.561 39.7382 131.814 39.8255 130.964C39.9128 130.115 40.1432 129.404 40.5168 128.832C40.8999 128.26 41.4005 127.844 42.0188 127.583C42.6465 127.324 43.371 127.236 44.1923 127.32C45.4478 127.449 46.3465 127.895 46.8883 128.656C47.4311 129.408 47.6027 130.385 47.403 131.585L40.9743 130.925L41.099 129.85L46.0536 130.373C46.0673 129.869 45.8914 129.446 45.5259 129.103C45.1605 128.76 44.6757 128.558 44.0715 128.496C43.2597 128.412 42.6104 128.603 42.1238 129.068C41.6372 129.533 41.3458 130.233 41.2498 131.168C41.1926 131.725 41.2361 132.23 41.3803 132.684C41.5348 133.129 41.7841 133.488 42.128 133.762C42.4719 134.036 42.9035 134.2 43.4227 134.253C44.0363 134.316 44.5611 134.222 44.9971 133.971C45.4425 133.721 45.7382 133.351 45.884 132.86L47.3142 133.007C47.1012 133.873 46.6387 134.521 45.9264 134.954C45.2142 135.386 44.3389 135.549 43.3005 135.442ZM52.2303 136.188C51.7488 136.139 51.3479 136.002 51.0274 135.778C50.7079 135.545 50.4817 135.241 50.3486 134.864C50.2155 134.488 50.1737 134.059 50.2232 133.578L50.9303 126.696L52.4405 126.064L51.6534 133.725C51.6301 133.952 51.6418 134.163 51.6885 134.358C51.7352 134.554 51.8476 134.713 52.0257 134.836C52.2133 134.961 52.4959 135.042 52.8735 135.081L55.2099 135.321L55.0906 136.482L52.2303 136.188ZM48.8189 129.141L48.9382 127.98L54.6448 128.566L54.5254 129.727L48.8189 129.141ZM60.1622 137.175C59.3598 137.093 58.6782 136.856 58.1174 136.464C57.567 136.064 57.1624 135.545 56.9035 134.908C56.6456 134.262 56.5589 133.528 56.6432 132.707C56.7296 131.866 56.969 131.161 57.3615 130.591C57.7549 130.011 58.2655 129.592 58.8932 129.332C59.5219 129.062 60.2327 128.968 61.0257 129.05C61.6582 129.115 62.2125 129.291 62.6885 129.579C63.175 129.857 63.5522 130.225 63.8201 130.682C64.0974 131.14 64.2296 131.664 64.2166 132.254L62.7865 132.107C62.7653 131.571 62.5804 131.141 62.2319 130.819C61.8938 130.489 61.451 130.296 60.9035 130.239C60.3937 130.187 59.9379 130.259 59.536 130.457C59.1351 130.644 58.809 130.94 58.5577 131.343C58.3064 131.747 58.1497 132.251 58.0876 132.855C57.9954 133.752 58.1497 134.478 58.5505 135.035C58.9607 135.592 59.5387 135.909 60.2844 135.986C60.6243 136.02 60.9473 135.987 61.2535 135.885C61.5598 135.783 61.8293 135.62 62.0622 135.395C62.2961 135.162 62.4678 134.884 62.5772 134.561L64.0216 134.71C63.867 135.285 63.598 135.768 63.2145 136.158C62.8414 136.539 62.3879 136.822 61.8539 137.005C61.3303 137.181 60.7664 137.237 60.1622 137.175ZM70.4089 138.056L70.9123 133.157C70.9695 132.6 70.8594 132.14 70.5818 131.778C70.3052 131.406 69.9167 131.194 69.4164 131.143C68.8405 131.084 68.3042 131.243 67.8074 131.621C67.3211 131.991 66.9001 132.606 66.5446 133.466L66.481 131.857C66.8503 131.141 67.3276 130.628 67.913 130.316C68.5078 130.005 69.1309 129.883 69.7822 129.95C70.3675 130.01 70.8595 130.189 71.2581 130.488C71.6671 130.778 71.9664 131.161 72.1558 131.639C72.3462 132.107 72.4104 132.643 72.3483 133.247L71.8391 138.203L70.4089 138.056ZM64.8581 137.486L65.9289 127.064L67.3591 127.211L66.2883 137.633L64.8581 137.486ZM33.496 150.73C33.0229 149.67 32.7055 148.674 32.5438 147.742C32.3914 146.81 32.3633 145.877 32.4593 144.943C32.5583 143.98 32.7765 143.063 33.1141 142.191C33.4621 141.311 33.975 140.405 34.6527 139.473L36.1112 139.623C35.4175 140.525 34.9004 141.425 34.5599 142.325C34.2194 143.225 34.0007 144.147 33.9037 145.091C33.8086 146.016 33.8363 146.954 33.9867 147.904C34.137 148.855 34.4597 149.847 34.9545 150.88L33.496 150.73ZM43.1237 143.291L43.315 139.619L44.8726 139.779L44.3131 143.413L43.1237 143.291ZM40.5465 143.026L40.7378 139.354L42.2954 139.514L41.736 143.149L40.5465 143.026ZM52.1556 151.26L52.659 146.36C52.7162 145.803 52.606 145.343 52.3285 144.981C52.0519 144.609 51.6634 144.398 51.1631 144.346C50.5872 144.287 50.0509 144.447 49.5541 144.825C49.0678 145.195 48.6468 145.81 48.2913 146.67L48.2277 145.061C48.597 144.345 49.0743 143.831 49.6597 143.519C50.2545 143.208 50.8776 143.086 51.5289 143.153C52.1142 143.213 52.6062 143.393 53.0048 143.691C53.4138 143.981 53.713 144.365 53.9025 144.842C54.0929 145.31 54.1571 145.846 54.095 146.45L53.5858 151.407L52.1556 151.26ZM46.6048 150.689L47.6756 140.267L49.1058 140.414L48.0349 150.836L46.6048 150.689ZM59.0571 151.969C58.5757 151.919 58.1747 151.783 57.8543 151.559C57.5348 151.326 57.3085 151.021 57.1755 150.645C57.0424 150.269 57.0006 149.84 57.0501 149.358L57.7572 142.477L59.2674 141.845L58.4803 149.505C58.457 149.732 58.4687 149.943 58.5154 150.139C58.5621 150.334 58.6745 150.494 58.8526 150.617C59.0402 150.741 59.3228 150.823 59.7004 150.861L62.0368 151.101L61.9175 152.263L59.0571 151.969ZM55.6458 144.921L55.7651 143.76L61.4716 144.346L61.3523 145.508L55.6458 144.921ZM67.4172 152.828C66.9357 152.778 66.5348 152.642 66.2144 152.418C65.8949 152.185 65.6686 151.88 65.5355 151.504C65.4025 151.128 65.3607 150.699 65.4102 150.217L66.1173 143.336L67.6275 142.704L66.8403 150.364C66.8171 150.591 66.8288 150.802 66.8754 150.998C66.9221 151.193 67.0345 151.353 67.2127 151.476C67.4002 151.6 67.6828 151.682 68.0604 151.72L70.3969 151.96L70.2776 153.122L67.4172 152.828ZM64.0058 145.78L64.1251 144.619L69.8317 145.205L69.7124 146.367L64.0058 145.78ZM76.4109 145.71C77.1094 145.782 77.7004 146.019 78.1837 146.421C78.6774 146.816 79.0438 147.335 79.2828 147.98C79.5219 148.624 79.6007 149.343 79.5192 150.136C79.4387 150.92 79.2159 151.603 78.8507 152.185C78.4856 152.768 78.0208 153.206 77.4562 153.501C76.9011 153.797 76.2743 153.909 75.5757 153.838C75.0471 153.783 74.572 153.625 74.1507 153.362C73.7387 153.1 73.4106 152.766 73.1662 152.359L72.7995 155.928L71.3693 155.781L72.4285 145.472L73.7879 145.612L73.7213 146.678C74.0433 146.33 74.4373 146.07 74.9033 145.898C75.3702 145.717 75.8728 145.654 76.4109 145.71ZM75.3879 152.602C75.8693 152.652 76.302 152.572 76.6859 152.363C77.0699 152.155 77.3828 151.848 77.6247 151.444C77.8676 151.03 78.0176 150.545 78.0748 149.988C78.133 149.421 78.0848 148.915 77.9302 148.47C77.7766 148.016 77.5326 147.652 77.1981 147.379C76.8646 147.097 76.4571 146.931 75.9757 146.881C75.4848 146.831 75.0218 146.926 74.5868 147.168C74.1622 147.401 73.8307 147.748 73.5925 148.211L73.3277 150.788C73.466 151.298 73.7189 151.715 74.0863 152.039C74.4631 152.364 74.897 152.552 75.3879 152.602ZM83.695 154.672C83.0059 154.601 82.4092 154.421 81.9048 154.13C81.4108 153.831 81.0445 153.45 80.8059 152.987C80.5683 152.514 80.4763 151.971 80.5299 151.356L81.8751 151.494C81.8159 152.07 81.9629 152.543 82.316 152.913C82.6691 153.283 83.1619 153.501 83.7944 153.566C84.3325 153.621 84.7722 153.566 85.1135 153.401C85.4653 153.227 85.6591 152.966 85.695 152.617C85.7231 152.343 85.651 152.116 85.4787 151.936C85.3168 151.748 85.0896 151.591 84.7973 151.465C84.5049 151.34 84.178 151.225 83.8166 151.121C83.4656 151.009 83.1109 150.887 82.7525 150.754C82.4044 150.614 82.0871 150.452 81.8005 150.27C81.5149 150.079 81.2913 149.841 81.1297 149.557C80.968 149.274 80.909 148.919 80.9527 148.495C80.9983 148.051 81.166 147.672 81.4558 147.359C81.7465 147.035 82.1334 146.799 82.6163 146.648C83.1087 146.498 83.6759 146.456 84.3178 146.522C85.2901 146.622 86.0457 146.929 86.5844 147.442C87.1335 147.947 87.3914 148.593 87.3581 149.382L86.0129 149.243C86.0312 148.787 85.8782 148.419 85.5542 148.137C85.2405 147.848 84.7911 147.673 84.2058 147.613C83.6582 147.556 83.227 147.622 82.912 147.809C82.6065 147.997 82.4368 148.256 82.4028 148.586C82.3767 148.841 82.4502 149.054 82.6235 149.224C82.7977 149.385 83.0315 149.524 83.3249 149.64C83.6192 149.746 83.9424 149.851 84.2943 149.954C84.6566 150.049 85.0123 150.161 85.3613 150.293C85.7198 150.425 86.0414 150.592 86.326 150.792C86.6116 150.984 86.8295 151.231 86.9798 151.532C87.1395 151.835 87.196 152.213 87.1495 152.666C87.0748 153.393 86.7235 153.934 86.0955 154.289C85.4675 154.644 84.6674 154.772 83.695 154.672ZM91.5191 150.024L91.6995 148.268L93.4554 148.448L93.275 150.204L91.5191 150.024ZM90.9822 155.249L91.1626 153.493L92.9185 153.674L92.7381 155.429L90.9822 155.249ZM96.5957 157.214L103.234 146.505L104.721 146.658L98.0825 157.367L96.5957 157.214ZM104.956 158.073L111.594 147.364L113.081 147.517L106.443 158.226L104.956 158.073ZM118.979 158.126L119.105 156.35L119.447 153.022C119.504 152.465 119.364 152.012 119.028 151.663C118.702 151.305 118.223 151.094 117.591 151.029C116.977 150.965 116.462 151.056 116.046 151.299C115.631 151.533 115.379 151.894 115.291 152.381L113.889 152.237C113.994 151.684 114.222 151.231 114.573 150.876C114.925 150.511 115.372 150.252 115.912 150.098C116.454 149.934 117.064 149.887 117.744 149.957C118.442 150.028 119.034 150.209 119.52 150.497C120.007 150.776 120.364 151.147 120.593 151.609C120.832 152.072 120.919 152.615 120.855 153.239L120.339 158.265L118.979 158.126ZM116.144 158.006C115.634 157.954 115.195 157.818 114.826 157.599C114.459 157.37 114.184 157.075 114.002 156.713C113.82 156.341 113.754 155.924 113.801 155.462C113.884 154.659 114.254 154.068 114.914 153.687C115.582 153.307 116.474 153.175 117.587 153.289L119.584 153.494L119.475 154.556L117.422 154.345C116.78 154.279 116.262 154.35 115.869 154.558C115.485 154.766 115.27 155.093 115.224 155.536C115.187 155.904 115.284 156.205 115.518 156.439C115.761 156.674 116.104 156.814 116.548 156.86C117.114 156.918 117.63 156.818 118.096 156.561C118.571 156.295 118.974 155.907 119.303 155.397L119.351 156.461C119.044 157.031 118.62 157.45 118.077 157.718C117.534 157.987 116.89 158.083 116.144 158.006ZM126.571 150.864C127.27 150.936 127.861 151.173 128.344 151.575C128.838 151.97 129.204 152.489 129.443 153.134C129.682 153.778 129.761 154.497 129.68 155.29C129.599 156.074 129.376 156.757 129.011 157.339C128.646 157.922 128.181 158.36 127.617 158.655C127.061 158.951 126.435 159.063 125.736 158.992C125.207 158.937 124.732 158.779 124.311 158.516C123.899 158.254 123.571 157.92 123.327 157.513L122.96 161.082L121.53 160.935L122.589 150.626L123.948 150.766L123.882 151.832C124.204 151.484 124.598 151.224 125.064 151.052C125.531 150.871 126.033 150.808 126.571 150.864ZM125.548 157.756C126.03 157.806 126.462 157.726 126.846 157.517C127.23 157.309 127.543 157.002 127.785 156.598C128.028 156.184 128.178 155.699 128.235 155.142C128.293 154.575 128.245 154.069 128.091 153.624C127.937 153.17 127.693 152.806 127.358 152.533C127.025 152.251 126.617 152.085 126.136 152.035C125.645 151.985 125.182 152.08 124.747 152.322C124.323 152.555 123.991 152.902 123.753 153.365L123.488 155.942C123.626 156.452 123.879 156.869 124.247 157.193C124.623 157.518 125.057 157.706 125.548 157.756ZM133.023 159.569L133.823 151.781L135.254 151.928L134.453 159.716L133.023 159.569ZM130.149 159.273L130.268 158.112L137.249 158.83L137.13 159.991L130.149 159.273ZM131.863 152.753L131.983 151.591L134.532 151.853L134.412 153.014L131.863 152.753ZM133.861 150.439L134.02 148.896L135.62 149.06L135.461 150.604L133.861 150.439ZM141.143 160.403L141.323 158.647L143.079 158.828L142.898 160.583L141.143 160.403ZM150.59 161.545C149.787 161.463 149.106 161.226 148.545 160.834C147.995 160.434 147.59 159.916 147.331 159.279C147.073 158.632 146.986 157.898 147.071 157.077C147.157 156.237 147.396 155.532 147.789 154.961C148.182 154.382 148.693 153.962 149.321 153.702C149.949 153.433 150.66 153.339 151.453 153.42C152.086 153.485 152.64 153.662 153.116 153.949C153.603 154.228 153.98 154.596 154.248 155.053C154.525 155.51 154.657 156.034 154.644 156.624L153.214 156.478C153.193 155.941 153.008 155.512 152.659 155.19C152.321 154.859 151.878 154.666 151.331 154.61C150.821 154.557 150.365 154.63 149.964 154.827C149.563 155.015 149.237 155.31 148.985 155.714C148.734 156.117 148.577 156.621 148.515 157.225C148.423 158.122 148.577 158.849 148.978 159.405C149.388 159.962 149.966 160.279 150.712 160.356C151.052 160.391 151.375 160.357 151.681 160.255C151.987 160.153 152.257 159.99 152.49 159.766C152.724 159.532 152.895 159.254 153.005 158.932L154.449 159.08C154.295 159.656 154.026 160.138 153.642 160.528C153.269 160.91 152.815 161.192 152.281 161.376C151.758 161.551 151.194 161.607 150.59 161.545ZM160.836 162.427L161.34 157.527C161.397 156.97 161.287 156.51 161.009 156.148C160.733 155.776 160.344 155.565 159.844 155.513C159.268 155.454 158.732 155.614 158.235 155.992C157.749 156.362 157.328 156.977 156.972 157.837L156.909 156.228C157.278 155.512 157.755 154.998 158.34 154.686C158.935 154.375 159.558 154.253 160.21 154.32C160.795 154.38 161.287 154.56 161.686 154.858C162.095 155.148 162.394 155.532 162.583 156.009C162.774 156.477 162.838 157.013 162.776 157.617L162.267 162.573L160.836 162.427ZM155.286 161.856L156.356 151.434L157.787 151.581L156.716 162.003L155.286 161.856ZM169.14 163.28L169.265 161.504L169.607 158.176C169.664 157.619 169.525 157.166 169.189 156.817C168.863 156.459 168.384 156.248 167.751 156.183C167.138 156.119 166.623 156.21 166.207 156.453C165.791 156.687 165.54 157.048 165.451 157.535L164.05 157.391C164.154 156.838 164.382 156.385 164.733 156.03C165.085 155.665 165.532 155.406 166.072 155.252C166.614 155.088 167.225 155.041 167.904 155.111C168.603 155.182 169.195 155.363 169.68 155.651C170.167 155.93 170.525 156.301 170.754 156.763C170.992 157.226 171.08 157.769 171.016 158.393L170.499 163.419L169.14 163.28ZM166.304 163.16C165.795 163.108 165.355 162.972 164.987 162.753C164.619 162.524 164.344 162.229 164.162 161.867C163.981 161.495 163.914 161.078 163.962 160.616C164.044 159.813 164.415 159.222 165.074 158.841C165.743 158.461 166.634 158.329 167.748 158.443L169.744 158.648L169.635 159.71L167.582 159.499C166.94 159.433 166.423 159.504 166.029 159.712C165.645 159.92 165.43 160.247 165.385 160.69C165.347 161.058 165.445 161.359 165.678 161.593C165.921 161.828 166.265 161.968 166.708 162.014C167.275 162.072 167.791 161.972 168.256 161.715C168.732 161.449 169.134 161.061 169.463 160.551L169.511 161.615C169.205 162.185 168.78 162.604 168.237 162.872C167.694 163.141 167.05 163.237 166.304 163.16ZM174.824 163.864L175.624 156.076L177.054 156.223L176.254 164.011L174.824 163.864ZM171.949 163.568L172.068 162.407L179.049 163.125L178.93 164.286L171.949 163.568ZM173.664 157.048L173.783 155.886L176.332 156.148L176.212 157.309L173.664 157.048ZM175.661 154.734L175.82 153.191L177.42 153.355L177.262 154.899L175.661 154.734ZM182.943 164.698L183.123 162.942L184.879 163.123L184.699 164.878L182.943 164.698ZM192.39 165.84C191.588 165.758 190.906 165.521 190.345 165.129C189.795 164.729 189.39 164.211 189.131 163.574C188.873 162.927 188.787 162.193 188.871 161.372C188.957 160.532 189.197 159.827 189.589 159.256C189.983 158.677 190.493 158.257 191.121 157.997C191.75 157.728 192.46 157.634 193.253 157.715C193.886 157.78 194.44 157.957 194.916 158.244C195.403 158.523 195.78 158.891 196.048 159.348C196.325 159.805 196.457 160.329 196.444 160.919L195.014 160.773C194.993 160.236 194.808 159.807 194.46 159.485C194.122 159.154 193.679 158.961 193.131 158.905C192.621 158.852 192.166 158.925 191.764 159.122C191.363 159.31 191.037 159.605 190.785 160.009C190.534 160.412 190.377 160.916 190.315 161.52C190.223 162.417 190.378 163.144 190.778 163.7C191.188 164.257 191.766 164.574 192.512 164.651C192.852 164.686 193.175 164.652 193.481 164.55C193.788 164.448 194.057 164.285 194.29 164.061C194.524 163.827 194.696 163.549 194.805 163.227L196.249 163.375C196.095 163.951 195.826 164.433 195.442 164.823C195.069 165.205 194.616 165.487 194.082 165.671C193.558 165.846 192.994 165.902 192.39 165.84ZM202.58 166.716L202.705 164.94L203.047 161.612C203.104 161.055 202.965 160.602 202.629 160.253C202.303 159.895 201.824 159.684 201.191 159.619C200.578 159.555 200.063 159.646 199.647 159.889C199.232 160.123 198.98 160.484 198.892 160.971L197.49 160.827C197.594 160.274 197.822 159.821 198.173 159.466C198.526 159.101 198.972 158.842 199.513 158.688C200.054 158.524 200.665 158.477 201.344 158.547C202.043 158.618 202.635 158.799 203.121 159.087C203.607 159.366 203.965 159.737 204.194 160.199C204.433 160.662 204.52 161.205 204.456 161.829L203.939 166.855L202.58 166.716ZM199.745 166.596C199.235 166.544 198.796 166.408 198.427 166.189C198.059 165.96 197.785 165.665 197.602 165.303C197.421 164.931 197.354 164.514 197.402 164.052C197.484 163.249 197.855 162.658 198.514 162.277C199.183 161.897 200.074 161.765 201.188 161.879L203.185 162.084L203.076 163.146L201.022 162.935C200.38 162.869 199.863 162.94 199.469 163.148C199.085 163.356 198.871 163.683 198.825 164.126C198.787 164.494 198.885 164.795 199.119 165.029C199.362 165.264 199.705 165.404 200.149 165.45C200.715 165.508 201.231 165.408 201.696 165.151C202.172 164.885 202.574 164.497 202.903 163.987L202.951 165.051C202.645 165.621 202.22 166.04 201.677 166.308C201.135 166.577 200.49 166.673 199.745 166.596ZM209.096 167.557C208.407 167.486 207.81 167.306 207.306 167.015C206.812 166.716 206.445 166.335 206.207 165.872C205.969 165.399 205.877 164.856 205.931 164.241L207.276 164.379C207.217 164.955 207.364 165.428 207.717 165.798C208.07 166.168 208.563 166.386 209.195 166.451C209.733 166.506 210.173 166.451 210.514 166.286C210.866 166.112 211.06 165.851 211.096 165.502C211.124 165.228 211.052 165.001 210.88 164.821C210.718 164.633 210.491 164.476 210.198 164.35C209.906 164.225 209.579 164.11 209.218 164.006C208.867 163.894 208.512 163.772 208.153 163.639C207.805 163.499 207.488 163.337 207.201 163.155C206.916 162.964 206.692 162.726 206.531 162.442C206.369 162.159 206.31 161.804 206.354 161.38C206.399 160.936 206.567 160.557 206.857 160.244C207.147 159.92 207.534 159.684 208.017 159.533C208.51 159.383 209.077 159.341 209.719 159.407C210.691 159.507 211.447 159.814 211.985 160.327C212.534 160.832 212.792 161.478 212.759 162.267L211.414 162.128C211.432 161.672 211.279 161.304 210.955 161.022C210.641 160.733 210.192 160.558 209.607 160.497C209.059 160.441 208.628 160.507 208.313 160.694C208.007 160.882 207.838 161.141 207.804 161.471C207.778 161.726 207.851 161.939 208.024 162.109C208.199 162.27 208.432 162.409 208.726 162.525C209.02 162.631 209.343 162.736 209.695 162.839C210.058 162.934 210.413 163.046 210.762 163.178C211.121 163.31 211.442 163.476 211.727 163.677C212.012 163.869 212.23 164.116 212.381 164.417C212.54 164.72 212.597 165.098 212.55 165.551C212.476 166.278 212.124 166.819 211.496 167.174C210.868 167.529 210.068 167.657 209.096 167.557ZM219.357 168.44L219.86 163.54C219.917 162.983 219.807 162.523 219.53 162.161C219.253 161.789 218.865 161.578 218.364 161.526C217.788 161.467 217.252 161.627 216.755 162.005C216.269 162.375 215.848 162.99 215.493 163.85L215.429 162.241C215.798 161.525 216.276 161.011 216.861 160.699C217.456 160.388 218.079 160.266 218.73 160.333C219.315 160.393 219.807 160.573 220.206 160.871C220.615 161.161 220.914 161.545 221.104 162.022C221.294 162.49 221.358 163.026 221.296 163.63L220.787 168.586L219.357 168.44ZM213.806 167.869L214.877 157.447L216.307 157.594L215.236 168.016L213.806 167.869ZM221.997 170.099L228.635 159.39L230.122 159.543L223.483 170.252L221.997 170.099ZM236.833 163.495L236.99 162.381L238.336 162.519L237.623 169.458C237.504 170.609 237.103 171.455 236.418 171.996C235.742 172.537 234.781 172.743 233.535 172.615C232.846 172.544 232.256 172.388 231.766 172.147C231.285 171.907 230.917 171.583 230.663 171.175C230.418 170.778 230.305 170.299 230.325 169.738L231.811 169.891C231.815 170.321 231.97 170.666 232.277 170.926C232.593 171.197 233.076 171.366 233.728 171.433C234.464 171.509 235.036 171.377 235.443 171.037C235.859 170.698 236.103 170.179 236.175 169.481L236.281 168.447C235.976 168.816 235.59 169.092 235.123 169.273C234.666 169.454 234.168 169.518 233.63 169.462C232.96 169.394 232.381 169.172 231.895 168.798C231.418 168.424 231.063 167.939 230.828 167.343C230.595 166.737 230.515 166.075 230.589 165.358C230.668 164.584 230.888 163.934 231.247 163.408C231.607 162.873 232.067 162.481 232.627 162.233C233.187 161.976 233.803 161.882 234.473 161.951C235.011 162.006 235.485 162.174 235.895 162.455C236.305 162.735 236.618 163.082 236.833 163.495ZM234.056 168.376C234.566 168.428 235.034 168.328 235.461 168.077C235.898 167.816 236.223 167.439 236.436 166.946L236.638 164.978C236.53 164.452 236.288 164.021 235.912 163.687C235.546 163.344 235.109 163.146 234.599 163.094C234.136 163.047 233.719 163.118 233.346 163.309C232.983 163.5 232.682 163.784 232.443 164.16C232.215 164.528 232.074 164.972 232.02 165.491C231.968 166 232.015 166.468 232.162 166.893C232.32 167.31 232.557 167.649 232.873 167.911C233.199 168.173 233.594 168.328 234.056 168.376ZM242.31 170.97C241.507 170.887 240.83 170.651 240.279 170.26C239.737 169.871 239.341 169.358 239.092 168.722C238.844 168.076 238.762 167.338 238.847 166.507C238.935 165.657 239.165 164.951 239.537 164.389C239.911 163.816 240.403 163.395 241.012 163.123C241.632 162.853 242.347 162.76 243.159 162.843C244.367 162.967 245.279 163.428 245.893 164.226C246.509 165.014 246.751 166.041 246.621 167.306C246.536 168.137 246.306 168.843 245.931 169.424C245.558 169.996 245.061 170.418 244.442 170.688C243.832 170.959 243.121 171.053 242.31 170.97ZM242.446 169.782C243.201 169.859 243.822 169.665 244.309 169.2C244.806 168.727 245.1 168.046 245.191 167.159C245.283 166.262 245.134 165.536 244.742 164.981C244.36 164.426 243.792 164.11 243.037 164.033C242.272 163.954 241.646 164.147 241.16 164.612C240.673 165.078 240.384 165.759 240.292 166.655C240.2 167.543 240.345 168.268 240.726 168.832C241.108 169.387 241.681 169.703 242.446 169.782ZM252.74 171.87L252.866 170.094L253.208 166.766C253.265 166.209 253.125 165.756 252.789 165.407C252.463 165.049 251.984 164.837 251.352 164.773C250.738 164.709 250.223 164.8 249.807 165.043C249.392 165.277 249.14 165.638 249.052 166.125L247.65 165.981C247.755 165.428 247.983 164.975 248.334 164.62C248.686 164.255 249.132 163.996 249.673 163.842C250.215 163.678 250.825 163.631 251.505 163.701C252.203 163.772 252.795 163.953 253.281 164.241C253.767 164.52 254.125 164.891 254.354 165.353C254.593 165.816 254.68 166.359 254.616 166.983L254.1 172.009L252.74 171.87ZM249.905 171.75C249.395 171.698 248.956 171.562 248.587 171.343C248.22 171.114 247.945 170.819 247.763 170.457C247.581 170.085 247.515 169.668 247.562 169.205C247.645 168.403 248.015 167.812 248.675 167.431C249.343 167.051 250.235 166.919 251.348 167.033L253.345 167.238L253.236 168.3L251.183 168.089C250.541 168.023 250.023 168.094 249.63 168.302C249.246 168.51 249.031 168.837 248.985 169.28C248.948 169.648 249.045 169.949 249.279 170.183C249.522 170.418 249.865 170.558 250.309 170.604C250.875 170.662 251.391 170.562 251.857 170.305C252.332 170.039 252.735 169.651 253.064 169.141L253.112 170.205C252.805 170.775 252.381 171.194 251.838 171.462C251.295 171.731 250.651 171.827 249.905 171.75ZM258.353 172.446L259.423 162.039L260.853 162.186L259.784 172.593L258.353 172.446ZM255.479 172.151L255.598 170.99L262.792 171.729L262.672 172.89L255.479 172.151ZM257.463 163.011L257.582 161.85L260.131 162.111L260.011 163.273L257.463 163.011ZM268.845 166.484L269.037 162.812L270.594 162.972L270.035 166.606L268.845 166.484ZM266.268 166.219L266.459 162.547L268.017 162.707L267.458 166.342L266.268 166.219ZM275.357 175.582L273.899 175.432C274.593 174.521 275.111 173.615 275.451 172.715C275.792 171.815 276.01 170.903 276.105 169.977C276.202 169.033 276.175 168.086 276.025 167.136C275.874 166.186 275.551 165.198 275.055 164.174L276.514 164.324C276.988 165.375 277.301 166.366 277.453 167.297C277.607 168.219 277.634 169.162 277.535 170.124C277.439 171.059 277.222 171.967 276.883 172.848C276.544 173.729 276.036 174.64 275.357 175.582ZM30.9286 164.157L31.109 162.402L32.8649 162.582L32.6845 164.338L30.9286 164.157ZM40.8038 165.172C40.3224 165.123 39.9214 164.986 39.601 164.762C39.2815 164.529 39.0552 164.225 38.9222 163.848C38.7891 163.472 38.7473 163.043 38.7968 162.562L39.5039 155.68L41.0141 155.048L40.227 162.709C40.2037 162.935 40.2154 163.146 40.2621 163.342C40.3088 163.538 40.4212 163.697 40.5993 163.82C40.7869 163.945 41.0695 164.026 41.4471 164.065L43.7835 164.305L43.6642 165.466L40.8038 165.172ZM37.3924 158.125L37.5118 156.964L43.2183 157.55L43.099 158.711L37.3924 158.125ZM50.6224 166.181L51.1258 161.282C51.183 160.725 51.0729 160.265 50.7953 159.902C50.5187 159.531 50.1302 159.319 49.6299 159.268C49.054 159.208 48.5177 159.368 48.021 159.746C47.5346 160.116 47.1137 160.731 46.7581 161.591L46.6945 159.982C47.0638 159.266 47.5411 158.752 48.1265 158.441C48.7213 158.13 49.3444 158.008 49.9957 158.075C50.581 158.135 51.073 158.314 51.4716 158.613C51.8806 158.903 52.1799 159.286 52.3693 159.764C52.5597 160.232 52.6239 160.768 52.5618 161.372L52.0526 166.328L50.6224 166.181ZM45.0716 165.611L46.1424 155.189L47.5726 155.336L46.5018 165.758L45.0716 165.611ZM56.9542 167.003C56.1518 166.921 55.4745 166.689 54.9222 166.308C54.3708 165.917 53.9704 165.404 53.721 164.768C53.4725 164.122 53.3919 163.375 53.4792 162.525C53.5665 161.675 53.797 160.965 54.1706 160.392C54.5536 159.821 55.0543 159.405 55.6725 159.144C56.3002 158.885 57.0247 158.797 57.846 158.881C59.1016 159.01 60.0003 159.455 60.5421 160.217C61.0849 160.969 61.2565 161.946 61.0568 163.146L54.628 162.486L54.7528 161.411L59.7074 161.934C59.721 161.43 59.5451 161.007 59.1797 160.664C58.8142 160.321 58.3294 160.119 57.7253 160.056C56.9134 159.973 56.2642 160.164 55.7776 160.629C55.2909 161.094 54.9996 161.794 54.9036 162.729C54.8463 163.286 54.8898 163.791 55.034 164.245C55.1886 164.69 55.4379 165.049 55.7818 165.323C56.1257 165.597 56.5572 165.76 57.0765 165.814C57.6901 165.877 58.2149 165.783 58.6509 165.532C59.0963 165.282 59.3919 164.912 59.5377 164.421L60.9679 164.568C60.755 165.433 60.2924 166.082 59.5802 166.515C58.868 166.947 57.9927 167.11 56.9542 167.003ZM67.3425 167.899L67.8474 162.985C67.9036 162.438 67.793 161.983 67.5154 161.62C67.2388 161.249 66.8503 161.037 66.35 160.986C65.7742 160.926 65.2378 161.086 64.7411 161.464C64.2547 161.834 63.8338 162.449 63.4783 163.309L63.4161 161.686C63.7844 160.98 64.2613 160.47 64.8466 160.159C65.4414 159.848 66.0645 159.726 66.7159 159.793C67.3012 159.853 67.7931 160.032 68.1917 160.331C68.6007 160.621 68.9005 161 69.0909 161.468C69.2813 161.935 69.3455 162.472 69.2834 163.076L68.7727 168.046L67.3425 167.899ZM61.7917 167.329L62.5919 159.541L63.9513 159.68L63.8417 161.443L63.2219 167.476L61.7917 167.329ZM73.7631 169.947C73.2901 168.887 72.9727 167.891 72.8109 166.958C72.6586 166.027 72.6304 165.094 72.7264 164.159C72.8254 163.196 73.0437 162.279 73.3812 161.408C73.7292 160.527 74.2421 159.621 74.9198 158.689L76.3783 158.839C75.6846 159.741 75.1675 160.642 74.827 161.542C74.4865 162.442 74.2678 163.364 74.1708 164.308C74.0757 165.233 74.1034 166.171 74.2538 167.121C74.4042 168.071 74.7268 169.063 75.2216 170.097L73.7631 169.947ZM84.5478 165.174L84.6438 164.239C84.6856 163.833 84.5963 163.495 84.3761 163.224C84.1568 162.944 83.8159 162.78 83.3533 162.733C82.768 162.673 82.2213 162.841 81.7132 163.237C81.206 163.623 80.7694 164.251 80.4035 165.12L80.3537 163.655C80.6167 163.138 80.9129 162.716 81.2424 162.387C81.5813 162.059 81.9536 161.826 82.359 161.686C82.7749 161.538 83.2189 161.488 83.6909 161.537C84.4744 161.617 85.0883 161.909 85.5327 162.413C85.978 162.907 86.1584 163.565 86.074 164.386L85.978 165.321L84.5478 165.174ZM78.8234 169.079L79.6236 161.291L80.9688 161.429L80.8719 163.208L80.2535 169.226L78.8234 169.079ZM95.572 165.505L95.7015 164.245L103.008 164.995L102.879 166.256L95.572 165.505ZM95.2592 168.549L95.3887 167.289L102.695 168.04L102.566 169.3L95.2592 168.549ZM103.439 170.606L103.577 169.261L109.408 167.8L103.995 165.197L104.133 163.852L111.143 167.348L111.015 168.594L103.439 170.606ZM126.348 169.469L126.444 168.534C126.486 168.128 126.397 167.79 126.176 167.519C125.957 167.239 125.616 167.075 125.154 167.028C124.568 166.968 124.022 167.136 123.513 167.532C123.006 167.918 122.57 168.546 122.204 169.415L122.154 167.95C122.417 167.433 122.713 167.011 123.043 166.682C123.382 166.354 123.754 166.121 124.159 165.981C124.575 165.833 125.019 165.783 125.491 165.832C126.275 165.912 126.889 166.204 127.333 166.708C127.778 167.202 127.959 167.86 127.874 168.681L127.778 169.616L126.348 169.469ZM120.624 173.374L121.424 165.586L122.769 165.724L122.672 167.503L122.054 173.521L120.624 173.374ZM131.249 174.465L131.43 172.71L133.186 172.89L133.005 174.646L131.249 174.465ZM143.426 167.846L142.615 175.733C142.566 176.215 142.433 176.626 142.217 176.966C142.009 177.317 141.725 177.574 141.365 177.737C141.004 177.91 140.568 177.97 140.058 177.918L136.872 177.59L136.992 176.429L139.753 176.713C140.168 176.756 140.498 176.704 140.742 176.557C140.985 176.42 141.131 176.11 141.181 175.629L141.996 167.699L143.426 167.846ZM140.035 168.671L140.155 167.51L142.704 167.772L142.584 168.933L140.035 168.671ZM142.047 166.359L142.206 164.816L143.806 164.98L143.647 166.524L142.047 166.359ZM149.042 176.465C148.353 176.395 147.756 176.214 147.252 175.924C146.758 175.625 146.392 175.244 146.153 174.78C145.916 174.308 145.824 173.764 145.877 173.149L147.222 173.288C147.163 173.864 147.31 174.337 147.663 174.707C148.016 175.077 148.509 175.294 149.142 175.359C149.68 175.415 150.119 175.36 150.461 175.194C150.813 175.021 151.006 174.759 151.042 174.41C151.07 174.136 150.998 173.909 150.826 173.729C150.664 173.541 150.437 173.384 150.145 173.259C149.852 173.133 149.525 173.019 149.164 172.915C148.813 172.802 148.458 172.68 148.1 172.548C147.752 172.407 147.434 172.246 147.148 172.064C146.862 171.872 146.639 171.635 146.477 171.351C146.315 171.067 146.256 170.713 146.3 170.288C146.346 169.844 146.513 169.466 146.803 169.152C147.094 168.829 147.481 168.592 147.964 168.441C148.456 168.292 149.023 168.25 149.665 168.316C150.637 168.416 151.393 168.722 151.932 169.235C152.481 169.74 152.739 170.387 152.705 171.175L151.36 171.037C151.378 170.581 151.226 170.212 150.901 169.931C150.588 169.641 150.138 169.466 149.553 169.406C149.006 169.35 148.574 169.415 148.259 169.602C147.954 169.79 147.784 170.049 147.75 170.38C147.724 170.635 147.798 170.847 147.971 171.018C148.145 171.179 148.379 171.317 148.672 171.433C148.967 171.54 149.29 171.645 149.642 171.748C150.004 171.842 150.36 171.955 150.709 172.086C151.067 172.218 151.389 172.385 151.673 172.586C151.959 172.777 152.177 173.024 152.327 173.326C152.487 173.628 152.543 174.006 152.497 174.459C152.422 175.186 152.071 175.727 151.443 176.082C150.815 176.438 150.015 176.565 149.042 176.465ZM157.176 177.301C156.373 177.219 155.697 176.982 155.145 176.592C154.603 176.202 154.208 175.689 153.958 175.053C153.71 174.407 153.628 173.669 153.714 172.838C153.801 171.989 154.031 171.283 154.403 170.72C154.777 170.148 155.269 169.726 155.879 169.455C156.498 169.185 157.213 169.091 158.025 169.175C159.233 169.299 160.145 169.76 160.759 170.557C161.375 171.346 161.617 172.372 161.487 173.637C161.402 174.468 161.172 175.174 160.798 175.756C160.424 176.328 159.928 176.749 159.308 177.019C158.699 177.291 157.988 177.385 157.176 177.301ZM157.312 176.113C158.067 176.191 158.688 175.997 159.175 175.532C159.672 175.058 159.966 174.378 160.057 173.49C160.149 172.593 160 171.867 159.609 171.312C159.227 170.758 158.658 170.442 157.903 170.364C157.138 170.285 156.513 170.479 156.026 170.944C155.539 171.409 155.25 172.09 155.158 172.987C155.067 173.874 155.212 174.6 155.592 175.164C155.974 175.718 156.548 176.035 157.312 176.113ZM167.663 178.207L168.168 173.293C168.224 172.746 168.114 172.291 167.836 171.928C167.56 171.557 167.171 171.345 166.671 171.294C166.095 171.234 165.559 171.394 165.062 171.772C164.575 172.142 164.155 172.757 163.799 173.617L163.737 171.994C164.105 171.288 164.582 170.778 165.167 170.467C165.762 170.156 166.385 170.034 167.037 170.101C167.622 170.161 168.114 170.34 168.512 170.639C168.921 170.929 169.221 171.308 169.412 171.776C169.602 172.243 169.666 172.78 169.604 173.384L169.093 178.354L167.663 178.207ZM162.112 177.637L162.913 169.849L164.272 169.988L164.162 171.751L163.543 177.784L162.112 177.637ZM174.084 180.255C173.611 179.195 173.293 178.199 173.132 177.266C172.979 176.335 172.951 175.402 173.047 174.467C173.146 173.504 173.364 172.587 173.702 171.716C174.05 170.835 174.563 169.929 175.241 168.997L176.699 169.147C176.005 170.049 175.488 170.95 175.148 171.85C174.807 172.75 174.589 173.672 174.492 174.616C174.396 175.541 174.424 176.479 174.575 177.429C174.725 178.379 175.047 179.371 175.542 180.405L174.084 180.255ZM181.863 181.054L180.405 180.904C181.099 179.993 181.617 179.087 181.958 178.188C182.298 177.288 182.516 176.375 182.611 175.45C182.708 174.506 182.681 173.559 182.531 172.608C182.38 171.658 182.057 170.671 181.562 169.647L183.02 169.797C183.494 170.847 183.807 171.838 183.96 172.769C184.113 173.692 184.14 174.634 184.041 175.597C183.945 176.531 183.728 177.439 183.389 178.32C183.051 179.201 182.542 180.113 181.863 181.054ZM190.223 181.913L188.765 181.763C189.46 180.852 189.977 179.946 190.318 179.047C190.658 178.147 190.876 177.234 190.971 176.309C191.068 175.365 191.041 174.418 190.891 173.467C190.74 172.517 190.417 171.53 189.922 170.506L191.38 170.656C191.854 171.706 192.167 172.697 192.32 173.628C192.473 174.551 192.5 175.493 192.401 176.456C192.305 177.39 192.088 178.298 191.749 179.179C191.411 180.06 190.902 180.972 190.223 181.913ZM29.3954 179.079L29.5759 177.323L31.3317 177.503L31.1513 179.259L29.3954 179.079ZM39.2706 180.094C38.7892 180.044 38.3882 179.908 38.0678 179.684C37.7483 179.451 37.5221 179.146 37.389 178.77C37.2559 178.394 37.2141 177.965 37.2636 177.483L37.9707 170.601L39.4809 169.97L38.6938 177.63C38.6705 177.857 38.6822 178.068 38.7289 178.263C38.7756 178.459 38.888 178.619 39.0661 178.742C39.2537 178.866 39.5363 178.947 39.9139 178.986L42.2503 179.226L42.131 180.387L39.2706 180.094ZM35.8593 173.046L35.9786 171.885L41.6851 172.471L41.5658 173.632L35.8593 173.046ZM49.0892 181.102L49.5926 176.203C49.6499 175.646 49.5397 175.186 49.2621 174.824C48.9855 174.452 48.597 174.24 48.0967 174.189C47.5209 174.13 46.9845 174.289 46.4878 174.668C46.0014 175.037 45.5805 175.652 45.225 176.513L45.1614 174.903C45.5306 174.188 46.0079 173.674 46.5933 173.362C47.1881 173.051 47.8112 172.929 48.4626 172.996C49.0478 173.056 49.5398 173.235 49.9384 173.534C50.3474 173.824 50.6467 174.208 50.8361 174.685C51.0265 175.153 51.0907 175.689 51.0286 176.293L50.5194 181.249L49.0892 181.102ZM43.5384 180.532L44.6093 170.11L46.0394 170.257L44.9686 180.679L43.5384 180.532ZM55.4211 181.925C54.6186 181.842 53.9413 181.611 53.389 181.229C52.8376 180.839 52.4372 180.326 52.1878 179.689C51.9393 179.044 51.8587 178.296 51.946 177.446C52.0333 176.597 52.2638 175.886 52.6374 175.314C53.0204 174.743 53.5211 174.327 54.1393 174.066C54.7671 173.806 55.4916 173.718 56.3128 173.803C57.5684 173.932 58.4671 174.377 59.0089 175.139C59.5517 175.891 59.7233 176.867 59.5236 178.068L53.0948 177.407L53.2196 176.332L58.1742 176.856C58.1879 176.352 58.012 175.928 57.6465 175.585C57.2811 175.242 56.7963 175.04 56.1921 174.978C55.3802 174.894 54.731 175.085 54.2444 175.55C53.7577 176.016 53.4664 176.716 53.3704 177.65C53.3132 178.207 53.3566 178.712 53.5008 179.166C53.6554 179.611 53.9047 179.971 54.2486 180.245C54.5925 180.518 55.0241 180.682 55.5433 180.735C56.1569 180.798 56.6817 180.704 57.1177 180.453C57.5631 180.203 57.8587 179.833 58.0046 179.343L59.4347 179.49C59.2218 180.355 58.7592 181.004 58.047 181.436C57.3348 181.869 56.4595 182.031 55.4211 181.925ZM65.8093 182.82L66.3142 177.907C66.3705 177.359 66.2598 176.904 65.9822 176.542C65.7056 176.17 65.3172 175.958 64.8168 175.907C64.241 175.848 63.7047 176.007 63.2079 176.386C62.7215 176.755 62.3006 177.37 61.9451 178.231L61.8829 176.607C62.2512 175.901 62.7281 175.392 63.3134 175.08C63.9082 174.769 64.5313 174.647 65.1827 174.714C65.768 174.774 66.2599 174.953 66.6585 175.252C67.0676 175.542 67.3673 175.921 67.5577 176.389C67.7481 176.857 67.8123 177.393 67.7502 177.997L67.2395 182.967L65.8093 182.82ZM60.2585 182.25L61.0588 174.462L62.4181 174.602L62.3085 176.365L61.6887 182.397L60.2585 182.25ZM72.2299 184.868C71.7569 183.808 71.4395 182.812 71.2777 181.88C71.1254 180.948 71.0972 180.015 71.1933 179.081C71.2922 178.118 71.5105 177.201 71.8481 176.329C72.1961 175.449 72.7089 174.543 73.3866 173.611L74.8451 173.761C74.1514 174.662 73.6344 175.563 73.2939 176.463C72.9534 177.363 72.7346 178.285 72.6376 179.229C72.5426 180.154 72.5702 181.092 72.7206 182.042C72.871 182.993 73.1936 183.985 73.6884 185.018L72.2299 184.868ZM80.8408 176.323C81.3789 176.378 81.8586 176.537 82.28 176.8C82.7023 177.053 83.031 177.383 83.2659 177.788L83.6413 174.135L85.0574 174.281L83.988 184.688L82.6427 184.55L82.7123 183.455C82.3997 183.805 82.0047 184.074 81.5274 184.264C81.0604 184.445 80.5532 184.507 80.0056 184.451C79.3165 184.38 78.7256 184.143 78.2328 183.739C77.74 183.336 77.3741 182.811 77.1351 182.167C76.9055 181.523 76.831 180.81 76.9115 180.026C76.993 179.233 77.2115 178.545 77.5672 177.961C77.9324 177.379 78.3967 176.945 78.9603 176.659C79.5248 176.364 80.1517 176.252 80.8408 176.323ZM80.4408 183.279C80.9506 183.332 81.4183 183.237 81.8439 182.994C82.2704 182.742 82.6033 182.38 82.8426 181.909L83.103 179.374C82.9656 178.855 82.7127 178.437 82.3444 178.123C81.977 177.799 81.5384 177.611 81.0286 177.558C80.5566 177.51 80.1287 177.59 79.7447 177.799C79.3617 177.998 79.0441 178.304 78.7918 178.717C78.5499 179.121 78.3999 179.607 78.3417 180.173C78.2844 180.73 78.3326 181.236 78.4862 181.69C78.6503 182.136 78.8991 182.501 79.2326 182.783C79.5661 183.065 79.9688 183.231 80.4408 183.279ZM94.0389 180.426L94.1684 179.166L101.475 179.917L101.346 181.177L94.0389 180.426ZM93.726 183.471L93.8555 182.211L101.162 182.961L101.033 184.222L93.726 183.471ZM101.906 185.528L102.044 184.182L107.875 182.721L102.462 180.118L102.6 178.773L109.61 182.27L109.482 183.516L101.906 185.528ZM122.443 188.811C121.641 188.729 120.959 188.492 120.398 188.1C119.848 187.7 119.443 187.182 119.184 186.545C118.927 185.898 118.84 185.164 118.924 184.343C119.011 183.503 119.25 182.797 119.642 182.227C120.036 181.648 120.546 181.228 121.174 180.968C121.803 180.699 122.514 180.605 123.307 180.686C123.939 180.751 124.493 180.927 124.969 181.215C125.456 181.494 125.833 181.862 126.101 182.318C126.378 182.776 126.511 183.3 126.498 183.89L125.067 183.743C125.046 183.207 124.861 182.778 124.513 182.456C124.175 182.125 123.732 181.932 123.184 181.876C122.675 181.823 122.219 181.896 121.817 182.093C121.416 182.281 121.09 182.576 120.839 182.98C120.587 183.383 120.431 183.887 120.369 184.491C120.276 185.388 120.431 186.115 120.831 186.671C121.242 187.228 121.82 187.545 122.565 187.622C122.905 187.657 123.228 187.623 123.534 187.521C123.841 187.419 124.11 187.256 124.343 187.032C124.577 186.798 124.749 186.52 124.858 186.197L126.303 186.346C126.148 186.921 125.879 187.404 125.495 187.794C125.122 188.176 124.669 188.458 124.135 188.642C123.611 188.817 123.047 188.873 122.443 188.811ZM130.562 189.646C129.76 189.563 129.083 189.327 128.532 188.936C127.99 188.546 127.594 188.034 127.345 187.397C127.096 186.752 127.015 186.014 127.1 185.183C127.187 184.333 127.417 183.627 127.79 183.064C128.164 182.492 128.655 182.071 129.265 181.799C129.884 181.529 130.6 181.436 131.412 181.519C132.62 181.643 133.532 182.104 134.146 182.902C134.761 183.69 135.004 184.717 134.874 185.982C134.789 186.812 134.559 187.519 134.184 188.1C133.811 188.672 133.314 189.094 132.695 189.364C132.085 189.635 131.374 189.729 130.562 189.646ZM130.699 188.458C131.454 188.535 132.075 188.341 132.562 187.876C133.059 187.403 133.353 186.722 133.444 185.835C133.536 184.938 133.387 184.212 132.995 183.656C132.613 183.102 132.045 182.786 131.29 182.709C130.525 182.63 129.899 182.823 129.413 183.288C128.926 183.754 128.637 184.435 128.544 185.331C128.453 186.219 128.598 186.944 128.979 187.508C129.361 188.063 129.934 188.379 130.699 188.458ZM141.05 190.551L141.555 185.638C141.611 185.09 141.5 184.635 141.223 184.273C140.946 183.901 140.558 183.689 140.057 183.638C139.482 183.579 138.945 183.738 138.448 184.117C137.962 184.486 137.541 185.101 137.186 185.962L137.123 184.338C137.492 183.632 137.969 183.123 138.554 182.811C139.149 182.5 139.772 182.378 140.423 182.445C141.009 182.505 141.5 182.684 141.899 182.983C142.308 183.273 142.608 183.652 142.798 184.12C142.989 184.588 143.053 185.124 142.991 185.728L142.48 190.698L141.05 190.551ZM135.499 189.981L136.299 182.193L137.659 182.333L137.549 184.096L136.929 190.128L135.499 189.981ZM147.509 191.387C146.82 191.316 146.223 191.135 145.719 190.845C145.225 190.546 144.859 190.165 144.62 189.702C144.382 189.229 144.29 188.685 144.344 188.071L145.689 188.209C145.63 188.785 145.777 189.258 146.13 189.628C146.483 189.998 146.976 190.216 147.608 190.281C148.147 190.336 148.586 190.281 148.928 190.116C149.279 189.942 149.473 189.681 149.509 189.331C149.537 189.058 149.465 188.831 149.293 188.651C149.131 188.463 148.904 188.306 148.611 188.18C148.319 188.055 147.992 187.94 147.631 187.836C147.28 187.724 146.925 187.602 146.567 187.469C146.219 187.329 145.901 187.167 145.615 186.985C145.329 186.794 145.105 186.556 144.944 186.272C144.782 185.989 144.723 185.634 144.767 185.209C144.812 184.766 144.98 184.387 145.27 184.073C145.561 183.75 145.948 183.513 146.43 183.363C146.923 183.213 147.49 183.171 148.132 183.237C149.104 183.337 149.86 183.644 150.399 184.157C150.948 184.662 151.206 185.308 151.172 186.097L149.827 185.958C149.845 185.502 149.692 185.134 149.368 184.852C149.055 184.562 148.605 184.388 148.02 184.327C147.472 184.271 147.041 184.337 146.726 184.524C146.421 184.712 146.251 184.971 146.217 185.301C146.191 185.556 146.264 185.769 146.438 185.939C146.612 186.1 146.846 186.239 147.139 186.355C147.433 186.461 147.756 186.566 148.108 186.669C148.471 186.763 148.826 186.876 149.175 187.008C149.534 187.14 149.855 187.306 150.14 187.507C150.426 187.699 150.644 187.945 150.794 188.247C150.954 188.55 151.01 188.928 150.964 189.381C150.889 190.108 150.538 190.649 149.91 191.004C149.282 191.359 148.482 191.487 147.509 191.387ZM155.643 192.223C154.84 192.14 154.163 191.904 153.612 191.513C153.07 191.123 152.674 190.611 152.425 189.974C152.177 189.329 152.095 188.591 152.18 187.76C152.268 186.91 152.498 186.204 152.87 185.641C153.244 185.069 153.736 184.648 154.345 184.376C154.965 184.106 155.68 184.013 156.492 184.096C157.7 184.22 158.612 184.681 159.226 185.479C159.842 186.267 160.084 187.294 159.954 188.559C159.869 189.389 159.639 190.096 159.264 190.677C158.891 191.249 158.394 191.671 157.775 191.941C157.165 192.212 156.455 192.306 155.643 192.223ZM155.779 191.035C156.534 191.112 157.155 190.918 157.642 190.453C158.139 189.98 158.433 189.299 158.524 188.412C158.616 187.515 158.467 186.789 158.075 186.233C157.694 185.679 157.125 185.363 156.37 185.285C155.605 185.207 154.979 185.4 154.493 185.865C154.006 186.331 153.717 187.011 153.625 187.908C153.534 188.796 153.678 189.521 154.059 190.085C154.441 190.64 155.014 190.956 155.779 191.035ZM163.326 192.84L164.396 182.433L165.826 182.58L164.757 192.987L163.326 192.84ZM160.452 192.545L160.571 191.384L167.765 192.123L167.645 193.284L160.452 192.545ZM162.436 183.405L162.555 182.243L165.104 182.505L164.984 183.666L162.436 183.405ZM172.462 193.951C171.659 193.868 170.982 193.637 170.43 193.255C169.878 192.865 169.478 192.352 169.229 191.715C168.98 191.07 168.9 190.322 168.987 189.472C169.074 188.623 169.305 187.912 169.678 187.34C170.061 186.769 170.562 186.353 171.18 186.092C171.808 185.832 172.532 185.744 173.354 185.829C174.609 185.958 175.508 186.403 176.05 187.165C176.593 187.917 176.764 188.893 176.564 190.094L170.136 189.433L170.26 188.358L175.215 188.882C175.229 188.378 175.053 187.954 174.687 187.611C174.322 187.268 173.837 187.066 173.233 187.004C172.421 186.92 171.772 187.111 171.285 187.576C170.799 188.042 170.507 188.741 170.411 189.676C170.354 190.233 170.397 190.738 170.542 191.192C170.696 191.637 170.946 191.997 171.289 192.271C171.633 192.544 172.065 192.708 172.584 192.761C173.198 192.824 173.723 192.73 174.159 192.479C174.604 192.229 174.9 191.859 175.045 191.369L176.476 191.516C176.263 192.381 175.8 193.03 175.088 193.462C174.376 193.895 173.5 194.057 172.462 193.951ZM179.877 194.541L180.057 192.785L181.813 192.965L181.632 194.721L179.877 194.541ZM188.407 195.417L189.476 185.01L190.906 185.157L189.837 195.564L188.407 195.417ZM185.532 195.122L185.651 193.961L192.845 194.7L192.725 195.861L185.532 195.122ZM187.516 185.982L187.635 184.82L190.184 185.082L190.065 186.243L187.516 185.982ZM197.443 196.518C196.641 196.435 195.964 196.199 195.412 195.808C194.87 195.418 194.475 194.906 194.225 194.269C193.977 193.624 193.895 192.886 193.981 192.055C194.068 191.205 194.298 190.499 194.671 189.936C195.044 189.364 195.536 188.943 196.146 188.671C196.765 188.401 197.48 188.308 198.292 188.391C199.501 188.515 200.412 188.976 201.026 189.774C201.642 190.562 201.885 191.589 201.755 192.854C201.669 193.684 201.439 194.391 201.065 194.972C200.691 195.544 200.195 195.966 199.575 196.236C198.966 196.507 198.255 196.601 197.443 196.518ZM197.579 195.33C198.335 195.407 198.955 195.213 199.442 194.748C199.939 194.275 200.233 193.594 200.324 192.707C200.417 191.81 200.267 191.084 199.876 190.528C199.494 189.974 198.925 189.658 198.17 189.58C197.405 189.502 196.78 189.695 196.293 190.16C195.807 190.626 195.517 191.306 195.425 192.203C195.334 193.091 195.479 193.816 195.86 194.38C196.241 194.934 196.815 195.251 197.579 195.33ZM208.686 190.761L208.844 189.647L210.189 189.785L209.476 196.724C209.358 197.875 208.956 198.721 208.271 199.261C207.595 199.803 206.634 200.009 205.388 199.881C204.699 199.81 204.109 199.654 203.619 199.413C203.138 199.173 202.771 198.849 202.517 198.441C202.271 198.044 202.159 197.565 202.178 197.004L203.665 197.157C203.668 197.587 203.824 197.932 204.131 198.192C204.446 198.463 204.93 198.632 205.581 198.699C206.318 198.775 206.889 198.642 207.296 198.303C207.713 197.964 207.957 197.445 208.029 196.747L208.135 195.713C207.83 196.082 207.444 196.357 206.977 196.538C206.519 196.72 206.021 196.784 205.483 196.728C204.813 196.66 204.235 196.438 203.749 196.064C203.272 195.69 202.916 195.205 202.682 194.609C202.448 194.003 202.368 193.341 202.442 192.624C202.522 191.85 202.741 191.2 203.1 190.674C203.461 190.138 203.921 189.747 204.48 189.499C205.041 189.242 205.656 189.148 206.327 189.217C206.865 189.272 207.339 189.44 207.749 189.72C208.159 190.001 208.471 190.348 208.686 190.761ZM205.91 195.642C206.419 195.694 206.888 195.594 207.314 195.342C207.751 195.082 208.076 194.705 208.289 194.212L208.491 192.244C208.383 191.717 208.141 191.287 207.765 190.953C207.4 190.61 206.962 190.412 206.452 190.36C205.99 190.312 205.572 190.384 205.2 190.575C204.837 190.766 204.536 191.05 204.297 191.426C204.068 191.794 203.927 192.237 203.874 192.757C203.821 193.266 203.869 193.734 204.016 194.159C204.173 194.576 204.41 194.915 204.727 195.177C205.053 195.439 205.447 195.594 205.91 195.642ZM214.351 199.471C213.878 198.411 213.561 197.415 213.399 196.483C213.246 195.551 213.218 194.618 213.314 193.684C213.413 192.721 213.632 191.804 213.969 190.932C214.317 190.052 214.83 189.146 215.508 188.214L216.966 188.364C216.272 189.265 215.755 190.166 215.415 191.066C215.074 191.966 214.856 192.888 214.759 193.832C214.664 194.757 214.691 195.695 214.842 196.645C214.992 197.596 215.315 198.588 215.809 199.621L214.351 199.471ZM222.962 190.926C223.5 190.981 223.98 191.14 224.401 191.403C224.823 191.656 225.152 191.986 225.387 192.391L225.762 188.738L227.178 188.884L226.109 199.291L224.764 199.153L224.833 198.058C224.521 198.408 224.126 198.677 223.648 198.867C223.181 199.048 222.674 199.11 222.127 199.054C221.438 198.983 220.847 198.746 220.354 198.342C219.861 197.939 219.495 197.414 219.256 196.77C219.027 196.126 218.952 195.413 219.032 194.629C219.114 193.836 219.333 193.148 219.688 192.564C220.053 191.982 220.518 191.548 221.081 191.262C221.646 190.967 222.273 190.855 222.962 190.926ZM222.562 197.882C223.072 197.935 223.539 197.84 223.965 197.597C224.391 197.345 224.724 196.983 224.964 196.512L225.224 193.977C225.087 193.458 224.834 193.04 224.465 192.726C224.098 192.402 223.659 192.214 223.15 192.161C222.678 192.113 222.25 192.193 221.866 192.402C221.483 192.601 221.165 192.907 220.913 193.32C220.671 193.724 220.521 194.21 220.463 194.776C220.405 195.333 220.454 195.839 220.607 196.293C220.771 196.739 221.02 197.104 221.354 197.386C221.687 197.668 222.09 197.834 222.562 197.882ZM230.49 201.13L229.032 200.98C229.727 200.068 230.244 199.163 230.585 198.263C230.925 197.363 231.143 196.451 231.238 195.525C231.335 194.581 231.308 193.634 231.158 192.684C231.008 191.733 230.684 190.746 230.189 189.722L231.647 189.872C232.121 190.923 232.434 191.913 232.587 192.845C232.74 193.767 232.767 194.709 232.668 195.672C232.572 196.607 232.355 197.515 232.016 198.396C231.678 199.277 231.169 200.188 230.49 201.13ZM238.851 201.989L237.392 201.839C238.087 200.927 238.604 200.022 238.945 199.122C239.285 198.222 239.503 197.31 239.598 196.384C239.695 195.44 239.668 194.493 239.518 193.543C239.368 192.592 239.045 191.605 238.549 190.581L240.007 190.731C240.481 191.782 240.794 192.772 240.947 193.704C241.1 194.626 241.127 195.568 241.028 196.531C240.932 197.466 240.715 198.374 240.376 199.255C240.038 200.136 239.529 201.047 238.851 201.989Z" fill="black"/>
</g>
<rect x="22.1103" y="106.548" width="299" height="299" rx="7.5" transform="rotate(5.86657 22.1103 106.548)" stroke="black"/>
</g>
<rect x="1" y="1" width="222" height="248" rx="46" stroke="black" stroke-width="2"/>
<defs>
<clipPath id="clip0_110_189">
<rect width="224" height="250" rx="47" fill="white"/>
</clipPath>
<clipPath id="clip1_110_189">
<rect x="21.6641" y="106" width="300" height="300" rx="8" transform="rotate(5.86657 21.6641 106)" fill="white"/>
</clipPath>
</defs>
</svg>
