<svg width="230" height="250" viewBox="0 0 230 250" fill="none" xmlns="http://www.w3.org/2000/svg">
<g clip-path="url(#clip0_110_137)">
<rect width="230" height="250" rx="47" fill="#DEFFE3"/>
<path d="M26.484 66V40.8H42.9V44.724H31.344V51.456H40.596V55.272H31.344V66H26.484ZM50.9879 66.432C49.5239 66.432 48.2639 66.132 47.2079 65.532C46.1759 64.908 45.3839 64.008 44.8319 62.832C44.2799 61.632 44.0039 60.156 44.0039 58.404V47.856H48.8639V57.9C48.8639 59.364 49.1639 60.468 49.7639 61.212C50.3879 61.956 51.3359 62.328 52.6079 62.328C53.4239 62.328 54.1439 62.148 54.7679 61.788C55.3919 61.404 55.8839 60.864 56.2439 60.168C56.6279 59.448 56.8199 58.572 56.8199 57.54V47.856H61.6439V66H57.3959L56.9999 63.048C56.4719 64.08 55.6919 64.908 54.6599 65.532C53.6279 66.132 52.4039 66.432 50.9879 66.432ZM64.2435 66V40.08H69.1035V66H64.2435ZM71.6812 66V40.08H76.5412V66H71.6812ZM81.4228 73.92L85.8148 63.984H84.7348L77.4628 47.856H82.7548L87.9388 59.556L92.6188 47.856H97.7668L86.5708 73.92H81.4228ZM32.496 103.432C30.984 103.432 29.736 103.192 28.752 102.712C27.768 102.208 27.036 101.548 26.556 100.732C26.1 99.892 25.872 98.968 25.872 97.96C25.872 96.856 26.148 95.884 26.7 95.044C27.276 94.204 28.128 93.544 29.256 93.064C30.408 92.584 31.848 92.344 33.576 92.344H38.076C38.076 91.456 37.956 90.724 37.716 90.148C37.476 89.548 37.104 89.104 36.6 88.816C36.096 88.528 35.424 88.384 34.584 88.384C33.672 88.384 32.892 88.588 32.244 88.996C31.62 89.38 31.236 89.98 31.092 90.796H26.376C26.496 89.5 26.916 88.384 27.636 87.448C28.38 86.488 29.352 85.744 30.552 85.216C31.776 84.688 33.132 84.424 34.62 84.424C36.324 84.424 37.8 84.712 39.048 85.288C40.296 85.864 41.256 86.692 41.928 87.772C42.6 88.852 42.936 90.184 42.936 91.768V103H38.832L38.292 100.228C38.028 100.708 37.716 101.14 37.356 101.524C36.996 101.908 36.576 102.244 36.096 102.532C35.616 102.82 35.076 103.036 34.476 103.18C33.876 103.348 33.216 103.432 32.496 103.432ZM33.648 99.688C34.272 99.688 34.824 99.58 35.304 99.364C35.808 99.124 36.24 98.812 36.6 98.428C36.96 98.02 37.236 97.564 37.428 97.06C37.644 96.532 37.788 95.968 37.86 95.368V95.332H34.152C33.408 95.332 32.796 95.428 32.316 95.62C31.86 95.788 31.524 96.04 31.308 96.376C31.092 96.712 30.984 97.096 30.984 97.528C30.984 98.008 31.092 98.404 31.308 98.716C31.524 99.028 31.836 99.268 32.244 99.436C32.652 99.604 33.12 99.688 33.648 99.688ZM45.3098 103L45.3098 84.856H49.5938L49.9538 87.808C50.5058 86.8 51.2858 85.984 52.2938 85.36C53.3258 84.736 54.5498 84.424 55.9658 84.424C57.4778 84.424 58.7498 84.736 59.7818 85.36C60.8138 85.984 61.5938 86.896 62.1218 88.096C62.6738 89.296 62.9498 90.772 62.9498 92.524V103H58.1258V92.992C58.1258 91.552 57.8138 90.448 57.1898 89.68C56.5898 88.912 55.6538 88.528 54.3818 88.528C53.5658 88.528 52.8338 88.72 52.1858 89.104C51.5618 89.488 51.0698 90.04 50.7098 90.76C50.3498 91.456 50.1698 92.308 50.1698 93.316V103H45.3098ZM73.9365 103.432C72.2085 103.432 70.6485 103.036 69.2565 102.244C67.8885 101.428 66.7965 100.312 65.9805 98.896C65.1885 97.456 64.7925 95.812 64.7925 93.964C64.7925 92.068 65.1885 90.412 65.9805 88.996C66.7965 87.556 67.9005 86.44 69.2925 85.648C70.6845 84.832 72.2445 84.424 73.9725 84.424C75.7245 84.424 77.2845 84.832 78.6525 85.648C80.0445 86.44 81.1365 87.556 81.9285 88.996C82.7445 90.412 83.1525 92.056 83.1525 93.928C83.1525 95.8 82.7445 97.456 81.9285 98.896C81.1365 100.312 80.0445 101.428 78.6525 102.244C77.2605 103.036 75.6885 103.432 73.9365 103.432ZM73.9365 99.22C74.7525 99.22 75.4725 99.028 76.0965 98.644C76.7445 98.26 77.2485 97.672 77.6085 96.88C77.9925 96.088 78.1845 95.104 78.1845 93.928C78.1845 92.752 77.9925 91.78 77.6085 91.012C77.2485 90.22 76.7445 89.632 76.0965 89.248C75.4725 88.84 74.7645 88.636 73.9725 88.636C73.2045 88.636 72.4965 88.84 71.8485 89.248C71.2005 89.632 70.6845 90.22 70.3005 91.012C69.9405 91.78 69.7605 92.752 69.7605 93.928C69.7605 95.104 69.9405 96.088 70.3005 96.88C70.6845 97.672 71.1885 98.26 71.8125 98.644C72.4605 99.028 73.1685 99.22 73.9365 99.22ZM85.1812 103V84.856H89.4652L89.8252 87.808C90.3772 86.8 91.1572 85.984 92.1652 85.36C93.1972 84.736 94.4212 84.424 95.8372 84.424C97.3492 84.424 98.6212 84.736 99.6532 85.36C100.685 85.984 101.465 86.896 101.993 88.096C102.545 89.296 102.821 90.772 102.821 92.524V103H97.9972V92.992C97.9972 91.552 97.6852 90.448 97.0612 89.68C96.4612 88.912 95.5252 88.528 94.2532 88.528C93.4372 88.528 92.7052 88.72 92.0572 89.104C91.4332 89.488 90.9412 90.04 90.5812 90.76C90.2212 91.456 90.0412 92.308 90.0412 93.316V103H85.1812ZM106.911 110.92L111.303 100.984H110.223L102.951 84.856H108.243L113.427 96.556L118.107 84.856H123.255L112.059 110.92H106.911ZM124.174 103V84.856H128.458L128.854 87.268C129.43 86.404 130.186 85.72 131.122 85.216C132.082 84.688 133.174 84.424 134.398 84.424C135.31 84.424 136.126 84.544 136.846 84.784C137.566 85.024 138.202 85.372 138.754 85.828C139.33 86.284 139.798 86.86 140.158 87.556C140.83 86.572 141.706 85.804 142.786 85.252C143.866 84.7 145.042 84.424 146.314 84.424C147.898 84.424 149.218 84.748 150.274 85.396C151.33 86.02 152.122 86.932 152.65 88.132C153.202 89.332 153.478 90.808 153.478 92.56V103H148.654V92.992C148.654 91.552 148.366 90.448 147.79 89.68C147.238 88.912 146.374 88.528 145.198 88.528C144.43 88.528 143.746 88.72 143.146 89.104C142.546 89.488 142.078 90.04 141.742 90.76C141.43 91.48 141.274 92.344 141.274 93.352V103H136.414V92.992C136.414 91.552 136.126 90.448 135.55 89.68C134.974 88.912 134.086 88.528 132.886 88.528C132.142 88.528 131.47 88.72 130.87 89.104C130.294 89.488 129.838 90.04 129.502 90.76C129.19 91.48 129.034 92.344 129.034 93.352V103H124.174ZM164.472 103.432C162.744 103.432 161.184 103.036 159.792 102.244C158.424 101.428 157.332 100.312 156.516 98.896C155.724 97.456 155.328 95.812 155.328 93.964C155.328 92.068 155.724 90.412 156.516 88.996C157.332 87.556 158.436 86.44 159.828 85.648C161.22 84.832 162.78 84.424 164.508 84.424C166.26 84.424 167.82 84.832 169.188 85.648C170.58 86.44 171.672 87.556 172.464 88.996C173.28 90.412 173.688 92.056 173.688 93.928C173.688 95.8 173.28 97.456 172.464 98.896C171.672 100.312 170.58 101.428 169.188 102.244C167.796 103.036 166.224 103.432 164.472 103.432ZM164.472 99.22C165.288 99.22 166.008 99.028 166.632 98.644C167.28 98.26 167.784 97.672 168.144 96.88C168.528 96.088 168.72 95.104 168.72 93.928C168.72 92.752 168.528 91.78 168.144 91.012C167.784 90.22 167.28 89.632 166.632 89.248C166.008 88.84 165.3 88.636 164.508 88.636C163.74 88.636 163.032 88.84 162.384 89.248C161.736 89.632 161.22 90.22 160.836 91.012C160.476 91.78 160.296 92.752 160.296 93.928C160.296 95.104 160.476 96.088 160.836 96.88C161.22 97.672 161.724 98.26 162.348 98.644C162.996 99.028 163.704 99.22 164.472 99.22ZM182.485 103.432C181.021 103.432 179.761 103.132 178.705 102.532C177.673 101.908 176.881 101.008 176.329 99.832C175.777 98.632 175.501 97.156 175.501 95.404V84.856H180.361V94.9C180.361 96.364 180.661 97.468 181.261 98.212C181.885 98.956 182.833 99.328 184.105 99.328C184.921 99.328 185.641 99.148 186.265 98.788C186.889 98.404 187.381 97.864 187.741 97.168C188.125 96.448 188.317 95.572 188.317 94.54V84.856H193.141V103H188.893L188.497 100.048C187.969 101.08 187.189 101.908 186.157 102.532C185.125 103.132 183.901 103.432 182.485 103.432ZM203.157 103.432C201.501 103.432 200.061 103.168 198.837 102.64C197.613 102.112 196.653 101.38 195.957 100.444C195.261 99.508 194.865 98.452 194.769 97.276H199.593C199.713 97.732 199.917 98.152 200.205 98.536C200.493 98.896 200.877 99.184 201.357 99.4C201.837 99.616 202.413 99.724 203.085 99.724C203.733 99.724 204.261 99.64 204.669 99.472C205.077 99.28 205.377 99.028 205.569 98.716C205.785 98.404 205.893 98.08 205.893 97.744C205.893 97.24 205.749 96.856 205.461 96.592C205.173 96.304 204.753 96.076 204.201 95.908C203.649 95.74 202.977 95.572 202.185 95.404C201.321 95.236 200.469 95.032 199.629 94.792C198.813 94.528 198.081 94.204 197.433 93.82C196.785 93.436 196.269 92.944 195.885 92.344C195.501 91.744 195.309 91 195.309 90.112C195.309 89.032 195.597 88.072 196.173 87.232C196.749 86.368 197.589 85.684 198.693 85.18C199.797 84.676 201.129 84.424 202.689 84.424C204.873 84.424 206.601 84.916 207.873 85.9C209.145 86.884 209.901 88.24 210.141 89.968H205.569C205.425 89.416 205.101 88.984 204.597 88.672C204.117 88.336 203.469 88.168 202.653 88.168C201.789 88.168 201.129 88.324 200.673 88.636C200.217 88.948 199.989 89.356 199.989 89.86C199.989 90.196 200.133 90.496 200.421 90.76C200.733 91.024 201.165 91.252 201.717 91.444C202.269 91.612 202.941 91.78 203.733 91.948C205.125 92.236 206.349 92.572 207.405 92.956C208.461 93.316 209.289 93.844 209.889 94.54C210.489 95.212 210.789 96.196 210.789 97.492C210.789 98.644 210.477 99.676 209.853 100.588C209.229 101.476 208.341 102.172 207.189 102.676C206.061 103.18 204.717 103.432 203.157 103.432Z" fill="black"/>
<g clip-path="url(#clip1_110_137)">
<path d="M124.484 134.453L100.167 119.114L82.0273 147.844L112.432 167.053C115.426 168.983 118.775 170.296 122.282 170.916C125.789 171.536 129.385 171.45 132.859 170.663L133.266 170.562C140.117 168.855 146.018 164.518 149.693 158.49L191.344 89.6124L162.249 72.0294L124.484 134.453Z" fill="black" fill-opacity="0.067"/>
<path d="M166.204 267.825L159.718 266.655C155.021 265.78 44.8243 245.176 24.5106 162.639L6.97305 91.3825C5.26809 84.4523 5.78714 77.1612 8.45665 70.5425C11.1262 63.9237 15.8108 58.3127 21.8468 54.5046L102.139 3.8254L196.795 11.4586C203.909 12.0224 210.663 14.8147 216.099 19.4382C221.535 24.0618 225.374 30.2813 227.072 37.2125L244.609 108.469C267.737 202.44 175.698 261.777 171.769 264.261L166.204 267.825ZM110.703 38.623L39.9878 83.257L57.5254 154.514C70.1741 205.907 137.589 226.395 159.115 231.672C176.316 218.953 226.242 176.11 211.594 116.595L194.057 45.338L110.703 38.623Z" fill="black" fill-opacity="0.067"/>
</g>
</g>
<rect x="1" y="1" width="228" height="248" rx="46" stroke="black" stroke-width="2"/>
<defs>
<clipPath id="clip0_110_137">
<rect width="230" height="250" rx="47" fill="white"/>
</clipPath>
<clipPath id="clip1_110_137">
<rect width="272" height="272" fill="white" transform="translate(-30 36.0039) rotate(-13.8267)"/>
</clipPath>
</defs>
</svg>
