<svg width="405" height="250" viewBox="0 0 405 250" fill="none" xmlns="http://www.w3.org/2000/svg">
<g clip-path="url(#clip0_106_268)">
<rect width="405" height="250" rx="47" fill="#DEFFE3"/>
<path d="M55.8452 70V42H74.0852V46.36H61.2452V53.84H71.5252V58.08H61.2452V70H55.8452ZM83.0717 70.48C81.4451 70.48 80.0451 70.1467 78.8717 69.48C77.7251 68.7867 76.8451 67.7867 76.2317 66.48C75.6184 65.1467 75.3117 63.5067 75.3117 61.56V49.84H80.7117V61C80.7117 62.6267 81.0451 63.8533 81.7117 64.68C82.4051 65.5067 83.4584 65.92 84.8717 65.92C85.7784 65.92 86.5784 65.72 87.2717 65.32C87.9651 64.8933 88.5117 64.2933 88.9117 63.52C89.3384 62.72 89.5517 61.7467 89.5517 60.6V49.84H94.9117V70H90.1917L89.7517 66.72C89.1651 67.8667 88.2984 68.7867 87.1517 69.48C86.0051 70.1467 84.6451 70.48 83.0717 70.48ZM97.8002 70V41.2H103.2V70H97.8002ZM106.064 70V41.2H111.464V70H106.064ZM116.888 78.8L121.768 67.76H120.568L112.488 49.84H118.368L124.128 62.84L129.328 49.84H135.048L122.608 78.8H116.888ZM149.883 70.48C148.203 70.48 146.816 70.2133 145.723 69.68C144.63 69.12 143.816 68.3867 143.283 67.48C142.776 66.5467 142.523 65.52 142.523 64.4C142.523 63.1733 142.83 62.0933 143.443 61.16C144.083 60.2267 145.03 59.4933 146.283 58.96C147.563 58.4267 149.163 58.16 151.083 58.16H156.083C156.083 57.1733 155.95 56.36 155.683 55.72C155.416 55.0533 155.003 54.56 154.443 54.24C153.883 53.92 153.136 53.76 152.203 53.76C151.19 53.76 150.323 53.9867 149.603 54.44C148.91 54.8667 148.483 55.5333 148.323 56.44H143.083C143.216 55 143.683 53.76 144.483 52.72C145.31 51.6533 146.39 50.8267 147.723 50.24C149.083 49.6533 150.59 49.36 152.243 49.36C154.136 49.36 155.776 49.68 157.163 50.32C158.55 50.96 159.616 51.88 160.363 53.08C161.11 54.28 161.483 55.76 161.483 57.52V70H156.923L156.323 66.92C156.03 67.4533 155.683 67.9333 155.283 68.36C154.883 68.7867 154.416 69.16 153.883 69.48C153.35 69.8 152.75 70.04 152.083 70.2C151.416 70.3867 150.683 70.48 149.883 70.48ZM151.163 66.32C151.856 66.32 152.47 66.2 153.003 65.96C153.563 65.6933 154.043 65.3467 154.443 64.92C154.843 64.4667 155.15 63.96 155.363 63.4C155.603 62.8133 155.763 62.1867 155.843 61.52V61.48H151.723C150.896 61.48 150.216 61.5867 149.683 61.8C149.176 61.9867 148.803 62.2667 148.563 62.64C148.323 63.0133 148.203 63.44 148.203 63.92C148.203 64.4533 148.323 64.8933 148.563 65.24C148.803 65.5867 149.15 65.8533 149.603 66.04C150.056 66.2267 150.576 66.32 151.163 66.32ZM164.12 70V49.84H168.88L169.28 53.12C169.894 52 170.76 51.0933 171.88 50.4C173.027 49.7067 174.387 49.36 175.96 49.36C177.64 49.36 179.054 49.7067 180.2 50.4C181.347 51.0933 182.214 52.1067 182.8 53.44C183.414 54.7733 183.72 56.4133 183.72 58.36V70H178.36V58.88C178.36 57.28 178.014 56.0533 177.32 55.2C176.654 54.3467 175.614 53.92 174.2 53.92C173.294 53.92 172.48 54.1333 171.76 54.56C171.067 54.9867 170.52 55.6 170.12 56.4C169.72 57.1733 169.52 58.12 169.52 59.24V70H164.12ZM195.928 70.48C194.008 70.48 192.275 70.04 190.728 69.16C189.208 68.2533 187.995 67.0133 187.088 65.44C186.208 63.84 185.768 62.0133 185.768 59.96C185.768 57.8533 186.208 56.0133 187.088 54.44C187.995 52.84 189.221 51.6 190.768 50.72C192.315 49.8133 194.048 49.36 195.968 49.36C197.915 49.36 199.648 49.8133 201.168 50.72C202.715 51.6 203.928 52.84 204.808 54.44C205.715 56.0133 206.168 57.84 206.168 59.92C206.168 62 205.715 63.84 204.808 65.44C203.928 67.0133 202.715 68.2533 201.168 69.16C199.621 70.04 197.875 70.48 195.928 70.48ZM195.928 65.8C196.835 65.8 197.635 65.5867 198.328 65.16C199.048 64.7333 199.608 64.08 200.008 63.2C200.435 62.32 200.648 61.2267 200.648 59.92C200.648 58.6133 200.435 57.5333 200.008 56.68C199.608 55.8 199.048 55.1467 198.328 54.72C197.635 54.2667 196.848 54.04 195.968 54.04C195.115 54.04 194.328 54.2667 193.608 54.72C192.888 55.1467 192.315 55.8 191.888 56.68C191.488 57.5333 191.288 58.6133 191.288 59.92C191.288 61.2267 191.488 62.32 191.888 63.2C192.315 64.08 192.875 64.7333 193.568 65.16C194.288 65.5867 195.075 65.8 195.928 65.8ZM208.422 70V49.84H213.182L213.582 53.12C214.195 52 215.062 51.0933 216.182 50.4C217.329 49.7067 218.689 49.36 220.262 49.36C221.942 49.36 223.355 49.7067 224.502 50.4C225.649 51.0933 226.515 52.1067 227.102 53.44C227.715 54.7733 228.022 56.4133 228.022 58.36V70H222.662V58.88C222.662 57.28 222.315 56.0533 221.622 55.2C220.955 54.3467 219.915 53.92 218.502 53.92C217.595 53.92 216.782 54.1333 216.062 54.56C215.369 54.9867 214.822 55.6 214.422 56.4C214.022 57.1733 213.822 58.12 213.822 59.24V70H208.422ZM232.566 78.8L237.446 67.76H236.246L228.166 49.84H234.046L239.806 62.84L245.006 49.84H250.726L238.286 78.8H232.566ZM251.747 70V49.84H256.507L256.947 52.52C257.587 51.56 258.427 50.8 259.467 50.24C260.534 49.6533 261.747 49.36 263.107 49.36C264.12 49.36 265.027 49.4933 265.827 49.76C266.627 50.0267 267.334 50.4133 267.947 50.92C268.587 51.4267 269.107 52.0667 269.507 52.84C270.254 51.7467 271.227 50.8933 272.427 50.28C273.627 49.6667 274.934 49.36 276.347 49.36C278.107 49.36 279.574 49.72 280.747 50.44C281.92 51.1333 282.8 52.1467 283.387 53.48C284 54.8133 284.307 56.4533 284.307 58.4V70H278.947V58.88C278.947 57.28 278.627 56.0533 277.987 55.2C277.374 54.3467 276.414 53.92 275.107 53.92C274.254 53.92 273.494 54.1333 272.827 54.56C272.16 54.9867 271.64 55.6 271.267 56.4C270.92 57.2 270.747 58.16 270.747 59.28V70H265.347V58.88C265.347 57.28 265.027 56.0533 264.387 55.2C263.747 54.3467 262.76 53.92 261.427 53.92C260.6 53.92 259.854 54.1333 259.187 54.56C258.547 54.9867 258.04 55.6 257.667 56.4C257.32 57.2 257.147 58.16 257.147 59.28V70H251.747ZM296.523 70.48C294.603 70.48 292.87 70.04 291.323 69.16C289.803 68.2533 288.59 67.0133 287.683 65.44C286.803 63.84 286.363 62.0133 286.363 59.96C286.363 57.8533 286.803 56.0133 287.683 54.44C288.59 52.84 289.817 51.6 291.363 50.72C292.91 49.8133 294.643 49.36 296.563 49.36C298.51 49.36 300.243 49.8133 301.763 50.72C303.31 51.6 304.523 52.84 305.403 54.44C306.31 56.0133 306.763 57.84 306.763 59.92C306.763 62 306.31 63.84 305.403 65.44C304.523 67.0133 303.31 68.2533 301.763 69.16C300.217 70.04 298.47 70.48 296.523 70.48ZM296.523 65.8C297.43 65.8 298.23 65.5867 298.923 65.16C299.643 64.7333 300.203 64.08 300.603 63.2C301.03 62.32 301.243 61.2267 301.243 59.92C301.243 58.6133 301.03 57.5333 300.603 56.68C300.203 55.8 299.643 55.1467 298.923 54.72C298.23 54.2667 297.443 54.04 296.563 54.04C295.71 54.04 294.923 54.2667 294.203 54.72C293.483 55.1467 292.91 55.8 292.483 56.68C292.083 57.5333 291.883 58.6133 291.883 59.92C291.883 61.2267 292.083 62.32 292.483 63.2C292.91 64.08 293.47 64.7333 294.163 65.16C294.883 65.5867 295.67 65.8 296.523 65.8ZM316.537 70.48C314.911 70.48 313.511 70.1467 312.337 69.48C311.191 68.7867 310.311 67.7867 309.697 66.48C309.084 65.1467 308.777 63.5067 308.777 61.56V49.84H314.177V61C314.177 62.6267 314.511 63.8533 315.177 64.68C315.871 65.5067 316.924 65.92 318.337 65.92C319.244 65.92 320.044 65.72 320.737 65.32C321.431 64.8933 321.977 64.2933 322.377 63.52C322.804 62.72 323.017 61.7467 323.017 60.6V49.84H328.377V70H323.657L323.217 66.72C322.631 67.8667 321.764 68.7867 320.617 69.48C319.471 70.1467 318.111 70.48 316.537 70.48ZM339.506 70.48C337.666 70.48 336.066 70.1867 334.706 69.6C333.346 69.0133 332.279 68.2 331.506 67.16C330.732 66.12 330.292 64.9467 330.186 63.64H335.546C335.679 64.1467 335.906 64.6133 336.226 65.04C336.546 65.44 336.972 65.76 337.506 66C338.039 66.24 338.679 66.36 339.426 66.36C340.146 66.36 340.732 66.2667 341.186 66.08C341.639 65.8667 341.972 65.5867 342.186 65.24C342.426 64.8933 342.546 64.5333 342.546 64.16C342.546 63.6 342.386 63.1733 342.066 62.88C341.746 62.56 341.279 62.3067 340.666 62.12C340.052 61.9333 339.306 61.7467 338.426 61.56C337.466 61.3733 336.519 61.1467 335.586 60.88C334.679 60.5867 333.866 60.2267 333.146 59.8C332.426 59.3733 331.852 58.8267 331.426 58.16C330.999 57.4933 330.786 56.6667 330.786 55.68C330.786 54.48 331.106 53.4133 331.746 52.48C332.386 51.52 333.319 50.76 334.546 50.2C335.772 49.64 337.252 49.36 338.986 49.36C341.412 49.36 343.332 49.9067 344.746 51C346.159 52.0933 346.999 53.6 347.266 55.52H342.186C342.026 54.9067 341.666 54.4267 341.106 54.08C340.572 53.7067 339.852 53.52 338.946 53.52C337.986 53.52 337.252 53.6933 336.746 54.04C336.239 54.3867 335.986 54.84 335.986 55.4C335.986 55.7733 336.146 56.1067 336.466 56.4C336.812 56.6933 337.292 56.9467 337.906 57.16C338.519 57.3467 339.266 57.5333 340.146 57.72C341.692 58.04 343.052 58.4133 344.226 58.84C345.399 59.24 346.319 59.8267 346.986 60.6C347.652 61.3467 347.986 62.44 347.986 63.88C347.986 65.16 347.639 66.3067 346.946 67.32C346.252 68.3067 345.266 69.08 343.986 69.64C342.732 70.2 341.239 70.48 339.506 70.48Z" fill="black"/>
<g clip-path="url(#clip1_106_268)">
<path d="M124.484 134.453L100.167 119.114L82.0273 147.844L112.432 167.053C115.426 168.983 118.775 170.296 122.282 170.916C125.789 171.536 129.385 171.45 132.859 170.663L133.266 170.562C140.117 168.855 146.018 164.518 149.693 158.49L191.344 89.6124L162.249 72.0294L124.484 134.453Z" fill="black" fill-opacity="0.067"/>
<path d="M166.204 267.825L159.718 266.655C155.021 265.78 44.8243 245.176 24.5106 162.639L6.97305 91.3825C5.26809 84.4523 5.78714 77.1612 8.45665 70.5425C11.1262 63.9237 15.8108 58.3127 21.8468 54.5046L102.139 3.8254L196.795 11.4586C203.909 12.0224 210.663 14.8147 216.099 19.4382C221.535 24.0618 225.374 30.2813 227.072 37.2125L244.609 108.469C267.737 202.44 175.698 261.777 171.769 264.261L166.204 267.825ZM110.703 38.623L39.9878 83.257L57.5254 154.514C70.1741 205.907 137.589 226.395 159.115 231.672C176.316 218.953 226.242 176.11 211.594 116.595L194.057 45.338L110.703 38.623Z" fill="black" fill-opacity="0.067"/>
</g>
</g>
<rect x="1" y="1" width="403" height="248" rx="46" stroke="black" stroke-width="2"/>
<defs>
<clipPath id="clip0_106_268">
<rect width="405" height="250" rx="47" fill="white"/>
</clipPath>
<clipPath id="clip1_106_268">
<rect width="272" height="272" fill="white" transform="translate(-30 36.0039) rotate(-13.8267)"/>
</clipPath>
</defs>
</svg>
