<svg width="287" height="289" viewBox="0 0 287 289" fill="none" xmlns="http://www.w3.org/2000/svg">
<rect x="-1.42241" y="42.8271" width="249" height="249" rx="46.5" transform="rotate(-9.76902 -1.42241 42.8271)" fill="#DEFFE3"/>
<rect x="-1.42241" y="42.8271" width="249" height="249" rx="46.5" transform="rotate(-9.76902 -1.42241 42.8271)" stroke="black"/>
<path d="M43.2476 101.986L48.5881 72.6548L54.6194 71.6164L69.4224 97.4797L63.7854 98.4502L52.6293 78.2096L48.8452 101.023L43.2476 101.986ZM46.6229 94.9516L47.3293 90.5681L61.3629 88.1519L63.4552 92.0535L46.6229 94.9516ZM77.7109 96.5397C76.1079 96.8157 74.6716 96.7247 73.4022 96.2668C72.1545 95.7781 71.1176 94.9419 70.2914 93.7583C69.4607 92.5483 68.8802 90.9841 68.5499 89.0657L66.5613 77.5156L71.883 76.5994L73.7766 87.5976C74.0526 89.2006 74.5893 90.353 75.3865 91.0545C76.2101 91.7516 77.3183 91.9802 78.7111 91.7404C79.6046 91.5865 80.3591 91.2537 80.9745 90.7418C81.5854 90.2037 82.0223 89.5197 82.2853 88.6897C82.57 87.8289 82.6151 86.8335 82.4206 85.7034L80.5948 75.0994L85.8771 74.19L89.2978 94.0577L84.6462 94.8585L83.6561 91.7007C83.2725 92.9303 82.5745 93.984 81.5621 94.8619C80.5452 95.7134 79.2615 96.2727 77.7109 96.5397ZM101.093 92.0269C99.6999 92.2667 98.4416 92.2669 97.318 92.0274C96.2162 91.7571 95.2902 91.1724 94.5401 90.2733C93.7855 89.3479 93.2566 88.0048 92.9535 86.2441L91.501 77.8082L88.1109 78.3919L87.344 73.9374L90.7341 73.3537L90.3956 67.8514L95.126 67.0369L96.0558 72.4375L101.299 71.5348L102.066 75.9893L96.8227 76.8919L98.2887 85.4067C98.4426 86.3002 98.746 86.8838 99.199 87.1576C99.6521 87.4314 100.352 87.4868 101.298 87.3239L103.899 86.876L104.68 91.4093L101.093 92.0269ZM115.796 89.9825C113.904 90.3082 112.121 90.1687 110.447 89.5639C108.796 88.9283 107.389 87.9122 106.229 86.5155C105.09 85.088 104.347 83.3625 103.998 81.3389C103.641 79.2628 103.762 77.3748 104.362 75.675C104.984 73.9443 105.983 72.5142 107.358 71.3845C108.728 70.2286 110.36 69.4877 112.252 69.1619C114.17 68.8316 115.955 68.9843 117.607 69.6199C119.281 70.2247 120.687 71.2408 121.826 72.6683C122.986 74.065 123.743 75.7883 124.096 77.8381C124.449 79.8879 124.314 81.7782 123.692 83.5088C123.092 85.2086 122.106 86.6365 120.736 87.7925C119.361 88.9222 117.714 89.6522 115.796 89.9825ZM115.002 85.3703C115.895 85.2165 116.648 84.8705 117.258 84.3324C117.896 83.7897 118.337 83.0508 118.581 82.1157C118.853 81.1761 118.877 80.0624 118.656 78.7747C118.434 77.487 118.04 76.4588 117.475 75.6903C116.932 74.8909 116.269 74.3421 115.487 74.0438C114.727 73.7146 113.913 73.6247 113.046 73.7741C112.205 73.9188 111.468 74.2757 110.835 74.8446C110.198 75.3873 109.744 76.1284 109.473 77.0681C109.224 77.9769 109.21 79.0752 109.431 80.3629C109.653 81.6506 110.036 82.6941 110.579 83.4935C111.149 84.2884 111.812 84.8372 112.567 85.14C113.349 85.4383 114.161 85.5151 115.002 85.3703ZM129.52 96.0619L124.607 67.5218L129.337 66.7073L130.403 69.3649C130.724 68.7144 131.133 68.1028 131.63 67.5302C132.122 66.9314 132.738 66.4195 133.476 65.9947C134.237 65.5391 135.155 65.2185 136.233 65.033C138.099 64.7117 139.821 64.8888 141.398 65.5643C142.975 66.2398 144.307 67.2958 145.393 68.7323C146.501 70.138 147.227 71.8395 147.571 73.8368C147.915 75.8341 147.802 77.6935 147.233 79.4151C146.659 81.1104 145.739 82.527 144.474 83.6649C143.209 84.8027 141.669 85.5278 139.856 85.84C138.384 86.0933 137.064 86.05 135.896 85.7099C134.75 85.339 133.754 84.7394 132.908 83.9109L134.842 95.1456L129.52 96.0619ZM137.794 81.4056C138.845 81.2246 139.724 80.8297 140.431 80.2209C141.164 79.6076 141.679 78.8289 141.977 77.8847C142.274 76.9406 142.326 75.9035 142.131 74.7734C141.937 73.6434 141.541 72.6832 140.945 71.8929C140.345 71.0763 139.596 70.5016 138.7 70.1688C137.826 69.8053 136.863 69.714 135.812 69.8949C134.787 70.0714 133.91 70.4794 133.181 71.119C132.474 71.7278 131.959 72.5065 131.635 73.4552C131.338 74.3994 131.286 75.4365 131.481 76.5665C131.676 77.6966 132.073 78.6699 132.674 79.4865C133.296 80.2723 134.042 80.8338 134.912 81.1711C135.808 81.5039 136.769 81.5821 137.794 81.4056ZM158.276 82.6685C156.62 82.9536 155.208 82.9261 154.04 82.586C152.868 82.2196 151.942 81.6349 151.263 80.8319C150.605 79.9981 150.181 79.0293 149.991 77.9255C149.783 76.7166 149.902 75.6003 150.348 74.5764C150.82 73.548 151.629 72.6647 152.773 71.9264C153.944 71.1836 155.476 70.6494 157.368 70.3236L162.296 69.4752C162.128 68.5028 161.859 67.7239 161.487 67.1384C161.111 66.5267 160.62 66.1106 160.014 65.8903C159.408 65.67 158.645 65.639 157.725 65.7973C156.727 65.9693 155.911 66.3397 155.278 66.9086C154.667 67.4468 154.36 68.1762 154.356 69.0968L149.192 69.9859C149.079 68.5442 149.329 67.243 149.941 66.0823C150.574 64.8909 151.498 63.8929 152.713 63.0885C153.954 62.2796 155.389 61.7349 157.018 61.4544C158.884 61.1331 160.554 61.1702 162.03 61.5656C163.505 61.9611 164.712 62.6867 165.652 63.7426C166.591 64.7985 167.21 66.1937 167.509 67.9282L169.626 80.2273L165.132 81.001L164.018 78.0675C163.82 78.6428 163.56 79.1747 163.238 79.663C162.916 80.1514 162.519 80.5985 162.048 81.0043C161.577 81.4102 161.026 81.7485 160.396 82.0193C159.771 82.3164 159.064 82.5328 158.276 82.6685ZM158.831 78.3517C159.515 78.234 160.099 78.0117 160.584 77.6847C161.09 77.3269 161.505 76.9038 161.826 76.4154C162.144 75.9008 162.36 75.3495 162.475 74.7614C162.612 74.1425 162.663 73.4978 162.629 72.8272L162.622 72.7878L158.562 73.4868C157.747 73.6271 157.095 73.8476 156.606 74.1483C156.138 74.4183 155.818 74.7576 155.645 75.1662C155.472 75.5748 155.426 76.0157 155.507 76.4887C155.598 77.0143 155.791 77.4276 156.086 77.7285C156.381 78.0294 156.768 78.2334 157.247 78.3404C157.725 78.4475 158.253 78.4512 158.831 78.3517ZM175.549 88.1371L178.485 76.4291L177.302 76.6327L166.299 60.3436L172.093 59.3459L179.976 71.18L182.894 57.4862L188.531 56.5157L181.186 87.1665L175.549 88.1371Z" fill="black"/>
<path d="M52.7354 130.31C52.1677 130.407 51.6329 130.365 51.1308 130.184C50.6353 129.993 50.2134 129.688 49.8653 129.269C49.5237 128.841 49.3006 128.324 49.1961 127.716C49.0888 127.094 49.1253 126.527 49.3053 126.017C49.492 125.498 49.7915 125.069 50.204 124.73C50.6151 124.383 51.1045 124.161 51.6721 124.063C52.2477 123.964 52.7832 124.01 53.2787 124.201C53.7808 124.382 54.2026 124.687 54.5443 125.115C54.8924 125.534 55.1194 126.051 55.2253 126.666C55.3312 127.281 55.2908 127.848 55.1042 128.367C54.9241 128.877 54.6285 129.306 54.2174 129.653C53.8049 129.991 53.3109 130.21 52.7354 130.31ZM52.4971 128.926C52.7652 128.88 52.9909 128.776 53.1741 128.615C53.3653 128.452 53.4976 128.23 53.5711 127.95C53.6524 127.668 53.6598 127.334 53.5933 126.947C53.5268 126.561 53.4087 126.252 53.2392 126.022C53.0761 125.782 52.8773 125.617 52.6427 125.528C52.4146 125.429 52.1705 125.402 51.9104 125.447C51.6581 125.49 51.437 125.598 51.2472 125.768C51.0561 125.931 50.9198 126.153 50.8385 126.435C50.7637 126.708 50.7595 127.037 50.826 127.424C50.8925 127.81 51.0073 128.123 51.1704 128.363C51.3413 128.601 51.5401 128.766 51.7668 128.857C52.0014 128.946 52.2449 128.969 52.4971 128.926ZM56.6768 129.485L55.559 122.992C55.4735 122.496 55.4884 122.087 55.6037 121.767C55.7191 121.447 55.9189 121.193 56.2033 121.006C56.4956 120.818 56.8507 120.688 57.2685 120.616L58.0017 120.49L58.2359 121.85L57.7392 121.935C57.4869 121.979 57.3144 122.061 57.2217 122.182C57.1355 122.295 57.1134 122.473 57.1555 122.717L58.2733 129.21L56.6768 129.485ZM55.0647 125.001L54.8346 123.665L58.5361 123.028L58.7662 124.364L55.0647 125.001ZM64.8546 128.223C64.0189 128.367 63.3423 128.256 62.8248 127.891C62.3059 127.517 61.9711 126.893 61.8205 126.018L61.5435 124.409C62.2768 124.283 62.8568 124.163 63.2836 124.049C63.7091 123.927 64.0141 123.789 64.1988 123.636C64.3899 123.473 64.4946 123.256 64.5129 122.985C64.5391 122.713 64.5148 122.36 64.4402 121.926L64.1531 120.259L65.655 120L65.936 121.632C66.0242 122.144 66.0464 122.603 66.0025 123.009C65.9573 123.406 65.8303 123.753 65.6214 124.048C65.4191 124.335 65.1198 124.577 64.7237 124.775C64.3262 124.965 63.8239 125.113 63.2169 125.217L63.3411 125.939C63.4049 126.309 63.536 126.599 63.7344 126.809C63.9314 127.01 64.227 127.077 64.6212 127.009C64.9997 126.944 65.2487 126.787 65.3684 126.539C65.4881 126.291 65.5147 125.974 65.4481 125.588L66.9146 125.336C67.0332 126.119 66.9209 126.763 66.5777 127.269C66.2331 127.766 65.6588 128.084 64.8546 128.223ZM61.0014 123.383L60.8263 122.366L67.1532 121.276L67.3284 122.293L61.0014 123.383ZM60.6614 121.408L60.4721 120.308L66.799 119.218L66.9883 120.318L60.6614 121.408ZM72.5435 126.753L72.2849 125.251L68.2168 125.952L67.9989 124.686L70.9054 118.511L72.7147 118.2L73.6432 123.593L74.7194 123.407L74.9576 124.791L73.8814 124.976L74.14 126.478L72.5435 126.753ZM69.6815 124.275L72.1531 123.849L71.528 120.219L69.6815 124.275ZM78.5683 125.862C77.9928 125.961 77.485 125.935 77.0449 125.783C76.6035 125.624 76.2411 125.382 75.9579 125.057C75.6826 124.731 75.4854 124.363 75.3661 123.953L76.8562 123.697C76.9869 124.032 77.1789 124.275 77.4322 124.426C77.6921 124.568 78.0033 124.608 78.366 124.545C78.705 124.487 78.9797 124.338 79.1902 124.099C79.4072 123.85 79.552 123.513 79.6247 123.086C79.6961 122.652 79.688 122.134 79.6006 121.532C79.5965 121.508 79.5925 121.485 79.5884 121.461C79.5843 121.437 79.5809 121.418 79.5782 121.402C79.5031 121.626 79.3741 121.843 79.1911 122.053C79.0067 122.255 78.7887 122.427 78.5369 122.567C78.293 122.707 78.0213 122.802 77.7217 122.854C77.2723 122.931 76.8276 122.894 76.3875 122.743C75.9474 122.591 75.5705 122.335 75.2569 121.975C74.9432 121.615 74.7389 121.159 74.6439 120.608C74.557 120.103 74.5991 119.617 74.7702 119.149C74.9414 118.681 75.222 118.284 75.6122 117.957C76.001 117.622 76.4792 117.406 77.0469 117.308C77.6776 117.199 78.2255 117.223 78.6906 117.378C79.1557 117.533 79.5477 117.782 79.8665 118.125C80.1932 118.467 80.4531 118.869 80.6463 119.331C80.846 119.783 80.9879 120.254 81.0721 120.743C81.2309 121.665 81.2393 122.492 81.0972 123.222C80.9616 123.944 80.682 124.536 80.2584 124.999C79.8334 125.453 79.27 125.741 78.5683 125.862ZM77.868 121.441C78.1518 121.392 78.39 121.29 78.5825 121.135C78.7829 120.979 78.9285 120.787 79.0194 120.56C79.1167 120.324 79.1423 120.072 79.0962 119.804C79.0487 119.528 78.9396 119.296 78.7689 119.106C78.6061 118.915 78.4048 118.783 78.1651 118.711C77.924 118.63 77.6615 118.615 77.3777 118.663C77.1017 118.711 76.8636 118.813 76.6632 118.969C76.4628 119.125 76.3172 119.317 76.2263 119.544C76.1434 119.769 76.1256 120.02 76.1731 120.296C76.2206 120.571 76.3219 120.806 76.4768 120.998C76.6382 121.181 76.8395 121.313 77.0806 121.393C77.3217 121.474 77.5842 121.489 77.868 121.441ZM85.3655 124.692C84.79 124.791 84.2822 124.764 83.8421 124.613C83.4006 124.453 83.0383 124.211 82.7551 123.887C82.4798 123.561 82.2825 123.193 82.1633 122.783L83.6534 122.527C83.784 122.861 83.9761 123.104 84.2294 123.255C84.4892 123.397 84.8005 123.437 85.1632 123.375C85.5022 123.316 85.7769 123.168 85.9874 122.928C86.2044 122.68 86.3492 122.343 86.4219 121.916C86.4932 121.482 86.4852 120.963 86.3978 120.362C86.3937 120.338 86.3897 120.314 86.3856 120.291C86.3815 120.267 86.3781 120.247 86.3754 120.232C86.3003 120.455 86.1713 120.673 85.9883 120.883C85.8039 121.085 85.5858 121.256 85.3341 121.397C85.0902 121.536 84.8185 121.632 84.5189 121.684C84.0695 121.761 83.6247 121.724 83.1846 121.572C82.7446 121.421 82.3677 121.165 82.0541 120.805C81.7404 120.445 81.5361 119.989 81.4411 119.437C81.3542 118.933 81.3963 118.446 81.5674 117.979C81.7385 117.511 82.0192 117.113 82.4094 116.786C82.7982 116.452 83.2764 116.235 83.8441 116.138C84.4748 116.029 85.0227 116.052 85.4878 116.208C85.9529 116.363 86.3448 116.612 86.6636 116.955C86.9903 117.297 87.2503 117.698 87.4434 118.16C87.6432 118.613 87.7851 119.084 87.8692 119.572C88.0281 120.495 88.0364 121.321 87.8944 122.052C87.7588 122.774 87.4792 123.366 87.0555 123.828C86.6305 124.283 86.0672 124.571 85.3655 124.692ZM84.6652 120.27C84.949 120.221 85.1872 120.119 85.3797 119.965C85.5801 119.808 85.7257 119.617 85.8165 119.39C85.9139 119.154 85.9395 118.902 85.8934 118.634C85.8459 118.358 85.7368 118.125 85.5661 117.936C85.4033 117.744 85.202 117.613 84.9623 117.54C84.7212 117.46 84.4587 117.444 84.1749 117.493C83.8989 117.541 83.6608 117.643 83.4604 117.799C83.26 117.955 83.1144 118.147 83.0235 118.373C82.9405 118.599 82.9228 118.849 82.9703 119.125C83.0178 119.401 83.119 119.635 83.2739 119.828C83.4354 120.011 83.6367 120.143 83.8778 120.223C84.1189 120.303 84.3814 120.319 84.6652 120.27ZM91.6457 123.464L90.5279 116.972C90.4424 116.475 90.4573 116.067 90.5726 115.746C90.688 115.426 90.8878 115.172 91.1722 114.986C91.4645 114.797 91.8196 114.667 92.2374 114.595L92.9707 114.469L93.2048 115.829L92.7081 115.914C92.4558 115.958 92.2833 116.04 92.1906 116.162C92.1044 116.274 92.0823 116.452 92.1244 116.697L93.2422 123.189L91.6457 123.464ZM90.0336 118.981L89.8035 117.644L93.5051 117.007L93.7351 118.343L90.0336 118.981ZM97.6608 122.575C97.0931 122.672 96.5583 122.63 96.0562 122.449C95.5607 122.258 95.1388 121.954 94.7907 121.535C94.4491 121.106 94.226 120.589 94.1215 119.982C94.0142 119.359 94.0507 118.792 94.2307 118.282C94.4174 117.763 94.7169 117.334 95.1294 116.995C95.5405 116.648 96.0299 116.426 96.5975 116.328C97.1731 116.229 97.7086 116.275 98.2041 116.466C98.7062 116.647 99.128 116.952 99.4697 117.38C99.8178 117.799 100.045 118.316 100.151 118.931C100.257 119.546 100.216 120.113 100.03 120.633C99.8495 121.142 99.5539 121.571 99.1428 121.918C98.7303 122.257 98.2363 122.476 97.6608 122.575ZM97.4225 121.191C97.6906 121.145 97.9163 121.041 98.0995 120.88C98.2907 120.717 98.423 120.495 98.4964 120.215C98.5778 119.933 98.5852 119.599 98.5187 119.212C98.4522 118.826 98.3341 118.518 98.1646 118.287C98.0015 118.047 97.8027 117.882 97.5681 117.793C97.34 117.694 97.0959 117.667 96.8358 117.712C96.5835 117.756 96.3624 117.863 96.1726 118.033C95.9815 118.196 95.8452 118.418 95.7639 118.7C95.6891 118.973 95.6849 119.302 95.7514 119.689C95.8179 120.075 95.9327 120.388 96.0958 120.628C96.2667 120.866 96.4655 121.031 96.6922 121.122C96.9268 121.211 97.1703 121.234 97.4225 121.191ZM101.33 121.797L100.304 115.836L101.723 115.592L102.066 116.665C102.163 116.381 102.303 116.13 102.484 115.912C102.674 115.692 102.898 115.508 103.156 115.358C103.422 115.206 103.725 115.101 104.064 115.043L104.355 116.734L103.811 116.828C103.575 116.868 103.359 116.934 103.163 117.025C102.975 117.114 102.818 117.234 102.69 117.386C102.56 117.53 102.474 117.715 102.432 117.942C102.39 118.168 102.397 118.443 102.452 118.766L102.927 121.522L101.33 121.797ZM108.586 120.547L107.476 114.102L106.077 114.745L105.857 113.468L107.846 112.151L108.816 111.984L110.241 120.262L108.586 120.547ZM110.942 120.142L110.741 118.971C111.176 118.482 111.596 117.996 111.999 117.512C112.411 117.027 112.772 116.555 113.083 116.096C113.392 115.629 113.624 115.187 113.78 114.77C113.936 114.354 113.983 113.968 113.922 113.614C113.884 113.393 113.81 113.199 113.7 113.031C113.588 112.855 113.436 112.727 113.244 112.647C113.058 112.557 112.827 112.536 112.551 112.583C112.275 112.631 112.053 112.734 111.886 112.893C111.718 113.051 111.606 113.245 111.548 113.474C111.488 113.696 111.481 113.936 111.526 114.197L109.977 114.463C109.896 113.852 109.946 113.32 110.128 112.866C110.31 112.413 110.596 112.051 110.988 111.781C111.379 111.502 111.838 111.318 112.366 111.227C112.95 111.126 113.461 111.152 113.902 111.304C114.34 111.447 114.694 111.687 114.963 112.022C115.239 112.356 115.419 112.763 115.502 113.244C115.564 113.607 115.558 113.973 115.484 114.343C115.418 114.712 115.295 115.082 115.115 115.454C114.942 115.816 114.736 116.173 114.496 116.522C114.256 116.872 114.002 117.212 113.734 117.542C113.464 117.865 113.2 118.17 112.942 118.458L116.501 117.845L116.725 119.146L110.942 120.142ZM119.321 118.699L118.295 112.739L119.702 112.497L119.969 113.267C120.109 112.95 120.319 112.683 120.598 112.464C120.883 112.236 121.227 112.088 121.629 112.019C121.928 111.967 122.203 111.96 122.453 111.999C122.704 112.037 122.932 112.115 123.139 112.234C123.354 112.351 123.541 112.514 123.698 112.722C123.863 112.361 124.108 112.059 124.431 111.816C124.755 111.574 125.125 111.417 125.543 111.345C126.064 111.255 126.516 111.287 126.899 111.44C127.281 111.585 127.593 111.84 127.834 112.204C128.084 112.567 128.258 113.037 128.357 113.612L128.947 117.042L127.363 117.315L126.797 114.027C126.715 113.554 126.558 113.208 126.325 112.988C126.101 112.767 125.795 112.69 125.409 112.756C125.157 112.799 124.943 112.901 124.767 113.061C124.592 113.221 124.469 113.429 124.4 113.685C124.338 113.939 124.336 114.232 124.393 114.563L124.938 117.732L123.342 118.007L122.776 114.719C122.694 114.246 122.537 113.9 122.305 113.68C122.072 113.46 121.759 113.385 121.364 113.452C121.12 113.494 120.91 113.596 120.735 113.756C120.567 113.914 120.449 114.121 120.379 114.377C120.317 114.631 120.315 114.924 120.372 115.255L120.917 118.424L119.321 118.699ZM132.583 116.562C132.016 116.66 131.481 116.618 130.979 116.436C130.483 116.246 130.062 115.941 129.713 115.522C129.372 115.094 129.149 114.576 129.044 113.969C128.937 113.346 128.973 112.78 129.153 112.27C129.34 111.75 129.64 111.321 130.052 110.982C130.463 110.636 130.953 110.413 131.52 110.316C132.096 110.217 132.631 110.262 133.127 110.453C133.629 110.635 134.051 110.939 134.392 111.368C134.741 111.787 134.968 112.304 135.073 112.919C135.179 113.534 135.139 114.101 134.952 114.62C134.772 115.13 134.477 115.558 134.066 115.905C133.653 116.244 133.159 116.463 132.583 116.562ZM132.345 115.178C132.613 115.132 132.839 115.028 133.022 114.867C133.213 114.704 133.346 114.482 133.419 114.202C133.501 113.92 133.508 113.586 133.441 113.2C133.375 112.813 133.257 112.505 133.087 112.274C132.924 112.034 132.725 111.87 132.491 111.78C132.263 111.682 132.019 111.655 131.758 111.699C131.506 111.743 131.285 111.85 131.095 112.021C130.904 112.183 130.768 112.406 130.687 112.688C130.612 112.96 130.608 113.29 130.674 113.676C130.741 114.062 130.855 114.375 131.018 114.615C131.189 114.854 131.388 115.018 131.615 115.109C131.85 115.199 132.093 115.222 132.345 115.178ZM136.253 115.784L135.227 109.824L136.634 109.581L136.919 110.531C137.044 110.168 137.254 109.856 137.549 109.594C137.853 109.331 138.238 109.159 138.703 109.079C139.199 108.994 139.635 109.024 140.009 109.171C140.384 109.317 140.691 109.573 140.933 109.937C141.182 110.3 141.356 110.769 141.455 111.345L142.048 114.786L140.463 115.059L139.897 111.771C139.816 111.298 139.651 110.953 139.402 110.736C139.162 110.518 138.832 110.445 138.415 110.517C138.147 110.563 137.917 110.667 137.726 110.83C137.542 110.992 137.412 111.201 137.335 111.458C137.256 111.707 137.245 111.997 137.302 112.328L137.849 115.509L136.253 115.784ZM145.527 114.187C145.109 114.259 144.731 114.259 144.394 114.187C144.064 114.106 143.786 113.931 143.561 113.661C143.335 113.384 143.176 112.981 143.085 112.452L142.649 109.922L141.632 110.097L141.402 108.76L142.419 108.585L142.318 106.935L143.737 106.69L144.016 108.31L145.589 108.04L145.819 109.376L144.246 109.647L144.686 112.201C144.732 112.469 144.823 112.644 144.959 112.726C145.095 112.809 145.304 112.825 145.588 112.776L146.369 112.642L146.603 114.002L145.527 114.187ZM147.249 113.891L145.783 105.376L147.379 105.101L147.972 108.543C148.115 108.193 148.332 107.9 148.624 107.663C148.923 107.417 149.289 107.256 149.722 107.182C150.219 107.096 150.655 107.131 151.031 107.285C151.405 107.432 151.713 107.687 151.954 108.052C152.196 108.416 152.366 108.89 152.467 109.473L153.055 112.891L151.471 113.164L150.907 109.888C150.825 109.415 150.664 109.069 150.424 108.851C150.182 108.625 149.848 108.548 149.422 108.622C149.162 108.666 148.936 108.77 148.745 108.933C148.554 109.096 148.417 109.31 148.332 109.576C148.255 109.833 148.245 110.127 148.302 110.458L148.845 113.616L147.249 113.891ZM156.31 112.477C155.766 112.57 155.278 112.565 154.846 112.461C154.414 112.357 154.058 112.171 153.776 111.902C153.494 111.634 153.305 111.31 153.207 110.929L154.791 110.656C154.857 110.799 154.947 110.926 155.064 111.035C155.179 111.137 155.321 111.21 155.491 111.254C155.661 111.298 155.856 111.301 156.077 111.263C156.29 111.226 156.458 111.169 156.583 111.09C156.706 111.004 156.79 110.904 156.836 110.791C156.889 110.676 156.906 110.564 156.887 110.453C156.859 110.288 156.79 110.17 156.68 110.099C156.569 110.021 156.418 109.97 156.228 109.946C156.037 109.922 155.807 109.905 155.537 109.895C155.244 109.888 154.952 109.869 154.663 109.838C154.38 109.797 154.121 109.732 153.886 109.643C153.652 109.553 153.454 109.421 153.294 109.246C153.134 109.07 153.029 108.837 152.979 108.545C152.918 108.19 152.958 107.859 153.1 107.55C153.24 107.234 153.477 106.961 153.812 106.733C154.146 106.505 154.569 106.347 155.081 106.259C155.799 106.136 156.394 106.199 156.868 106.451C157.341 106.702 157.666 107.105 157.843 107.659L156.341 107.917C156.263 107.744 156.132 107.621 155.948 107.547C155.772 107.463 155.549 107.445 155.281 107.491C154.998 107.54 154.79 107.628 154.657 107.757C154.525 107.885 154.473 108.032 154.502 108.198C154.521 108.308 154.585 108.398 154.695 108.469C154.812 108.538 154.967 108.588 155.159 108.62C155.35 108.644 155.58 108.661 155.85 108.672C156.323 108.688 156.745 108.729 157.113 108.795C157.48 108.854 157.782 108.98 158.019 109.175C158.254 109.362 158.408 109.668 158.481 110.094C158.547 110.472 158.502 110.829 158.349 111.164C158.194 111.491 157.942 111.77 157.592 112C157.25 112.23 156.823 112.389 156.31 112.477Z" fill="#626262"/>
<path d="M71.2151 235.917C70.403 236.056 69.6708 236 69.0184 235.747C68.3726 235.485 67.833 235.062 67.3998 234.479C66.9732 233.887 66.6865 233.165 66.5399 232.314C66.3947 231.47 66.4241 230.698 66.6282 229.997C66.8401 229.295 67.2072 228.716 67.7296 228.261C68.2584 227.796 68.9289 227.494 69.7409 227.355C70.7107 227.188 71.5352 227.285 72.2144 227.647C72.9016 228.008 73.4006 228.596 73.7114 229.411L72.4105 229.635C72.2081 229.166 71.8965 228.818 71.4757 228.59C71.0628 228.361 70.545 228.3 69.9221 228.407C69.3624 228.503 68.8999 228.717 68.5347 229.048C68.1696 229.378 67.918 229.803 67.7801 230.322C67.6421 230.841 67.6308 231.436 67.7462 232.106C67.8616 232.776 68.0717 233.336 68.3766 233.787C68.6802 234.23 69.0593 234.546 69.5141 234.736C69.9675 234.918 70.4741 234.96 71.0339 234.864C71.6567 234.757 72.1257 234.534 72.4409 234.196C72.7625 233.848 72.9411 233.424 72.9766 232.922L74.2774 232.698C74.253 233.547 73.9773 234.256 73.4504 234.825C72.9299 235.386 72.1848 235.75 71.2151 235.917ZM77.3484 234.861C76.8596 234.945 76.4393 234.932 76.0876 234.822C75.7358 234.712 75.4574 234.533 75.2522 234.284C75.0456 234.027 74.9145 233.737 74.8589 233.414C74.791 233.02 74.8358 232.667 74.9933 232.356C75.1494 232.037 75.4038 231.77 75.7564 231.555C76.1091 231.34 76.5495 231.187 77.0777 231.096L78.6269 230.829C78.5672 230.482 78.4664 230.203 78.3246 229.992C78.1827 229.781 77.9998 229.638 77.7758 229.563C77.5583 229.479 77.2959 229.463 76.9884 229.516C76.6336 229.577 76.345 229.716 76.1226 229.933C75.8988 230.142 75.7839 230.418 75.7778 230.76L74.5952 230.963C74.5706 230.537 74.6514 230.158 74.8377 229.826C75.0305 229.484 75.3026 229.202 75.6539 228.979C76.0038 228.748 76.3916 228.596 76.8174 228.523C77.3771 228.426 77.8632 228.444 78.2756 228.576C78.6879 228.708 79.0199 228.939 79.2716 229.269C79.5298 229.59 79.7016 229.999 79.7871 230.495L80.4224 234.185L79.3935 234.362L79.1259 233.373C79.0663 233.546 78.9896 233.713 78.8958 233.876C78.8019 234.038 78.6811 234.185 78.5331 234.316C78.3931 234.445 78.2214 234.556 78.018 234.648C77.8239 234.746 77.6007 234.817 77.3484 234.861ZM77.4082 233.864C77.6605 233.821 77.8803 233.73 78.0676 233.592C78.255 233.454 78.4047 233.287 78.5167 233.089C78.6353 232.881 78.7111 232.661 78.744 232.428C78.7835 232.186 78.7868 231.946 78.754 231.708L78.7478 231.673L77.3406 231.915C77.0015 231.974 76.7331 232.064 76.5351 232.188C76.3437 232.302 76.2129 232.438 76.1428 232.596C76.0726 232.754 76.0538 232.928 76.0864 233.117C76.1203 233.315 76.1928 233.477 76.304 233.604C76.4217 233.721 76.574 233.805 76.7611 233.854C76.9481 233.903 77.1638 233.906 77.4082 233.864ZM81.2223 234.047L80.1961 228.087L81.2605 227.904L81.5065 228.909C81.6347 228.521 81.8545 228.195 82.1661 227.931C82.4764 227.658 82.8562 227.483 83.3056 227.406C83.7786 227.324 84.2009 227.349 84.5725 227.48C84.9441 227.611 85.2578 227.853 85.5135 228.207C85.7679 228.552 85.9446 229.013 86.0437 229.589L86.6505 233.113L85.4679 233.316L84.8815 229.911C84.7864 229.359 84.5923 228.962 84.299 228.72C84.0058 228.478 83.6265 228.398 83.1614 228.478C82.8539 228.531 82.5909 228.653 82.3722 228.845C82.1523 229.029 81.9918 229.276 81.8909 229.585C81.7979 229.894 81.7866 230.253 81.8572 230.663L82.4049 233.844L81.2223 234.047ZM90.2335 232.642C89.658 232.741 89.1231 232.699 88.6289 232.517C88.1334 232.326 87.7155 232.02 87.3752 231.6C87.0429 231.178 86.8237 230.66 86.7179 230.045C86.6106 229.422 86.6431 228.856 86.8153 228.348C86.994 227.83 87.2857 227.402 87.6903 227.065C88.0935 226.719 88.5829 226.497 89.1584 226.398C89.8838 226.273 90.5234 226.358 91.0774 226.652C91.6313 226.946 92.031 227.405 92.2763 228.029L91.0464 228.24C90.9078 227.907 90.6804 227.67 90.364 227.53C90.0554 227.388 89.708 227.351 89.3217 227.417C89.0064 227.471 88.7289 227.604 88.4893 227.816C88.2484 228.02 88.0724 228.294 87.9611 228.638C87.8563 228.972 87.8433 229.368 87.9221 229.825C87.9804 230.164 88.08 230.46 88.2208 230.712C88.3602 230.955 88.5243 231.155 88.7132 231.309C88.91 231.462 89.123 231.567 89.3521 231.625C89.5799 231.675 89.8121 231.68 90.0486 231.639C90.3088 231.594 90.5346 231.515 90.726 231.401C90.9239 231.277 91.0796 231.12 91.193 230.93C91.3143 230.739 91.3828 230.524 91.3987 230.286L92.6286 230.074C92.6031 230.728 92.3793 231.29 91.957 231.761C91.5333 232.223 90.9588 232.517 90.2335 232.642ZM96.3595 231.587C95.7918 231.685 95.2648 231.642 94.7785 231.458C94.2922 231.274 93.8829 230.971 93.5505 230.549C93.226 230.126 93.0109 229.607 92.905 228.992C92.7964 228.361 92.8242 227.792 92.9886 227.285C93.1594 226.768 93.4432 226.342 93.8399 226.006C94.2352 225.662 94.7246 225.44 95.308 225.339C95.8915 225.239 96.4145 225.283 96.8771 225.471C97.3398 225.659 97.7228 225.95 98.026 226.345C98.328 226.731 98.5237 227.184 98.6133 227.705C98.6269 227.783 98.6379 227.871 98.6463 227.967C98.6612 228.054 98.6743 228.153 98.6854 228.265L93.8131 229.103L93.6685 228.264L97.3819 227.624C97.2727 227.132 97.0406 226.774 96.6856 226.551C96.3293 226.32 95.9225 226.244 95.4652 226.323C95.142 226.378 94.8592 226.504 94.6169 226.7C94.3733 226.888 94.1932 227.138 94.0765 227.451C93.9663 227.754 93.9479 228.118 94.0212 228.544L94.0782 228.875C94.1542 229.317 94.2975 229.678 94.5081 229.958C94.7253 230.229 94.9814 230.42 95.2767 230.532C95.5705 230.635 95.8751 230.66 96.1905 230.606C96.5689 230.541 96.8661 230.404 97.082 230.197C97.2979 229.989 97.4405 229.733 97.5099 229.429L98.6925 229.225C98.6524 229.606 98.5353 229.963 98.3411 230.296C98.1456 230.622 97.8808 230.899 97.5466 231.127C97.2203 231.354 96.8246 231.507 96.3595 231.587ZM99.7776 230.853L98.3116 222.338L99.4942 222.134L100.96 230.649L99.7776 230.853ZM106.19 229.895C105.701 229.979 105.281 229.966 104.929 229.856C104.577 229.746 104.299 229.567 104.094 229.318C103.887 229.061 103.756 228.771 103.7 228.448C103.633 228.054 103.677 227.701 103.835 227.39C103.991 227.071 104.245 226.804 104.598 226.589C104.951 226.374 105.391 226.221 105.919 226.13L107.469 225.863C107.409 225.517 107.308 225.238 107.166 225.027C107.024 224.816 106.841 224.673 106.617 224.597C106.4 224.513 106.137 224.497 105.83 224.55C105.475 224.611 105.187 224.75 104.964 224.967C104.74 225.176 104.625 225.452 104.619 225.794L103.437 225.997C103.412 225.571 103.493 225.192 103.679 224.86C103.872 224.518 104.144 224.236 104.495 224.013C104.845 223.782 105.233 223.63 105.659 223.557C106.219 223.461 106.705 223.478 107.117 223.61C107.529 223.742 107.862 223.973 108.113 224.303C108.371 224.624 108.543 225.033 108.629 225.53L109.264 229.219L108.235 229.397L107.967 228.408C107.908 228.58 107.831 228.748 107.737 228.91C107.644 229.072 107.523 229.219 107.375 229.35C107.235 229.48 107.063 229.59 106.86 229.682C106.666 229.78 106.442 229.851 106.19 229.895ZM106.25 228.898C106.502 228.855 106.722 228.764 106.909 228.626C107.097 228.489 107.246 228.321 107.358 228.123C107.477 227.916 107.553 227.696 107.586 227.463C107.625 227.221 107.628 226.98 107.596 226.743L107.589 226.707L106.182 226.949C105.843 227.008 105.575 227.099 105.377 227.222C105.185 227.336 105.055 227.472 104.984 227.631C104.914 227.789 104.895 227.962 104.928 228.152C104.962 228.349 105.034 228.511 105.146 228.638C105.263 228.756 105.416 228.839 105.603 228.888C105.79 228.937 106.005 228.94 106.25 228.898ZM110.064 229.082L109.038 223.121L110.102 222.938L110.348 223.943C110.476 223.556 110.696 223.23 111.008 222.965C111.318 222.692 111.698 222.517 112.147 222.44C112.62 222.358 113.043 222.383 113.414 222.514C113.786 222.645 114.099 222.887 114.355 223.241C114.609 223.587 114.786 224.047 114.885 224.623L115.492 228.147L114.309 228.351L113.723 224.945C113.628 224.393 113.434 223.996 113.141 223.754C112.847 223.513 112.468 223.432 112.003 223.512C111.695 223.565 111.432 223.687 111.214 223.879C110.994 224.063 110.833 224.31 110.732 224.62C110.639 224.928 110.628 225.287 110.699 225.697L111.247 228.878L110.064 229.082ZM117.244 230.524L118.137 227.01L117.794 227.069L114.528 222.176L115.806 221.956L118.419 225.963L119.554 221.311L120.796 221.097L118.486 230.31L117.244 230.524ZM124.617 226.576C124.238 226.641 123.901 226.638 123.605 226.568C123.308 226.497 123.062 226.337 122.864 226.086C122.667 225.836 122.528 225.475 122.446 225.002L121.919 221.939L120.89 222.116L120.717 221.111L121.746 220.933L121.631 219.419L122.672 219.24L122.928 220.73L124.619 220.439L124.792 221.444L123.101 221.735L123.631 224.81C123.689 225.149 123.8 225.369 123.964 225.471C124.126 225.565 124.381 225.582 124.727 225.522L125.413 225.404L125.586 226.409L124.617 226.576ZM126.323 226.282L125.297 220.322L126.479 220.118L127.505 226.079L126.323 226.282ZM125.706 219.095C125.478 219.134 125.276 219.096 125.102 218.98C124.936 218.862 124.834 218.693 124.796 218.472C124.759 218.259 124.8 218.074 124.919 217.915C125.044 217.748 125.221 217.644 125.45 217.605C125.671 217.567 125.868 217.606 126.042 217.722C126.215 217.83 126.32 217.991 126.357 218.203C126.395 218.424 126.351 218.618 126.226 218.786C126.1 218.954 125.927 219.057 125.706 219.095ZM128.487 225.91L127.461 219.949L128.525 219.766L128.753 220.592C128.889 220.252 129.1 219.968 129.385 219.74C129.671 219.512 130.011 219.364 130.405 219.296C130.704 219.245 130.984 219.241 131.243 219.286C131.501 219.323 131.739 219.408 131.957 219.541C132.174 219.674 132.363 219.852 132.524 220.076C132.677 219.693 132.914 219.372 133.235 219.114C133.563 218.854 133.929 218.69 134.331 218.62C134.812 218.538 135.243 218.565 135.624 218.702C136.003 218.832 136.317 219.074 136.565 219.429C136.811 219.776 136.983 220.234 137.081 220.801L137.688 224.326L136.517 224.527L135.931 221.121C135.835 220.569 135.649 220.171 135.372 219.927C135.102 219.681 134.75 219.595 134.317 219.67C134.025 219.72 133.778 219.84 133.575 220.029C133.372 220.218 133.228 220.466 133.143 220.773C133.066 221.079 133.062 221.437 133.133 221.847L133.679 225.016L132.496 225.219L131.91 221.814C131.815 221.262 131.628 220.864 131.351 220.619C131.081 220.373 130.73 220.288 130.296 220.362C130.02 220.41 129.781 220.528 129.578 220.717C129.375 220.907 129.231 221.155 129.146 221.461C129.061 221.768 129.053 222.127 129.124 222.537L129.67 225.706L128.487 225.91ZM141.227 223.862C140.659 223.96 140.132 223.917 139.646 223.733C139.16 223.549 138.751 223.246 138.418 222.824C138.094 222.401 137.879 221.882 137.773 221.267C137.664 220.636 137.692 220.067 137.856 219.56C138.027 219.043 138.311 218.617 138.708 218.281C139.103 217.937 139.592 217.715 140.176 217.614C140.759 217.514 141.282 217.558 141.745 217.746C142.207 217.934 142.59 218.225 142.894 218.62C143.196 219.006 143.391 219.459 143.481 219.98C143.495 220.058 143.506 220.146 143.514 220.242C143.529 220.329 143.542 220.428 143.553 220.54L138.681 221.378L138.536 220.539L142.25 219.899C142.14 219.407 141.908 219.049 141.553 218.826C141.197 218.595 140.79 218.519 140.333 218.598C140.01 218.653 139.727 218.779 139.485 218.975C139.241 219.163 139.061 219.413 138.944 219.726C138.834 220.029 138.816 220.393 138.889 220.819L138.946 221.15C139.022 221.592 139.165 221.953 139.376 222.233C139.593 222.504 139.849 222.695 140.144 222.807C140.438 222.91 140.743 222.935 141.058 222.881C141.437 222.816 141.734 222.679 141.95 222.472C142.166 222.264 142.308 222.008 142.378 221.704L143.56 221.5C143.52 221.881 143.403 222.238 143.209 222.571C143.013 222.897 142.748 223.174 142.414 223.402C142.088 223.629 141.692 223.782 141.227 223.862ZM147.281 222.674L146.116 215.909C146.046 215.5 146.055 215.153 146.144 214.87C146.241 214.585 146.414 214.361 146.661 214.196C146.909 214.032 147.222 213.917 147.6 213.852L148.298 213.732L148.471 214.737L147.963 214.824C147.679 214.873 147.484 214.968 147.378 215.108C147.279 215.238 147.254 215.446 147.303 215.73L148.463 222.47L147.281 222.674ZM145.553 217.87L145.379 216.864L148.868 216.264L149.041 217.269L145.553 217.87ZM150.386 222.139L149.36 216.179L150.425 215.996L150.724 217.101C150.812 216.81 150.947 216.555 151.129 216.337C151.309 216.111 151.532 215.923 151.798 215.771C152.072 215.619 152.395 215.51 152.765 215.447L152.981 216.7L152.555 216.773C152.311 216.815 152.084 216.887 151.874 216.988C151.663 217.081 151.483 217.214 151.334 217.386C151.192 217.556 151.096 217.772 151.043 218.032C150.991 218.293 150.995 218.605 151.058 218.967L151.569 221.936L150.386 222.139ZM156.764 221.187C156.204 221.284 155.677 221.241 155.183 221.058C154.696 220.874 154.283 220.571 153.943 220.151C153.609 219.721 153.389 219.199 153.283 218.584C153.175 217.953 153.211 217.383 153.391 216.873C153.569 216.355 153.861 215.928 154.266 215.59C154.67 215.253 155.152 215.036 155.712 214.939C156.28 214.841 156.807 214.885 157.293 215.069C157.779 215.253 158.189 215.556 158.521 215.978C158.861 216.398 159.086 216.924 159.194 217.554C159.303 218.185 159.267 218.755 159.087 219.265C158.915 219.774 158.627 220.197 158.222 220.534C157.817 220.872 157.331 221.09 156.764 221.187ZM156.589 220.17C156.912 220.115 157.19 219.986 157.423 219.783C157.664 219.579 157.837 219.31 157.941 218.975C158.053 218.632 158.068 218.227 157.988 217.762C157.908 217.297 157.763 216.924 157.552 216.644C157.34 216.355 157.087 216.156 156.791 216.044C156.504 215.931 156.203 215.902 155.887 215.956C155.572 216.011 155.294 216.14 155.053 216.343C154.812 216.547 154.636 216.821 154.525 217.165C154.42 217.5 154.408 217.899 154.488 218.365C154.568 218.83 154.714 219.206 154.926 219.495C155.144 219.774 155.397 219.97 155.684 220.082C155.98 220.194 156.281 220.223 156.589 220.17ZM160.389 220.417L159.363 214.457L160.427 214.274L160.655 215.099C160.791 214.759 161.002 214.475 161.287 214.247C161.573 214.019 161.913 213.872 162.307 213.804C162.606 213.752 162.886 213.749 163.145 213.793C163.403 213.83 163.641 213.915 163.859 214.048C164.076 214.181 164.265 214.359 164.426 214.584C164.579 214.2 164.816 213.879 165.137 213.621C165.465 213.361 165.831 213.197 166.233 213.128C166.714 213.045 167.145 213.072 167.526 213.21C167.905 213.339 168.219 213.581 168.467 213.937C168.713 214.284 168.885 214.741 168.983 215.309L169.59 218.833L168.419 219.035L167.833 215.629C167.738 215.077 167.551 214.679 167.274 214.434C167.004 214.188 166.653 214.103 166.219 214.177C165.927 214.228 165.68 214.347 165.477 214.536C165.274 214.726 165.13 214.974 165.045 215.281C164.968 215.586 164.964 215.944 165.035 216.354L165.581 219.523L164.398 219.727L163.812 216.321C163.717 215.769 163.53 215.371 163.253 215.126C162.983 214.881 162.632 214.795 162.198 214.87C161.922 214.917 161.683 215.036 161.48 215.225C161.277 215.414 161.133 215.662 161.048 215.969C160.963 216.276 160.955 216.634 161.026 217.044L161.572 220.213L160.389 220.417ZM173.858 220.777L174.751 217.262L174.408 217.321L171.143 212.429L172.42 212.209L175.034 216.215L176.169 211.563L177.41 211.349L175.1 220.563L173.858 220.777ZM180.973 217.019C180.413 217.116 179.886 217.072 179.392 216.89C178.906 216.705 178.492 216.403 178.152 215.983C177.818 215.553 177.598 215.031 177.493 214.416C177.384 213.785 177.42 213.215 177.6 212.705C177.779 212.187 178.07 211.759 178.475 211.422C178.879 211.084 179.362 210.867 179.921 210.771C180.489 210.673 181.016 210.717 181.502 210.901C181.989 211.085 182.398 211.388 182.73 211.809C183.07 212.23 183.295 212.755 183.404 213.386C183.512 214.017 183.476 214.587 183.296 215.097C183.124 215.606 182.836 216.029 182.431 216.366C182.026 216.704 181.54 216.921 180.973 217.019ZM180.798 216.002C181.121 215.947 181.399 215.817 181.632 215.615C181.873 215.411 182.046 215.142 182.15 214.807C182.262 214.463 182.277 214.059 182.197 213.594C182.117 213.129 181.972 212.756 181.761 212.476C181.549 212.187 181.296 211.987 181 211.876C180.713 211.763 180.412 211.734 180.096 211.788C179.781 211.842 179.503 211.971 179.262 212.175C179.021 212.379 178.845 212.653 178.734 212.997C178.629 213.331 178.617 213.731 178.697 214.196C178.777 214.662 178.923 215.038 179.135 215.327C179.353 215.605 179.606 215.801 179.894 215.914C180.189 216.026 180.49 216.055 180.798 216.002ZM186.81 216.014C186.345 216.094 185.923 216.07 185.543 215.94C185.172 215.809 184.859 215.571 184.605 215.225C184.358 214.878 184.185 214.416 184.086 213.841L183.477 210.305L184.66 210.101L185.246 213.507C185.343 214.067 185.538 214.468 185.831 214.709C186.124 214.951 186.499 215.033 186.957 214.954C187.264 214.901 187.527 214.779 187.746 214.587C187.972 214.393 188.132 214.143 188.225 213.834C188.318 213.526 188.329 213.167 188.259 212.757L187.711 209.576L188.894 209.372L189.92 215.333L188.867 215.514L188.609 214.511C188.491 214.905 188.275 215.234 187.964 215.499C187.652 215.764 187.268 215.935 186.81 216.014ZM190.829 215.176L189.803 209.216L190.868 209.032L191.167 210.138C191.255 209.846 191.39 209.592 191.572 209.374C191.752 209.148 191.975 208.959 192.241 208.808C192.516 208.655 192.838 208.547 193.208 208.483L193.424 209.737L192.998 209.81C192.754 209.852 192.527 209.924 192.317 210.025C192.106 210.118 191.926 210.251 191.777 210.422C191.635 210.593 191.539 210.808 191.486 211.069C191.434 211.33 191.439 211.641 191.501 212.004L192.012 214.972L190.829 215.176ZM200.086 213.728C199.503 213.829 198.955 213.805 198.443 213.658C197.929 213.503 197.489 213.214 197.124 212.789C196.765 212.356 196.522 211.769 196.395 211.028L195.503 205.848L196.685 205.644L197.579 210.836C197.665 211.333 197.818 211.728 198.039 212.023C198.259 212.31 198.529 212.507 198.847 212.614C199.173 212.713 199.533 212.728 199.927 212.66C200.329 212.591 200.663 212.456 200.929 212.256C201.193 212.048 201.377 211.773 201.481 211.43C201.591 211.079 201.603 210.654 201.517 210.158L200.623 204.966L201.806 204.763L202.698 209.942C202.825 210.683 202.789 211.319 202.588 211.849C202.385 212.371 202.064 212.791 201.624 213.111C201.182 213.422 200.67 213.628 200.086 213.728ZM204.166 212.88L202.741 204.602L205.567 204.115C206.229 204.001 206.792 204.018 207.256 204.165C207.72 204.313 208.086 204.554 208.355 204.889C208.624 205.224 208.799 205.629 208.88 206.102C208.958 206.551 208.926 206.983 208.787 207.396C208.653 207.801 208.393 208.154 208.007 208.456C207.619 208.75 207.09 208.955 206.42 209.07L204.777 209.353L205.349 212.676L204.166 212.88ZM204.608 208.372L206.204 208.097C206.827 207.989 207.245 207.779 207.459 207.467C207.68 207.144 207.751 206.759 207.674 206.309C207.591 205.828 207.393 205.481 207.081 205.267C206.776 205.052 206.312 204.997 205.689 205.105L204.092 205.38L204.608 208.372ZM210.444 211.799L209.018 203.521L210.201 203.317L211.626 211.595L210.444 211.799ZM216.901 210.833C216.412 210.918 215.992 210.905 215.64 210.795C215.288 210.685 215.01 210.505 214.805 210.257C214.598 210 214.467 209.71 214.411 209.387C214.343 208.993 214.388 208.64 214.546 208.329C214.702 208.01 214.956 207.743 215.309 207.528C215.661 207.313 216.102 207.16 216.63 207.069L218.179 206.802C218.12 206.455 218.019 206.176 217.877 205.965C217.735 205.754 217.552 205.611 217.328 205.536C217.111 205.452 216.848 205.436 216.541 205.489C216.186 205.55 215.897 205.689 215.675 205.906C215.451 206.115 215.336 206.39 215.33 206.732L214.148 206.936C214.123 206.51 214.204 206.131 214.39 205.798C214.583 205.457 214.855 205.174 215.206 204.952C215.556 204.721 215.944 204.569 216.37 204.496C216.929 204.399 217.416 204.417 217.828 204.549C218.24 204.681 218.572 204.912 218.824 205.242C219.082 205.563 219.254 205.972 219.339 206.468L219.975 210.158L218.946 210.335L218.678 209.346C218.619 209.519 218.542 209.686 218.448 209.849C218.354 210.011 218.233 210.157 218.085 210.288C217.945 210.418 217.774 210.529 217.57 210.621C217.376 210.719 217.153 210.79 216.901 210.833ZM216.961 209.837C217.213 209.793 217.433 209.703 217.62 209.565C217.807 209.427 217.957 209.259 218.069 209.061C218.188 208.854 218.263 208.634 218.296 208.401C218.336 208.159 218.339 207.919 218.306 207.681L218.3 207.646L216.893 207.888C216.554 207.946 216.285 208.037 216.087 208.161C215.896 208.275 215.765 208.411 215.695 208.569C215.625 208.727 215.606 208.901 215.639 209.09C215.673 209.287 215.745 209.449 215.856 209.576C215.974 209.694 216.126 209.777 216.313 209.826C216.5 209.875 216.716 209.879 216.961 209.837ZM221.223 212.622L219.748 204.06L220.813 203.877L221.09 204.779C221.185 204.576 221.313 204.379 221.475 204.189C221.636 203.991 221.838 203.818 222.08 203.671C222.331 203.522 222.633 203.417 222.988 203.356C223.556 203.258 224.076 203.311 224.549 203.513C225.03 203.715 225.43 204.032 225.748 204.464C226.072 204.887 226.286 205.398 226.389 205.997C226.493 206.596 226.463 207.154 226.3 207.669C226.135 208.176 225.86 208.601 225.472 208.944C225.092 209.285 224.619 209.505 224.051 209.602C223.586 209.682 223.16 209.662 222.774 209.542C222.387 209.414 222.062 209.202 221.8 208.906L222.405 212.418L221.223 212.622ZM223.685 208.606C224.048 208.544 224.352 208.402 224.598 208.181C224.852 207.959 225.031 207.676 225.134 207.334C225.245 206.99 225.265 206.609 225.193 206.191C225.121 205.773 224.976 205.425 224.757 205.146C224.545 204.858 224.283 204.651 223.969 204.527C223.662 204.393 223.327 204.357 222.964 204.42C222.594 204.483 222.282 204.63 222.029 204.861C221.783 205.082 221.609 205.363 221.505 205.706C221.4 206.04 221.384 206.417 221.456 206.834C221.528 207.252 221.67 207.605 221.882 207.894C222.094 208.182 222.353 208.389 222.659 208.515C222.972 208.639 223.314 208.67 223.685 208.606ZM228.02 211.452L226.546 202.89L227.61 202.706L227.887 203.609C227.982 203.405 228.11 203.209 228.273 203.019C228.433 202.82 228.635 202.648 228.877 202.5C229.128 202.352 229.43 202.247 229.785 202.186C230.353 202.088 230.873 202.141 231.346 202.343C231.828 202.544 232.227 202.861 232.545 203.294C232.87 203.717 233.083 204.228 233.187 204.827C233.29 205.426 233.26 205.983 233.097 206.498C232.933 207.006 232.657 207.431 232.269 207.773C231.89 208.115 231.416 208.334 230.848 208.432C230.383 208.512 229.958 208.492 229.572 208.372C229.184 208.244 228.86 208.032 228.598 207.736L229.202 211.248L228.02 211.452ZM230.482 207.436C230.845 207.373 231.149 207.232 231.395 207.011C231.649 206.788 231.828 206.506 231.931 206.163C232.042 205.819 232.062 205.439 231.99 205.021C231.918 204.603 231.773 204.255 231.554 203.976C231.343 203.687 231.08 203.481 230.766 203.356C230.459 203.223 230.124 203.187 229.761 203.249C229.391 203.313 229.079 203.46 228.827 203.69C228.58 203.911 228.406 204.193 228.302 204.535C228.198 204.87 228.181 205.246 228.253 205.664C228.325 206.082 228.467 206.435 228.679 206.723C228.891 207.011 229.15 207.219 229.456 207.345C229.769 207.469 230.111 207.499 230.482 207.436ZM234.853 203.213L234.716 201.422L233.476 202.707L232.86 201.961L234.35 200.998L232.64 200.611L232.953 199.741L234.573 200.521L234.08 198.792L234.991 198.635L235.093 200.432L236.347 199.157L236.919 199.862L235.428 200.825L237.155 201.234L236.844 202.115L235.248 201.331L235.74 203.06L234.853 203.213Z" fill="black"/>
<g clip-path="url(#clip0_25_236)">
<rect x="47.0271" y="159.851" width="169" height="54" rx="27" transform="rotate(-10.2508 47.0271 159.851)" fill="#69C476"/>
<path d="M85.1803 187.747C83.842 187.989 82.6275 187.903 81.5367 187.491C80.4566 187.063 79.5581 186.365 78.841 185.397C78.1217 184.416 77.6338 183.217 77.3776 181.8C77.1213 180.383 77.1595 179.096 77.4921 177.938C77.8224 176.767 78.4196 175.799 79.2837 175.033C80.1586 174.251 81.2652 173.74 82.6035 173.498C84.178 173.213 85.5248 173.356 86.6441 173.925C87.7634 174.495 88.5842 175.438 89.1065 176.752L87.2762 177.083C86.912 176.269 86.3622 175.663 85.6268 175.268C84.889 174.859 83.969 174.755 82.8669 174.954C81.8828 175.132 81.0715 175.516 80.433 176.106C79.792 176.682 79.3518 177.432 79.1124 178.356C78.8707 179.267 78.8566 180.313 79.0701 181.494C79.2837 182.675 79.6644 183.656 80.2122 184.438C80.7577 185.206 81.4328 185.755 82.2374 186.084C83.0397 186.399 83.9329 186.468 84.9169 186.29C86.0191 186.091 86.8465 185.684 87.3992 185.069C87.9496 184.441 88.2538 183.688 88.3119 182.81L90.1422 182.479C90.1063 183.854 89.664 185.005 88.8152 185.931C87.9664 186.857 86.7548 187.462 85.1803 187.747ZM97.6343 185.494C96.7158 185.66 95.8513 185.6 95.0406 185.313C94.2275 185.013 93.5411 184.514 92.9812 183.816C92.419 183.104 92.0442 182.23 91.8567 181.194C91.6645 180.131 91.7084 179.175 91.9882 178.325C92.2788 177.459 92.7536 176.75 93.4124 176.197C94.0819 175.629 94.876 175.262 95.7944 175.096C96.7391 174.925 97.6114 174.991 98.4113 175.293C99.222 175.58 99.9084 176.079 100.471 176.791C101.044 177.486 101.425 178.359 101.615 179.409C101.805 180.458 101.754 181.416 101.464 182.282C101.171 183.134 100.696 183.843 100.039 184.409C99.3807 184.962 98.5789 185.323 97.6343 185.494ZM97.3977 184.074C97.9619 183.972 98.4618 183.739 98.8974 183.376C99.3307 182.999 99.6472 182.502 99.8469 181.883C100.047 181.264 100.072 180.542 99.9223 179.715C99.7704 178.875 99.4938 178.207 99.0924 177.711C98.7017 177.199 98.2387 176.849 97.7034 176.661C97.1789 176.458 96.6279 176.408 96.0506 176.513C95.4996 176.612 95.0009 176.852 94.5545 177.23C94.1189 177.594 93.8012 178.085 93.6014 178.704C93.4124 179.307 93.3939 180.028 93.5457 180.868C93.6952 181.695 93.9653 182.364 94.356 182.876C94.7598 183.386 95.2239 183.742 95.7485 183.945C96.2838 184.133 96.8335 184.176 97.3977 184.074ZM104.83 183.949L103.036 174.03L104.532 173.76L104.923 175.477C105.127 174.804 105.486 174.244 106.002 173.799C106.528 173.338 107.165 173.039 107.913 172.904C108.687 172.764 109.385 172.801 110.006 173.013C110.625 173.213 111.149 173.599 111.577 174.172C112.004 174.732 112.304 175.491 112.477 176.449L113.548 182.373L111.895 182.671L110.856 176.925C110.675 175.928 110.317 175.22 109.781 174.802C109.258 174.382 108.596 174.244 107.796 174.389C107.245 174.488 106.777 174.715 106.394 175.069C106.009 175.41 105.731 175.86 105.561 176.419C105.402 176.962 105.39 177.608 105.525 178.356L106.483 183.65L104.83 183.949ZM116.682 181.806L115.141 173.284L113.625 173.558L113.373 172.161L114.888 171.887L114.61 170.352C114.496 169.722 114.509 169.191 114.648 168.76C114.784 168.315 115.039 167.964 115.412 167.707C115.797 167.434 116.291 167.243 116.894 167.134L117.878 166.956L118.134 168.373L117.406 168.505C116.921 168.592 116.584 168.755 116.397 168.992C116.223 169.227 116.18 169.593 116.271 170.092L116.541 171.588L122.485 170.513L124.279 180.432L122.625 180.731L121.084 172.209L116.794 172.985L118.335 181.507L116.682 181.806ZM121.336 168.769C121.021 168.826 120.733 168.77 120.472 168.6C120.209 168.418 120.048 168.162 119.988 167.834C119.929 167.506 119.993 167.224 120.18 166.987C120.365 166.736 120.615 166.583 120.93 166.526C121.258 166.467 121.546 166.523 121.794 166.695C122.053 166.851 122.212 167.094 122.271 167.422C122.33 167.75 122.269 168.045 122.086 168.309C121.914 168.557 121.664 168.71 121.336 168.769ZM127.22 179.9L125.427 169.981L126.922 169.71L127.382 171.578C127.524 171.092 127.738 170.66 128.022 170.284C128.319 169.905 128.695 169.586 129.15 169.328C129.617 169.067 130.166 168.88 130.796 168.766L131.109 170.498L130.499 170.608C130.079 170.684 129.69 170.816 129.331 171.002C128.969 171.176 128.66 171.415 128.403 171.719C128.16 172.02 127.992 172.403 127.9 172.867C127.818 173.315 127.834 173.854 127.948 174.484L128.874 179.601L127.22 179.9ZM134.505 178.583L132.711 168.664L134.206 168.393L134.561 169.792C134.783 169.224 135.131 168.748 135.604 168.364C136.087 167.965 136.644 167.708 137.273 167.595C137.785 167.502 138.257 167.491 138.69 167.562C139.134 167.617 139.539 167.761 139.906 167.992C140.271 168.211 140.591 168.519 140.866 168.916C141.098 168.251 141.479 167.701 142.01 167.266C142.552 166.816 143.164 166.529 143.847 166.406C144.608 166.268 145.299 166.306 145.92 166.519C146.552 166.716 147.075 167.102 147.491 167.678C147.918 168.237 148.217 168.996 148.391 169.954L149.462 175.878L147.828 176.173L146.789 170.426C146.609 169.429 146.27 168.718 145.773 168.293C145.276 167.868 144.661 167.722 143.926 167.855C143.414 167.947 142.98 168.168 142.623 168.517C142.264 168.853 142.012 169.298 141.869 169.853C141.725 170.407 141.721 171.058 141.856 171.806L142.81 177.081L141.157 177.38L140.117 171.633C139.937 170.636 139.598 169.925 139.101 169.5C138.605 169.075 137.982 168.93 137.234 169.065C136.736 169.155 136.308 169.375 135.951 169.724C135.605 170.057 135.36 170.501 135.216 171.056C135.073 171.61 135.069 172.261 135.204 173.009L136.158 178.284L134.505 178.583ZM156.425 174.862C155.493 175.031 154.628 174.964 153.828 174.661C153.041 174.357 152.374 173.854 151.827 173.153C151.278 172.44 150.91 171.565 150.722 170.528C150.533 169.478 150.565 168.531 150.818 167.686C151.085 166.838 151.54 166.132 152.183 165.569C152.84 165.003 153.64 164.635 154.585 164.464C155.556 164.288 156.415 164.356 157.163 164.668C157.923 164.978 158.545 165.455 159.027 166.099C159.52 166.728 159.843 167.463 159.994 168.302C160.018 168.434 160.043 168.571 160.069 168.716C160.095 168.86 160.118 169.025 160.138 169.211L152.03 170.678L151.799 169.398L158.313 168.22C158.11 167.322 157.68 166.668 157.023 166.259C156.38 165.847 155.638 165.716 154.798 165.868C154.234 165.97 153.733 166.196 153.295 166.547C152.868 166.881 152.555 167.324 152.356 167.875C152.156 168.413 152.122 169.049 152.254 169.784L152.354 170.335C152.501 171.148 152.769 171.804 153.157 172.303C153.559 172.8 154.02 173.143 154.543 173.333C155.078 173.521 155.621 173.565 156.172 173.465C156.868 173.339 157.411 173.085 157.803 172.703C158.205 172.305 158.457 171.826 158.559 171.265L160.192 170.97C160.142 171.589 159.962 172.17 159.654 172.713C159.346 173.257 158.921 173.72 158.381 174.102C157.851 174.469 157.199 174.722 156.425 174.862ZM167.63 172.836C166.672 173.009 165.792 172.938 164.99 172.622C164.185 172.294 163.515 171.771 162.979 171.055C162.443 170.339 162.085 169.483 161.905 168.485C161.724 167.488 161.761 166.567 162.015 165.722C162.266 164.863 162.712 164.146 163.353 163.569C164.007 162.99 164.813 162.614 165.771 162.441C166.584 162.294 167.322 162.33 167.985 162.549C168.661 162.765 169.217 163.139 169.651 163.67L168.587 157.785L170.24 157.487L172.803 171.657L171.307 171.927L170.874 170.319C170.723 170.685 170.51 171.042 170.234 171.389C169.956 171.724 169.604 172.025 169.178 172.292C168.75 172.545 168.234 172.727 167.63 172.836ZM167.567 171.364C168.223 171.245 168.772 170.983 169.214 170.578C169.655 170.173 169.964 169.67 170.14 169.069C170.314 168.455 170.331 167.768 170.194 167.007C170.059 166.259 169.802 165.628 169.425 165.113C169.047 164.599 168.581 164.23 168.025 164.005C167.469 163.78 166.864 163.727 166.208 163.846C165.565 163.962 165.023 164.223 164.581 164.628C164.139 165.033 163.832 165.542 163.658 166.156C163.485 166.77 163.466 167.451 163.601 168.199C163.738 168.96 163.996 169.598 164.374 170.112C164.749 170.613 165.214 170.976 165.77 171.201C166.325 171.426 166.924 171.48 167.567 171.364ZM179.179 164.366L178.898 162.811L190.293 160.75L183.564 156.358L184.415 155.106L192.731 160.634L192.888 161.5L187.038 169.611L185.779 168.721L190.515 162.316L179.179 164.366Z" fill="black"/>
</g>
<defs>
<clipPath id="clip0_25_236">
<rect x="47.0271" y="159.851" width="169" height="54" rx="27" transform="rotate(-10.2508 47.0271 159.851)" fill="white"/>
</clipPath>
</defs>
</svg>
