<svg width="258" height="258" viewBox="0 0 258 258" fill="none" xmlns="http://www.w3.org/2000/svg">
<rect x="1.0296" y="8.48317" width="248" height="248" rx="46" transform="rotate(-1.72226 1.0296 8.48317)" fill="#FFE2F0"/>
<rect x="1.0296" y="8.48317" width="248" height="248" rx="46" transform="rotate(-1.72226 1.0296 8.48317)" stroke="black" stroke-width="2"/>
<path d="M38.8079 65.8266L38.5713 57.9581L30.586 43.6637L35.4798 43.5165L41.0902 54.4248L40.2266 54.4508L45.1395 43.2261L50.0013 43.0799L42.8893 57.8283L43.1259 65.6968L38.8079 65.8266ZM56.0571 65.6921C54.5218 65.7383 53.1252 65.4281 51.8673 64.7616C50.63 64.0732 49.63 63.1108 48.8671 61.8745C48.125 60.6162 47.7292 59.1661 47.6798 57.5242C47.6292 55.8396 47.9368 54.3577 48.6026 53.0785C49.2892 51.7772 50.2403 50.7562 51.4559 50.0153C52.6708 49.2531 54.046 48.8489 55.5813 48.8028C57.1379 48.756 58.5349 49.0768 59.7721 49.7653C61.03 50.4318 62.0301 51.3941 62.7722 52.6524C63.5351 53.8887 63.9415 55.3385 63.9915 57.0017C64.0415 58.665 63.7233 60.1472 63.0367 61.4484C62.3709 62.7277 61.4305 63.7484 60.2155 64.5106C58.9999 65.2515 57.6137 65.6453 56.0571 65.6921ZM55.9446 61.9498C56.6696 61.928 57.3042 61.7382 57.8483 61.3803C58.4138 61.0218 58.8459 60.4859 59.1446 59.7726C59.4646 59.0587 59.6089 58.1793 59.5775 57.1344C59.5461 56.0896 59.3495 55.2311 58.9878 54.559C58.6468 53.8649 58.1833 53.356 57.5973 53.0321C57.032 52.6863 56.3975 52.5239 55.6938 52.5451C55.0115 52.5656 54.3879 52.7658 53.823 53.1456C53.2575 53.5041 52.8148 54.0403 52.4948 54.7542C52.1954 55.4462 52.0615 56.3146 52.0929 57.3595C52.1243 58.4044 52.3105 59.2738 52.6515 59.9679C53.0139 60.6613 53.4774 61.1703 54.042 61.4948C54.628 61.8186 55.2622 61.9703 55.9446 61.9498ZM72.0611 65.2109C70.7604 65.25 69.6329 65.0171 68.6786 64.5122C67.745 63.9854 67.0173 63.2069 66.4954 62.1768C65.9729 61.1254 65.6883 59.8213 65.6415 58.2647L65.3597 48.8929L69.6777 48.7631L69.946 57.6871C69.9852 58.9878 70.2812 59.9607 70.8342 60.6057C71.4085 61.2501 72.2607 61.5553 73.3908 61.5213C74.1158 61.4995 74.7507 61.3203 75.2955 60.9838C75.8397 60.6259 76.2624 60.133 76.5637 59.505C76.8856 58.855 77.0328 58.0716 77.0052 57.1547L76.7465 48.5506L81.0326 48.4217L81.5173 64.5424L77.743 64.6559L77.3123 62.0436C76.8708 62.9747 76.1999 63.7312 75.2996 64.3132C74.3987 64.8738 73.3192 65.1731 72.0611 65.2109ZM96.0363 64.49C94.565 64.5343 93.2785 64.3382 92.1769 63.9017C91.0753 63.4653 90.2027 62.8406 89.5594 62.0276C88.916 61.2145 88.5359 60.2869 88.4192 59.2446L92.7053 59.1157C92.8241 59.5176 93.0165 59.8854 93.2827 60.2188C93.5482 60.531 93.8971 60.7766 94.3293 60.9557C94.7615 61.1348 95.2762 61.2154 95.8733 61.1974C96.449 61.1801 96.9159 61.0914 97.2739 60.9312C97.6313 60.7497 97.8911 60.5178 98.0533 60.2355C98.2369 59.9525 98.3242 59.6617 98.3152 59.3632C98.3018 58.9154 98.1636 58.5781 97.9006 58.3512C97.6371 58.103 97.2578 57.9117 96.7629 57.7771C96.2679 57.6426 95.6664 57.5113 94.9582 57.3832C94.1861 57.257 93.4236 57.0985 92.6709 56.9077C91.9388 56.695 91.2798 56.4267 90.6938 56.1028C90.1078 55.7789 89.6362 55.3556 89.279 54.8327C88.9218 54.3099 88.7313 53.654 88.7076 52.865C88.6787 51.9055 88.909 51.0448 89.3983 50.2831C89.887 49.5001 90.6151 48.8699 91.5825 48.3926C92.5499 47.9153 93.7266 47.6558 95.1127 47.6141C97.0531 47.5558 98.6016 47.9468 99.758 48.7871C100.914 49.6274 101.622 50.8119 101.882 52.3408L97.8196 52.463C97.6769 51.9764 97.3775 51.6012 96.9214 51.3375C96.4859 51.0518 95.9057 50.9198 95.1807 50.9416C94.4131 50.9647 93.8308 51.1209 93.434 51.4103C93.0372 51.6997 92.8455 52.0683 92.859 52.5161C92.868 52.8146 93.0039 53.0773 93.2669 53.3042C93.5511 53.5304 93.941 53.7215 94.4366 53.8773C94.9315 54.0118 95.5331 54.1431 96.2413 54.2712C97.4857 54.4899 98.5822 54.7558 99.5307 55.0687C100.479 55.3604 101.228 55.8074 101.78 56.4097C102.331 56.9908 102.624 57.857 102.659 59.0085C102.689 60.032 102.44 60.9573 101.91 61.7843C101.379 62.5899 100.609 63.232 99.5985 63.7106C98.6097 64.1885 97.4223 64.4483 96.0363 64.49ZM112.292 64.0012C110.672 64.05 109.222 63.7521 107.943 63.1075C106.685 62.441 105.686 61.5 104.945 60.2844C104.225 59.0468 103.84 57.607 103.791 55.9651C103.74 54.2805 104.037 52.7883 104.681 51.4883C105.345 50.1664 106.285 49.1244 107.5 48.3622C108.714 47.5787 110.142 47.1622 111.784 47.1129C113.384 47.0648 114.791 47.3746 116.006 48.0424C117.222 48.7102 118.178 49.6312 118.875 50.8054C119.572 51.9797 119.943 53.3238 119.988 54.8378C119.995 55.051 120.002 55.2962 120.01 55.5735C120.018 55.8293 120.005 56.0965 119.97 56.375L106.888 56.7684L106.81 54.1456L115.606 53.8811C115.51 52.8381 115.112 52.0284 114.412 51.4519C113.733 50.8747 112.892 50.6011 111.89 50.6313C111.165 50.6531 110.499 50.8439 109.89 51.2036C109.282 51.5421 108.806 52.0579 108.464 52.7512C108.144 53.4438 107.999 54.3125 108.03 55.3574L108.058 56.285C108.085 57.1593 108.268 57.9221 108.607 58.5735C108.968 59.203 109.452 59.69 110.06 60.0345C110.667 60.3578 111.365 60.5075 112.154 60.4838C112.943 60.4601 113.589 60.2699 114.09 59.9133C114.613 59.5561 114.994 59.1071 115.234 58.5664L119.648 58.4336C119.38 59.4448 118.906 60.3661 118.227 61.1976C117.547 62.0291 116.703 62.6947 115.693 63.1946C114.684 63.6945 113.55 63.9634 112.292 64.0012ZM121.862 63.3293L121.378 47.2086L125.184 47.0941L125.583 49.7073C126.046 48.797 126.717 48.0511 127.596 47.4698C128.497 46.8878 129.576 46.5779 130.834 46.5401C132.177 46.4997 133.316 46.7429 134.249 47.2698C135.183 47.7966 135.9 48.5861 136.401 49.6381C136.924 50.6896 137.209 51.9936 137.255 53.5503L137.535 62.858L133.249 62.9869L132.982 54.0949C132.943 52.8155 132.637 51.843 132.062 51.1773C131.508 50.5109 130.666 50.1948 129.536 50.2288C128.811 50.2506 128.166 50.4407 127.6 50.7992C127.056 51.157 126.634 51.6606 126.333 52.31C126.032 52.938 125.895 53.6998 125.922 54.5954L126.18 63.1995L121.862 63.3293ZM146.945 62.5751C145.815 62.6091 144.818 62.4683 143.955 62.1528C143.112 61.8153 142.444 61.2484 141.951 60.4522C141.457 59.6347 141.188 58.5116 141.145 57.0829L140.939 50.238L138.189 50.3207L138.08 46.7064L140.831 46.6237L141.179 42.2272L145.017 42.1118L145.149 46.4938L149.403 46.3659L149.512 49.9803L145.258 50.1082L145.465 57.0171C145.487 57.7421 145.662 58.2384 145.99 58.506C146.318 58.7736 146.866 58.8958 147.634 58.8727L149.745 58.8093L149.856 62.4876L146.945 62.5751Z" fill="black"/>
<path d="M41.1546 99.1551C38.8943 99.2231 37.1491 98.678 35.9191 97.5197C34.6884 96.3402 34.0375 94.5669 33.9663 92.2L33.8355 87.85C35.8186 87.7904 37.395 87.6896 38.5646 87.5477C39.7335 87.3845 40.5904 87.1346 41.1352 86.7981C41.7007 86.4396 42.0581 85.906 42.2076 85.1972C42.3783 84.4877 42.4461 83.5466 42.4108 82.3738L42.2752 77.8638L46.3374 77.7417L46.4701 82.1557C46.5118 83.5417 46.399 84.7617 46.1319 85.8155C45.8642 86.848 45.3994 87.7157 44.7375 88.4186C44.0964 89.0995 43.2158 89.6275 42.0959 90.0027C40.9754 90.3565 39.5942 90.5581 37.9522 90.6075L38.0109 92.5586C38.0411 93.5608 38.279 94.3754 38.7247 95.0023C39.1697 95.6078 39.9254 95.8946 40.9916 95.8625C42.0151 95.8318 42.7311 95.5114 43.1396 94.9015C43.5482 94.2916 43.7367 93.4643 43.7053 92.4194L47.6715 92.3002C47.6923 94.4125 47.1553 96.072 46.0604 97.2788C44.9649 98.4643 43.3296 99.0897 41.1546 99.1551ZM32.7875 84.9362L32.7048 82.1854L49.817 81.6709L49.8997 84.4216L32.7875 84.9362ZM32.6269 79.5946L32.5374 76.6199L49.6497 76.1054L49.7391 79.08L32.6269 79.5946ZM51.162 98.47L51.0668 95.3035C52.3988 94.1749 53.6882 93.0477 54.9349 91.9217C56.203 90.7951 57.3327 89.6833 58.3242 88.5863C59.315 87.468 60.0936 86.3881 60.6599 85.3467C61.2262 84.3052 61.4949 83.3046 61.466 82.3451C61.4481 81.748 61.3251 81.2075 61.0971 80.7234C60.8685 80.2181 60.5152 79.8232 60.0371 79.5388C59.5796 79.2324 58.9778 79.0904 58.2314 79.1128C57.4851 79.1353 56.8612 79.3248 56.3597 79.6813C55.8582 80.0379 55.4881 80.5079 55.2496 81.0913C55.0103 81.6534 54.9013 82.2863 54.9225 82.99L50.7324 83.116C50.747 81.4722 51.0788 80.0856 51.7278 78.9562C52.3768 77.8269 53.2691 76.9783 54.4045 76.4106C55.5393 75.8216 56.8211 75.5056 58.2497 75.4626C59.8277 75.4152 61.1694 75.6736 62.2749 76.238C63.3797 76.781 64.2244 77.5453 64.8089 78.5309C65.4148 79.5158 65.7373 80.6586 65.7764 81.9594C65.8059 82.9402 65.6535 83.9053 65.3192 84.8544C65.0062 85.8029 64.5434 86.7346 63.9306 87.6494C63.3385 88.5423 62.6601 89.4057 61.8955 90.2397C61.1309 91.0738 60.3333 91.8768 59.5028 92.6487C58.6717 93.3994 57.8606 94.1067 57.0695 94.7708L66.6972 94.4813L66.803 97.9997L51.162 98.47ZM77.2495 98.0698C75.2238 98.1307 73.4605 97.6929 71.9597 96.7562C70.4588 95.8196 69.288 94.4995 68.447 92.796C67.6268 91.0705 67.1824 89.067 67.1138 86.7853C67.0452 84.5037 67.3688 82.4877 68.0845 80.7374C68.8209 78.9652 69.8993 77.5668 71.3199 76.5423C72.7617 75.5172 74.5062 74.9738 76.5532 74.9123C78.6003 74.8507 80.3636 75.2886 81.8431 76.2259C83.3439 77.1625 84.5045 78.4936 85.3247 80.219C86.1656 81.9225 86.6203 83.9151 86.689 86.1967C86.7576 88.4784 86.4237 90.5053 85.6873 92.2776C84.9715 94.0279 83.8928 95.4156 82.4509 96.4407C81.0304 97.4652 79.2966 98.0083 77.2495 98.0698ZM77.1332 94.1996C78.1993 94.1675 79.1283 93.8301 79.92 93.1873C80.7111 92.5233 81.3132 91.6088 81.7264 90.4438C82.1609 89.2782 82.3544 87.9065 82.3069 86.3285C82.2588 84.7292 81.9833 83.3716 81.4801 82.2555C80.9977 81.1175 80.3421 80.2515 79.5132 79.6575C78.6843 79.0634 77.7367 78.7825 76.6706 78.8145C75.6044 78.8466 74.6754 79.184 73.8837 79.8267C73.092 80.4695 72.4789 81.3736 72.0444 82.5392C71.6306 83.6829 71.4477 85.0543 71.4958 86.6536C71.5433 88.2315 71.8082 89.5895 72.2906 90.7275C72.7944 91.8649 73.461 92.7413 74.2905 93.3566C75.1194 93.9506 76.067 94.2316 77.1332 94.1996ZM97.8515 97.4503C95.8257 97.5113 94.0624 97.0734 92.5616 96.1367C91.0608 95.2001 89.8899 93.88 89.049 92.1765C88.2288 90.4511 87.7843 88.4475 87.7157 86.1659C87.6471 83.8842 87.9707 81.8683 88.6864 80.118C89.4228 78.3457 90.5013 76.9473 91.9218 75.9228C93.3636 74.8977 95.1081 74.3544 97.1552 74.2928C99.2022 74.2313 100.966 74.6691 102.445 75.6064C103.946 76.5431 105.106 77.8741 105.927 79.5996C106.768 81.3031 107.222 83.2957 107.291 85.5773C107.359 87.8589 107.026 89.8859 106.289 91.6581C105.573 93.4084 104.495 94.7962 103.053 95.8213C101.632 96.8458 99.8985 97.3888 97.8515 97.4503ZM97.7351 93.5801C98.8013 93.548 99.7302 93.2106 100.522 92.5679C101.313 91.9038 101.915 90.9893 102.328 89.8244C102.763 88.6588 102.956 87.287 102.909 85.709C102.861 84.1098 102.585 82.7521 102.082 81.6361C101.6 80.498 100.944 79.632 100.115 79.038C99.2862 78.444 98.3387 78.163 97.2725 78.1951C96.2063 78.2271 95.2774 78.5645 94.4857 79.2073C93.694 79.85 93.0809 80.7542 92.6464 81.9198C92.2325 83.0634 92.0497 84.4348 92.0978 86.0341C92.1452 87.6121 92.4101 88.9701 92.8926 90.1081C93.3963 91.2454 94.0629 92.1218 94.8925 92.7372C95.7214 93.3312 96.6689 93.6122 97.7351 93.5801Z" fill="#737373"/>
<path d="M37.0185 171.181L36.3453 148.791L44.6935 148.54C46.506 148.486 48.008 148.75 49.1993 149.333C50.3907 149.916 51.29 150.721 51.8972 151.749C52.5037 152.755 52.8259 153.887 52.8637 155.145C52.8996 156.34 52.6561 157.467 52.1331 158.529C51.6094 159.569 50.7601 160.427 49.5853 161.103C48.431 161.756 46.9264 162.111 45.0712 162.167L41.073 162.287L41.3365 171.051L37.0185 171.181ZM48.6292 170.832L43.7271 161.119L48.397 160.978L53.555 170.684L48.6292 170.832ZM40.9788 159.153L44.753 159.039C46.0538 159 47.0037 158.651 47.6029 157.993C48.202 157.335 48.4859 156.483 48.4545 155.438C48.4231 154.393 48.0892 153.582 47.4529 153.003C46.8372 152.403 45.8683 152.122 44.5463 152.162L40.772 152.276L40.9788 159.153ZM61.8376 170.819C60.3022 170.865 58.9056 170.555 57.6477 169.888C56.4104 169.2 55.4104 168.238 54.6476 167.001C53.9054 165.743 53.5097 164.293 53.4603 162.651C53.4096 160.966 53.7172 159.484 54.3831 158.205C55.0696 156.904 56.0207 155.883 57.2363 155.142C58.4513 154.38 59.8264 153.976 61.3617 153.93C62.9184 153.883 64.3153 154.204 65.5526 154.892C66.8105 155.559 67.8105 156.521 68.5527 157.779C69.3155 159.015 69.7219 160.465 69.772 162.128C69.822 163.792 69.5037 165.274 68.8172 166.575C68.1513 167.854 67.2109 168.875 65.9959 169.637C64.7803 170.378 63.3942 170.772 61.8376 170.819ZM61.725 167.077C62.45 167.055 63.0846 166.865 63.6288 166.507C64.1943 166.149 64.6263 165.613 64.925 164.899C65.2451 164.185 65.3894 163.306 65.3579 162.261C65.3265 161.216 65.13 160.358 64.7683 159.686C64.4273 158.992 63.9638 158.483 63.3778 158.159C62.8124 157.813 62.1779 157.651 61.4743 157.672C60.7919 157.692 60.1683 157.893 59.6035 158.272C59.038 158.631 58.5952 159.167 58.2752 159.881C57.9759 160.573 57.8419 161.441 57.8733 162.486C57.9047 163.531 58.091 164.401 58.432 165.095C58.7943 165.788 59.2578 166.297 59.8225 166.622C60.4085 166.945 61.0427 167.097 61.725 167.077ZM71.8167 170.135L71.332 154.014L75.1383 153.899L75.537 156.513C76.0005 155.602 76.6718 154.856 77.5507 154.275C78.4509 153.693 79.5301 153.383 80.7882 153.345C82.1316 153.305 83.2701 153.548 84.2037 154.075C85.1373 154.602 85.8547 155.391 86.3558 156.443C86.8783 157.495 87.163 158.799 87.2098 160.356L87.4897 169.663L83.2036 169.792L82.9362 160.9C82.8978 159.621 82.5911 158.648 82.0161 157.983C81.4625 157.316 80.6206 157 79.4905 157.034C78.7655 157.056 78.1202 157.246 77.5548 157.605C77.0106 157.962 76.5882 158.466 76.2876 159.115C75.9863 159.743 75.8492 160.505 75.8761 161.401L76.1348 170.005L71.8167 170.135ZM91.3351 176.591L94.9719 167.646L94.0123 167.674L87.1204 153.539L91.8223 153.398L96.7408 163.655L100.586 153.134L105.16 152.997L95.909 176.453L91.3351 176.591ZM112.839 169.285C111.218 169.334 109.769 169.036 108.49 168.392C107.232 167.725 106.233 166.784 105.492 165.568C104.772 164.331 104.387 162.891 104.337 161.249C104.287 159.565 104.583 158.072 105.227 156.772C105.892 155.451 106.832 154.409 108.047 153.646C109.261 152.863 110.689 152.446 112.331 152.397C113.93 152.349 115.338 152.659 116.553 153.327C117.768 153.994 118.724 154.915 119.421 156.09C120.118 157.264 120.489 158.608 120.535 160.122C120.541 160.335 120.549 160.58 120.557 160.858C120.565 161.113 120.551 161.381 120.517 161.659L107.435 162.053L107.356 159.43L116.152 159.165C116.057 158.122 115.659 157.313 114.959 156.736C114.28 156.159 113.439 155.885 112.437 155.915C111.712 155.937 111.045 156.128 110.437 156.488C109.828 156.826 109.353 157.342 109.011 158.035C108.69 158.728 108.546 159.597 108.577 160.642L108.605 161.569C108.631 162.443 108.814 163.206 109.154 163.858C109.514 164.487 109.999 164.974 110.607 165.319C111.214 165.642 111.912 165.792 112.701 165.768C113.49 165.744 114.135 165.554 114.637 165.197C115.16 164.84 115.541 164.391 115.781 163.85L120.195 163.718C119.926 164.729 119.452 165.65 118.773 166.482C118.094 167.313 117.249 167.979 116.24 168.479C115.231 168.979 114.097 169.248 112.839 169.285ZM122.409 168.613L121.716 145.584L126.034 145.454L126.727 168.484L122.409 168.613ZM129.017 168.415L128.325 145.385L132.643 145.255L133.335 168.285L129.017 168.415ZM141.074 168.436C139.731 168.477 138.616 168.297 137.729 167.897C136.841 167.475 136.173 166.908 135.725 166.196C135.297 165.462 135.07 164.647 135.043 163.752C135.013 162.771 135.233 161.9 135.701 161.139C136.19 160.377 136.929 159.768 137.919 159.311C138.93 158.854 140.203 158.602 141.738 158.556L145.736 158.436C145.712 157.647 145.586 157 145.358 156.494C145.128 155.968 144.786 155.583 144.33 155.341C143.875 155.098 143.274 154.988 142.528 155.011C141.717 155.035 141.03 155.237 140.465 155.617C139.921 155.975 139.596 156.518 139.489 157.247L135.299 157.373C135.371 156.218 135.715 155.215 136.329 154.365C136.965 153.492 137.809 152.805 138.861 152.304C139.934 151.802 141.132 151.531 142.454 151.491C143.968 151.446 145.287 151.662 146.411 152.141C147.535 152.619 148.41 153.329 149.036 154.271C149.662 155.212 149.996 156.387 150.039 157.794L150.339 167.774L146.692 167.883L146.139 165.435C145.917 165.868 145.651 166.261 145.342 166.611C145.032 166.962 144.668 167.272 144.249 167.541C143.83 167.809 143.356 168.016 142.827 168.16C142.298 168.325 141.714 168.417 141.074 168.436ZM141.998 165.079C142.552 165.062 143.04 164.952 143.461 164.747C143.902 164.52 144.278 164.232 144.587 163.881C144.896 163.509 145.129 163.096 145.286 162.643C145.464 162.168 145.577 161.663 145.625 161.128L145.624 161.096L142.329 161.195C141.668 161.215 141.127 161.317 140.706 161.5C140.305 161.662 140.013 161.895 139.83 162.199C139.648 162.503 139.562 162.847 139.573 163.231C139.586 163.658 139.693 164.007 139.893 164.278C140.093 164.549 140.377 164.754 140.744 164.893C141.111 165.031 141.529 165.093 141.998 165.079Z" fill="black"/>
<circle cx="193.5" cy="58.5" r="28.5" fill="#69524A"/>
<path d="M182.656 67V52.5909H177.658V49.9333H190.897V52.5909H185.923V67H182.656ZM199.071 67.2926C197.413 67.2926 195.95 66.9187 194.682 66.171C193.414 65.4234 192.423 64.3912 191.708 63.0747C190.992 61.7418 190.635 60.2058 190.635 58.4667C190.635 56.7275 190.992 55.1996 191.708 53.883C192.423 52.5502 193.414 51.51 194.682 50.7623C195.95 50.0146 197.413 49.6408 199.071 49.6408C200.745 49.6408 202.216 50.0146 203.484 50.7623C204.751 51.51 205.735 52.5502 206.434 53.883C207.149 55.1996 207.506 56.7275 207.506 58.4667C207.506 60.2058 207.149 61.7418 206.434 63.0747C205.735 64.3912 204.751 65.4234 203.484 66.171C202.216 66.9187 200.745 67.2926 199.071 67.2926ZM199.071 64.3425C200.111 64.3425 201.005 64.1068 201.753 63.6354C202.517 63.1478 203.11 62.4651 203.532 61.5874C203.955 60.7097 204.166 59.6695 204.166 58.4667C204.166 57.2476 203.955 56.2074 203.532 55.3459C203.11 54.4682 202.517 53.7937 201.753 53.3223C201.005 52.8509 200.111 52.6152 199.071 52.6152C198.047 52.6152 197.153 52.8509 196.389 53.3223C195.625 53.7937 195.032 54.4682 194.609 55.3459C194.186 56.2074 193.975 57.2476 193.975 58.4667C193.975 59.6695 194.186 60.7097 194.609 61.5874C195.032 62.4651 195.625 63.1478 196.389 63.6354C197.153 64.1068 198.047 64.3425 199.071 64.3425Z" fill="white"/>
<rect width="186.187" height="31.4887" rx="15.7443" transform="matrix(0.999908 -0.0135633 -0.0297661 0.999557 35.9375 183.525)" fill="#BEBEBE"/>
<rect width="137.138" height="31.4887" rx="15.7443" transform="matrix(0.999908 -0.0135633 -0.0297661 0.999557 35.9375 183.525)" fill="#E879AF"/>
</svg>
