<svg width="310" height="310" viewBox="0 0 310 310" fill="none" xmlns="http://www.w3.org/2000/svg">
<rect x="0.61825" y="69.1128" width="249" height="249" rx="46.5" transform="rotate(-15.9667 0.61825 69.1128)" fill="#FFF7D8"/>
<rect x="0.61825" y="69.1128" width="249" height="249" rx="46.5" transform="rotate(-15.9667 0.61825 69.1128)" stroke="black"/>
<path d="M78.877 146.24L78.5332 85.964L86.7197 83.6217L87.0635 143.897L78.877 146.24ZM123.068 125.889L104.697 112.485L112.682 94.7858L122.618 91.9429L112.153 114.205L110.24 107.519L133.567 122.885L123.068 125.889ZM102.445 131.789L89.5717 86.7946L98.0082 84.3807L110.882 129.375L102.445 131.789ZM144.442 120.584C141.817 121.335 139.532 121.539 137.585 121.194C135.627 120.808 134.028 120.026 132.79 118.848C131.581 117.616 130.726 116.125 130.226 114.376C129.677 112.459 129.674 110.635 130.215 108.902C130.797 107.158 131.949 105.589 133.668 104.196C135.43 102.79 137.81 101.659 140.81 100.8L148.621 98.5654C148.18 97.0239 147.608 95.8128 146.906 94.9322C146.191 94.0098 145.325 93.4238 144.307 93.1742C143.289 92.9246 142.051 93.0084 140.593 93.4256C139.01 93.8786 137.757 94.6201 136.835 95.6502C135.942 96.6267 135.574 97.859 135.729 99.347L127.542 101.689C127.107 99.3799 127.282 97.2341 128.067 95.2517C128.881 93.2157 130.199 91.4414 132.02 89.9288C133.883 88.4044 136.105 87.2726 138.688 86.5336C141.646 85.6872 144.352 85.4541 146.804 85.8341C149.257 86.2142 151.334 87.1747 153.037 88.7157C154.74 90.2567 155.985 92.402 156.772 95.1517L162.35 114.649L155.226 116.688L152.912 112.144C152.692 113.108 152.365 114.013 151.931 114.859C151.497 115.704 150.934 116.496 150.244 117.234C149.554 117.973 148.724 118.616 147.754 119.164C146.796 119.753 145.692 120.227 144.442 120.584ZM144.582 113.513C145.665 113.203 146.57 112.742 147.296 112.128C148.052 111.461 148.647 110.705 149.081 109.86C149.503 108.973 149.756 108.044 149.839 107.074C149.951 106.05 149.921 104.999 149.748 103.922L149.73 103.86L143.294 105.701C142.002 106.071 140.987 106.541 140.25 107.113C139.541 107.631 139.083 108.235 138.875 108.926C138.667 109.617 138.67 110.337 138.885 111.087C139.123 111.92 139.508 112.554 140.037 112.988C140.567 113.422 141.228 113.684 142.02 113.773C142.812 113.862 143.666 113.775 144.582 113.513ZM163.534 114.311L170.339 95.3264L154.522 82.8146L163.646 80.2041L174.301 88.8518L178.769 75.8771L187.831 73.2845L181.025 92.2689L196.842 104.781L187.781 107.373L177.108 98.6631L172.658 111.7L163.534 114.311Z" fill="black"/>
<path d="M131.532 234.174C130.839 234.372 130.169 234.392 129.521 234.234C128.879 234.064 128.314 233.742 127.825 233.269C127.342 232.783 126.995 232.169 126.783 231.429C126.566 230.67 126.535 229.961 126.69 229.303C126.852 228.632 127.166 228.059 127.633 227.582C128.097 227.096 128.675 226.753 129.367 226.555C130.069 226.355 130.741 226.339 131.382 226.509C132.031 226.667 132.596 226.989 133.079 227.475C133.568 227.949 133.92 228.56 134.134 229.31C134.349 230.06 134.375 230.77 134.213 231.441C134.058 232.099 133.749 232.671 133.285 233.157C132.818 233.634 132.233 233.973 131.532 234.174ZM131.049 232.487C131.376 232.393 131.642 232.234 131.848 232.008C132.064 231.78 132.198 231.487 132.252 231.128C132.315 230.767 132.279 230.351 132.144 229.88C132.009 229.409 131.821 229.041 131.579 228.778C131.344 228.502 131.075 228.324 130.771 228.244C130.474 228.152 130.167 228.152 129.85 228.243C129.542 228.331 129.282 228.493 129.069 228.731C128.854 228.959 128.715 229.254 128.652 229.615C128.595 229.964 128.635 230.374 128.769 230.845C128.904 231.316 129.089 231.69 129.324 231.966C129.569 232.239 129.838 232.417 130.132 232.499C130.436 232.579 130.741 232.575 131.049 232.487ZM135.987 232.712L133.907 225.444L135.638 224.949L136.209 226.236C136.291 225.869 136.43 225.538 136.627 225.243C136.833 224.945 137.086 224.685 137.387 224.464C137.697 224.24 138.059 224.069 138.472 223.95L139.062 226.012L138.399 226.202C138.111 226.285 137.851 226.395 137.62 226.534C137.399 226.67 137.219 226.841 137.081 227.048C136.939 227.244 136.858 227.486 136.836 227.773C136.814 228.06 136.859 228.401 136.972 228.795L137.933 232.155L135.987 232.712ZM148.31 229.186L144.071 226.093L145.913 222.009L148.206 221.352L145.791 226.49L145.35 224.947L150.733 228.493L148.31 229.186ZM143.551 230.548L140.58 220.164L142.527 219.607L145.498 229.991L143.551 230.548ZM151.066 228.397L148.987 221.129L150.934 220.572L153.013 227.84L151.066 228.397ZM149.683 219.853C149.337 219.952 149.019 219.934 148.731 219.798C148.449 219.65 148.263 219.417 148.172 219.1C148.081 218.783 148.118 218.491 148.281 218.226C148.451 217.949 148.709 217.76 149.056 217.661C149.411 217.56 149.73 217.583 150.012 217.731C150.3 217.867 150.49 218.094 150.581 218.411C150.671 218.728 150.632 219.026 150.461 219.303C150.298 219.568 150.038 219.752 149.683 219.853ZM154.115 227.525L151.144 217.142L153.091 216.585L156.062 226.968L154.115 227.525ZM157.095 226.673L154.124 216.289L156.071 215.732L159.042 226.116L157.095 226.673ZM164.434 228.005L165.054 223.522L164.622 223.645L159.86 218.018L161.98 217.412L165.398 221.504L165.931 216.281L167.994 215.691L166.496 227.415L164.434 228.005ZM173.303 222.222C172.611 222.42 171.941 222.441 171.292 222.283C170.651 222.113 170.085 221.791 169.596 221.317C169.114 220.831 168.767 220.218 168.555 219.478C168.338 218.718 168.307 218.009 168.462 217.351C168.623 216.681 168.938 216.107 169.405 215.63C169.869 215.144 170.447 214.802 171.139 214.604C171.841 214.403 172.513 214.388 173.154 214.558C173.803 214.715 174.368 215.037 174.85 215.523C175.339 215.997 175.691 216.609 175.906 217.359C176.12 218.109 176.147 218.819 175.985 219.489C175.83 220.147 175.52 220.719 175.056 221.206C174.589 221.683 174.005 222.022 173.303 222.222ZM172.821 220.535C173.147 220.442 173.414 220.282 173.62 220.057C173.835 219.829 173.97 219.535 174.023 219.177C174.086 218.815 174.05 218.399 173.916 217.928C173.781 217.457 173.593 217.09 173.351 216.826C173.116 216.55 172.846 216.372 172.543 216.293C172.246 216.201 171.939 216.2 171.622 216.291C171.314 216.379 171.054 216.542 170.841 216.78C170.626 217.008 170.486 217.302 170.423 217.664C170.367 218.013 170.406 218.423 170.541 218.894C170.676 219.365 170.861 219.738 171.096 220.014C171.34 220.288 171.61 220.465 171.904 220.548C172.207 220.627 172.513 220.623 172.821 220.535ZM180.519 220.158C179.933 220.326 179.393 220.35 178.902 220.231C178.417 220.099 177.996 219.829 177.64 219.421C177.282 219.004 177.002 218.444 176.801 217.742L175.592 213.517L177.539 212.96L178.69 216.983C178.858 217.57 179.105 217.978 179.43 218.207C179.766 218.434 180.188 218.474 180.698 218.328C181.024 218.235 181.292 218.08 181.501 217.864C181.707 217.639 181.842 217.366 181.907 217.046C181.978 216.714 181.954 216.341 181.836 215.927L180.726 212.048L182.659 211.495L184.738 218.763L183.037 219.25L182.54 218.113C182.446 218.587 182.229 219.008 181.887 219.376C181.542 219.735 181.086 219.995 180.519 220.158ZM185.78 218.465L183.7 211.197L185.431 210.702L186.002 211.989C186.084 211.623 186.223 211.292 186.42 210.996C186.626 210.698 186.879 210.438 187.18 210.217C187.49 209.993 187.852 209.822 188.265 209.704L188.855 211.766L188.192 211.956C187.904 212.038 187.644 212.149 187.413 212.288C187.192 212.424 187.012 212.595 186.874 212.801C186.732 212.997 186.651 213.239 186.629 213.526C186.607 213.813 186.652 214.154 186.765 214.548L187.726 217.908L185.78 218.465ZM193.836 216.348C193.172 216.538 192.565 216.597 192.014 216.526C191.463 216.454 190.995 216.271 190.609 215.976C190.223 215.681 189.943 215.303 189.77 214.843L191.702 214.29C191.803 214.459 191.932 214.604 192.092 214.725C192.248 214.836 192.435 214.907 192.652 214.939C192.869 214.97 193.113 214.948 193.382 214.871C193.641 214.796 193.843 214.702 193.987 214.588C194.129 214.464 194.22 214.329 194.261 214.182C194.312 214.032 194.318 213.89 194.28 213.756C194.222 213.554 194.12 213.416 193.975 213.344C193.826 213.261 193.632 213.218 193.391 213.214C193.151 213.21 192.863 213.22 192.526 213.243C192.161 213.275 191.796 213.291 191.432 213.291C191.075 213.279 190.744 213.233 190.441 213.153C190.137 213.074 189.874 212.936 189.652 212.739C189.429 212.543 189.267 212.267 189.165 211.911C189.041 211.479 189.047 211.061 189.181 210.659C189.313 210.246 189.571 209.876 189.955 209.548C190.34 209.219 190.845 208.966 191.469 208.787C192.344 208.537 193.093 208.536 193.715 208.784C194.338 209.032 194.796 209.489 195.09 210.154L193.259 210.678C193.138 210.473 192.958 210.337 192.721 210.27C192.49 210.19 192.211 210.197 191.884 210.291C191.538 210.39 191.292 210.528 191.145 210.705C190.998 210.883 190.953 211.072 191.011 211.274C191.049 211.409 191.141 211.512 191.287 211.585C191.442 211.655 191.642 211.697 191.885 211.71C192.125 211.714 192.414 211.705 192.75 211.681C193.341 211.637 193.87 211.631 194.337 211.664C194.801 211.687 195.193 211.804 195.513 212.014C195.831 212.214 196.064 212.574 196.212 213.093C196.344 213.555 196.337 214.004 196.192 214.441C196.044 214.868 195.768 215.249 195.364 215.583C194.97 215.914 194.46 216.169 193.836 216.348ZM201.165 214.251C200.434 214.46 199.741 214.492 199.086 214.346C198.438 214.189 197.875 213.876 197.398 213.409C196.928 212.93 196.587 212.32 196.375 211.58C196.158 210.821 196.121 210.108 196.263 209.444C196.413 208.766 196.72 208.184 197.184 207.698C197.645 207.202 198.246 206.848 198.986 206.636C199.707 206.43 200.382 206.408 201.012 206.572C201.641 206.735 202.181 207.043 202.633 207.496C203.086 207.949 203.409 208.517 203.605 209.2C203.632 209.296 203.664 209.406 203.699 209.531C203.732 209.647 203.757 209.77 203.774 209.9L197.875 211.588L197.537 210.405L201.503 209.271C201.339 208.808 201.065 208.486 200.681 208.305C200.305 208.121 199.892 208.093 199.44 208.223C199.113 208.316 198.832 208.48 198.598 208.713C198.36 208.937 198.204 209.226 198.128 209.581C198.062 209.933 198.097 210.344 198.232 210.815L198.351 211.233C198.464 211.627 198.635 211.953 198.865 212.21C199.101 212.454 199.377 212.62 199.693 212.706C200.006 212.783 200.341 212.77 200.697 212.668C201.052 212.567 201.324 212.406 201.51 212.186C201.707 211.963 201.828 211.715 201.875 211.442L203.865 210.873C203.859 211.363 203.75 211.836 203.538 212.292C203.325 212.749 203.018 213.148 202.617 213.492C202.216 213.835 201.732 214.088 201.165 214.251ZM205.435 212.842L202.465 202.458L204.411 201.901L207.382 212.285L205.435 212.842ZM208.747 211.894L206.481 203.977C206.308 203.371 206.271 202.862 206.372 202.448C206.472 202.035 206.686 201.693 207.014 201.422C207.352 201.148 207.775 200.939 208.285 200.793L209.179 200.537L209.654 202.196L209.048 202.369C208.74 202.457 208.537 202.583 208.438 202.746C208.346 202.897 208.343 203.122 208.428 203.42L210.693 211.337L208.747 211.894ZM206.138 206.54L205.672 204.911L210.186 203.619L210.652 205.249L206.138 206.54ZM213.507 204.916L213.203 202.818L211.999 204.551L210.896 203.478L212.55 202.225L210.502 202.046L210.833 200.641L212.822 201.43L211.937 199.483L213.35 199.078L213.615 201.203L214.885 199.482L215.891 200.489L214.241 201.757L216.322 201.941L215.975 203.398L214.011 202.587L214.891 204.519L213.507 204.916Z" fill="black"/>
<g clip-path="url(#clip0_25_198)">
<rect x="81.5343" y="161.727" width="150" height="54" rx="27" transform="rotate(-16.0867 81.5343 161.727)" fill="#F2DB7D"/>
<path d="M116.418 187.052L112.538 173.601L116.92 172.337C117.983 172.03 118.906 171.959 119.689 172.121C120.48 172.268 121.121 172.59 121.611 173.086C122.114 173.58 122.475 174.204 122.693 174.96C122.903 175.69 122.929 176.405 122.77 177.103C122.619 177.784 122.256 178.403 121.681 178.957C121.105 179.512 120.279 179.944 119.203 180.254L116.436 181.052L118.032 186.587L116.418 187.052ZM116.042 179.688L118.79 178.896C119.867 178.585 120.567 178.127 120.891 177.519C121.216 176.912 121.266 176.218 121.04 175.437C120.8 174.604 120.385 174.03 119.794 173.715C119.2 173.386 118.365 173.377 117.289 173.688L114.541 174.48L116.042 179.688ZM130.237 183.317C129.455 183.542 128.763 183.596 128.16 183.479C127.554 183.348 127.058 183.096 126.672 182.721C126.283 182.334 126.011 181.871 125.855 181.333C125.667 180.68 125.675 180.081 125.878 179.537C126.091 178.976 126.472 178.491 127.02 178.083C127.578 177.659 128.28 177.325 129.125 177.081L131.681 176.344C131.507 175.742 131.267 175.27 130.96 174.928C130.663 174.57 130.305 174.34 129.887 174.238C129.482 174.133 129.017 174.156 128.492 174.308C127.877 174.485 127.39 174.792 127.03 175.229C126.67 175.666 126.526 176.2 126.597 176.832L124.944 177.308C124.822 176.594 124.886 175.951 125.137 175.379C125.398 174.791 125.794 174.288 126.326 173.871C126.854 173.441 127.445 173.132 128.098 172.943C128.995 172.685 129.786 172.637 130.472 172.8C131.166 172.947 131.746 173.272 132.21 173.777C132.671 174.268 133.016 174.911 133.245 175.705L134.974 181.701L133.533 182.117L132.944 180.434C132.893 180.74 132.801 181.044 132.666 181.347C132.54 181.633 132.369 181.904 132.151 182.161C131.93 182.405 131.662 182.629 131.345 182.831C131.042 183.029 130.672 183.191 130.237 183.317ZM130.093 181.881C130.541 181.751 130.919 181.545 131.226 181.262C131.542 180.963 131.782 180.616 131.946 180.222C132.106 179.815 132.193 179.395 132.207 178.961C132.233 178.523 132.183 178.086 132.058 177.651L132.041 177.593L129.62 178.291C128.992 178.472 128.508 178.695 128.168 178.96C127.825 179.211 127.608 179.496 127.519 179.813C127.427 180.117 127.428 180.436 127.524 180.769C127.624 181.115 127.788 181.394 128.015 181.606C128.256 181.814 128.55 181.944 128.898 181.996C129.259 182.045 129.657 182.006 130.093 181.881ZM139.466 184.985L140.3 178.999L139.743 179.16L133.455 171.648L135.204 171.144L140.489 177.634L141.661 169.282L143.333 168.8L141.157 184.497L139.466 184.985ZM155.759 175.707L149.296 167.08L150.987 166.593L156.252 173.879L156.848 164.902L158.5 164.426L157.623 175.169L155.759 175.707ZM163.26 173.544L160.467 163.859L162.081 163.393L164.874 173.078L163.26 173.544ZM160.681 161.57C160.361 161.662 160.062 161.637 159.786 161.495C159.518 161.336 159.338 161.097 159.245 160.776C159.153 160.456 159.182 160.17 159.331 159.919C159.49 159.651 159.729 159.471 160.05 159.379C160.357 159.29 160.649 159.317 160.926 159.459C161.199 159.588 161.382 159.813 161.474 160.134C161.567 160.454 161.536 160.754 161.381 161.035C161.222 161.303 160.989 161.481 160.681 161.57ZM170.941 171.579C170.16 171.804 169.467 171.858 168.865 171.74C168.258 171.61 167.762 171.357 167.377 170.983C166.987 170.596 166.715 170.133 166.56 169.595C166.371 168.941 166.379 168.343 166.583 167.798C166.796 167.237 167.177 166.753 167.725 166.345C168.283 165.92 168.984 165.586 169.83 165.342L172.385 164.605C172.212 164.003 171.972 163.531 171.665 163.19C171.367 162.831 171.01 162.601 170.592 162.5C170.187 162.395 169.722 162.418 169.196 162.569C168.581 162.747 168.094 163.054 167.734 163.49C167.375 163.927 167.23 164.461 167.302 165.093L165.649 165.57C165.526 164.856 165.591 164.213 165.842 163.641C166.102 163.052 166.499 162.549 167.031 162.132C167.559 161.702 168.15 161.393 168.803 161.205C169.7 160.946 170.491 160.898 171.176 161.062C171.871 161.208 172.45 161.534 172.915 162.038C173.376 162.53 173.721 163.173 173.95 163.967L175.679 169.962L174.238 170.378L173.648 168.696C173.598 169.002 173.505 169.306 173.37 169.608C173.245 169.894 173.073 170.166 172.856 170.423C172.635 170.667 172.366 170.89 172.05 171.092C171.746 171.291 171.377 171.453 170.941 171.579ZM170.797 170.142C171.246 170.013 171.624 169.807 171.931 169.524C172.247 169.225 172.487 168.878 172.651 168.484C172.811 168.077 172.898 167.656 172.911 167.222C172.938 166.784 172.888 166.348 172.762 165.912L172.746 165.854L170.324 166.553C169.697 166.734 169.213 166.956 168.873 167.221C168.529 167.473 168.313 167.757 168.224 168.074C168.131 168.379 168.133 168.697 168.229 169.03C168.329 169.376 168.492 169.655 168.72 169.867C168.96 170.075 169.255 170.205 169.603 170.258C169.964 170.306 170.362 170.268 170.797 170.142ZM188.286 166.577C187.363 166.843 186.471 166.899 185.608 166.745C184.757 166.588 183.999 166.196 183.333 165.57C182.663 164.93 182.156 164.015 181.812 162.823L179.363 154.33L180.977 153.864L183.432 162.377C183.683 163.248 184.029 163.919 184.47 164.388C184.923 164.854 185.443 165.141 186.03 165.25C186.616 165.358 187.242 165.316 187.909 165.124C188.588 164.929 189.14 164.63 189.566 164.23C189.991 163.83 190.266 163.314 190.389 162.681C190.512 162.049 190.448 161.298 190.196 160.426L187.741 151.913L189.356 151.448L191.805 159.942C192.149 161.133 192.207 162.178 191.98 163.076C191.75 163.961 191.31 164.698 190.662 165.288C190.013 165.877 189.221 166.307 188.286 166.577ZM195.969 164.111L192.09 150.659L196.471 149.396C197.534 149.089 198.457 149.017 199.24 149.18C200.031 149.327 200.672 149.648 201.162 150.145C201.665 150.639 202.026 151.263 202.244 152.019C202.455 152.749 202.48 153.463 202.321 154.162C202.17 154.843 201.807 155.461 201.232 156.016C200.656 156.57 199.83 157.003 198.754 157.313L195.987 158.111L197.583 163.646L195.969 164.111ZM195.594 156.747L198.342 155.954C199.418 155.644 200.118 155.185 200.443 154.578C200.767 153.971 200.817 153.277 200.591 152.496C200.351 151.663 199.936 151.089 199.345 150.773C198.751 150.445 197.916 150.436 196.84 150.747L194.092 151.539L195.594 156.747ZM207.116 160.896L203.237 147.445L204.851 146.979L208.73 160.431L207.116 160.896Z" fill="black"/>
</g>
<defs>
<clipPath id="clip0_25_198">
<rect x="81.5343" y="161.727" width="150" height="54" rx="27" transform="rotate(-16.0867 81.5343 161.727)" fill="white"/>
</clipPath>
</defs>
</svg>
