<svg width="258" height="258" viewBox="0 0 258 258" fill="none" xmlns="http://www.w3.org/2000/svg">
<rect x="0.514801" y="7.99842" width="249" height="249" rx="46.5" transform="rotate(-1.72226 0.514801 7.99842)" fill="#FFE2F0"/>
<rect x="0.514801" y="7.99842" width="249" height="249" rx="46.5" transform="rotate(-1.72226 0.514801 7.99842)" stroke="black"/>
<path d="M38.8079 65.8266L38.5713 57.9581L30.586 43.6637L35.4798 43.5165L41.0902 54.4248L40.2266 54.4508L45.1395 43.2261L50.0013 43.0799L42.8893 57.8283L43.1259 65.6968L38.8079 65.8266ZM56.0571 65.6921C54.5218 65.7383 53.1252 65.4281 51.8673 64.7616C50.63 64.0732 49.63 63.1108 48.8671 61.8745C48.125 60.6162 47.7292 59.1661 47.6798 57.5242C47.6292 55.8396 47.9368 54.3577 48.6026 53.0785C49.2892 51.7772 50.2403 50.7562 51.4559 50.0153C52.6708 49.2531 54.046 48.8489 55.5813 48.8028C57.1379 48.756 58.5349 49.0768 59.7721 49.7653C61.03 50.4318 62.0301 51.3941 62.7722 52.6524C63.5351 53.8887 63.9415 55.3385 63.9915 57.0017C64.0415 58.665 63.7233 60.1472 63.0367 61.4484C62.3709 62.7277 61.4305 63.7484 60.2155 64.5106C58.9999 65.2515 57.6137 65.6453 56.0571 65.6921ZM55.9446 61.9498C56.6696 61.928 57.3042 61.7382 57.8483 61.3803C58.4138 61.0218 58.8459 60.4859 59.1446 59.7726C59.4646 59.0587 59.6089 58.1793 59.5775 57.1344C59.5461 56.0896 59.3495 55.2311 58.9878 54.559C58.6468 53.8649 58.1833 53.356 57.5973 53.0321C57.032 52.6863 56.3975 52.5239 55.6938 52.5451C55.0115 52.5656 54.3879 52.7658 53.823 53.1456C53.2575 53.5041 52.8148 54.0403 52.4948 54.7542C52.1954 55.4462 52.0615 56.3146 52.0929 57.3595C52.1243 58.4044 52.3105 59.2738 52.6515 59.9679C53.0139 60.6613 53.4774 61.1703 54.042 61.4948C54.628 61.8186 55.2622 61.9703 55.9446 61.9498ZM72.0611 65.2109C70.7604 65.25 69.6329 65.0171 68.6786 64.5122C67.745 63.9854 67.0173 63.2069 66.4954 62.1768C65.9729 61.1254 65.6883 59.8213 65.6415 58.2647L65.3597 48.8929L69.6777 48.7631L69.946 57.6871C69.9852 58.9878 70.2812 59.9607 70.8342 60.6057C71.4085 61.2501 72.2607 61.5553 73.3908 61.5213C74.1158 61.4995 74.7507 61.3203 75.2955 60.9838C75.8397 60.6259 76.2624 60.133 76.5637 59.505C76.8856 58.855 77.0328 58.0716 77.0052 57.1547L76.7465 48.5506L81.0326 48.4217L81.5173 64.5424L77.743 64.6559L77.3123 62.0436C76.8708 62.9747 76.1999 63.7312 75.2996 64.3132C74.3987 64.8738 73.3192 65.1731 72.0611 65.2109ZM96.0363 64.49C94.565 64.5343 93.2785 64.3382 92.1769 63.9017C91.0753 63.4653 90.2027 62.8406 89.5594 62.0276C88.916 61.2145 88.5359 60.2869 88.4192 59.2446L92.7053 59.1157C92.8241 59.5176 93.0165 59.8854 93.2827 60.2188C93.5482 60.531 93.8971 60.7766 94.3293 60.9557C94.7615 61.1348 95.2762 61.2154 95.8733 61.1974C96.449 61.1801 96.9159 61.0914 97.2739 60.9312C97.6313 60.7497 97.8911 60.5178 98.0533 60.2355C98.2369 59.9525 98.3242 59.6617 98.3152 59.3632C98.3018 58.9154 98.1636 58.5781 97.9006 58.3512C97.6371 58.103 97.2578 57.9117 96.7629 57.7771C96.2679 57.6426 95.6664 57.5113 94.9582 57.3832C94.1861 57.257 93.4236 57.0985 92.6709 56.9077C91.9388 56.695 91.2798 56.4267 90.6938 56.1028C90.1078 55.7789 89.6362 55.3556 89.279 54.8327C88.9218 54.3099 88.7313 53.654 88.7076 52.865C88.6787 51.9055 88.909 51.0448 89.3983 50.2831C89.887 49.5001 90.6151 48.8699 91.5825 48.3926C92.5499 47.9153 93.7266 47.6558 95.1127 47.6141C97.0531 47.5558 98.6016 47.9468 99.758 48.7871C100.914 49.6274 101.622 50.8119 101.882 52.3408L97.8196 52.463C97.6769 51.9764 97.3775 51.6012 96.9214 51.3375C96.4859 51.0518 95.9057 50.9198 95.1807 50.9416C94.4131 50.9647 93.8308 51.1209 93.434 51.4103C93.0372 51.6997 92.8455 52.0683 92.859 52.5161C92.868 52.8146 93.0039 53.0773 93.2669 53.3042C93.5511 53.5304 93.941 53.7215 94.4366 53.8773C94.9315 54.0118 95.5331 54.1431 96.2413 54.2712C97.4857 54.4899 98.5822 54.7558 99.5307 55.0687C100.479 55.3604 101.228 55.8074 101.78 56.4097C102.331 56.9908 102.624 57.857 102.659 59.0085C102.689 60.032 102.44 60.9573 101.91 61.7843C101.379 62.5899 100.609 63.232 99.5985 63.7106C98.6097 64.1885 97.4223 64.4483 96.0363 64.49ZM112.292 64.0012C110.672 64.05 109.222 63.7521 107.943 63.1075C106.685 62.441 105.686 61.5 104.945 60.2844C104.225 59.0468 103.84 57.607 103.791 55.9651C103.74 54.2805 104.037 52.7883 104.681 51.4883C105.345 50.1664 106.285 49.1244 107.5 48.3622C108.714 47.5787 110.142 47.1622 111.784 47.1129C113.384 47.0648 114.791 47.3746 116.006 48.0424C117.222 48.7102 118.178 49.6312 118.875 50.8054C119.572 51.9797 119.943 53.3238 119.988 54.8378C119.995 55.051 120.002 55.2962 120.01 55.5735C120.018 55.8293 120.005 56.0965 119.97 56.375L106.888 56.7684L106.81 54.1456L115.606 53.8811C115.51 52.8381 115.112 52.0284 114.412 51.4519C113.733 50.8747 112.892 50.6011 111.89 50.6313C111.165 50.6531 110.499 50.8439 109.89 51.2036C109.282 51.5421 108.806 52.0579 108.464 52.7512C108.144 53.4438 107.999 54.3125 108.03 55.3574L108.058 56.285C108.085 57.1593 108.268 57.9221 108.607 58.5735C108.968 59.203 109.452 59.69 110.06 60.0345C110.667 60.3578 111.365 60.5075 112.154 60.4838C112.943 60.4601 113.589 60.2699 114.09 59.9133C114.613 59.5561 114.994 59.1071 115.234 58.5664L119.648 58.4336C119.38 59.4448 118.906 60.3661 118.227 61.1976C117.547 62.0291 116.703 62.6947 115.693 63.1946C114.684 63.6945 113.55 63.9634 112.292 64.0012ZM121.862 63.3293L121.378 47.2086L125.184 47.0941L125.583 49.7073C126.046 48.797 126.717 48.0511 127.596 47.4698C128.497 46.8878 129.576 46.5779 130.834 46.5401C132.177 46.4997 133.316 46.7429 134.249 47.2698C135.183 47.7966 135.9 48.5861 136.401 49.6381C136.924 50.6896 137.209 51.9936 137.255 53.5503L137.535 62.858L133.249 62.9869L132.982 54.0949C132.943 52.8155 132.637 51.843 132.062 51.1773C131.508 50.5109 130.666 50.1948 129.536 50.2288C128.811 50.2506 128.166 50.4407 127.6 50.7992C127.056 51.157 126.634 51.6606 126.333 52.31C126.032 52.938 125.895 53.6998 125.922 54.5954L126.18 63.1995L121.862 63.3293ZM146.945 62.5751C145.815 62.6091 144.818 62.4683 143.955 62.1528C143.112 61.8153 142.444 61.2484 141.951 60.4522C141.457 59.6347 141.188 58.5116 141.145 57.0829L140.939 50.238L138.189 50.3207L138.08 46.7064L140.831 46.6237L141.179 42.2272L145.017 42.1118L145.149 46.4938L149.403 46.3659L149.512 49.9803L145.258 50.1082L145.465 57.0171C145.487 57.7421 145.662 58.2384 145.99 58.506C146.318 58.7736 146.866 58.8958 147.634 58.8727L149.745 58.8093L149.856 62.4876L146.945 62.5751Z" fill="black"/>
<path d="M41.1546 99.1551C38.8943 99.2231 37.1491 98.678 35.9191 97.5197C34.6884 96.3402 34.0375 94.5669 33.9663 92.2L33.8355 87.85C35.8186 87.7904 37.395 87.6896 38.5646 87.5477C39.7335 87.3845 40.5904 87.1346 41.1352 86.7981C41.7007 86.4396 42.0581 85.906 42.2076 85.1972C42.3783 84.4877 42.4461 83.5466 42.4108 82.3738L42.2752 77.8638L46.3374 77.7417L46.4701 82.1557C46.5118 83.5417 46.399 84.7617 46.1319 85.8155C45.8642 86.848 45.3994 87.7157 44.7375 88.4186C44.0964 89.0995 43.2158 89.6275 42.0959 90.0027C40.9754 90.3565 39.5942 90.5581 37.9522 90.6075L38.0109 92.5586C38.0411 93.5608 38.279 94.3754 38.7247 95.0023C39.1697 95.6078 39.9254 95.8946 40.9916 95.8625C42.0151 95.8318 42.7311 95.5114 43.1396 94.9015C43.5482 94.2916 43.7367 93.4643 43.7053 92.4194L47.6715 92.3002C47.6923 94.4125 47.1553 96.072 46.0604 97.2788C44.9649 98.4643 43.3296 99.0897 41.1546 99.1551ZM32.7875 84.9362L32.7048 82.1854L49.817 81.6709L49.8997 84.4216L32.7875 84.9362ZM32.6269 79.5946L32.5374 76.6199L49.6497 76.1054L49.7391 79.08L32.6269 79.5946ZM51.162 98.47L51.0668 95.3035C52.3988 94.1749 53.6882 93.0477 54.9349 91.9217C56.203 90.7951 57.3327 89.6833 58.3242 88.5863C59.315 87.468 60.0936 86.3881 60.6599 85.3467C61.2262 84.3052 61.4949 83.3046 61.466 82.3451C61.4481 81.748 61.3251 81.2075 61.0971 80.7234C60.8685 80.2181 60.5152 79.8232 60.0371 79.5388C59.5796 79.2324 58.9778 79.0904 58.2314 79.1128C57.4851 79.1353 56.8612 79.3248 56.3597 79.6813C55.8582 80.0379 55.4881 80.5079 55.2496 81.0913C55.0103 81.6534 54.9013 82.2863 54.9225 82.99L50.7324 83.116C50.747 81.4722 51.0788 80.0856 51.7278 78.9562C52.3768 77.8269 53.2691 76.9783 54.4045 76.4106C55.5393 75.8216 56.8211 75.5056 58.2497 75.4626C59.8277 75.4152 61.1694 75.6736 62.2749 76.238C63.3797 76.781 64.2244 77.5453 64.8089 78.5309C65.4148 79.5158 65.7373 80.6586 65.7764 81.9594C65.8059 82.9402 65.6535 83.9053 65.3192 84.8544C65.0062 85.8029 64.5434 86.7346 63.9306 87.6494C63.3385 88.5423 62.6601 89.4057 61.8955 90.2397C61.1309 91.0738 60.3333 91.8768 59.5028 92.6487C58.6717 93.3994 57.8606 94.1067 57.0695 94.7708L66.6972 94.4813L66.803 97.9997L51.162 98.47ZM77.2495 98.0698C75.2238 98.1307 73.4605 97.6929 71.9597 96.7562C70.4588 95.8196 69.288 94.4995 68.447 92.796C67.6268 91.0705 67.1824 89.067 67.1138 86.7853C67.0452 84.5037 67.3688 82.4877 68.0845 80.7374C68.8209 78.9652 69.8993 77.5668 71.3199 76.5423C72.7617 75.5172 74.5062 74.9738 76.5532 74.9123C78.6003 74.8507 80.3636 75.2886 81.8431 76.2259C83.3439 77.1625 84.5045 78.4936 85.3247 80.219C86.1656 81.9225 86.6203 83.9151 86.689 86.1967C86.7576 88.4784 86.4237 90.5053 85.6873 92.2776C84.9715 94.0279 83.8928 95.4156 82.4509 96.4407C81.0304 97.4652 79.2966 98.0083 77.2495 98.0698ZM77.1332 94.1996C78.1993 94.1675 79.1283 93.8301 79.92 93.1873C80.7111 92.5233 81.3132 91.6088 81.7264 90.4438C82.1609 89.2782 82.3544 87.9065 82.3069 86.3285C82.2588 84.7292 81.9833 83.3716 81.4801 82.2555C80.9977 81.1175 80.3421 80.2515 79.5132 79.6575C78.6843 79.0634 77.7367 78.7825 76.6706 78.8145C75.6044 78.8466 74.6754 79.184 73.8837 79.8267C73.092 80.4695 72.4789 81.3736 72.0444 82.5392C71.6306 83.6829 71.4477 85.0543 71.4958 86.6536C71.5433 88.2315 71.8082 89.5895 72.2906 90.7275C72.7944 91.8649 73.461 92.7413 74.2905 93.3566C75.1194 93.9506 76.067 94.2316 77.1332 94.1996ZM97.8515 97.4503C95.8257 97.5113 94.0624 97.0734 92.5616 96.1367C91.0608 95.2001 89.8899 93.88 89.049 92.1765C88.2288 90.4511 87.7843 88.4475 87.7157 86.1659C87.6471 83.8842 87.9707 81.8683 88.6864 80.118C89.4228 78.3457 90.5013 76.9473 91.9218 75.9228C93.3636 74.8977 95.1081 74.3544 97.1552 74.2928C99.2022 74.2313 100.966 74.6691 102.445 75.6064C103.946 76.5431 105.106 77.8741 105.927 79.5996C106.768 81.3031 107.222 83.2957 107.291 85.5773C107.359 87.8589 107.026 89.8859 106.289 91.6581C105.573 93.4084 104.495 94.7962 103.053 95.8213C101.632 96.8458 99.8985 97.3888 97.8515 97.4503ZM97.7351 93.5801C98.8013 93.548 99.7302 93.2106 100.522 92.5679C101.313 91.9038 101.915 90.9893 102.328 89.8244C102.763 88.6588 102.956 87.287 102.909 85.709C102.861 84.1098 102.585 82.7521 102.082 81.6361C101.6 80.498 100.944 79.632 100.115 79.038C99.2862 78.444 98.3387 78.163 97.2725 78.1951C96.2063 78.2271 95.2774 78.5645 94.4857 79.2073C93.694 79.85 93.0809 80.7542 92.6464 81.9198C92.2325 83.0634 92.0497 84.4348 92.0978 86.0341C92.1452 87.6121 92.4101 88.9701 92.8926 90.1081C93.3963 91.2454 94.0629 92.1218 94.8925 92.7372C95.7214 93.3312 96.6689 93.6122 97.7351 93.5801Z" fill="#737373"/>
<path d="M37.0185 171.181L36.3453 148.791L40.6633 148.661L40.9297 157.521L48.7556 148.418L54.0652 148.258L46.1114 157.365L54.9944 170.64L49.7167 170.799L43.1097 160.817L41.098 163.119L41.3365 171.051L37.0185 171.181ZM60.1935 170.868C58.8502 170.909 57.7349 170.729 56.8478 170.329C55.9601 169.907 55.2921 169.34 54.8438 168.628C54.4162 167.894 54.189 167.079 54.162 166.183C54.1325 165.203 54.3518 164.332 54.8198 163.571C55.3091 162.809 56.0485 162.2 57.0379 161.743C58.0486 161.286 59.3216 161.034 60.8569 160.988L64.8551 160.868C64.8314 160.079 64.7052 159.432 64.4766 158.926C64.2473 158.4 63.9049 158.015 63.4494 157.773C62.9939 157.53 62.393 157.42 61.6467 157.443C60.8364 157.467 60.1488 157.669 59.584 158.049C59.0398 158.407 58.7147 158.95 58.6085 159.679L54.4184 159.805C54.4904 158.65 54.8338 157.647 55.4485 156.797C56.0839 155.924 56.9276 155.237 57.9797 154.736C59.0531 154.234 60.2508 153.963 61.5729 153.923C63.0869 153.878 64.406 154.094 65.5302 154.573C66.6544 155.051 67.5295 155.761 68.1554 156.703C68.7813 157.644 69.1154 158.819 69.1577 160.226L69.4578 170.206L65.8115 170.315L65.2576 167.867C65.0359 168.3 64.7702 168.692 64.4606 169.043C64.151 169.394 63.7868 169.704 63.3681 169.972C62.9493 170.241 62.4753 170.448 61.946 170.592C61.4174 170.757 60.8333 170.849 60.1935 170.868ZM61.1171 167.511C61.6715 167.494 62.159 167.384 62.5797 167.179C63.0211 166.952 63.3966 166.663 63.7062 166.313C64.0152 165.941 64.2482 165.528 64.4053 165.075C64.5831 164.6 64.696 164.095 64.744 163.56L64.743 163.528L61.4485 163.627C60.7875 163.647 60.2463 163.749 59.8249 163.932C59.4243 164.094 59.1325 164.327 58.9495 164.631C58.7666 164.935 58.6809 165.279 58.6924 165.663C58.7053 166.09 58.8118 166.439 59.012 166.71C59.2123 166.981 59.4959 167.186 59.8629 167.325C60.2299 167.463 60.6479 167.525 61.1171 167.511ZM71.5669 170.142L71.0821 154.021L74.9204 153.906L75.4257 156.868C75.7883 156.153 76.2502 155.541 76.8112 155.034C77.3935 154.525 78.0536 154.121 78.7916 153.822C79.5509 153.521 80.3891 153.357 81.306 153.33L81.4435 157.904L79.9722 157.948C79.3325 157.967 78.7376 158.06 78.1877 158.226C77.6591 158.391 77.1974 158.65 76.8025 159.004C76.4069 159.336 76.1112 159.793 75.9153 160.375C75.7194 160.957 75.6345 161.685 75.6608 162.56L75.8849 170.012L71.5669 170.142ZM88.1846 170.027C86.8413 170.067 85.726 169.887 84.8389 169.487C83.9512 169.065 83.2832 168.499 82.8349 167.786C82.4073 167.052 82.1801 166.237 82.1531 165.342C82.1236 164.361 82.3429 163.49 82.8109 162.729C83.3002 161.967 84.0396 161.358 85.029 160.901C86.0397 160.444 87.3127 160.192 88.848 160.146L92.8462 160.026C92.8225 159.237 92.6963 158.59 92.4677 158.085C92.2384 157.558 91.896 157.173 91.4405 156.931C90.985 156.688 90.3841 156.578 89.6378 156.601C88.8275 156.625 88.1399 156.827 87.5751 157.207C87.0309 157.565 86.7058 158.108 86.5996 158.837L82.4095 158.963C82.4815 157.809 82.8249 156.806 83.4396 155.955C84.075 155.082 84.9187 154.395 85.9708 153.894C87.0442 153.392 88.2419 153.121 89.564 153.082C91.078 153.036 92.3971 153.252 93.5213 153.731C94.6455 154.209 95.5206 154.919 96.1465 155.861C96.7724 156.803 97.1065 157.977 97.1489 159.384L97.4489 169.364L93.8026 169.474L93.2487 167.025C93.027 167.459 92.7613 167.851 92.4517 168.202C92.1421 168.552 91.7779 168.862 91.3592 169.131C90.9404 169.4 90.4664 169.606 89.9371 169.75C89.4085 169.915 88.8244 170.007 88.1846 170.027ZM89.1082 166.669C89.6626 166.653 90.1501 166.542 90.5708 166.337C91.0122 166.111 91.3877 165.822 91.6973 165.471C92.0063 165.099 92.2393 164.686 92.3964 164.233C92.5742 163.759 92.6871 163.254 92.7351 162.719L92.7341 162.687L89.4396 162.786C88.7786 162.806 88.2374 162.907 87.816 163.091C87.4154 163.252 87.1236 163.485 86.9406 163.789C86.7577 164.094 86.672 164.438 86.6835 164.821C86.6964 165.248 86.8029 165.597 87.0031 165.868C87.2034 166.14 87.487 166.345 87.854 166.483C88.221 166.621 88.639 166.684 89.1082 166.669ZM99.558 169.301L99.0732 153.18L102.88 153.065L103.278 155.679C103.742 154.768 104.413 154.022 105.292 153.441C106.192 152.859 107.271 152.549 108.529 152.511C109.873 152.471 111.011 152.714 111.945 153.241C112.878 153.768 113.596 154.557 114.097 155.609C114.62 156.661 114.904 157.965 114.951 159.521L115.231 168.829L110.945 168.958L110.677 160.066C110.639 158.787 110.332 157.814 109.757 157.148C109.204 156.482 108.362 156.166 107.232 156.2C106.507 156.222 105.861 156.412 105.296 156.77C104.752 157.128 104.329 157.632 104.029 158.281C103.728 158.909 103.59 159.671 103.617 160.567L103.876 169.171L99.558 169.301ZM121.581 168.638L129.096 146.002L133.99 145.855L142.82 168L138.246 168.137L131.675 150.855L126.123 168.502L121.581 168.638ZM125.043 163.444L126.093 160.051L137.48 159.708L138.701 163.033L125.043 163.444ZM149.49 168.183C148.19 168.222 147.062 167.99 146.108 167.485C145.174 166.958 144.447 166.179 143.925 165.149C143.402 164.098 143.118 162.794 143.071 161.237L142.789 151.865L147.107 151.736L147.375 160.659C147.414 161.96 147.711 162.933 148.263 163.578C148.838 164.222 149.69 164.528 150.82 164.494C151.545 164.472 152.18 164.293 152.725 163.956C153.269 163.598 153.692 163.105 153.993 162.477C154.315 161.827 154.462 161.044 154.435 160.127L154.176 151.523L158.462 151.394L158.947 167.515L155.172 167.628L154.742 165.016C154.3 165.947 153.629 166.704 152.729 167.286C151.828 167.846 150.749 168.145 149.49 168.183ZM158.429 174.574L158.319 170.895L159.63 170.856C160.312 170.835 160.788 170.682 161.057 170.397C161.347 170.111 161.483 169.658 161.464 169.04L160.932 151.32L165.25 151.19L165.781 168.878C165.821 170.2 165.618 171.263 165.173 172.066C164.75 172.89 164.127 173.495 163.307 173.883C162.486 174.27 161.511 174.481 160.38 174.515L158.429 174.574ZM163.04 149.047C162.251 149.071 161.605 148.867 161.101 148.433C160.596 147.979 160.333 147.4 160.312 146.696C160.291 145.993 160.519 145.41 160.996 144.947C161.472 144.463 162.105 144.209 162.894 144.186C163.683 144.162 164.33 144.377 164.834 144.832C165.338 145.265 165.601 145.833 165.622 146.537C165.643 147.24 165.415 147.834 164.939 148.318C164.462 148.781 163.829 149.024 163.04 149.047ZM168.114 167.239L167.422 144.21L171.74 144.08L172.433 167.109L168.114 167.239ZM180.172 167.261C178.828 167.301 177.713 167.121 176.826 166.721C175.938 166.3 175.27 165.733 174.822 165.021C174.394 164.286 174.167 163.472 174.14 162.576C174.111 161.595 174.33 160.724 174.798 159.963C175.287 159.201 176.027 158.592 177.016 158.136C178.027 157.678 179.3 157.427 180.835 157.38L184.833 157.26C184.81 156.471 184.683 155.824 184.455 155.319C184.226 154.792 183.883 154.407 183.428 154.165C182.972 153.923 182.371 153.813 181.625 153.835C180.815 153.859 180.127 154.062 179.562 154.441C179.018 154.799 178.693 155.343 178.587 156.071L174.397 156.197C174.469 155.043 174.812 154.04 175.427 153.189C176.062 152.316 176.906 151.629 177.958 151.128C179.031 150.626 180.229 150.355 181.551 150.316C183.065 150.27 184.384 150.487 185.508 150.965C186.633 151.443 187.508 152.153 188.134 153.095C188.76 154.037 189.094 155.211 189.136 156.619L189.436 166.598L185.79 166.708L185.236 164.259C185.014 164.693 184.748 165.085 184.439 165.436C184.129 165.787 183.765 166.096 183.346 166.365C182.928 166.634 182.454 166.84 181.924 166.984C181.396 167.149 180.812 167.242 180.172 167.261ZM181.095 163.904C181.65 163.887 182.137 163.776 182.558 163.571C182.999 163.345 183.375 163.056 183.684 162.705C183.993 162.333 184.226 161.921 184.384 161.468C184.561 160.993 184.674 160.488 184.722 159.953L184.721 159.921L181.427 160.02C180.766 160.04 180.225 160.141 179.803 160.325C179.403 160.486 179.111 160.719 178.928 161.023C178.745 161.328 178.659 161.672 178.671 162.056C178.684 162.482 178.79 162.831 178.99 163.102C179.191 163.374 179.474 163.579 179.841 163.717C180.208 163.855 180.626 163.918 181.095 163.904Z" fill="black"/>
<circle cx="193.5" cy="58.5" r="28.5" fill="#69524A"/>
<path d="M182.656 67V52.5909H177.658V49.9333H190.897V52.5909H185.923V67H182.656ZM199.071 67.2926C197.413 67.2926 195.95 66.9187 194.682 66.171C193.414 65.4234 192.423 64.3912 191.708 63.0747C190.992 61.7418 190.635 60.2058 190.635 58.4667C190.635 56.7275 190.992 55.1996 191.708 53.883C192.423 52.5502 193.414 51.51 194.682 50.7623C195.95 50.0146 197.413 49.6408 199.071 49.6408C200.745 49.6408 202.216 50.0146 203.484 50.7623C204.751 51.51 205.735 52.5502 206.434 53.883C207.149 55.1996 207.506 56.7275 207.506 58.4667C207.506 60.2058 207.149 61.7418 206.434 63.0747C205.735 64.3912 204.751 65.4234 203.484 66.171C202.216 66.9187 200.745 67.2926 199.071 67.2926ZM199.071 64.3425C200.111 64.3425 201.005 64.1068 201.753 63.6354C202.517 63.1478 203.11 62.4651 203.532 61.5874C203.955 60.7097 204.166 59.6695 204.166 58.4667C204.166 57.2476 203.955 56.2074 203.532 55.3459C203.11 54.4682 202.517 53.7937 201.753 53.3223C201.005 52.8509 200.111 52.6152 199.071 52.6152C198.047 52.6152 197.153 52.8509 196.389 53.3223C195.625 53.7937 195.032 54.4682 194.609 55.3459C194.186 56.2074 193.975 57.2476 193.975 58.4667C193.975 59.6695 194.186 60.7097 194.609 61.5874C195.032 62.4651 195.625 63.1478 196.389 63.6354C197.153 64.1068 198.047 64.3425 199.071 64.3425Z" fill="white"/>
<rect width="186.187" height="31.4887" rx="15.7443" transform="matrix(0.999908 -0.0135633 -0.0297661 0.999557 35.9373 183.525)" fill="#BEBEBE"/>
<rect width="137.138" height="31.4887" rx="15.7443" transform="matrix(0.999908 -0.0135633 -0.0297661 0.999557 35.9373 183.525)" fill="#E879AF"/>
</svg>
