<svg width="311" height="311" viewBox="0 0 311 311" fill="none" xmlns="http://www.w3.org/2000/svg">
<g clip-path="url(#clip0_145_238)">
<rect x="70.0431" width="250" height="250" rx="47" transform="rotate(16.2705 70.0431 0)" fill="#FFDADA"/>
<path d="M297.64 100.802L287.113 101.851L283.067 61.2477C278.235 12.7495 239.488 -21.7384 189.486 -16.7566C139.484 -11.7747 109.131 30.3573 113.888 78.1036L117.896 118.331C117.933 118.707 117.933 118.707 117.896 118.331L107.369 119.38C84.0597 121.702 67.1348 142.373 69.1186 166.095L81.7793 293.168C84.1016 316.477 104.772 333.402 128.495 331.418L318.728 312.465C342.037 310.142 358.962 289.472 356.978 265.749L344.318 138.676C341.995 115.367 320.949 98.4797 297.64 100.802ZM138.987 116.609L134.941 76.006C131.345 39.9143 153.237 8.11758 191.584 4.29692C229.556 0.51372 258.343 26.5017 262.014 63.3453L266.022 103.573C266.059 103.949 266.059 103.949 266.022 103.573L138.949 116.233C138.987 116.609 138.987 116.609 138.987 116.609ZM335.549 267.884C336.71 279.539 328.248 289.874 316.593 291.035L126.36 309.989C114.705 311.15 104.37 302.688 103.209 291.033L90.5481 163.96C89.3869 152.306 97.8494 141.97 109.504 140.809L299.737 121.856C311.392 120.694 321.727 129.157 322.888 140.811L335.549 267.884ZM232.004 192.771C232.791 200.666 229.33 207.845 223.313 212.242L226.759 246.83C227.358 252.845 222.921 257.843 217.281 258.405C211.266 259.004 206.268 254.567 205.706 248.927L202.26 214.339C195.494 211.217 190.684 204.861 189.897 196.966C188.736 185.312 197.199 174.976 208.853 173.815C220.47 172.278 230.806 180.741 232.004 192.771Z" fill="black" fill-opacity="0.1"/>
<path d="M103.695 110.511C101.329 109.821 99.3182 108.717 97.6608 107.2C96.0035 105.683 94.8845 103.806 94.3038 101.57C93.723 99.3338 93.863 96.7412 94.7237 93.7922L100.506 73.9788L106.727 75.7943L100.931 95.6538C100.465 97.2511 100.331 98.679 100.531 99.9372C100.739 101.165 101.259 102.183 102.089 102.992C102.95 103.81 104.072 104.421 105.455 104.825C106.868 105.237 108.142 105.325 109.277 105.09C110.443 104.864 111.444 104.289 112.28 103.367C113.125 102.413 113.781 101.138 114.247 99.5403L120.043 79.6809L126.264 81.4964L120.481 101.31C119.62 104.259 118.328 106.515 116.605 108.079C114.882 109.643 112.883 110.61 110.609 110.979C108.365 111.358 106.06 111.202 103.695 110.511ZM120.01 114.673L126.788 91.4498L132.271 93.0501L131.629 96.963C132.712 95.879 134.015 95.1259 135.538 94.7038C137.092 94.2907 138.775 94.3486 140.588 94.8775C142.523 95.4423 144.035 96.3169 145.122 97.5011C146.21 98.6853 146.868 100.144 147.095 101.877C147.354 103.619 147.156 105.612 146.501 107.854L142.588 121.263L136.413 119.46L140.152 106.651C140.69 104.808 140.703 103.278 140.191 102.062C139.71 100.855 138.655 100.014 137.027 99.5386C135.983 99.2338 134.974 99.2061 134.001 99.4555C133.059 99.7139 132.223 100.237 131.494 101.024C130.773 101.78 130.224 102.803 129.848 104.094L126.23 116.488L120.01 114.673ZM145.683 122.166L155.366 88.9902L161.587 90.8057L151.904 123.982L145.683 122.166ZM166.008 128.698C163.797 128.053 161.948 126.963 160.462 125.429C159.016 123.874 158.035 122.037 157.52 119.92C157.044 117.781 157.151 115.529 157.841 113.164C158.55 110.737 159.675 108.765 161.218 107.249C162.8 105.711 164.63 104.695 166.708 104.201C168.794 103.677 170.943 103.737 173.155 104.383C175.397 105.037 177.242 106.142 178.688 107.698C180.174 109.231 181.154 111.068 181.63 113.207C182.146 115.324 182.054 117.58 181.354 119.976C180.655 122.372 179.514 124.34 177.932 125.878C176.389 127.394 174.575 128.415 172.488 128.939C170.411 129.433 168.251 129.353 166.008 128.698ZM167.582 123.307C168.626 123.612 169.619 123.635 170.562 123.377C171.534 123.127 172.399 122.563 173.156 121.684C173.943 120.813 174.556 119.626 174.996 118.121C175.435 116.615 175.552 115.3 175.348 114.173C175.183 113.025 174.757 112.084 174.072 111.35C173.425 110.595 172.595 110.07 171.582 109.774C170.599 109.487 169.616 109.483 168.634 109.764C167.662 110.013 166.781 110.573 165.994 111.443C165.246 112.292 164.653 113.468 164.214 114.974C163.774 116.479 163.637 117.806 163.802 118.954C163.998 120.111 164.423 121.052 165.078 121.776C165.764 122.51 166.599 123.02 167.582 123.307ZM191.644 136.18C189.309 135.499 187.388 134.371 185.88 132.798C184.373 131.225 183.377 129.384 182.892 127.275C182.407 125.167 182.505 122.946 183.187 120.611C183.886 118.215 185.007 116.259 186.55 114.742C188.101 113.195 189.936 112.164 192.053 111.648C194.179 111.102 196.41 111.17 198.744 111.851C201.724 112.721 203.999 114.235 205.569 116.393C207.139 118.552 207.802 121.078 207.557 123.974L200.968 122.051C201.005 120.895 200.668 119.88 199.956 119.005C199.276 118.14 198.336 117.532 197.138 117.183C196.063 116.869 195.015 116.863 193.993 117.165C193.011 117.445 192.122 118.036 191.326 118.937C190.569 119.816 189.985 120.962 189.572 122.375C189.259 123.45 189.114 124.458 189.14 125.399C189.174 126.309 189.348 127.143 189.66 127.901C189.981 128.628 190.435 129.244 191.021 129.748C191.638 130.261 192.345 130.635 193.144 130.868C193.943 131.101 194.705 131.173 195.431 131.085C196.187 131.006 196.868 130.788 197.472 130.431C198.085 130.043 198.591 129.507 198.991 128.824L205.58 130.747C204.247 133.258 202.318 135.012 199.794 136.009C197.309 136.984 194.593 137.041 191.644 136.18ZM220.992 144.146L214.797 128.537L226.756 120.627L234.082 122.765L218.776 132.548L220.215 127.618L228.733 146.405L220.992 144.146ZM205.786 139.708L215.469 106.532L221.689 108.347L212.006 141.523L205.786 139.708ZM87.9315 127.187C87.2531 126.989 86.6878 126.713 86.2356 126.358C85.8 125.995 85.5123 125.529 85.3727 124.961C85.2368 124.379 85.294 123.66 85.5443 122.802L86.7434 118.694L85.0923 118.212L85.7255 116.042L87.3766 116.524L88.4322 113.978L90.7361 114.65L89.9685 117.281L92.5219 118.026L91.8887 120.195L89.3353 119.45L88.1249 123.597C87.9979 124.032 88.0061 124.361 88.1495 124.583C88.293 124.806 88.5951 124.984 89.0559 125.119L90.323 125.489L89.6786 127.697L87.9315 127.187ZM90.7272 128.003L94.7617 114.179L97.3535 114.936L95.7229 120.523C96.1923 120.104 96.7324 119.824 97.3431 119.683C97.9703 119.533 98.6359 119.56 99.3399 119.766C100.146 120.001 100.774 120.372 101.224 120.878C101.677 121.372 101.951 121.979 102.046 122.701C102.141 123.424 102.05 124.258 101.773 125.205L100.154 130.754L97.5812 130.003L99.1334 124.685C99.3575 123.917 99.3694 123.281 99.1689 122.779C98.9722 122.263 98.5283 121.904 97.8371 121.702C97.4147 121.579 97.0009 121.569 96.5955 121.673C96.1902 121.777 95.8272 121.998 95.5066 122.335C95.2025 122.663 94.9721 123.095 94.8152 123.633L93.319 128.759L90.7272 128.003ZM101.501 131.147L104.325 121.471L106.917 122.227L104.093 131.904L101.501 131.147ZM106.017 120.527C105.557 120.393 105.212 120.146 104.983 119.788C104.771 119.42 104.726 119.025 104.85 118.603C104.973 118.18 105.221 117.878 105.594 117.695C105.983 117.503 106.408 117.474 106.869 117.609C107.343 117.747 107.685 118 107.898 118.367C108.126 118.726 108.179 119.116 108.056 119.539C107.933 119.961 107.676 120.268 107.287 120.46C106.914 120.643 106.491 120.665 106.017 120.527ZM109.448 133.716C108.565 133.459 107.838 133.094 107.267 132.622C106.696 132.15 106.298 131.61 106.073 131.002C105.847 130.395 105.801 129.77 105.932 129.128L108.505 129.879C108.498 130.141 108.542 130.396 108.635 130.646C108.733 130.883 108.893 131.096 109.115 131.286C109.338 131.476 109.628 131.623 109.986 131.728C110.332 131.829 110.627 131.866 110.87 131.84C111.118 131.801 111.317 131.713 111.468 131.577C111.632 131.444 111.74 131.288 111.792 131.109C111.871 130.84 111.854 130.613 111.741 130.427C111.632 130.229 111.444 130.042 111.176 129.866C110.907 129.691 110.575 129.497 110.179 129.284C109.744 129.06 109.322 128.818 108.911 128.56C108.517 128.292 108.177 128.005 107.891 127.699C107.605 127.394 107.407 127.051 107.295 126.671C107.184 126.291 107.197 125.865 107.336 125.391C107.504 124.815 107.807 124.348 108.245 123.99C108.686 123.619 109.241 123.385 109.908 123.288C110.575 123.191 111.325 123.264 112.157 123.506C113.321 123.846 114.166 124.378 114.692 125.101C115.217 125.823 115.409 126.664 115.268 127.623L112.83 126.911C112.839 126.595 112.733 126.314 112.513 126.069C112.309 125.815 111.99 125.625 111.555 125.498C111.094 125.363 110.718 125.344 110.426 125.439C110.134 125.534 109.949 125.716 109.871 125.985C109.818 126.164 109.848 126.347 109.961 126.532C110.086 126.722 110.281 126.911 110.546 127.099C110.814 127.275 111.146 127.469 111.542 127.682C112.24 128.052 112.84 128.422 113.344 128.791C113.851 129.147 114.21 129.558 114.422 130.022C114.637 130.474 114.644 131.045 114.442 131.737C114.263 132.351 113.936 132.853 113.461 133.242C112.99 133.618 112.408 133.851 111.716 133.941C111.036 134.034 110.28 133.959 109.448 133.716ZM122.61 137.558C121.637 137.274 120.837 136.804 120.209 136.149C119.581 135.493 119.166 134.726 118.964 133.848C118.762 132.969 118.803 132.044 119.086 131.071C119.378 130.073 119.845 129.258 120.488 128.626C121.134 127.981 121.899 127.551 122.781 127.336C123.667 127.109 124.596 127.137 125.569 127.421C126.81 127.783 127.758 128.414 128.412 129.313C129.067 130.213 129.343 131.266 129.241 132.472L126.495 131.671C126.511 131.189 126.37 130.766 126.074 130.402C125.79 130.041 125.399 129.788 124.899 129.642C124.452 129.512 124.015 129.509 123.589 129.635C123.18 129.752 122.81 129.998 122.478 130.373C122.162 130.74 121.919 131.217 121.747 131.806C121.616 132.254 121.556 132.674 121.567 133.066C121.581 133.445 121.653 133.792 121.783 134.108C121.917 134.411 122.106 134.668 122.351 134.878C122.608 135.092 122.902 135.247 123.235 135.345C123.568 135.442 123.886 135.472 124.188 135.435C124.503 135.402 124.787 135.311 125.039 135.162C125.294 135.001 125.505 134.778 125.671 134.493L128.417 135.294C127.861 136.341 127.058 137.071 126.006 137.487C124.971 137.893 123.839 137.917 122.61 137.558ZM133.005 140.592C132.083 140.323 131.313 139.869 130.694 139.23C130.091 138.582 129.683 137.817 129.468 136.934C129.27 136.043 129.314 135.105 129.602 134.119C129.897 133.108 130.366 132.287 131.009 131.655C131.668 131.014 132.431 130.59 133.296 130.385C134.166 130.166 135.061 130.191 135.983 130.46C136.917 130.733 137.685 131.193 138.288 131.842C138.907 132.481 139.316 133.246 139.514 134.137C139.729 135.019 139.69 135.959 139.399 136.958C139.108 137.956 138.632 138.776 137.973 139.417C137.33 140.049 136.574 140.474 135.705 140.692C134.839 140.898 133.939 140.865 133.005 140.592ZM133.66 138.346C134.096 138.473 134.509 138.482 134.902 138.375C135.307 138.271 135.668 138.036 135.983 137.669C136.311 137.307 136.567 136.812 136.75 136.185C136.933 135.557 136.982 135.009 136.896 134.54C136.828 134.061 136.65 133.669 136.365 133.364C136.095 133.049 135.749 132.83 135.327 132.707C134.917 132.587 134.508 132.586 134.099 132.702C133.694 132.806 133.327 133.04 132.999 133.402C132.687 133.756 132.44 134.246 132.257 134.873C132.074 135.5 132.017 136.053 132.086 136.532C132.167 137.014 132.344 137.406 132.617 137.708C132.903 138.013 133.251 138.226 133.66 138.346ZM139.069 142.112L141.893 132.435L144.178 133.102L143.91 134.733C144.362 134.281 144.904 133.967 145.539 133.791C146.187 133.619 146.888 133.643 147.643 133.864C148.45 134.099 149.079 134.463 149.533 134.957C149.986 135.45 150.26 136.058 150.355 136.78C150.462 137.506 150.38 138.336 150.107 139.27L148.476 144.857L145.904 144.107L147.462 138.769C147.686 138.001 147.691 137.364 147.478 136.857C147.277 136.354 146.838 136.004 146.16 135.806C145.724 135.679 145.304 135.667 144.899 135.771C144.506 135.879 144.158 136.097 143.854 136.425C143.554 136.74 143.325 137.166 143.168 137.704L141.661 142.868L139.069 142.112ZM154.125 146.506C153.446 146.308 152.881 146.032 152.429 145.678C151.993 145.314 151.705 144.848 151.566 144.28C151.43 143.698 151.487 142.979 151.737 142.121L152.936 138.013L151.285 137.531L151.919 135.361L153.57 135.843L154.625 133.297L156.929 133.97L156.161 136.6L158.715 137.345L158.082 139.515L155.528 138.769L154.318 142.916C154.191 143.351 154.199 143.68 154.343 143.903C154.486 144.125 154.788 144.304 155.249 144.438L156.516 144.808L155.872 147.016L154.125 146.506ZM161.255 148.837C160.283 148.553 159.478 148.096 158.843 147.466C158.224 146.827 157.811 146.075 157.606 145.209C157.416 144.335 157.466 143.404 157.753 142.419C158.048 141.408 158.513 140.578 159.147 139.93C159.797 139.272 160.557 138.834 161.426 138.616C162.299 138.384 163.228 138.412 164.214 138.7C165.174 138.98 165.951 139.436 166.544 140.068C167.138 140.699 167.528 141.431 167.716 142.264C167.903 143.096 167.865 143.967 167.599 144.876C167.562 145.004 167.519 145.151 167.47 145.317C167.426 145.471 167.366 145.627 167.292 145.786L159.44 143.494L159.899 141.92L165.179 143.461C165.323 142.823 165.243 142.264 164.938 141.787C164.646 141.312 164.199 140.987 163.598 140.812C163.162 140.685 162.729 140.67 162.298 140.766C161.871 140.85 161.489 141.065 161.152 141.411C160.828 141.76 160.574 142.249 160.391 142.876L160.228 143.433C160.075 143.958 160.037 144.446 160.113 144.899C160.206 145.343 160.399 145.726 160.694 146.048C160.993 146.358 161.379 146.581 161.853 146.72C162.326 146.858 162.746 146.869 163.113 146.754C163.493 146.643 163.806 146.45 164.053 146.174L166.703 146.948C166.348 147.497 165.889 147.953 165.324 148.316C164.76 148.679 164.13 148.912 163.433 149.014C162.736 149.117 162.011 149.057 161.255 148.837ZM167.074 150.285L169.898 140.609L172.183 141.276L171.915 142.906C172.367 142.454 172.91 142.141 173.544 141.965C174.192 141.793 174.893 141.817 175.648 142.037C176.455 142.273 177.084 142.637 177.538 143.13C177.991 143.624 178.265 144.232 178.36 144.954C178.467 145.68 178.385 146.51 178.112 147.444L176.481 153.031L173.909 152.28L175.467 146.943C175.691 146.175 175.696 145.537 175.483 145.031C175.282 144.528 174.843 144.177 174.165 143.979C173.729 143.852 173.309 143.841 172.904 143.945C172.511 144.052 172.163 144.27 171.859 144.598C171.559 144.913 171.33 145.34 171.173 145.877L169.666 151.042L167.074 150.285ZM182.13 154.679C181.451 154.481 180.886 154.205 180.434 153.851C179.998 153.488 179.71 153.022 179.571 152.453C179.435 151.872 179.492 151.153 179.742 150.295L180.941 146.186L179.29 145.705L179.924 143.535L181.575 144.017L182.63 141.471L184.934 142.143L184.167 144.773L186.72 145.519L186.087 147.688L183.533 146.943L182.323 151.09C182.196 151.525 182.204 151.854 182.348 152.076C182.491 152.299 182.793 152.477 183.254 152.612L184.521 152.981L183.877 155.189L182.13 154.679Z" fill="black"/>
<g clip-path="url(#clip1_145_238)">
<rect x="89.419" y="150.517" width="117" height="57" rx="28.5" transform="rotate(16.7143 89.419 150.517)" fill="#F27D7D"/>
<path d="M110.985 198.115C108.819 197.464 107.336 196.395 106.535 194.907C105.741 193.399 105.684 191.511 106.365 189.243L107.617 185.075C109.517 185.646 111.044 186.049 112.199 186.284C113.359 186.499 114.251 186.533 114.874 186.386C115.524 186.224 116.032 185.831 116.398 185.206C116.784 184.587 117.146 183.716 117.484 182.592L118.781 178.27L122.674 179.439L121.404 183.669C121.005 184.997 120.512 186.118 119.925 187.034C119.345 187.929 118.629 188.605 117.779 189.062C116.956 189.505 115.953 189.728 114.772 189.73C113.597 189.711 112.223 189.465 110.65 188.993L110.089 190.862C109.8 191.823 109.768 192.671 109.993 193.406C110.224 194.122 110.85 194.633 111.871 194.939C112.852 195.234 113.633 195.156 114.213 194.707C114.794 194.258 115.234 193.532 115.535 192.531L119.335 193.672C118.687 195.683 117.653 197.087 116.232 197.886C114.818 198.664 113.069 198.74 110.985 198.115ZM107.544 181.979L108.335 179.344L124.732 184.267L123.941 186.903L107.544 181.979ZM109.081 176.861L109.937 174.011L126.333 178.935L125.478 181.785L109.081 176.861ZM123.913 201.596L128.929 184.893L124.825 184.763L125.819 181.453L132.133 180.676L134.646 181.431L128.204 202.884L123.913 201.596ZM137.756 206.153C136.264 205.706 135.083 205.039 134.213 204.154C133.349 203.249 132.772 202.24 132.482 201.129C132.213 200.023 132.179 198.91 132.382 197.791L136.243 198.95C136.157 199.904 136.327 200.713 136.752 201.375C137.203 202.023 137.899 202.488 138.838 202.77C139.717 203.034 140.55 203.005 141.337 202.685C142.15 202.35 142.897 201.717 143.578 200.785C144.264 199.833 144.861 198.587 145.369 197.046C145.387 196.985 145.405 196.924 145.424 196.862C145.442 196.801 145.457 196.75 145.47 196.709C145.024 197.154 144.458 197.519 143.771 197.803C143.091 198.066 142.367 198.216 141.598 198.253C140.85 198.296 140.088 198.2 139.312 197.967C138.147 197.617 137.13 197 136.259 196.115C135.389 195.23 134.794 194.171 134.473 192.939C134.153 191.707 134.207 190.376 134.637 188.946C135.03 187.638 135.708 186.527 136.673 185.614C137.638 184.701 138.78 184.086 140.1 183.77C141.426 183.433 142.825 183.486 144.296 183.928C145.931 184.418 147.211 185.126 148.136 186.05C149.061 186.973 149.701 188.034 150.054 189.232C150.428 190.435 150.57 191.703 150.482 193.035C150.42 194.353 150.199 195.646 149.819 196.913C149.101 199.303 148.138 201.286 146.93 202.861C145.749 204.422 144.377 205.502 142.816 206.103C141.261 206.683 139.574 206.7 137.756 206.153ZM141.342 194.768C142.077 194.989 142.767 195.029 143.411 194.888C144.075 194.753 144.65 194.469 145.136 194.036C145.649 193.589 146.01 193.018 146.219 192.323C146.434 191.608 146.45 190.923 146.268 190.267C146.107 189.617 145.783 189.063 145.297 188.605C144.817 188.127 144.209 187.777 143.474 187.556C142.759 187.342 142.069 187.302 141.405 187.436C140.741 187.571 140.165 187.855 139.679 188.288C139.213 188.727 138.873 189.304 138.658 190.019C138.443 190.734 138.406 191.414 138.547 192.058C138.714 192.687 139.038 193.241 139.518 193.719C139.998 194.197 140.606 194.547 141.342 194.768ZM155.371 211.443C153.88 210.995 152.699 210.329 151.828 209.444C150.964 208.538 150.387 207.53 150.097 206.418C149.828 205.313 149.795 204.2 149.997 203.08L153.859 204.24C153.773 205.194 153.942 206.002 154.367 206.665C154.818 207.312 155.514 207.777 156.454 208.06C157.332 208.323 158.165 208.295 158.952 207.974C159.765 207.64 160.512 207.006 161.193 206.075C161.88 205.123 162.477 203.876 162.984 202.336C163.002 202.275 163.021 202.213 163.039 202.152C163.058 202.091 163.073 202.04 163.085 201.999C162.64 202.444 162.074 202.809 161.387 203.093C160.706 203.356 159.982 203.506 159.214 203.543C158.466 203.585 157.704 203.49 156.927 203.257C155.763 202.907 154.745 202.29 153.875 201.405C153.005 200.52 152.409 199.461 152.089 198.229C151.768 196.997 151.823 195.665 152.252 194.235C152.645 192.928 153.324 191.817 154.288 190.904C155.253 189.991 156.395 189.376 157.716 189.06C159.042 188.723 160.44 188.775 161.912 189.217C163.546 189.708 164.826 190.415 165.752 191.339C166.677 192.263 167.316 193.324 167.669 194.521C168.043 195.725 168.186 196.993 168.098 198.325C168.036 199.643 167.815 200.935 167.434 202.202C166.717 204.593 165.754 206.576 164.546 208.151C163.364 209.711 161.993 210.792 160.431 211.392C158.876 211.972 157.189 211.989 155.371 211.443ZM158.957 200.057C159.693 200.278 160.382 200.318 161.026 200.178C161.69 200.043 162.265 199.759 162.752 199.326C163.265 198.879 163.626 198.308 163.834 197.613C164.049 196.898 164.065 196.212 163.884 195.556C163.723 194.906 163.399 194.353 162.913 193.895C162.433 193.416 161.825 193.067 161.089 192.846C160.374 192.631 159.684 192.591 159.02 192.726C158.356 192.861 157.781 193.144 157.294 193.578C156.828 194.017 156.488 194.594 156.273 195.309C156.059 196.024 156.022 196.704 156.162 197.347C156.33 197.977 156.654 198.53 157.134 199.009C157.614 199.487 158.222 199.837 158.957 200.057Z" fill="black"/>
</g>
</g>
<rect x="70.7228" y="1.24012" width="248" height="248" rx="46" transform="rotate(16.2705 70.7228 1.24012)" stroke="black" stroke-width="2"/>
<defs>
<clipPath id="clip0_145_238">
<rect x="70.0431" width="250" height="250" rx="47" transform="rotate(16.2705 70.0431 0)" fill="white"/>
</clipPath>
<clipPath id="clip1_145_238">
<rect x="89.419" y="150.517" width="117" height="57" rx="28.5" transform="rotate(16.7143 89.419 150.517)" fill="white"/>
</clipPath>
</defs>
</svg>
