<svg width="311" height="311" viewBox="0 0 311 311" fill="none" xmlns="http://www.w3.org/2000/svg">
<g clip-path="url(#clip0_25_252)">
<rect x="70.0431" width="250" height="250" rx="47" transform="rotate(16.2705 70.0431 0)" fill="#FFDADA"/>
<path d="M297.639 100.802L287.112 101.851L283.067 61.2477C278.235 12.7495 239.488 -21.7384 189.486 -16.7566C139.484 -11.7747 109.13 30.3573 113.887 78.1036L117.895 118.331C117.933 118.707 117.933 118.707 117.895 118.331L107.368 119.38C84.0592 121.702 67.1343 142.373 69.1182 166.095L81.7788 293.168C84.1011 316.477 104.772 333.402 128.494 331.418L318.728 312.465C342.037 310.142 358.962 289.472 356.978 265.749L344.317 138.676C341.995 115.367 320.948 98.4797 297.639 100.802ZM138.986 116.609L134.941 76.006C131.345 39.9143 153.236 8.11758 191.584 4.29692C229.555 0.51372 258.343 26.5017 262.014 63.3453L266.021 103.573C266.059 103.949 266.059 103.949 266.021 103.573L138.949 116.233C138.986 116.609 138.986 116.609 138.986 116.609ZM335.548 267.884C336.71 279.539 328.247 289.874 316.593 291.035L126.359 309.989C114.705 311.15 104.369 302.688 103.208 291.033L90.5476 163.96C89.3864 152.306 97.8489 141.97 109.503 140.809L299.737 121.856C311.391 120.694 321.727 129.157 322.888 140.811L335.548 267.884ZM232.004 192.771C232.791 200.666 229.329 207.845 223.313 212.242L226.759 246.83C227.358 252.845 222.92 257.843 217.281 258.405C211.265 259.004 206.267 254.567 205.705 248.927L202.259 214.339C195.493 211.217 190.684 204.861 189.897 196.966C188.736 185.312 197.198 174.976 208.853 173.815C220.47 172.278 230.805 180.741 232.004 192.771Z" fill="black" fill-opacity="0.1"/>
<path d="M103.694 110.511C101.329 109.821 99.3177 108.717 97.6603 107.2C96.003 105.683 94.884 103.806 94.3033 101.57C93.7225 99.3338 93.8625 96.7412 94.7232 93.7922L100.506 73.9788L106.726 75.7943L100.93 95.6538C100.464 97.2511 100.331 98.679 100.53 99.9372C100.739 101.165 101.258 102.183 102.089 102.992C102.95 103.81 104.072 104.421 105.454 104.825C106.867 105.237 108.141 105.325 109.277 105.09C110.443 104.864 111.444 104.289 112.28 103.367C113.125 102.413 113.78 101.138 114.247 99.5403L120.043 79.6809L126.263 81.4964L120.481 101.31C119.62 104.259 118.328 106.515 116.605 108.079C114.882 109.643 112.883 110.61 110.608 110.979C108.364 111.358 106.06 111.202 103.694 110.511ZM120.009 114.673L126.787 91.4498L132.27 93.0501L131.628 96.963C132.711 95.879 134.015 95.1259 135.538 94.7038C137.092 94.2907 138.775 94.3486 140.587 94.8775C142.523 95.4423 144.034 96.3169 145.122 97.5011C146.21 98.6853 146.867 100.144 147.095 101.877C147.353 103.619 147.155 105.612 146.501 107.854L142.587 121.263L136.413 119.46L140.151 106.651C140.689 104.808 140.702 103.278 140.191 102.062C139.71 100.855 138.655 100.014 137.027 99.5386C135.982 99.2338 134.974 99.2061 134.001 99.4555C133.059 99.7139 132.223 100.237 131.493 101.024C130.772 101.78 130.224 102.803 129.847 104.094L126.23 116.488L120.009 114.673ZM145.683 122.166L155.366 88.9902L161.586 90.8057L151.903 123.982L145.683 122.166ZM166.008 128.698C163.796 128.053 161.947 126.963 160.461 125.429C159.015 123.874 158.035 122.037 157.519 119.92C157.043 117.781 157.151 115.529 157.841 113.164C158.549 110.737 159.675 108.765 161.217 107.249C162.8 105.711 164.63 104.695 166.707 104.201C168.794 103.677 170.943 103.737 173.155 104.383C175.397 105.037 177.241 106.142 178.687 107.698C180.173 109.231 181.154 111.068 181.63 113.207C182.145 115.324 182.053 117.58 181.354 119.976C180.655 122.372 179.514 124.34 177.931 125.878C176.389 127.394 174.574 128.415 172.488 128.939C170.41 129.433 168.25 129.353 166.008 128.698ZM167.581 123.307C168.626 123.612 169.619 123.635 170.561 123.377C171.534 123.127 172.399 122.563 173.155 121.684C173.943 120.813 174.556 119.626 174.995 118.121C175.435 116.615 175.552 115.3 175.347 114.173C175.182 113.025 174.757 112.084 174.071 111.35C173.425 110.595 172.595 110.07 171.581 109.774C170.598 109.487 169.616 109.483 168.634 109.764C167.661 110.013 166.781 110.573 165.994 111.443C165.246 112.292 164.652 113.468 164.213 114.974C163.774 116.479 163.637 117.806 163.802 118.954C163.997 120.111 164.423 121.052 165.078 121.776C165.764 122.51 166.598 123.02 167.581 123.307ZM191.643 136.18C189.309 135.499 187.387 134.371 185.88 132.798C184.372 131.225 183.376 129.384 182.891 127.275C182.407 125.167 182.505 122.946 183.186 120.611C183.886 118.215 185.007 116.259 186.549 114.742C188.101 113.195 189.935 112.164 192.053 111.648C194.179 111.102 196.409 111.17 198.744 111.851C201.723 112.721 203.998 114.235 205.569 116.393C207.139 118.552 207.801 121.078 207.556 123.974L200.967 122.051C201.005 120.895 200.667 119.88 199.956 119.005C199.275 118.14 198.336 117.532 197.138 117.183C196.063 116.869 195.014 116.863 193.993 117.165C193.011 117.445 192.122 118.036 191.326 118.937C190.569 119.816 189.984 120.962 189.572 122.375C189.258 123.45 189.114 124.458 189.139 125.399C189.174 126.309 189.347 127.143 189.659 127.901C189.98 128.628 190.434 129.244 191.02 129.748C191.637 130.261 192.345 130.635 193.144 130.868C193.942 131.101 194.704 131.173 195.43 131.085C196.187 131.006 196.867 130.788 197.471 130.431C198.085 130.043 198.591 129.507 198.99 128.824L205.579 130.747C204.247 133.258 202.318 135.012 199.794 136.009C197.309 136.984 194.592 137.041 191.643 136.18ZM220.991 144.146L214.796 128.537L226.755 120.627L234.082 122.765L218.776 132.548L220.214 127.618L228.732 146.405L220.991 144.146ZM205.785 139.708L215.468 106.532L221.689 108.347L212.006 141.523L205.785 139.708ZM87.931 127.187C87.2526 126.989 86.6873 126.713 86.2351 126.358C85.7995 125.995 85.5118 125.529 85.3722 124.961C85.2363 124.379 85.2935 123.66 85.5438 122.802L86.7429 118.694L85.0918 118.212L85.725 116.042L87.3761 116.524L88.4318 113.978L90.7356 114.65L89.968 117.281L92.5214 118.026L91.8882 120.195L89.3348 119.45L88.1244 123.597C87.9974 124.032 88.0056 124.361 88.1491 124.583C88.2925 124.806 88.5946 124.984 89.0554 125.119L90.3225 125.489L89.6781 127.697L87.931 127.187ZM90.7267 128.003L93.5508 118.326L95.8547 118.999L95.5832 120.857C95.9368 120.502 96.3294 120.228 96.7609 120.034C97.2052 119.844 97.6756 119.732 98.1722 119.696C98.6815 119.664 99.2114 119.728 99.7618 119.889L98.9605 122.634L98.0773 122.377C97.6933 122.265 97.3219 122.205 96.9629 122.197C96.6168 122.194 96.2923 122.259 95.9893 122.392C95.6901 122.513 95.426 122.728 95.1972 123.036C94.9683 123.344 94.7773 123.761 94.6242 124.286L93.3186 128.759L90.7267 128.003ZM100.973 131.243C100.192 131.015 99.5667 130.659 99.097 130.175C98.6437 129.681 98.3614 129.078 98.2501 128.365C98.1425 127.639 98.225 126.809 98.4977 125.875L100.14 120.249L102.731 121.006L101.168 126.362C100.94 127.143 100.928 127.779 101.132 128.269C101.349 128.763 101.797 129.109 102.476 129.307C102.911 129.434 103.323 129.45 103.712 129.355C104.104 129.247 104.45 129.036 104.751 128.721C105.068 128.396 105.306 127.959 105.467 127.409L106.974 122.244L109.547 122.995L106.723 132.671L104.457 132.01L104.706 130.374C104.264 130.842 103.719 131.162 103.071 131.335C102.427 131.494 101.728 131.463 100.973 131.243ZM108.109 133.076L110.933 123.4L113.218 124.066L113.054 125.414C113.496 125.043 114.005 124.796 114.583 124.673C115.177 124.541 115.8 124.57 116.453 124.761C116.94 124.903 117.356 125.094 117.703 125.334C118.049 125.574 118.334 125.858 118.558 126.187C118.794 126.52 118.954 126.9 119.038 127.327C119.549 126.907 120.136 126.634 120.798 126.508C121.46 126.382 122.13 126.417 122.808 126.615C123.653 126.862 124.306 127.24 124.769 127.75C125.235 128.247 125.515 128.857 125.61 129.579C125.718 130.305 125.635 131.135 125.362 132.069L123.737 137.637L121.165 136.886L122.722 131.549C122.946 130.781 122.965 130.147 122.777 129.648C122.602 129.153 122.201 128.813 121.574 128.63C121.165 128.511 120.77 128.507 120.39 128.618C120.01 128.73 119.675 128.951 119.384 129.283C119.105 129.618 118.887 130.055 118.731 130.592L117.229 135.738L114.637 134.981L116.195 129.644C116.419 128.876 116.437 128.242 116.249 127.743C116.062 127.244 115.648 126.901 115.008 126.714C114.611 126.598 114.223 126.596 113.843 126.707C113.476 126.822 113.147 127.046 112.856 127.378C112.577 127.713 112.36 128.149 112.203 128.687L110.701 133.832L108.109 133.076ZM123.799 142.239L127.856 128.339L130.159 129.011L130.055 130.439C130.342 130.217 130.66 130.032 131.009 129.884C131.361 129.723 131.75 129.628 132.175 129.599C132.617 129.562 133.1 129.619 133.625 129.772C134.534 130.038 135.268 130.495 135.829 131.145C136.389 131.794 136.756 132.561 136.928 133.445C137.117 134.32 137.07 135.243 136.786 136.216C136.502 137.189 136.043 137.999 135.41 138.648C134.78 139.284 134.056 139.718 133.237 139.951C132.419 140.185 131.569 140.173 130.685 139.915C129.969 139.706 129.385 139.397 128.935 138.988C128.502 138.569 128.186 138.081 127.987 137.523L126.391 142.995L123.799 142.239ZM130.732 137.47C131.244 137.62 131.726 137.635 132.177 137.517C132.641 137.402 133.044 137.166 133.384 136.807C133.725 136.448 133.976 135.993 134.137 135.443C134.297 134.892 134.33 134.374 134.236 133.888C134.146 133.39 133.936 132.967 133.606 132.621C133.293 132.266 132.88 132.014 132.369 131.864C131.869 131.718 131.386 131.709 130.918 131.837C130.467 131.955 130.064 132.192 129.711 132.547C129.37 132.906 129.119 133.36 128.959 133.911C128.798 134.461 128.763 134.986 128.853 135.484C128.961 135.974 129.172 136.39 129.489 136.732C129.819 137.079 130.233 137.325 130.732 137.47ZM139.827 142.333L142.651 132.657L144.935 133.323L144.668 134.954C145.119 134.502 145.662 134.188 146.297 134.013C146.944 133.84 147.646 133.865 148.401 134.085C149.207 134.32 149.837 134.685 150.29 135.178C150.744 135.671 151.018 136.279 151.112 137.001C151.22 137.727 151.137 138.557 150.865 139.492L149.234 145.079L146.661 144.328L148.219 138.99C148.443 138.223 148.449 137.585 148.236 137.078C148.035 136.576 147.596 136.225 146.917 136.027C146.482 135.9 146.062 135.888 145.657 135.992C145.264 136.1 144.916 136.318 144.612 136.646C144.311 136.961 144.083 137.387 143.926 137.925L142.418 143.089L139.827 142.333ZM154.066 146.739C153.285 146.511 152.66 146.155 152.19 145.671C151.737 145.177 151.455 144.574 151.344 143.861C151.236 143.135 151.318 142.305 151.591 141.371L153.233 135.745L155.825 136.502L154.262 141.858C154.034 142.639 154.022 143.274 154.226 143.765C154.443 144.259 154.891 144.604 155.569 144.802C156.004 144.929 156.416 144.946 156.805 144.851C157.198 144.743 157.544 144.532 157.844 144.216C158.161 143.892 158.4 143.455 158.561 142.905L160.068 137.74L162.641 138.491L159.816 148.167L157.551 147.506L157.799 145.87C157.357 146.338 156.812 146.658 156.165 146.831C155.521 146.99 154.821 146.959 154.066 146.739ZM165.436 150.057C164.553 149.8 163.823 149.35 163.246 148.71C162.682 148.073 162.313 147.313 162.141 146.429C161.968 145.545 162.022 144.623 162.302 143.663C162.59 142.678 163.042 141.865 163.659 141.226C164.293 140.577 165.025 140.138 165.856 139.909C166.704 139.67 167.569 139.679 168.452 139.937C169.143 140.139 169.714 140.444 170.164 140.853C170.614 141.263 170.93 141.751 171.112 142.318L172.686 136.923L175.278 137.679L171.244 151.502L168.94 150.83L169.039 149.421C168.768 149.634 168.45 149.819 168.085 149.976C167.732 150.137 167.337 150.23 166.899 150.255C166.461 150.28 165.974 150.214 165.436 150.057ZM166.712 147.971C167.224 148.121 167.705 148.136 168.156 148.018C168.624 147.891 169.029 147.647 169.369 147.289C169.71 146.93 169.961 146.475 170.122 145.925C170.282 145.374 170.315 144.856 170.221 144.37C170.127 143.884 169.915 143.468 169.585 143.122C169.272 142.767 168.86 142.515 168.348 142.365C167.862 142.223 167.384 142.216 166.917 142.343C166.453 142.458 166.044 142.693 165.69 143.048C165.349 143.407 165.1 143.855 164.944 144.393C164.779 144.956 164.744 145.48 164.838 145.966C164.946 146.456 165.156 146.878 165.469 147.233C165.798 147.58 166.212 147.826 166.712 147.971ZM177.21 153.494C176.238 153.21 175.433 152.753 174.798 152.123C174.179 151.484 173.766 150.732 173.561 149.866C173.371 148.991 173.421 148.061 173.708 147.076C174.003 146.064 174.468 145.235 175.102 144.586C175.752 143.929 176.512 143.491 177.381 143.272C178.254 143.041 179.183 143.069 180.169 143.357C181.129 143.637 181.906 144.093 182.499 144.724C183.093 145.356 183.483 146.088 183.671 146.921C183.858 147.753 183.819 148.624 183.554 149.533C183.517 149.661 183.474 149.808 183.425 149.974C183.381 150.128 183.321 150.284 183.247 150.443L175.394 148.151L175.854 146.577L181.134 148.118C181.278 147.479 181.198 146.921 180.893 146.443C180.601 145.969 180.154 145.644 179.553 145.469C179.117 145.342 178.684 145.326 178.253 145.423C177.826 145.506 177.444 145.721 177.107 146.067C176.783 146.417 176.529 146.906 176.346 147.533L176.183 148.09C176.03 148.614 175.992 149.103 176.068 149.556C176.161 150 176.354 150.383 176.649 150.705C176.948 151.014 177.334 151.238 177.808 151.376C178.281 151.515 178.701 151.526 179.068 151.411C179.448 151.3 179.761 151.106 180.008 150.831L182.658 151.604C182.303 152.154 181.844 152.61 181.279 152.973C180.715 153.336 180.084 153.569 179.388 153.671C178.691 153.773 177.965 153.714 177.21 153.494ZM186.917 156.327C186.033 156.069 185.307 155.704 184.736 155.232C184.165 154.76 183.767 154.22 183.542 153.613C183.316 153.005 183.27 152.38 183.401 151.738L185.974 152.489C185.967 152.751 186.011 153.007 186.104 153.256C186.202 153.493 186.362 153.706 186.584 153.896C186.807 154.086 187.097 154.233 187.455 154.338C187.801 154.439 188.096 154.476 188.339 154.45C188.587 154.411 188.786 154.324 188.937 154.187C189.101 154.054 189.209 153.898 189.261 153.719C189.34 153.45 189.323 153.223 189.21 153.038C189.101 152.839 188.913 152.652 188.645 152.477C188.376 152.301 188.044 152.107 187.648 151.894C187.213 151.67 186.791 151.429 186.38 151.17C185.986 150.902 185.646 150.615 185.36 150.31C185.074 150.004 184.876 149.661 184.764 149.282C184.653 148.902 184.666 148.475 184.805 148.002C184.973 147.426 185.276 146.958 185.714 146.6C186.155 146.229 186.71 145.995 187.377 145.898C188.044 145.801 188.794 145.874 189.626 146.117C190.79 146.457 191.635 146.988 192.161 147.711C192.686 148.434 192.878 149.274 192.737 150.233L190.299 149.522C190.308 149.205 190.202 148.924 189.982 148.679C189.778 148.425 189.459 148.235 189.024 148.108C188.563 147.973 188.187 147.954 187.895 148.049C187.603 148.145 187.418 148.327 187.34 148.596C187.287 148.775 187.317 148.957 187.43 149.143C187.555 149.332 187.75 149.521 188.015 149.709C188.283 149.885 188.615 150.079 189.011 150.292C189.709 150.662 190.309 151.032 190.813 151.401C191.32 151.757 191.679 152.168 191.891 152.632C192.106 153.084 192.113 153.656 191.911 154.347C191.732 154.961 191.405 155.463 190.93 155.852C190.459 156.229 189.877 156.462 189.185 156.551C188.505 156.644 187.749 156.57 186.917 156.327Z" fill="black"/>
<g clip-path="url(#clip1_25_252)">
<rect x="89.4193" y="150.517" width="117" height="57" rx="28.5" transform="rotate(16.7143 89.4193 150.517)" fill="#F27D7D"/>
<path d="M110.986 198.115C108.82 197.464 107.337 196.395 106.536 194.907C105.741 193.399 105.685 191.511 106.366 189.243L107.617 185.075C109.518 185.646 111.045 186.049 112.199 186.284C113.36 186.499 114.252 186.533 114.875 186.386C115.525 186.224 116.033 185.831 116.399 185.206C116.785 184.587 117.147 183.716 117.484 182.592L118.782 178.27L122.674 179.439L121.404 183.669C121.006 184.997 120.513 186.118 119.926 187.034C119.346 187.929 118.63 188.605 117.78 189.062C116.956 189.505 115.954 189.728 114.773 189.73C113.598 189.711 112.224 189.465 110.651 188.993L110.089 190.862C109.801 191.823 109.769 192.671 109.994 193.406C110.224 194.122 110.851 194.633 111.872 194.939C112.853 195.234 113.634 195.156 114.214 194.707C114.794 194.258 115.235 193.532 115.536 192.531L119.336 193.672C118.688 195.683 117.653 197.087 116.233 197.886C114.819 198.664 113.07 198.74 110.986 198.115ZM107.545 181.979L108.336 179.344L124.733 184.267L123.941 186.903L107.545 181.979ZM109.082 176.861L109.938 174.011L126.334 178.935L125.478 181.785L109.082 176.861ZM123.914 201.596L128.93 184.893L124.826 184.763L125.82 181.453L132.134 180.676L134.647 181.431L128.205 202.884L123.914 201.596ZM137.756 206.153C136.265 205.706 135.084 205.039 134.214 204.154C133.35 203.249 132.773 202.24 132.483 201.129C132.213 200.023 132.18 198.91 132.382 197.791L136.244 198.95C136.158 199.904 136.327 200.713 136.752 201.375C137.204 202.023 137.899 202.488 138.839 202.77C139.718 203.034 140.55 203.005 141.337 202.685C142.151 202.35 142.898 201.717 143.578 200.785C144.265 199.833 144.862 198.587 145.369 197.046C145.388 196.985 145.406 196.924 145.424 196.862C145.443 196.801 145.458 196.75 145.47 196.709C145.025 197.154 144.459 197.519 143.772 197.803C143.092 198.066 142.367 198.216 141.599 198.253C140.851 198.296 140.089 198.2 139.312 197.967C138.148 197.617 137.13 197 136.26 196.115C135.39 195.23 134.795 194.171 134.474 192.939C134.154 191.707 134.208 190.376 134.638 188.946C135.03 187.638 135.709 186.527 136.674 185.614C137.638 184.701 138.781 184.086 140.101 183.77C141.427 183.433 142.826 183.486 144.297 183.928C145.931 184.418 147.211 185.126 148.137 186.05C149.062 186.973 149.702 188.034 150.055 189.232C150.428 190.435 150.571 191.703 150.483 193.035C150.421 194.353 150.2 195.646 149.82 196.913C149.102 199.303 148.139 201.286 146.931 202.861C145.749 204.422 144.378 205.502 142.817 206.103C141.262 206.683 139.575 206.7 137.756 206.153ZM141.342 194.768C142.078 194.989 142.768 195.029 143.411 194.888C144.075 194.753 144.651 194.469 145.137 194.036C145.65 193.589 146.011 193.018 146.22 192.323C146.434 191.608 146.451 190.923 146.269 190.267C146.108 189.617 145.784 189.063 145.298 188.605C144.818 188.127 144.21 187.777 143.474 187.556C142.759 187.342 142.07 187.302 141.406 187.436C140.741 187.571 140.166 187.855 139.68 188.288C139.214 188.727 138.873 189.304 138.659 190.019C138.444 190.734 138.407 191.414 138.548 192.058C138.715 192.687 139.039 193.241 139.519 193.719C139.999 194.197 140.607 194.547 141.342 194.768ZM155.372 211.443C153.88 210.995 152.699 210.329 151.829 209.444C150.965 208.538 150.388 207.53 150.098 206.418C149.829 205.313 149.795 204.2 149.998 203.08L153.86 204.24C153.773 205.194 153.943 206.002 154.368 206.665C154.819 207.312 155.515 207.777 156.455 208.06C157.333 208.323 158.166 208.295 158.953 207.974C159.766 207.64 160.513 207.006 161.194 206.075C161.881 205.123 162.478 203.876 162.985 202.336C163.003 202.275 163.021 202.213 163.04 202.152C163.058 202.091 163.074 202.04 163.086 201.999C162.64 202.444 162.074 202.809 161.388 203.093C160.707 203.356 159.983 203.506 159.214 203.543C158.466 203.585 157.704 203.49 156.928 203.257C155.763 202.907 154.746 202.29 153.876 201.405C153.005 200.52 152.41 199.461 152.09 198.229C151.769 196.997 151.824 195.665 152.253 194.235C152.646 192.928 153.324 191.817 154.289 190.904C155.254 189.991 156.396 189.376 157.716 189.06C159.043 188.723 160.441 188.775 161.912 189.217C163.547 189.708 164.827 190.415 165.752 191.339C166.678 192.263 167.317 193.324 167.67 194.521C168.044 195.725 168.186 196.993 168.098 198.325C168.037 199.643 167.816 200.935 167.435 202.202C166.717 204.593 165.754 206.576 164.546 208.151C163.365 209.711 161.993 210.792 160.432 211.392C158.877 211.972 157.19 211.989 155.372 211.443ZM158.958 200.057C159.693 200.278 160.383 200.318 161.027 200.178C161.691 200.043 162.266 199.759 162.753 199.326C163.266 198.879 163.626 198.308 163.835 197.613C164.05 196.898 164.066 196.212 163.885 195.556C163.723 194.906 163.4 194.353 162.913 193.895C162.433 193.416 161.825 193.067 161.09 192.846C160.375 192.631 159.685 192.591 159.021 192.726C158.357 192.861 157.782 193.144 157.295 193.578C156.829 194.017 156.489 194.594 156.274 195.309C156.059 196.024 156.022 196.704 156.163 197.347C156.331 197.977 156.654 198.53 157.134 199.009C157.614 199.487 158.222 199.837 158.958 200.057Z" fill="black"/>
</g>
</g>
<rect x="70.383" y="0.620061" width="249" height="249" rx="46.5" transform="rotate(16.2705 70.383 0.620061)" stroke="black"/>
<defs>
<clipPath id="clip0_25_252">
<rect x="70.0431" width="250" height="250" rx="47" transform="rotate(16.2705 70.0431 0)" fill="white"/>
</clipPath>
<clipPath id="clip1_25_252">
<rect x="89.4193" y="150.517" width="117" height="57" rx="28.5" transform="rotate(16.7143 89.4193 150.517)" fill="white"/>
</clipPath>
</defs>
</svg>
