<svg width="337" height="337" viewBox="0 0 337 337" fill="none" xmlns="http://www.w3.org/2000/svg">
<g clip-path="url(#clip0_25_298)">
<rect y="114.56" width="250" height="250" rx="47" transform="rotate(-27.2737 0 114.56)" fill="#DEFFE3"/>
<path d="M98.6058 173.172C94.1616 175.463 89.7912 176.479 85.4944 176.219C81.1747 175.914 77.1873 174.454 73.5322 171.838C69.8542 169.178 66.7895 165.47 64.3379 160.715C61.8634 155.915 60.62 151.212 60.6078 146.606C60.5726 141.955 61.772 137.68 64.206 133.781C66.64 129.882 70.3013 126.673 75.1899 124.152C80.6562 121.334 85.8651 120.308 90.8166 121.074C95.8126 121.818 100.047 124.247 103.519 128.364L93.4532 133.553C91.7326 131.853 89.6634 130.894 87.2456 130.678C84.8494 130.395 82.2291 130.986 79.3848 132.453C76.3628 134.011 74.1289 136.006 72.6831 138.439C71.2372 140.872 70.5774 143.575 70.7037 146.548C70.8299 149.52 71.7522 152.673 73.4706 156.006C75.2119 159.384 77.2452 161.964 79.5706 163.747C81.896 165.529 84.4016 166.516 87.0874 166.706C89.7948 166.829 92.5484 166.169 95.3482 164.726C99.4368 162.618 101.964 159.936 102.93 156.682C103.918 153.36 103.707 149.841 102.296 146.124L90.8306 152.035L87.3594 145.302L107.891 134.717L121.192 160.515L112.859 164.811L109.134 159.222C108.912 161.192 108.398 163.032 107.592 164.742C106.807 166.384 105.674 167.896 104.193 169.279C102.735 170.706 100.872 172.003 98.6058 173.172ZM141.691 150.959C138.491 152.609 135.224 153.365 131.891 153.227C128.578 153.022 125.491 151.998 122.628 150.155C119.787 148.245 117.484 145.578 115.72 142.156C113.91 138.645 113.062 135.201 113.177 131.823C113.313 128.377 114.292 125.257 116.114 122.461C117.912 119.621 120.411 117.377 123.611 115.727C126.855 114.054 130.134 113.321 133.446 113.526C136.779 113.663 139.867 114.687 142.708 116.598C145.571 118.441 147.896 121.096 149.683 124.562C151.47 128.028 152.296 131.484 152.159 134.93C152.045 138.308 151.088 141.417 149.289 144.257C147.468 147.052 144.935 149.286 141.691 150.959ZM137.67 143.16C139.181 142.381 140.331 141.338 141.12 140.031C141.953 138.701 142.325 137.131 142.235 135.321C142.19 133.488 141.606 131.482 140.484 129.305C139.361 127.127 138.078 125.511 136.633 124.455C135.211 123.332 133.716 122.724 132.15 122.632C130.605 122.472 129.099 122.77 127.632 123.526C126.21 124.26 125.094 125.313 124.283 126.687C123.45 128.017 123.056 129.599 123.101 131.432C123.168 133.198 123.762 135.169 124.885 137.347C126.008 139.525 127.28 141.175 128.703 142.298C130.17 143.398 131.665 144.005 133.187 144.121C134.753 144.213 136.248 143.893 137.67 143.16ZM173.845 134.381C171.046 135.825 168.506 136.572 166.225 136.623C163.922 136.629 161.936 136.105 160.269 135.053C158.622 133.932 157.318 132.439 156.356 130.573C155.302 128.528 154.885 126.465 155.105 124.382C155.37 122.277 156.317 120.242 157.948 118.276C159.623 116.287 162.06 114.468 165.26 112.819L173.593 108.523C172.745 106.878 171.824 105.637 170.83 104.8C169.812 103.918 168.7 103.451 167.491 103.399C166.283 103.347 164.901 103.721 163.346 104.523C161.657 105.394 160.408 106.516 159.597 107.891C158.808 109.197 158.67 110.675 159.182 112.323L150.45 116.826C149.435 114.311 149.147 111.844 149.587 109.423C150.048 106.935 151.137 104.63 152.855 102.506C154.618 100.36 156.877 98.5767 159.632 97.1562C162.787 95.5294 165.796 94.6536 168.656 94.5288C171.517 94.404 174.085 95.0207 176.361 96.379C178.636 97.7374 180.53 99.8831 182.042 102.816L192.765 123.615L185.166 127.533L181.519 122.915C181.489 124.056 181.323 125.154 181.023 126.209C180.723 127.263 180.266 128.287 179.652 129.278C179.039 130.27 178.245 131.185 177.271 132.025C176.321 132.909 175.179 133.694 173.845 134.381ZM172.404 126.349C173.56 125.753 174.479 125.026 175.161 124.168C175.866 123.242 176.368 122.252 176.668 121.198C176.945 120.098 177.021 118.99 176.895 117.874C176.791 116.69 176.519 115.508 176.08 114.328L176.045 114.262L169.179 117.802C167.801 118.512 166.76 119.274 166.054 120.088C165.37 120.834 164.989 121.621 164.909 122.45C164.83 123.278 164.997 124.092 165.409 124.892C165.867 125.781 166.446 126.411 167.143 126.783C167.841 127.154 168.648 127.301 169.564 127.223C170.48 127.144 171.427 126.853 172.404 126.349ZM197.161 121.349L172.416 73.352L181.415 68.7123L206.16 116.709L197.161 121.349Z" fill="black"/>
<path d="M253.839 201.339C253.839 212.712 250.467 223.829 244.149 233.284C237.83 242.74 228.85 250.11 218.343 254.462C207.837 258.814 196.275 259.953 185.121 257.734C173.968 255.516 163.722 250.039 155.68 241.998C147.639 233.956 142.163 223.711 139.944 212.557C137.725 201.403 138.864 189.842 143.216 179.335C147.568 168.828 154.938 159.848 164.394 153.53C173.85 147.211 184.967 143.839 196.339 143.839V201.339H253.839Z" fill="#69C476"/>
<circle cx="196.771" cy="201.339" r="41.5038" fill="white"/>
<path d="M178.633 221.027L178.758 202.532L178.697 202.409L169.994 206.734L168.446 203.619L181.091 197.335L182.661 200.494L182.566 219.073L178.633 221.027ZM197.385 212.016C196.141 212.634 194.919 212.957 193.718 212.983C192.522 213.006 191.44 212.758 190.472 212.237C189.504 211.716 188.75 210.942 188.21 209.915L191.906 208.079C192.294 208.757 192.869 209.177 193.63 209.34C194.391 209.503 195.147 209.398 195.898 209.025C196.496 208.727 196.959 208.333 197.285 207.842C197.614 207.342 197.79 206.79 197.812 206.186C197.837 205.574 197.695 204.957 197.386 204.335C197.071 203.702 196.659 203.212 196.15 202.865C195.647 202.515 195.094 202.322 194.491 202.285C193.887 202.248 193.282 202.377 192.675 202.672C192.147 202.934 191.688 203.298 191.297 203.762C190.912 204.224 190.675 204.711 190.586 205.224L186.897 206.3L183.028 196.373L194.044 190.898L195.592 194.013L187.717 197.927L189.494 202.673L189.599 202.62C189.695 202.017 189.989 201.41 190.483 200.799C190.976 200.188 191.619 199.685 192.411 199.292C193.496 198.753 194.591 198.527 195.695 198.614C196.799 198.702 197.819 199.069 198.755 199.716C199.688 200.357 200.439 201.257 201.007 202.415C201.616 203.627 201.871 204.846 201.772 206.073C201.675 207.292 201.253 208.423 200.506 209.467C199.763 210.502 198.722 211.352 197.385 212.016ZM213.101 199.686L212.629 198.736C212.27 198.014 212.094 197.275 212.098 196.52C212.106 195.755 212.313 195.045 212.719 194.39C213.128 193.726 213.757 193.183 214.608 192.76C215.47 192.332 216.285 192.153 217.052 192.226C217.826 192.295 218.513 192.56 219.116 193.022C219.721 193.474 220.204 194.064 220.566 194.792L221.038 195.742C221.397 196.463 221.575 197.205 221.573 197.967C221.568 198.723 221.36 199.429 220.948 200.088C220.539 200.752 219.91 201.295 219.059 201.718C218.197 202.146 217.381 202.321 216.61 202.243C215.843 202.171 215.157 201.909 214.551 201.456C213.943 200.998 213.46 200.408 213.101 199.686ZM215.19 197.463L215.662 198.414C215.869 198.83 216.164 199.174 216.547 199.444C216.936 199.712 217.397 199.713 217.931 199.447C218.465 199.182 218.738 198.82 218.751 198.36C218.77 197.897 218.673 197.451 218.46 197.023L217.988 196.073C217.775 195.645 217.483 195.292 217.111 195.016C216.74 194.74 216.279 194.739 215.727 195.013C215.199 195.275 214.925 195.642 214.903 196.114C214.881 196.585 214.977 197.035 215.19 197.463ZM198.729 193.969L198.256 193.019C197.895 192.291 197.72 191.548 197.73 190.789C197.738 190.025 197.945 189.315 198.351 188.66C198.762 188.002 199.388 187.464 200.227 187.047C201.095 186.616 201.913 186.436 202.68 186.508C203.447 186.581 204.135 186.846 204.743 187.305C205.348 187.757 205.832 188.347 206.193 189.075L206.666 190.025C207.027 190.752 207.202 191.495 207.192 192.254C207.187 193.01 206.979 193.717 206.567 194.375C206.158 195.024 205.526 195.562 204.669 195.987C203.813 196.413 202.998 196.591 202.225 196.522C201.454 196.444 200.768 196.181 200.166 195.735C199.566 195.279 199.087 194.69 198.729 193.969ZM200.835 191.737L201.307 192.688C201.52 193.116 201.816 193.462 202.196 193.727C202.582 193.989 203.034 193.991 203.55 193.735C204.089 193.467 204.366 193.102 204.379 192.643C204.397 192.18 204.3 191.734 204.087 191.306L203.615 190.356C203.402 189.927 203.11 189.575 202.739 189.299C202.368 189.023 201.903 189.023 201.346 189.3C200.824 189.559 200.556 189.926 200.544 190.401C200.531 190.875 200.628 191.321 200.835 191.737ZM206.694 207.083L210.128 182.906L212.434 181.76L208.999 205.938L206.694 207.083Z" fill="black"/>
</g>
<rect x="0.673534" y="114.776" width="249" height="249" rx="46.5" transform="rotate(-27.2737 0.673534 114.776)" stroke="black"/>
<defs>
<clipPath id="clip0_25_298">
<rect y="114.56" width="250" height="250" rx="47" transform="rotate(-27.2737 0 114.56)" fill="white"/>
</clipPath>
</defs>
</svg>
